<?xml version="1.0" encoding="UTF-8" standalone="no"?>
<!-- Created with Inkscape (http://www.inkscape.org/) -->

<svg
   xmlns:dc="http://purl.org/dc/elements/1.1/"
   xmlns:cc="http://creativecommons.org/ns#"
   xmlns:rdf="http://www.w3.org/1999/02/22-rdf-syntax-ns#"
   xmlns:svg="http://www.w3.org/2000/svg"
   xmlns="http://www.w3.org/2000/svg"
   xmlns:sodipodi="http://sodipodi.sourceforge.net/DTD/sodipodi-0.dtd"
   xmlns:inkscape="http://www.inkscape.org/namespaces/inkscape"
   width="287.37897"
   height="314.47424"
   id="svg3060"
   version="1.1"
   inkscape:version="0.48.2 r9819"
   sodipodi:docname="lamanfuher.svg">
  <title
     id="title3177">fuher</title>
  <defs
     id="defs3062" />
  <sodipodi:namedview
     id="base"
     pagecolor="#ffffff"
     bordercolor="#666666"
     borderopacity="1.0"
     inkscape:pageopacity="0.0"
     inkscape:pageshadow="2"
     inkscape:zoom="1.4"
     inkscape:cx="-42.578733"
     inkscape:cy="131.77069"
     inkscape:document-units="px"
     inkscape:current-layer="layer1"
     showgrid="false"
     inkscape:window-width="1748"
     inkscape:window-height="932"
     inkscape:window-x="20"
     inkscape:window-y="32"
     inkscape:window-maximized="0"
     fit-margin-top="0"
     fit-margin-left="0"
     fit-margin-right="0"
     fit-margin-bottom="0" />
  <metadata
     id="metadata3065">
    <rdf:RDF>
      <cc:Work
         rdf:about="">
        <dc:format>image/svg+xml</dc:format>
        <dc:type
           rdf:resource="http://purl.org/dc/dcmitype/StillImage" />
        <dc:title>fuher</dc:title>
        <dc:creator>
          <cc:Agent>
            <dc:title>henri vesala</dc:title>
          </cc:Agent>
        </dc:creator>
        <dc:publisher>
          <cc:Agent>
            <dc:title>fraktio</dc:title>
          </cc:Agent>
        </dc:publisher>
        <cc:license
           rdf:resource="http://creativecommons.org/licenses/by-nc/3.0/" />
      </cc:Work>
      <cc:License
         rdf:about="http://creativecommons.org/licenses/by-nc/3.0/">
        <cc:permits
           rdf:resource="http://creativecommons.org/ns#Reproduction" />
        <cc:permits
           rdf:resource="http://creativecommons.org/ns#Distribution" />
        <cc:requires
           rdf:resource="http://creativecommons.org/ns#Notice" />
        <cc:requires
           rdf:resource="http://creativecommons.org/ns#Attribution" />
        <cc:prohibits
           rdf:resource="http://creativecommons.org/ns#CommercialUse" />
        <cc:permits
           rdf:resource="http://creativecommons.org/ns#DerivativeWorks" />
      </cc:License>
    </rdf:RDF>
  </metadata>
  <g
     inkscape:label="Layer 1"
     inkscape:groupmode="layer"
     id="layer1"
     transform="translate(-103.8866,-55.29959)">
    <path
       style="fill:#000000"
       d="m 202,367.63795 c -12.06655,-3.7933 -21.19529,-8.48941 -36.95365,-19.01014 -14.49713,-8.65892 -25.4991,-19.67029 -35.35343,-30.6493 -8.20819,-9.1021 -13.08578,-17.26175 -18.17895,-30.41132 -4.21914,-10.89303 -5.72417,-19.16817 -6.98741,-38.41927 -1.14834,-17.49999 -0.81538,-26.25039 1.52205,-40 0.79475,-4.675 1.45532,-9.85 1.46792,-11.5 0.0345,-4.51557 5.30653,-18.5784 10.69616,-28.53143 6.32353,-11.67765 19.61082,-27.60822 28.64265,-34.3406 11.06859,-8.2506 32.49901,-18.88174 44.2089,-21.93103 10.04426,-2.61555 21.93859,-4.72589 28.53364,-5.06255 2.86429,-0.14621 4.77334,-1.30008 9.36275,-5.65902 13.32,-12.651096 19.0026,-22.454636 20.56323,-35.475366 1.17382,-9.79348 2.45834,-12.09776 6.2179,-11.15417 1.97496,0.49568 2.91624,2.10173 5.20424,8.87965 1.53626,4.55099 3.83731,10.34363 5.11344,12.87255 l 2.32023,4.59803 6.02244,-0.91151 c 5.1549,-0.78022 6.68095,-0.62022 10.59393,1.11068 5.63646,2.49327 9.67413,7.387033 6.87021,13.10087 -1.52943,3.116668 -1.58628,2.909629 -5.66728,5.097006 -2.45213,1.31432 -6.38117,2.28532 -6.26759,2.78411 4.72164,5.95689 2.89875,8.44693 4.94579,10.48001 0.90493,1.2023 0.92453,1.34821 10.44417,1.39841 11.43525,0.0603 23.62367,2.19998 35.45522,6.2242 11.72101,3.98662 18.8674,8.23919 24.53849,14.60201 l 4.79454,5.37936 6.51266,-0.60817 c 9.0615,-0.84617 27.69859,2.9217 24.21488,4.89554 -0.46042,0.26087 -3.53713,-0.10945 -6.83713,-0.82293 -8.25411,-1.7846 -22.5,-1.85853 -22.5,-0.11678 0,2.76476 2.76806,4.75355 10,7.18475 9.3377,3.13912 16,6.56832 16,8.23549 0,1.77115 -1.34401,1.59048 -5.23157,-0.70324 -3.08257,-1.81876 -14.88082,-6.02587 -16.8987,-6.02587 -0.47835,0 -0.86973,1.41005 -0.86973,3.13344 0,4.07623 -6.23848,16.38098 -10.60872,20.92459 -1.95522,2.03279 -5.66616,4.3499 -8.65677,5.4053 -2.87898,1.016 -6.20413,2.19995 -7.38922,2.63099 l -2.15471,0.78372 1.9124,3.8653 c 4.18795,8.46461 -1.08232,19.56144 -10.11822,21.30445 -5.91439,1.14088 -16.48863,1.13251 -21.48476,-0.017 -12.63998,-2.90821 -35.84489,-4.47698 -44.56981,-3.01313 -5.66642,0.9507 -6.81048,1.50968 -8.32002,4.06513 -0.96262,1.62958 -2.9562,3.7164 -4.43019,4.63739 -1.47399,0.92098 -2.85344,1.79666 -3.06544,1.94596 -0.212,0.1493 0.3505,1.39466 1.25,2.76748 1.94481,2.96816 2.18471,6.90918 0.38546,6.33223 -0.6875,-0.22046 -2.15,-2.05674 -3.25,-4.08063 -1.1,-2.0239 -2.3375,-3.68102 -2.75,-3.68251 -0.4125,-0.001 -0.75,2.8855 -0.75,6.41551 0,3.53002 -0.22252,7.01752 -0.49449,7.75 -0.39655,1.06802 5.20643,5.83179 6.85915,5.83179 0.21598,0 0.95189,-1.35 1.63534,-3 0.68345,-1.65 1.7756,-3 2.42699,-3 0.6514,0 5.19717,-1.61809 10.10171,-3.59577 l 8.91734,-3.59576 8.02698,2.1703 c 16.39139,4.43182 18.55518,5.20541 19.5005,6.97176 1.57891,2.95021 -5.61723,47.71031 -8.16375,50.77869 -0.57351,0.69103 -2.79033,1.727 -4.92626,2.30215 -2.13593,0.57514 -3.88351,1.4741 -3.88351,1.99768 0,0.52357 -2.05713,2.86873 -4.57141,5.21145 -6.29152,5.86224 -6.86816,7.14185 -4.73142,10.49931 2.68529,4.21939 3.22023,4.38667 11.90754,3.72352 4.69977,-0.35875 9.74119,-0.17291 12,0.44236 7.60379,2.07118 18.87296,12.91813 20.6419,19.86851 1.9003,7.46648 -6.7069,17.35977 -19.01143,21.85213 -5.78189,3.16321 -9.40394,2.17373 -15.5,0.80972 -4.52935,-1.01347 -10.84671,-1.86368 -14.03858,-1.88936 -5.64594,-0.0454 -6.43675,1.58876 -9.40246,4.28701 -6.23097,5.66905 -10.3022,9.10575 -21.15971,11.28989 -16.01781,3.2222 -25.23985,3.31977 -34.63443,0.36644 z m 31.5,-4.35186 c 9.05783,-2.09066 14.54157,-2.79148 19.19266,-8.10739 2.58633,-2.95601 6.27363,-5.79261 9.22854,-7.09942 5.42268,-3.42625 10.54849,-1.09519 16.5,0.0483 6.52438,2.01897 11.10992,2.39 17.25476,0.22423 3.12178,-1.10028 7.31664,-3.28377 9.32191,-4.85221 3.62061,-2.83189 6.99705,-8.53484 6.99705,-11.3759 0,-3.25054 -3.97759,-9.13409 -9.82736,-13.06709 -5.43099,-5.01462 -9.80545,-3.94519 -16.80382,-3.55761 -11.56378,0.64041 -12.72612,0.21185 -16.90635,-6.23354 l -1.5426,-2.37851 -3.13047,3.13047 c -2.67186,2.67186 -3.86241,3.13047 -8.12663,3.13047 -4.87602,0 -14.92969,-2.05417 -20.37444,-4.1629 -5.42672,-2.10176 -4.88077,-8.8379 1.25587,-15.49536 l 4.30256,-4.66773 -4.42084,-1.32183 c -2.43146,-0.727 -5.59947,-1.32865 -7.04002,-1.337 -2.57713,-0.0149 -17.54852,-7.20853 -25.38082,-12.19522 -4.48544,-2.8558 -25.2935,-23.04898 -27.98736,-27.16032 -1.22018,-1.86223 -2.60763,-2.65964 -4.62765,-2.65964 -3.36842,0 -3.76591,-1.45818 -0.82634,-3.03139 3.00196,-1.6066 7.54252,-0.24379 9.47783,2.8447 2.46446,3.93293 26.66457,27.43079 30.05896,29.18669 1.59484,0.825 6.2758,3.37259 10.40213,5.66131 8.37424,4.64487 12.46023,5.30813 21.19075,3.4398 7.70566,-1.64901 11.58768,-4.53257 15.23702,-11.31804 3.75452,-5.29526 2.58212,-6.67505 -0.19387,-12.07524 -3.4011,-6.61624 -10.65916,-13.84525 -17.24084,-17.17185 -1.91985,-0.97035 -4.61563,-2.76806 -5.99063,-3.99491 -1.375,-1.22686 -5.13316,-3.27128 -8.35146,-4.54317 -9.18474,-3.62984 -15.86191,-9.67649 -19.10067,-17.297 -2.60614,-6.13203 -3.10825,-11.20087 -1.10953,-11.20087 0.51608,0 1.99365,2.7 3.28347,6 2.99829,7.67105 8.13303,12.41928 19.08068,17.64437 4.61156,2.20101 8.58276,3.80371 8.82491,3.56156 0.56906,-0.56906 0.75848,-9.65338 0.21266,-10.1992 -0.22833,-0.22833 -2.27585,-0.71269 -4.55004,-1.07635 -3.98998,-0.63802 -4.14638,-0.56076 -4.46246,2.20421 -0.19831,1.73478 -0.91943,2.86541 -1.82756,2.86541 -1.08539,0 -1.41214,-0.87856 -1.18213,-3.1785 0.23932,-2.39308 -0.19425,-3.45257 -1.75462,-4.28765 -2.12872,-1.13926 -7.2685,-10.42953 -8.42399,-15.22658 -0.55821,-2.31739 0.53385,-2.91413 -4.4814,-2.35268 -5.58141,0.62483 -6.41179,-2.70451 -0.95169,-2.80727 5.93044,-0.11161 4.31412,0.76619 5.12412,-9.64732 0.1084,-0.825 0.86594,-1.5 1.68341,-1.5 1.08019,0 1.51339,1.22957 1.58545,4.5 0.0545,2.475 0.16704,5.03218 0.25,5.68261 0.22527,1.76604 4.28006,2.09282 5.19709,0.60904 0.96591,-1.56287 4.29414,-0.41547 3.72732,1.28499 -0.22829,0.68488 -1.05322,1.2911 -1.83316,1.34716 -0.77994,0.0561 -2.43058,0.17047 -3.66808,0.25425 -2.91603,0.1974 -2.87284,2.70337 0.27161,8.90864 1.99173,3.93049 3.34676,7.00886 5.15728,4.0146 1.16813,-1.93186 2.90823,0.16793 2.21757,1.75393 -0.20006,1.9218 0.62612,2.79773 5.84971,2.77709 3.72107,-0.0147 6.80142,0.40031 6.40367,-3.47792 -0.1357,-1.32317 1.74615,-1.45129 2.17882,-0.62662 2.6362,5.02459 7.66963,-1.62943 8.13498,-7.22876 0.2334,-2.80839 2.23285,-5.35656 2.76788,-6.038 1.21815,-1.55152 2.74587,-0.69062 2.74705,1.54801 7.9e-4,1.51386 1.65051,1.69716 15.75,1.74995 11.62413,0.0435 19.15405,0.65034 28.74911,2.31684 20.10146,3.49129 28.92186,1.81369 32.55662,-6.19213 2.4205,-5.33133 2.40829,-6.82292 -0.0818,-9.98853 -1.92023,-2.44119 -2.3812,-2.54472 -8.89786,-1.99838 -4.40942,0.36967 -10.40386,-0.0235 -16.72484,-1.09696 -5.41868,-0.92022 -11.21887,-1.88406 -12.88933,-2.14186 -6.49213,-1.00193 -18.35536,2.58762 -25.66485,7.7656 -0.93612,0.66314 -2.01274,0.895 -2.3925,0.51525 -2.32945,-2.32946 10.97716,-9.46382 20.38245,-10.92808 5.13556,-0.79954 8.67662,-0.65201 16.95925,0.70654 30.4014,4.98657 52.3694,-4.75962 56.13268,-24.9035 1.03012,-5.51396 -0.64378,-8.27966 -4.27892,-7.06984 -4.77024,1.5876 -10.40792,1.60724 -13.42554,0.0468 -4.32473,-2.2364 -5.5416,-2.08351 -19.17538,2.40931 -12.7178,4.19097 -16.44797,4.8439 -15.75243,2.7573 0.58134,-1.74402 16.18101,-7.33041 22.77072,-8.15441 4.89603,-0.61221 5.49695,-0.94545 5.62436,-3.119 0.11716,-1.9988 -0.44048,-2.54294 -3.12147,-3.04589 -3.15789,-0.59243 -23.88894,1.05322 -25.45414,2.02057 -0.42482,0.26255 -1.62619,-0.1496 -2.66972,-0.9159 -1.80495,-1.32543 -1.75127,-1.44954 1.10268,-2.54918 4.76106,-1.83447 39.15846,-1.48731 45.91147,0.46337 l 2.91147,0.84101 -2.91147,-3.67906 c -7.65954,-9.67894 -35.4143,-18.55507 -58.16147,-18.60038 -8.14109,-0.0162 -10.26295,0.19136 -10.28351,1.73157 -0.0379,2.84225 -4.23796,11.41823 -7.29373,13.66825 -2.3982,1.76584 -6.0054,3.44052 -12.53571,3.44903 -4.32706,0.006 -9.07053,-1.83849 -10.35019,-2.53457 -3.79342,-2.06346 -13.79358,-9.46241 -13.29579,-16.5299 0.12933,-1.83613 -4.73527,0.56037 -12.49107,4.65322 -4.675,2.46707 -9.20757,4.49872 -10.07237,4.51477 -0.8648,0.0161 -2.74332,-1.75929 -4.17449,-3.94521 -4.37005,-6.67471 -4.33495,-7.46085 0.46725,-10.4628 L 218,111.03544 210.66034,111.607 c -9.64364,0.75097 -29.40821,7.21301 -41.55075,13.58506 -9.5637,4.15654 -18.86368,9.36214 -25.9405,15.87687 -11.00013,10.25584 -25.32544,31.39479 -27.16046,40.07899 -0.40677,1.925 -1.0917,3.95 -1.52207,4.5 -1.55417,1.98617 -3.98656,11.96152 -3.98656,16.34908 0,2.46735 -0.74552,9.66919 -1.65671,16.00409 -1.45031,10.08302 -1.50833,13.83087 -0.46571,30.08242 0.65505,10.21042 1.81388,21.03941 2.57518,24.06441 3.42013,13.58986 13.73981,34.51962 18.9977,38.53001 9.58585,11.59374 19.99676,23.12894 32.12356,31.25159 14.25956,9.35095 30.28923,17.90734 37.92598,20.24429 3.85,1.17816 7.41484,2.45045 8,2.5406 11.77129,1.81354 17.8843,0.32948 25.5,-1.42832 z m 9.63571,-152.64531 c -1.99716,-1.99717 -2.10771,-3.49286 -0.25815,-3.49286 2.1016,0 4.14477,2.87767 2.91577,4.10667 -0.69587,0.69587 -1.54377,0.50004 -2.65762,-0.61381 z m -12.64677,-2.51353 c -1.34682,-2.51656 -0.47781,-4.09583 1.79309,-3.2586 2.23689,0.8247 3.15962,2.26775 2.51846,3.93859 -0.76337,1.98931 -3.07839,1.6242 -4.31155,-0.67999 z M 245.7,200.94792 c -1.62082,-1.62082 -1.519,-3.8 0.17756,-3.8 1.84566,0 3.95615,2.65103 3.14951,3.9562 -0.84463,1.36664 -1.8515,1.31937 -3.32707,-0.1562 z m 91.80155,-36.05 c 8.6e-4,-1.7875 0.78836,-4.80094 1.75,-6.69654 1.73762,-3.42518 1.79468,-3.44798 9.20861,-3.67913 4.10309,-0.12793 7.75284,-0.0517 8.11056,0.16938 0.99464,0.61472 -1.88266,10.71849 -3.3124,11.63162 -0.69207,0.44202 -1.93332,0.51774 -2.75832,0.16828 -2.32411,-0.98446 -9.15079,-0.59282 -10.33662,0.59301 -1.84326,1.84326 -2.66343,1.16951 -2.66183,-2.18662 z M 257.81722,308.20051 C 257.36775,307.82549 253.85,306.77782 250,305.87236 c -11.39724,-2.68047 -13.5,-2.96693 -13.5,-1.83908 0,1.76709 3.85438,3.23486 11.84736,4.51154 7.42685,1.18626 11.14238,1.05117 9.46986,-0.34431 z m 10.33417,-9.48728 c 2.94174,-2.98908 5.34861,-5.68908 5.34861,-6 0,-0.31092 -1.6875,-0.58134 -3.75,-0.60093 -2.0625,-0.0196 -6.45,-0.68756 -9.75,-1.48438 -3.3,-0.79682 -7.85092,-1.45579 -10.11316,-1.46438 -3.64941,-0.0139 -4.63594,0.54328 -8.75,4.94154 -2.55026,2.72644 -4.63684,5.36437 -4.63684,5.86207 0,0.4977 3.2625,1.20067 7.25,1.56216 3.9875,0.3615 8.6,1.05989 10.25,1.55198 6.57677,1.96146 8.50913,1.36501 14.15139,-4.36806 z m 7.4451,-18.56531 c 0.90361,-4.675 2.37572,-13.675 3.27136,-20 0.89564,-6.325 1.89566,-12.67962 2.22228,-14.12138 0.58796,-2.59536 0.48451,-2.64747 -10.42189,-5.25 -6.05865,-1.44574 -12.5688,-2.62862 -14.46699,-2.62862 -3.04211,0 -3.52307,0.35911 -4.05708,3.02916 -0.48662,2.43307 -0.0554,3.6051 2.19117,5.95595 4.12287,4.3142 8.16466,13.21747 8.16466,17.98518 0,4.90265 -3.58002,12.3585 -7.90675,16.4668 -1.70129,1.6154 -3.09325,3.3029 -3.09325,3.75 0,0.4471 1.6875,0.84912 3.75,0.89339 2.0625,0.0443 5.775,0.67063 8.25,1.39192 2.475,0.7213 5.83955,1.24758 7.47678,1.16953 2.91924,-0.13919 3.00854,-0.30624 4.61971,-8.64193 z m 11.57226,-0.5795 c 0.70993,-3.25628 1.94133,-8.8455 2.73645,-12.4205 2.04022,-9.1733 4.83397,-27.09416 4.3061,-27.62203 -0.24324,-0.24324 -2.48997,0.10543 -4.99273,0.77482 -4.44114,1.18782 -4.56216,1.32677 -5.03633,5.78214 -0.57546,5.40707 -2.24443,17.06221 -4.24186,29.62261 -2.07023,13.0182 -2.15805,12.58623 2.2486,11.06061 3.43547,-1.18939 3.77768,-1.68402 4.97977,-7.19765 z m -1.2158,-40.58102 c 1.40088,-0.63828 2.54705,-1.4561 2.54705,-1.81737 0,-0.74507 -8.18118,-3.42162 -15.18027,-4.96636 -3.91616,-0.86432 -5.38552,-0.72807 -9,0.83455 L 260,234.90574 l 4,0.68221 c 2.2,0.37522 7.15,1.51993 11,2.54379 8.65412,2.30147 7.90772,2.24316 10.95295,0.85566 z m 67.04821,-92.84135 c 0.9434,-1.52646 -4.56173,-3.20935 -8.24075,-2.51916 -3.16278,0.59334 -3.9683,1.4798 -2.59374,2.85436 1.05569,1.0557 10.14873,0.77437 10.83449,-0.3352 z m 5.49884,0.002 c 0,-0.55 -1.0132,-1.59978 -1.59566,-1.59978 -0.58246,0 -0.71777,0.95508 -0.37785,1.50508 0.33992,0.55 1.35312,1.41037 1.59566,1.41037 0.24254,0 0.37785,-0.76567 0.37785,-1.31567 z M 272.8876,131.7485 c 6.43632,-4.68289 10.74022,-20.20527 5.00526,-25.53787 -3.27477,-3.04502 -5.36552,-2.78831 -12.19743,-1.19465 -6.87134,1.60286 -23.28174,8.44144 -22.45052,13.6656 0.93026,5.84661 3.13828,7.92779 7.82841,11.10079 5.50232,3.72248 8.46133,4.91822 13.63571,4.51731 3.13367,-0.2428 6.70489,-1.47897 8.17857,-2.55118 z m -12.83712,-2.16375 c -1.56101,-2.3824 -1.58603,-2.82973 -0.23387,-4.18188 1.68536,-1.68536 4.99658,-1.2228 8.18339,1.14318 2.69348,1.99972 0.92271,4.98872 -3.20162,5.40423 -2.33234,0.23497 -3.3889,-0.29144 -4.7479,-2.36553 z m -2.01307,-43.288029 c -2.24904,-0.109161 -3.95394,-1.082119 -3.81436,-3.55067 2.76358,-10.285582 12.74252,3.25022 3.81436,3.55067 z m 1.11951,-14.430787 c -0.42619,-1.45733 -1.71922,-5.01788 -2.17896,-7.21788 l -0.83588,-4 -0.66277,5.5 c -0.36452,3.025 -0.99931,7.29373 -1.41064,9.48608 -0.37658,2.950298 -1.57406,5.270752 -3.02079,7.78156 -6.67902,11.5914 -19.51627,24.576836 -30.79788,31.153406 -2.6125,1.52295 -4.75,2.93006 -4.75,3.12692 0,1.23701 2.47422,5.45203 3.20035,5.45203 0.48363,0 2.7739,-0.95243 5.08949,-2.11651 2.31559,-1.16408 4.88516,-2.69196 5.71016,-3.39528 0.825,-0.70333 6.675,-3.92328 13,-7.15546 8.76932,-4.48126 25.35603,-14.452046 29.87557,-17.959116 0.20656,-0.16029 -1.02734,-1.4719 -2.742,-2.91469 -1.71466,-1.44279 -3.88654,-3.92503 -4.8264,-5.51609 -2.43154,-3.794551 -3.90397,-8.090277 -5.65025,-12.22497 z m 26.81463,228.236086 c -0.35557,-0.57532 1.13241,-3.83782 3.3066,-7.25 3.33441,-5.23301 4.14974,-7.61253 5.20958,-15.20397 1.34853,-9.65933 2.49375,-12.93849 4.1592,-11.90919 1.52982,0.94548 0.005,17.90412 -2.11564,23.53132 -1.93797,5.1422 -6.88413,11.87779 -8.72227,11.87784 -0.65504,2e-5 -1.4819,-0.47068 -1.83747,-1.046 z m 11.84609,-0.70397 c 0.303,-0.9625 1.23573,-3.55 2.07274,-5.75 0.83701,-2.2 1.54159,-5.52312 1.56573,-7.3847 0.0646,-4.98016 2.22415,-16.41197 3.38685,-17.92849 4.20628,-5.48627 1.21576,23.92412 -3.10774,30.56319 -1.76379,2.70845 -4.73206,3.08729 -3.91758,0.5 z M 295,230.12526 c -8.14435,-3.87013 -17.79927,-5.97721 -27.38839,-5.97721 -11.44256,0 -12.64094,-3.10343 -1.70797,-4.42311 12.67118,-1.52949 40.09841,7.56569 37.1587,12.32224 -0.8931,1.44507 -1.06106,1.40503 -8.06234,-1.92192 z m -4.02778,-9.40158 c -6.47956,-1.94018 -14.72822,-3.60636 -20,-4.03989 -8.71286,-0.71651 -12.02869,-1.82634 -10.90219,-3.64905 0.3014,-0.48768 4.32064,-0.88669 8.93165,-0.88669 6.83723,0 10.28489,0.62555 18.69098,3.39131 12.89734,4.24347 15.80734,5.58167 15.80734,7.26921 0,1.7188 0.39456,1.78446 -12.52778,-2.08489 z"
       id="path3133"
       inkscape:connector-curvature="0"
       sodipodi:nodetypes="cccssssssssssssscssssccssscsssssssssssscsssssssssscsssssscssssssssssccsssccsscccssccscsssscscssssssssccssssssssssssssssscscssscssscsssssssssssssscsssssssssssssscsscssssscsscsccssssssccssssssssssssssssssscsssssssssssscssssssssssssssscssssssssssssssscssssssssssssssssssssssssccccscsccssssssssccsssscssssssssssssssssssss" />
  </g>
</svg>
