<?xml version="1.0" encoding="UTF-8" standalone="no"?>
<!-- Created with Inkscape (http://www.inkscape.org/) -->

<svg
   xmlns:dc="http://purl.org/dc/elements/1.1/"
   xmlns:cc="http://creativecommons.org/ns#"
   xmlns:rdf="http://www.w3.org/1999/02/22-rdf-syntax-ns#"
   xmlns:svg="http://www.w3.org/2000/svg"
   xmlns="http://www.w3.org/2000/svg"
   xmlns:sodipodi="http://sodipodi.sourceforge.net/DTD/sodipodi-0.dtd"
   xmlns:inkscape="http://www.inkscape.org/namespaces/inkscape"
   width="600"
   height="600"
   id="svg3136"
   version="1.1"
   inkscape:version="0.48.2 r9819"
   sodipodi:docname="lamanhuomio.svg">
  <title
     id="title3295">Lamanhuomio</title>
  <defs
     id="defs3138" />
  <sodipodi:namedview
     id="base"
     pagecolor="#ffffff"
     bordercolor="#666666"
     borderopacity="1.0"
     inkscape:pageopacity="0.0"
     inkscape:pageshadow="2"
     inkscape:zoom="0.70710678"
     inkscape:cx="175.6075"
     inkscape:cy="433.71118"
     inkscape:document-units="px"
     inkscape:current-layer="layer1"
     showgrid="false"
     inkscape:window-width="1622"
     inkscape:window-height="1038"
     inkscape:window-x="217"
     inkscape:window-y="53"
     inkscape:window-maximized="0" />
  <metadata
     id="metadata3141">
    <rdf:RDF>
      <cc:Work
         rdf:about="">
        <dc:format>image/svg+xml</dc:format>
        <dc:type
           rdf:resource="http://purl.org/dc/dcmitype/StillImage" />
        <dc:title>Lamanhuomio</dc:title>
        <dc:creator>
          <cc:Agent>
            <dc:title>Henri Vesala</dc:title>
          </cc:Agent>
        </dc:creator>
        <dc:language>FI</dc:language>
        <cc:license
           rdf:resource="http://creativecommons.org/licenses/by-nc-sa/3.0/" />
      </cc:Work>
      <cc:License
         rdf:about="http://creativecommons.org/licenses/by-nc-sa/3.0/">
        <cc:permits
           rdf:resource="http://creativecommons.org/ns#Reproduction" />
        <cc:permits
           rdf:resource="http://creativecommons.org/ns#Distribution" />
        <cc:requires
           rdf:resource="http://creativecommons.org/ns#Notice" />
        <cc:requires
           rdf:resource="http://creativecommons.org/ns#Attribution" />
        <cc:prohibits
           rdf:resource="http://creativecommons.org/ns#CommercialUse" />
        <cc:permits
           rdf:resource="http://creativecommons.org/ns#DerivativeWorks" />
        <cc:requires
           rdf:resource="http://creativecommons.org/ns#ShareAlike" />
      </cc:License>
    </rdf:RDF>
  </metadata>
  <g
     inkscape:label="Layer 1"
     inkscape:groupmode="layer"
     id="layer1"
     transform="translate(0,-452.36218)">
    <path
       style="fill:#000000"
       d="m 146.77026,1040.2849 c -1.87903,-0.5406 -4.0753,-1.2574 -4.88061,-1.5929 -4.69426,-1.9558 -7.61404,-3.3064 -14.5081,-6.7112 -4.22138,-2.0848 -7.76597,-3.7905 -7.87686,-3.7905 -0.49933,0 -6.75833,-3.8726 -8.67562,-5.3678 -4.99389,-3.8947 -12.266684,-14.4609 -14.642517,-21.2733 -3.300806,-9.46462 -2.655152,-16.95381 2.372514,-27.51858 4.884313,-10.26359 5.464333,-11.74529 6.510633,-16.63234 1.00522,-4.69475 1.04158,-5.42787 0.48166,-9.70729 -1.3119,-10.02746 -4.76249,-17.03073 -15.164823,-30.77859 -1.523338,-2.01324 -3.815514,-5.25998 -5.093699,-7.215 -1.278184,-1.95499 -4.448043,-5.79845 -7.044187,-8.54106 -4.692752,-4.95749 -5.7863,-6.35603 -7.524627,-9.62311 -3.162684,-5.94419 -7.550401,-13.00155 -9.21957,-14.82904 -0.74317,-0.8137 -2.167674,-2.80655 -3.165564,-4.42857 -1.992068,-3.23804 -7.338582,-10.60367 -7.999855,-11.02095 -0.496846,-0.31353 -3.377236,-6.5613 -3.377236,-7.32551 0,-0.5803 -2.84481,-4.92199 -3.531511,-5.38971 -0.659224,-0.44901 -6.502338,-10.49716 -8.630431,-14.84144 -4.435498,-9.0546 -7.443905,-15.66266 -9.272914,-20.3681 -2.054639,-5.2859 -4.915555,-14.97434 -4.927512,-16.68715 -0.0049,-0.55741 -0.324658,-1.92481 -0.712813,-3.03866 -1.116342,-3.20374 -2.742952,-13.88085 -2.520005,-16.54141 0.2473,-2.9516 -1.030248,-18.13127 -2.64773,-31.45969 -1.511233,-12.45268 -1.982553,-28.10786 -1.765122,-58.63037 0.121186,-17.01082 0.343643,-32.57601 0.494406,-34.58927 0.150712,-2.01324 0.402016,-6.51561 0.558488,-10.00525 0.389619,-8.69031 2.137463,-20.55644 5.355834,-36.36054 1.86044,-9.13606 7.487099,-27.44864 10.27217,-33.43217 0.374831,-0.80531 1.261882,-2.78195 1.971181,-4.39255 2.171578,-4.93093 7.061461,-14.49112 8.063694,-15.76526 0.521103,-0.66243 0.947473,-1.43211 0.947473,-1.7103 0,-0.27819 0.31026,-0.85255 0.689435,-1.27637 0.379175,-0.42379 1.326793,-1.97847 2.105836,-3.45486 1.886552,-3.57533 3.544494,-6.45455 4.136317,-7.18318 0.593238,-0.73038 3.805753,-6.04311 3.805753,-6.29383 0,-0.0996 1.352807,-2.32425 3.006212,-4.94352 7.375235,-11.6835 20.713796,-21.69934 37.526369,-28.1783 5.74526,-2.21399 8.110689,-3.14531 9.981731,-3.92996 2.41775,-1.01395 11.41652,-4.00893 16.10601,-5.36052 5.63471,-1.62398 9.31044,-2.40404 19.52244,-4.14316 12.78719,-2.17762 17.31567,-2.50653 29.40719,-2.13575 12.16779,0.37307 11.65474,0.49334 14.06333,-3.29636 1.30087,-2.04684 6.81498,-5.88284 10.02085,-6.97132 4.56284,-1.5491 9.605,-2.34235 15.32523,-2.41102 5.41454,-0.065 6.05937,0.0273 8.54107,1.22454 1.86604,0.90009 3.16257,1.21874 4.25314,1.04523 0.8629,-0.13728 2.68136,0.0171 4.0411,0.34346 2.09794,0.50329 2.87253,1.04708 5.1158,3.59129 5.60949,6.36198 8.52253,11.31663 8.54195,14.52866 0.006,0.97309 0.15175,2.47416 0.32402,3.33574 0.30006,1.5003 0.38773,1.55232 2.07426,1.23128 5.40782,-1.02941 23.57589,-0.43242 30.37667,0.99819 4.15648,0.87431 10.13694,1.96278 16.04188,2.91967 2.28169,0.36976 5.68592,1.02854 7.56495,1.46394 1.87903,0.4354 4.844,1.08003 6.58882,1.43246 4.80887,0.97134 11.81528,2.59424 18.05826,4.18284 3.08698,0.78547 8.13841,1.99553 11.2254,2.68901 3.08698,0.69344 7.69916,1.98811 10.24929,2.87702 2.55011,0.8889 7.05247,2.43548 10.00525,3.43678 2.95276,1.00131 6.3605,2.40355 7.57275,3.11612 1.21219,0.71258 3.04702,1.72681 4.07725,2.25387 2.14167,1.09565 7.3731,6.5547 9.52106,9.93525 2.29486,3.6119 2.77477,3.99133 5.06221,4.00196 2.49609,0.0117 12.73917,1.21289 16.44804,1.92892 5.41689,1.04581 8.03456,2.08583 9.78524,3.88774 0.93951,0.967 2.17084,2.0832 2.73631,2.48048 1.24022,0.87134 1.79309,2.42107 1.20048,3.36513 -0.36965,0.58894 -0.83883,0.56307 -3.18767,-0.17575 -1.51479,-0.47645 -3.34814,-1.36608 -4.07409,-1.97693 -2.28924,-1.92629 -4.81228,-2.63384 -12.13451,-3.40297 -9.29717,-0.97656 -11.81649,-0.97192 -12.19801,0.0224 -0.43579,1.13561 0.63707,1.8413 4.71862,3.10387 8.39235,2.59599 18.41996,8.6845 20.30417,12.32823 1.48048,2.86292 0.34272,4.41499 -2.2526,3.07292 -0.77494,-0.40074 -1.66078,-0.72862 -1.96844,-0.72862 -0.30768,0 -1.58147,-0.90935 -2.83061,-2.02082 -2.18905,-1.94775 -8.21671,-5.10824 -13.7624,-7.21604 -1.46438,-0.55657 -2.739,-1.01204 -2.83246,-1.01218 -0.0935,-1.5e-4 -0.005,1.37243 0.19645,3.05014 0.92248,7.67998 -0.23822,17.43423 -2.7041,22.72417 -4.41993,9.48199 -13.0185,19.99156 -21.37542,26.12614 -6.56334,4.8179 -21.3574,11.19725 -33.53818,14.46193 -1.87903,0.50364 -4.07531,1.12459 -4.88061,1.38 -5.73882,1.81983 -13.34544,2.70913 -18.06797,2.11227 -2.15284,-0.27209 -4.29421,-0.64053 -4.75859,-0.81872 -0.46444,-0.17819 -0.8444,-0.13437 -0.8444,0.0974 0,0.47762 2.70611,1.38951 5.6127,1.89138 2.7798,0.47996 10.26149,2.55017 13.42168,3.71391 7.47412,2.75222 16.74367,4.1368 30.72886,4.58992 7.8348,0.25388 12.97338,1.03405 16.49123,2.50394 3.20901,1.34081 9.09073,5.29918 11.43279,7.69418 2.55011,2.60781 2.55583,2.61903 1.88712,3.67637 -0.29185,0.46146 -0.25125,0.95841 0.11432,1.39884 0.31182,0.37575 0.8258,1.37144 1.14216,2.21268 0.31636,0.84121 1.04742,2.71228 1.62455,4.15798 1.44749,3.62585 1.49469,10.47368 0.11144,16.16184 -1.62719,6.69112 -2.94124,10.35689 -4.49001,12.52535 -0.79822,1.11761 -1.4513,2.19159 -1.4513,2.38657 0,0.19498 1.26286,0.19088 2.80635,-0.009 4.18352,-0.54209 5.31928,-0.413 8.15004,0.92619 2.93676,1.38931 5.09198,3.62508 6.86252,7.11905 1.50342,2.96693 2.81299,3.86511 6.33152,4.34258 1.50137,0.20371 2.94861,0.58928 3.21607,0.85674 0.86318,0.86318 4.9141,8.15339 5.63653,10.14375 1.27931,3.52474 -0.6211,9.31217 -4.16389,12.68051 -0.82927,0.78842 -1.50772,1.70431 -1.50772,2.03526 0,0.33101 -1.37267,1.83268 -3.05038,3.33708 -2.87644,2.57926 -3.16172,2.71893 -5.00262,2.44952 -1.07375,-0.15715 -2.50966,-0.49933 -3.1909,-0.7604 -1.77591,-0.68046 -4.32656,-4.82116 -4.69505,-7.62179 -0.54883,-4.17116 -1.87933,-6.24963 -5.71368,-8.92547 -3.78482,-2.64124 -4.81238,-2.85262 -7.98259,-1.64188 -1.74516,0.66648 -2.54011,0.7092 -4.78988,0.25735 -3.57338,-0.71759 -8.41596,-3.17391 -11.39475,-5.77962 -2.59888,-2.27349 -2.98625,-2.46256 -2.98625,-1.45765 0,1.83663 -8.68451,7.14742 -14.88586,9.10303 -1.07373,0.33857 -3.21062,1.03771 -4.74864,1.55364 -2.39056,0.80188 -3.07995,0.85304 -4.75074,0.35244 -1.07486,-0.32204 -2.32136,-0.99112 -2.76993,-1.48678 -0.44858,-0.49568 -1.03884,-0.90122 -1.31172,-0.90122 -0.52988,0 -5.95175,-2.02565 -8.38171,-3.1315 -0.80531,-0.36642 -2.67214,-1.15898 -4.14852,-1.76116 -1.47638,-0.60217 -3.83059,-1.7415 -5.23163,-2.53177 -2.4242,-1.36744 -3.55347,-1.45696 -3.55347,-0.28165 0,0.66121 -3.85056,7.43258 -6.46364,11.36654 -2.68384,4.04052 -5.31883,6.41411 -12.23877,11.02456 -3.26956,2.17837 -7.93405,5.47512 -10.36557,7.32605 -2.43147,1.85097 -5.06701,3.46088 -5.85673,3.57763 -1.23353,0.18234 -9.21109,3.24199 -12.17317,4.66884 -0.53687,0.25857 -1.60435,0.69812 -2.37222,0.97672 -1.33983,0.48614 -1.36438,0.55047 -0.60872,1.59629 0.43307,0.59934 1.14007,1.9133 1.57112,2.91993 0.43106,1.00661 0.97949,1.83022 1.21879,1.83022 0.2393,0 0.43506,0.27844 0.43506,0.61882 0,0.34031 0.55273,1.43221 1.22831,2.42634 1.95198,2.87267 6.41697,12.03226 7.5562,15.50116 0.57303,1.74482 1.58941,5.03923 2.2586,7.32091 0.66923,2.28169 1.51982,4.61471 1.89021,5.18453 1.47956,2.27597 3.81234,13.7578 4.89633,24.09913 1.63837,15.63014 -0.30505,35.65969 -4.95949,51.11429 -2.33609,7.7568 -8.13826,19.56504 -13.25485,26.97547 -7.48706,10.84368 -19.40048,23.59364 -28.73034,30.74783 -7.92684,6.07831 -13.51324,10.86644 -18.48477,15.84334 -3.66139,3.66534 -4.58978,4.91478 -5.4907,7.38968 -1.31,3.59857 -1.42982,8.44701 -0.31284,12.65894 1.45213,5.4757 2.55773,9.2572 4.34662,14.86638 2.61137,8.188 4.4844,15.63128 5.44422,21.63458 0.74147,4.63765 0.77085,5.98191 0.23979,10.98136 -0.66201,6.23225 -2.12082,14.53791 -3.23585,18.42281 -1.74428,6.0774 -6.02989,13.4486 -9.15139,15.7403 -0.48454,0.3558 -1.69878,1.4069 -2.69828,2.3358 -4.28279,3.9803 -13.18527,8.6473 -19.38749,10.1636 -7.76071,1.8972 -18.10717,2.1872 -23.42693,0.6567 z m 13.80681,-7.0202 c 6.66267,-1.1865 15.26591,-4.7887 20.11343,-8.4214 3.33434,-2.4988 7.69204,-7.1921 8.90639,-9.5923 2.45435,-4.8511 4.11005,-11.889 5.27358,-22.41623 0.94329,-8.53448 -0.30113,-15.03774 -7.32241,-38.26763 -3.97121,-13.13866 -4.35278,-17.7521 -1.97754,-23.91123 2.00628,-5.20254 6.04899,-9.83472 15.52234,-17.78577 1.84932,-1.55214 3.87774,-3.30915 4.50758,-3.90449 0.6299,-0.5953 1.73541,-1.52163 2.45676,-2.0585 9.72759,-7.23984 16.55044,-13.9416 23.85012,-23.42692 12.282,-15.9593 18.79611,-29.63956 22.19409,-46.60982 3.06811,-15.32257 3.18875,-34.60553 0.30002,-47.952 -0.27601,-1.27505 -0.73751,-3.36151 -1.02566,-4.63656 -0.28811,-1.27507 -0.60471,-3.47056 -0.70345,-4.87886 -0.0988,-1.40836 -0.5129,-3.16538 -0.92024,-3.90449 -0.93712,-1.70055 -2.73304,-5.81798 -2.73304,-6.26597 0,-0.53829 -5.87631,-13.34695 -7.48198,-16.30861 -0.80042,-1.47638 -2.04409,-3.45304 -2.76369,-4.39255 -0.71961,-0.93952 -1.72105,-2.422 -2.22542,-3.29441 -0.50436,-0.8724 -1.14421,-1.5842 -1.42186,-1.5817 -0.92233,0.008 -11.42127,4.75722 -16.73795,7.57119 -4.61701,2.44362 -7.29442,4.00488 -16.52316,9.63495 -1.21586,0.74176 -4.48001,2.52293 -7.25361,3.95813 -6.83803,3.53844 -11.08534,6.43507 -16.48617,11.24366 -4.95924,4.41539 -6.42263,6.23805 -8.36189,10.41492 -0.88964,1.91618 -1.69871,1.98744 -3.67589,0.32378 -1.77,-1.48936 -1.69645,-2.32376 0.58948,-6.68731 2.179,-4.15941 9.29801,-10.73617 18.69606,-17.27204 0.83048,-0.57757 4.10327,-2.40493 7.27284,-4.06072 3.16956,-1.65584 9.04524,-4.96904 13.05708,-7.36264 4.01183,-2.39359 7.35236,-4.35199 7.42337,-4.35199 0.071,0 1.75175,-0.89194 3.73499,-1.98201 1.98319,-1.09013 4.81384,-2.49604 6.29037,-3.12418 1.47648,-0.62818 4.99061,-2.12395 7.80917,-3.32395 2.81855,-1.19994 7.32092,-3.09698 10.00525,-4.21566 2.68434,-1.11864 5.31987,-2.24288 5.85674,-2.49834 0.53686,-0.25545 2.49652,-1.02801 4.35481,-1.71681 1.85825,-0.68879 4.0165,-1.78903 4.79603,-2.44499 0.77954,-0.65595 1.7377,-1.19262 2.12917,-1.19262 0.89617,0 2.41287,-0.94879 7.02227,-4.39289 2.01324,-1.50431 6.26489,-4.44941 9.44808,-6.54465 3.35674,-2.2095 6.12414,-4.40114 6.58881,-5.21801 0.44067,-0.77464 0.95563,-1.40986 1.14441,-1.41157 0.18879,0 0.76787,-0.96304 1.28687,-2.13634 0.519,-1.17334 1.18878,-2.2848 1.48829,-2.46993 0.29957,-0.18512 0.98276,-1.29829 1.51822,-2.47369 0.53545,-1.17539 1.16213,-2.25362 1.39259,-2.39603 0.56244,-0.3476 3.35473,-7.80269 3.94924,-10.54398 0.26121,-1.20444 0.71125,-3.39783 1.00004,-4.87421 0.28883,-1.47639 0.72003,-3.67266 0.9583,-4.88061 0.40128,-2.03449 0.0849,-6.06714 -0.73663,-9.3899 -2.42794,-7.17421 -2.37936,-7.67547 -6.1975,-11.47979 -4.66225,-4.54335 -6.36651,-5.99797 -8.50553,-7.25961 -15.22267,-8.97885 -17.01468,-9.26154 -27.24493,-4.29752 -2.41591,1.17228 -6.25938,3.618 -8.54106,5.435 -2.28169,1.817 -5.21167,4.10922 -6.51104,5.09389 -2.63084,1.99359 -6.07991,5.88625 -9.45642,10.67253 -1.23089,1.74481 -4.78549,5.81354 -7.89912,9.04157 -3.11358,3.22803 -7.05443,7.45586 -8.75732,9.39517 -2.41205,2.74681 -3.38851,3.526 -4.41886,3.526 -0.88203,0 -1.88285,0.58563 -3.00451,1.75814 -3.35805,3.51014 -8.56508,7.31814 -11.7669,8.60525 -5.89557,2.37007 -13.22045,3.50056 -29.78827,4.59749 -2.84753,0.18853 -5.86097,0.0962 -7.56494,-0.23174 -1.55765,-0.29981 -5.57747,-1.01926 -8.93288,-1.59884 -6.4915,-1.12127 -8.02304,-1.74569 -8.87656,-3.61893 -0.68133,-1.49542 0.35838,-3.24248 2.44382,-4.1063 1.20868,-0.50065 1.70435,-0.47082 2.95916,0.17805 0.82897,0.42872 3.21252,1.09751 5.29678,1.48624 2.08422,0.3887 4.5582,0.85168 5.49772,1.0288 3.24638,0.61198 18.19726,0.29107 23.67095,-0.50809 9.0567,-1.32225 11.09988,-1.80694 14.64183,-3.47332 2.83597,-1.33422 6.10076,-3.59575 6.10076,-4.22592 0,-0.0858 -2.42708,-2.64414 -5.39346,-5.68515 -5.06071,-5.18793 -6.93814,-7.49426 -8.80375,-10.81503 -0.42656,-0.75923 -1.10691,-1.88996 -1.51191,-2.51279 -0.40499,-0.62281 -1.6247,-3.13851 -2.71045,-5.59044 -1.99363,-4.50207 -2.7492,-7.42936 -2.65217,-10.27471 0.0491,-1.43573 -0.34838,-1.84447 -5.17754,-5.32625 -2.87688,-2.07411 -5.67166,-4.16292 -6.21063,-4.64176 -0.67831,-0.6026 -1.65492,-0.84102 -3.1724,-0.77451 -1.97786,0.0866 -2.207,0.22232 -2.34176,1.38546 -0.0822,0.70916 0.32081,2.28955 0.8954,3.51194 2.05337,4.3683 -1.32826,8.78931 -4.26043,5.57 -1.8133,-1.9908 -2.30351,-3.48836 -2.56847,-7.84606 l -0.26195,-4.30758 -2.4403,-1.02693 c -3.99985,-1.68318 -7.59969,-4.24252 -11.2867,-8.02435 l -3.47778,-3.56724 -2.83031,2.19783 c -2.62816,2.04078 -4.03671,2.61035 -4.73312,1.91393 -0.48122,-0.48123 1.10355,-3.70809 2.89464,-5.89383 l 1.70265,-2.07787 -1.31509,-3.28709 c -1.08592,-2.71449 -1.31263,-4.03587 -1.3014,-7.58568 0.0122,-3.82635 -0.0833,-4.2986 -0.86895,-4.2986 -1.26105,0 -3.34156,-1.82876 -2.62611,-2.30839 0.30846,-0.20678 0.63805,-0.92501 0.73234,-1.5961 0.11327,-0.80617 0.46113,-1.19715 1.02531,-1.15235 0.46962,0.037 0.85387,-0.12744 0.85387,-0.36605 0,-0.23862 0.75391,-0.43384 1.67532,-0.43384 1.20678,0 1.75618,-0.25476 1.96449,-0.91101 0.49572,-1.56195 5.25314,-6.24601 8.31768,-8.18947 2.5387,-1.61002 3.31647,-1.85868 5.84493,-1.86898 3.31261,-0.0137 3.59046,0.34121 2.73348,3.48978 -0.45614,1.67576 -0.86631,2.04196 -4.00455,3.57519 -3.68617,1.801 -6.54377,4.06228 -6.0806,4.8118 0.15168,0.24539 1.10185,0.60003 2.11145,0.78803 1.00956,0.188 2.90762,0.85351 4.21788,1.47891 2.30915,1.10219 2.4116,1.1098 3.33681,0.24779 0.76266,-0.71053 1.26423,-0.80047 2.49512,-0.44745 0.84732,0.243 1.59694,0.44184 1.6658,0.44184 0.56176,0 -0.20317,2.61 -1.28712,4.39201 -1.49879,2.46388 -2.60814,2.9288 -3.99463,1.6741 -0.77495,-0.70134 -1.15856,-0.75357 -2.16558,-0.29469 -0.94586,0.43095 -2.00568,0.39314 -4.66649,-0.16662 -1.89348,-0.39831 -3.67749,-0.7242 -3.96443,-0.7242 -0.70719,0 -0.22353,6.5901 0.5523,7.52488 0.50108,0.60378 0.88382,0.49651 2.63675,-0.73902 1.84838,-1.30288 2.20603,-1.39117 3.628,-0.89549 0.86758,0.30245 1.57746,0.83024 1.57746,1.1728 0,1.18019 -2.49891,5.09121 -3.44478,5.39142 -0.5213,0.16541 -0.94777,0.4747 -0.94777,0.68724 0,0.46649 3.51091,4.54918 5.79719,6.7412 1.61363,1.54715 6.69093,4.43433 7.04302,4.00497 0.0979,-0.11938 0.88231,-1.46838 1.74311,-2.99787 0.86078,-1.52943 2.23131,-3.34135 3.04554,-4.0265 1.44086,-1.21238 3.07215,-1.61967 3.52331,-0.87963 0.12275,0.20133 -0.51543,2.12306 -1.41821,4.27054 -0.90276,2.14747 -1.64915,4.26537 -1.65858,4.70637 -0.0586,2.7432 7.21712,1.11589 11.3752,-2.54417 2.21062,-1.94584 2.22658,-1.95081 3.9547,-1.22879 1.20737,0.50451 1.73511,1.03684 1.73511,1.75024 0,1.56858 -1.20039,3.53697 -2.93618,4.81482 l -1.56711,1.15367 1.15349,1.13758 c 0.63442,0.62564 4.00868,3.0026 7.49831,5.28214 3.48964,2.27949 7.1135,4.75791 8.05301,5.50757 2.64183,2.10803 6.80236,6.49746 7.57514,7.9919 0.83714,1.6188 11.89392,11.95599 13.63844,12.75083 1.1383,0.51866 1.46252,0.34429 4.28472,-2.30408 4.62956,-4.34442 6.7003,-6.64856 9.6421,-10.7287 2.72034,-3.77306 7.76027,-9.05666 10.56588,-11.07684 4.91321,-3.53766 8.48401,-6.42479 8.36312,-6.76183 -0.0763,-0.21256 -2.22511,-2.63324 -4.77523,-5.37932 -2.55013,-2.74603 -5.21728,-5.99881 -5.92707,-7.22837 -0.70979,-1.22959 -2.74909,-3.88277 -4.53189,-5.89603 -1.78274,-2.01325 -3.79951,-4.8684 -4.48172,-6.34479 -0.68216,-1.47639 -1.59913,-3.4198 -2.0377,-4.3187 -1.14114,-2.33884 -0.86724,-6.55208 0.62525,-9.6169 1.29576,-2.66087 2.63849,-4.48498 6.22352,-6.16906 2.54741,-2.11618 3.90691,-2.30549 7.11534,-3.27629 1.12854,-0.60398 6.43259,-0.77734 9.11503,-0.29791 5.17549,0.92497 12.62384,3.98946 19.74172,8.1224 5.05959,2.93779 12.43667,5.0224 24.67182,6.97156 2.68433,0.42765 6.74745,1.11961 9.02912,1.53769 3.41385,0.62555 4.79677,0.66103 7.80898,0.20025 5.45814,-0.83493 17.17535,-4.08331 23.67096,-6.56237 1.87904,-0.71711 4.00991,-1.48907 4.73532,-1.71548 3.40286,-1.06208 14.32355,-7.27573 17.57068,-9.9974 3.33316,-2.79371 7.53386,-7.48504 8.83449,-9.86634 0.3209,-0.58758 1.63304,-2.78386 2.91587,-4.88062 2.9269,-4.78402 4.01216,-8.26379 4.77792,-15.31998 0.51369,-4.73381 0.49079,-6.40712 -0.15194,-11.09606 -0.41626,-3.03693 -0.8792,-5.644 -1.02873,-5.79354 -0.14949,-0.14954 -1.29361,-0.46278 -2.54246,-0.69608 -2.08303,-0.38912 -2.5222,-0.2835 -5.3161,1.27897 -3.4788,1.94546 -6.46949,2.21155 -9.78455,0.8706 -4.55536,-1.84268 -6.99421,-0.9789 -30.16461,10.68386 -2.5122,1.26451 -5.53286,0.35184 -4.85855,-1.46794 1.04997,-2.83359 12.21797,-9.3986 24.70277,-14.52133 3.37763,-1.3859 5.05334,-2.9947 4.53263,-4.35161 -0.39719,-1.03512 -8.58773,-0.99944 -12.9225,0.0563 -5.58205,1.35954 -13.55912,4.0761 -17.26442,5.87937 -2.80279,1.36404 -3.81131,1.63911 -4.77153,1.30143 -1.51533,-0.53292 -1.82393,-1.89349 -0.7089,-3.12555 2.21735,-2.45016 13.07822,-7.22955 20.95513,-9.22137 3.98873,-1.00868 5.03968,-1.07892 11.46943,-0.76679 3.89308,0.18903 9.60403,0.39009 12.69101,0.44682 3.13359,0.0576 6.24064,0.37052 7.03432,0.70846 5.17155,2.20189 -1.10272,-5.10042 -7.03355,-8.186 -4.28854,-2.23112 -23.36572,-8.68909 -29.52846,-9.99593 -4.47669,-0.94927 -14.76995,-3.3049 -20.49857,-4.69109 -6.67174,-1.61441 -14.91002,-3.28929 -20.25452,-4.11778 -2.81855,-0.4369 -7.97979,-1.32971 -11.46943,-1.98396 -11.14365,-2.08929 -13.49308,-2.34142 -22.20677,-2.3832 -8.96115,-0.0429 -10.73734,0.30347 -10.73734,2.09451 0,1.29459 -2.75618,6.58829 -4.16234,7.99444 -4.53193,4.53199 -17.63886,11.54367 -24.87729,13.30839 -7.79405,1.90022 -18.55418,-1.31283 -24.31032,-7.25926 -7.16449,-7.4013 -10.83345,-18.22542 -8.92713,-26.3366 0.42974,-1.82862 0.78139,-3.36602 0.78144,-3.41643 0,-0.0504 -1.5923,-0.0856 -3.53844,-0.0781 -1.9462,0.007 -5.84459,-0.12713 -8.66314,-0.29927 -5.58121,-0.34081 -13.49093,0.14593 -20.01049,1.23133 -2.28169,0.3799 -5.79573,0.95333 -7.80898,1.27432 -8.45722,1.34851 -15.67408,3.34283 -26.11126,7.21564 -2.14747,0.79686 -5.99094,2.21034 -8.54106,3.14106 -14.262856,5.20571 -24.129302,11.24449 -33.223144,20.33424 -3.503643,3.50208 -5.050357,5.62339 -9.517187,13.05314 -2.933541,4.87929 -5.883186,9.93072 -6.554757,11.2254 -0.671621,1.29463 -2.021891,3.67168 -3.000697,5.28228 -4.610956,7.58749 -7.631468,13.26541 -10.385449,19.52244 -4.01352,9.11879 -6.69971,17.00273 -8.813405,25.86723 -0.448039,1.87903 -1.10824,4.3026 -1.46716,5.3857 -0.74356,2.24392 -2.088364,8.45605 -2.690534,12.42852 -0.223824,1.47639 -0.764303,4.66099 -1.201068,7.07688 -2.342449,12.95681 -3.388413,39.57746 -2.982053,75.89349 0.38142,34.09003 0.524373,36.84269 2.977709,57.34716 0.642337,5.36867 1.389461,13.96358 1.660237,19.09973 0.513196,9.73525 0.948351,12.52263 3.723514,23.84964 3.445076,14.06162 12.89828,34.2139 23.996835,51.15639 1.725979,2.63486 3.616385,5.81945 4.200838,7.07689 0.584502,1.25745 3.348342,5.6905 6.141955,9.85122 2.793563,4.16073 7.122274,10.96917 9.619389,15.12988 7.831621,13.0494 8.557316,14.116 12.840054,18.87138 2.299892,2.55367 5.719004,6.80435 7.598036,9.44589 1.879032,2.64147 5.015361,7.03124 6.969607,9.75501 8.4067,11.71703 11.71239,18.87552 13.07042,28.30402 1.49176,10.35744 0.12851,16.17068 -7.38221,31.47993 -3.5116,7.15781 -4.55757,13.44481 -3.13722,18.85722 1.28497,4.89629 6.55847,15.00489 9.004,17.25929 0.58235,0.5369 1.4328,1.5775 1.88987,2.3124 0.45707,0.735 2.52976,2.4436 4.60607,3.7969 4.49368,2.929 16.96612,9.3422 21.4536,11.0313 5.3816,2.0256 11.94451,2.3097 20.04325,0.8674 z M 147.99041,629.30374 c -2.32013,-1.16676 -1.58096,-4.5743 1.33032,-6.13239 1.38291,-0.74014 1.86941,-0.70666 2.76623,0.19015 0.76572,0.76572 0.63984,1.20141 -1.60792,5.56589 -0.51144,0.99303 -1.08872,1.08034 -2.48863,0.37635 z m 15.984,-1.84063 c -1.20214,-0.71417 -1.08319,-3.23632 0.24403,-5.17466 1.23464,-1.80309 2.07358,-2.14258 3.63362,-1.47038 1.62797,0.70149 1.67092,1.47712 0.23906,4.31588 -1.35779,2.69184 -2.45828,3.31451 -4.11671,2.32916 z m 222.20109,90.5586 c 1.37446,-0.71076 5.76097,-5.57741 6.83357,-7.5816 0.38211,-0.71393 0.35234,-1.2727 -0.1119,-2.1031 -0.34774,-0.62192 -1.17388,-2.16278 -1.83588,-3.42413 -1.08673,-2.0705 -1.46614,-2.36817 -3.90449,-3.06366 -3.94247,-1.1245 -6.08256,-2.46978 -7.39535,-4.64878 -2.49428,-4.14013 -4.64117,-6.74568 -6.04283,-7.33389 -0.89592,-0.37596 -3.73728,-0.61843 -7.32091,-0.62477 -7.1765,-0.0127 -8.62409,-0.65444 -13.03455,-5.77884 -4.16971,-4.84473 -8.71378,-9.07075 -10.14835,-9.43807 -1.82188,-0.46654 -2.98117,-1.40074 -4.44761,-3.58422 l -1.32045,-1.96611 -2.24058,2.56134 c -1.23235,1.40873 -2.24064,2.71118 -2.24064,2.89426 0,0.18306 1.07242,1.12009 2.38321,2.08226 3.69008,2.70878 5.85516,5.36003 6.21506,7.61058 0.26648,1.66643 1.10902,2.77964 5.49742,7.26385 3.96042,4.04686 5.92052,5.656 8.31105,6.8231 3.62574,1.77015 4.09453,1.81071 8.34233,0.72232 3.81082,-0.97645 6.18724,-0.65033 8.3164,1.14124 0.83244,0.70047 2.35343,1.84478 3.37993,2.5429 2.11979,1.44167 5.273,5.06085 5.94175,6.81977 0.24661,0.64864 0.68045,2.84974 0.96411,4.89134 0.69993,5.03748 1.19253,5.57293 3.85872,4.19421 z m -58.50808,-15.85373 c 4.6094,-1.54428 11.78327,-4.92025 13.24359,-6.23234 0.82354,-0.73996 0.77002,-0.88345 -1.03166,-2.76595 -1.9645,-2.05253 -3.06859,-3.88853 -3.80371,-6.32512 -0.24579,-0.81477 -2.04107,-2.87166 -4.24711,-4.86607 l -3.82132,-3.45474 -0.87797,1.16393 c -1.82774,2.42308 -4.41812,7.77726 -5.15582,10.65681 -0.72425,2.82685 -0.73195,3.9103 -0.0887,12.43116 0.0873,1.15588 0.71607,1.08979 5.78264,-0.60768 z m -12.33022,-6.23059 c 0.12431,-11.72029 3.81014,-18.58785 16.63623,-30.997 9.49622,-9.1875 21.80769,-18.034 27.41484,-19.69917 1.30507,-0.38756 2.37285,-0.89978 2.37285,-1.13824 0,-0.81346 -3.65387,-3.47607 -7.07689,-5.15705 -5.06495,-2.48736 -8.31607,-3.1376 -17.08212,-3.41658 -7.54304,-0.24002 -12.60828,-0.69587 -19.27842,-1.73491 -3.21095,-0.50021 -4.82268,-0.91345 -13.17765,-3.37885 -4.62282,-1.36403 -12.76362,-3.54209 -23.448,-6.27343 -5.27238,-1.34783 -12.19074,-4.10294 -16.91092,-6.73456 -1.12543,-0.62741 -2.3691,-1.14075 -2.7638,-1.14075 -0.71393,0 -4.80482,2.45607 -7.16449,4.30143 -1.71563,1.34169 -5.25535,8.58841 -5.90139,12.08166 -0.29449,1.59245 -0.69466,3.22476 -0.88924,3.62741 -0.56888,1.1772 0.83785,4.05706 1.8272,3.74065 0.45751,-0.14632 2.36925,-0.83307 4.24828,-1.52616 4.74809,-1.75132 10.09982,-2.13996 13.23,-0.96081 7.60492,2.86483 16.01221,8.44731 23.01746,15.28368 5.49766,5.36511 7.90541,8.90941 7.91727,11.65436 0,0.60735 0.44404,2.68942 0.9809,4.62677 1.17745,4.24891 1.25681,10.15718 0.21143,15.74358 -0.40182,2.14746 -0.84503,4.56337 -0.98481,5.36867 -0.23745,1.3675 0.0214,1.66721 3.91747,4.53907 2.29442,1.69118 4.84464,3.30943 5.66707,3.59613 0.82238,0.28673 2.52567,1.03283 3.78502,1.65803 1.25934,0.62521 2.5386,1.14832 2.84286,1.16242 0.37619,0.0177 0.57093,-1.65428 0.60885,-5.22635 z M 202.42209,683.18118 c 0.94524,-1.04621 2.26241,-2.03872 2.92711,-2.20555 0.66468,-0.16681 1.20854,-0.48595 1.20854,-0.70915 0,-0.22318 -1.23129,-1.37208 -2.73622,-2.55304 -1.5049,-1.18097 -2.98738,-2.36681 -3.29442,-2.63524 -0.30699,-0.26844 -2.47817,-2.08987 -4.82482,-4.04769 -2.34669,-1.95781 -5.4492,-5.03259 -6.89449,-6.83285 -2.79664,-3.48354 -4.13353,-4.78549 -6.28706,-6.12272 -1.32821,-0.82482 -1.34217,-0.82082 -1.34217,0.384 0,3.71332 6.25445,13.53057 13.30137,20.87841 3.01895,3.14785 5.65429,5.72847 5.85629,5.73474 0.20201,0.007 1.1407,-0.84466 2.08587,-1.89091 z m 159.33903,-4.93058 c 0.33358,-0.8053 0.76454,-1.46418 0.95777,-1.46418 0.74502,0 2.91446,-4.81639 3.88384,-8.62239 1.37531,-5.39995 1.33767,-10.76042 -0.10052,-14.31649 -0.78066,-1.93032 -1.37722,-2.72601 -2.12376,-2.83274 -2.30691,-0.32984 -14.00519,6.88288 -21.16369,13.04864 -1.47286,1.26862 -1.56911,1.47311 -0.69866,1.48444 0.55527,0.007 2.19643,0.36561 3.64709,0.79637 2.12072,0.62979 3.35733,1.48449 6.31137,4.36215 2.02062,1.96834 4.66215,4.78982 5.8701,6.26992 1.20795,1.48009 2.33434,2.70171 2.50312,2.71479 0.16876,0.0132 0.57976,-0.63522 0.9133,-1.44051 z M 241.21006,633.63348 c 0,-1.38029 -1.89954,-5.07838 -3.01031,-5.86063 -2.63455,-1.85538 -4.92453,-3.24576 -5.08364,-3.08665 -0.44756,0.44755 6.88049,9.56712 7.72791,9.61724 0.20132,0.0117 0.36604,-0.28957 0.36604,-0.66996 z m 3.83786,-9.02039 c 0.83104,-2.48556 0.71873,-2.7739 -1.31811,-3.38417 -2.52614,-0.75684 -3.38889,-1.84209 -4.3779,-5.50684 -0.70509,-2.61264 -1.1017,-3.2581 -2.51024,-4.08541 -0.9201,-0.54038 -2.5121,-1.81769 -3.53781,-2.83852 -1.91861,-1.90938 -3.28455,-2.63469 -5.05593,-0.95078 -0.53686,0.51037 -0.38365,1.91309 -0.88737,2.25761 -1.36307,0.93231 -0.27357,2.57843 2.58223,3.90157 1.27642,0.59138 3.51013,2.28734 4.96381,3.7688 1.45364,1.48147 3.63132,3.23058 4.83928,3.88697 1.53778,0.83557 2.48892,1.8008 3.1724,3.21935 1.07056,2.22199 1.30693,2.19222 2.12964,-0.26858 z m 41.41965,-6.68888 c -0.1622,-0.16218 -0.58314,-0.17951 -0.93547,-0.0386 -0.38933,0.15584 -0.27371,0.27146 0.29488,0.29489 0.51447,0.0209 0.80276,-0.0941 0.64059,-0.25633 z m -35.92305,-3.24356 c 1.1607,-1.43674 4.14496,-3.28748 6.43645,-3.99165 1.32602,-0.40748 0.60802,-1.1059 -2.99563,-2.91407 -4.54833,-2.28207 -9.91314,-4.13953 -13.00614,-4.50309 -2.66989,-0.31378 -5.13781,0.0224 -5.13781,0.69968 0,0.2066 1.16949,1.08438 2.59882,1.95069 2.78362,1.68702 4.40857,3.98009 4.97262,7.01724 0.27409,1.47575 0.65254,1.92955 2.11589,2.53718 2.65802,1.1036 3.60219,0.95381 5.0158,-0.79598 z M 364.49631,540.2615 c -0.49611,-0.49611 -0.90551,0.25082 -0.49841,0.90946 0.30748,0.49753 0.42241,0.49792 0.58772,0 0.11304,-0.3391 0.0729,-0.74923 -0.0894,-0.91141 z M 213.71842,518.21511 c 2.16518,-1.04704 5.06138,-2.69424 6.43601,-3.66046 1.37461,-0.96622 2.70434,-1.75673 2.95492,-1.75673 0.91394,0 3.40984,-2.51483 4.7313,-4.76718 2.84949,-4.85674 1.41723,-12.79501 -3.67325,-20.35922 -3.13733,-4.66195 -4.77683,-6.14029 -7.84845,-7.07722 -1.20795,-0.36844 -2.52572,-0.92951 -2.92836,-1.24681 -0.40266,-0.31728 -2.63729,-0.96797 -4.96588,-1.44602 -3.69838,-0.75923 -4.80935,-0.79554 -8.7851,-0.28707 -7.18269,0.91853 -8.38181,1.34845 -11.14195,3.99487 -5.39496,5.17266 -6.92368,12.2045 -4.18077,19.23116 0.73352,1.87903 1.45989,3.9655 1.61422,4.63658 0.76288,3.31774 6.18255,9.33812 10.01725,11.12755 3.20876,1.49732 10.00574,3.45693 12.09937,3.48832 1.06066,0.0162 3.26273,-0.71331 5.67069,-1.87777 z m -4.23593,-11.88399 c -3.06722,-4.31656 -3.25894,-4.43116 -6.81768,-4.07443 -1.75116,0.17555 -3.84285,0.42524 -4.64815,0.55492 -1.07763,0.17346 -1.85072,-0.0864 -2.92836,-0.98412 -2.01266,-1.67683 -1.437,-2.43914 3.8445,-5.09122 4.24126,-2.12965 4.33672,-2.15165 9.24964,-2.13028 8.35077,0.0361 10.7572,1.59884 10.70679,6.95234 -0.0318,3.38196 -1.02971,5.37447 -2.70352,5.39839 -0.59783,0.008 -1.51323,0.33798 -2.03428,0.73209 -1.69548,1.28237 -3.07884,0.88012 -4.66894,-1.35769 z m 297.28354,320.51223 c -10.90939,-2.82657 -15.40242,-5.7809 -18.8943,-12.42374 -1.343,-2.5549 -1.40986,-2.9785 -1.38659,-8.7851 0.019,-4.80209 0.25917,-6.93194 1.12709,-10.00525 1.45408,-5.14914 2.88116,-7.47656 7.34086,-11.97218 3.75931,-3.78961 5.8608,-4.86593 9.50055,-4.86593 0.66587,0 2.24928,-0.79275 3.51863,-1.76171 2.15089,-1.64178 2.69312,-1.80713 7.96838,-2.43004 8.80642,-1.03991 10.57101,-0.92546 15.99292,1.03717 2.6225,0.94933 5.35105,2.10237 6.06344,2.56232 4.49192,2.90035 5.33094,3.69603 7.39879,7.01661 3.59853,5.77854 3.94891,7.0091 3.63215,12.75674 -0.30274,5.49323 -2.21003,12.1165 -4.47453,15.5384 -0.67851,1.02532 -1.23362,2.10622 -1.23362,2.40204 0,0.29586 -1.59231,2.12897 -3.53845,4.07369 -8.21607,8.20987 -19.08265,10.46677 -33.01532,6.85698 z m 14.57427,-5.11772 c 5.71042,-0.74103 11.86228,-3.48861 13.02826,-5.8188 0.31124,-0.62209 0.76153,-1.26609 1.00058,-1.43115 0.99407,-0.68636 3.49368,-5.44129 4.27819,-8.13832 1.29073,-4.4373 1.41445,-7.0782 0.51657,-11.02598 -1.11986,-4.92375 -5.02142,-10.57002 -8.52789,-12.34145 -3.12008,-1.57619 -8.2928,-2.7797 -10.62168,-2.47134 -5.98182,0.79212 -7.70701,1.31469 -9.02493,2.73377 -1.38043,1.48634 -2.08787,1.73969 -2.58984,0.92746 -0.48963,-0.79221 -2.92036,-0.56107 -5.45022,0.51832 -2.74012,1.16906 -5.3293,3.4934 -6.21854,5.58244 -3.77911,8.87808 -4.55166,12.35956 -3.77031,16.9919 0.61099,3.62248 1.5817,5.88645 3.18332,7.42438 3.21085,3.08303 6.75247,4.75644 13.23187,6.25196 2.95033,0.68095 4.1284,0.88983 6.83285,1.21157 0.26843,0.0318 2.12775,-0.15473 4.13177,-0.41476 z M 396.62209,801.88972 c -0.65161,-0.70311 -1.18569,-1.74043 -1.18677,-2.30523 0,-0.56477 -0.76171,-2.23482 -1.69025,-3.7112 -0.92854,-1.47639 -2.05239,-3.32896 -2.49756,-4.11684 -0.4451,-0.78789 -1.92881,-2.87435 -3.29709,-4.63659 -1.36828,-1.76224 -3.5463,-4.63165 -4.84,-6.37647 -1.29371,-1.7448 -2.61835,-3.52047 -2.94365,-3.94587 -0.3253,-0.42543 -0.94957,-1.41377 -1.38726,-2.19628 -1.0628,-1.90011 -6.6329,-11.23345 -7.98527,-13.38028 -0.59182,-0.93952 -1.87805,-2.9534 -2.85827,-4.47528 -0.98027,-1.52186 -1.7823,-3.0821 -1.7823,-3.46714 0,-1.08124 2.27558,-3.28298 3.39314,-3.28298 0.54965,0 1.33261,0.38435 1.73989,0.8541 2.37949,2.74462 3.77574,4.73463 6.07826,8.66309 2.46076,4.19844 11.17313,17.36131 14.21389,21.47467 1.34725,1.82247 3.16665,4.43086 6.43846,9.23056 2.72816,4.0022 3.85417,6.65598 3.61561,8.52159 -0.34013,2.66028 -0.7629,3.3607 -2.36564,3.91943 -1.29043,0.44984 -1.59839,0.36029 -2.64519,-0.76928 z m 53.93167,-12.97131 c -1.97445,-2.21457 -4.73703,-5.23444 -6.13904,-6.71083 -1.402,-1.47639 -3.13856,-3.34322 -3.859,-4.14852 -2.76876,-3.09484 -5.96809,-6.56022 -11.37346,-12.31935 -3.08417,-3.28596 -5.95362,-6.48598 -6.37662,-7.11114 -0.42296,-0.6251 -2.36242,-2.76838 -4.30992,-4.76279 -1.94752,-1.99441 -3.67384,-4.12197 -3.83631,-4.72789 -0.46176,-1.72252 0.99233,-3.53489 2.83607,-3.53489 1.25393,0 2.13078,0.60686 4.76011,3.29442 1.77269,1.81193 4.31543,4.59163 5.65058,6.17709 3.54712,4.21217 5.4082,6.30112 9.55667,10.72675 2.042,2.17841 5.33641,5.76801 7.32091,7.97678 1.98451,2.20886 5.77805,6.32839 8.43009,9.15451 4.61651,4.9196 4.80984,5.21298 4.53818,6.88688 -0.72468,4.46581 -2.62543,4.22787 -7.19826,-0.90102 z m 88.16529,-29.02658 c -0.51721,-0.13194 -1.29406,-0.67665 -1.72638,-1.21054 -0.82531,-1.01922 -3.42292,-2.62149 -8.93728,-5.51261 -5.81949,-3.05115 -18.33362,-5.43567 -21.14714,-4.02952 -0.77724,0.38845 -3.21276,1.33582 -5.4122,2.10534 -3.19764,1.11873 -4.27351,1.30304 -5.36868,0.9197 -1.51074,-0.52881 -1.42065,-0.10085 -2.51195,-11.92987 -0.26004,-2.81854 -0.59758,-5.89333 -0.75015,-6.83285 -0.15257,-0.93951 -0.39835,-3.46523 -0.54619,-5.6127 -0.68065,-9.88489 -0.89242,-12.10601 -2.48921,-26.11125 -1.3101,-11.49072 -1.61641,-13.75786 -2.3361,-17.29108 -1.0751,-5.27794 -1.66863,-9.28312 -2.24733,-15.16498 -0.73624,-7.48359 -1.43567,-12.27478 -2.20872,-15.12988 -0.36341,-1.34218 -0.79934,-4.08752 -0.96874,-6.10076 -0.16941,-2.01327 -0.52106,-4.9121 -0.78144,-6.44193 -0.61292,-3.60063 0.11435,-5.40068 3.64158,-9.01326 3.56718,-3.65358 4.87148,-3.92348 22.97829,-4.75436 15.24859,-0.69974 21.92141,-0.48327 28.9978,0.9407 1.97483,0.39737 4.61525,0.72252 5.86757,0.72252 2.12297,0 6.30716,0.78022 18.36124,3.42384 5.90456,1.29493 6.73772,1.68298 6.33537,2.95068 -0.2272,0.71568 -0.0683,0.94639 0.65171,0.94639 1.99222,0 2.02691,3.5404 0.12538,12.80555 -2.33195,11.36235 -3.52268,18.47252 -4.18999,25.01918 -0.1642,1.6106 -0.70872,4.46575 -1.21016,6.3448 -0.50138,1.87903 -1.14943,5.70138 -1.44007,8.49407 -0.29064,2.79272 -0.84479,6.30675 -1.23148,7.80897 -0.38664,1.50224 -0.83467,3.90038 -0.99559,5.32922 -0.16086,1.42886 -0.70623,4.28401 -1.21181,6.34479 -0.50559,2.0608 -1.17862,5.17448 -1.49561,6.9193 -0.31704,1.74482 -0.87319,4.49015 -1.23591,6.10076 -0.36279,1.61061 -0.99453,5.45408 -1.40392,8.54107 -0.40939,3.08698 -1.19901,8.35804 -1.75472,11.71346 -0.55571,3.35543 -1.13777,7.61156 -1.29351,9.45809 -0.26307,3.11891 -0.3886,3.41354 -1.76795,4.14851 -0.81662,0.43516 -2.04795,1.36764 -2.73626,2.07216 -2.18096,2.23235 -4.41017,2.82988 -7.56045,2.02649 z m 5.25679,-9.2862 c 0.12856,-0.46976 0.4621,-2.28168 0.74123,-4.0265 0.27907,-1.74482 0.84155,-5.25885 1.24992,-7.80897 0.4083,-2.55013 1.08071,-7.02311 1.49415,-9.93991 0.41343,-2.91684 0.85782,-5.47501 0.98749,-5.68484 0.12968,-0.20981 0.4702,-2.10607 0.75674,-4.21386 0.28654,-2.10779 0.85098,-5.12771 1.25426,-6.71099 1.05349,-4.13544 3.52991,-17.89899 4.06838,-22.61118 0.25233,-2.20827 0.81087,-5.05211 1.2412,-6.31955 0.43031,-1.26745 1.10731,-4.84152 1.50449,-7.94237 1.58849,-12.40226 3.11998,-20.29055 5.54618,-28.56625 1.74506,-5.95239 1.96288,-5.6495 -5.2263,-7.26621 -9.68543,-2.17807 -12.78706,-2.78259 -16.47006,-3.21008 -1.87903,-0.21811 -6.3814,-0.88469 -10.00525,-1.48131 -6.11531,-1.00682 -7.55241,-1.06159 -19.99615,-0.7623 -12.13506,0.29191 -15.39417,0.59393 -21.36701,1.97982 -1.41666,0.32871 -1.41016,0.92897 0.12367,11.47304 0.67202,4.61951 1.43842,10.40508 1.70309,12.8569 0.53907,4.99261 1.78141,13.11757 2.49956,16.34657 0.85932,3.86409 1.95638,10.50171 2.39101,14.46657 0.23539,2.14746 0.88915,7.74797 1.4528,12.44556 0.56362,4.69758 1.22494,11.2864 1.4695,14.64183 0.24462,3.35541 0.66752,7.96759 0.93976,10.24928 0.2723,2.28168 0.70706,6.42951 0.96617,9.21736 0.25911,2.78786 0.65386,5.25154 0.8772,5.47488 0.22329,0.22329 2.11262,-0.13593 4.19849,-0.79832 4.79647,-1.52314 7.51916,-1.51436 15.58759,0.0505 6.74452,1.30806 11.73314,3.28622 18.18345,7.21037 3.36303,2.04595 3.51301,2.08241 3.82844,0.92996 z M 380.7955,743.29149 c -0.40266,-0.15524 -1.55569,-0.79953 -2.56232,-1.43177 -1.67615,-1.05278 -1.83024,-1.33558 -1.83024,-3.35917 0,-4.9423 4.86738,-10.28574 7.22332,-7.92983 0.32211,0.32214 0.58566,0.90882 0.58566,1.30377 0,0.39489 0.37093,1.1279 0.8243,1.62885 0.50699,0.56024 0.90456,2.02058 1.03277,3.7936 0.3454,4.7747 -1.87893,7.30314 -5.27349,5.99455 z m 89.07113,-3.3414 c -1.95864,-1.67508 -13.13686,-10.1894 -16.68716,-12.71043 -1.5594,-1.10731 -4.92175,-3.17068 -7.47187,-4.58523 -2.55012,-1.41449 -5.91515,-3.30875 -7.47792,-4.20942 -1.56273,-0.90067 -3.06181,-1.6376 -3.33126,-1.6376 -0.93986,0 -7.13813,-3.8875 -7.43601,-4.66381 -0.51119,-1.33212 0.25288,-3.19441 1.50612,-3.67085 2.47969,-0.94279 21.08985,9.16027 33.33314,18.09583 8.22788,6.00501 12.11099,9.30181 12.4786,10.59444 0.97027,3.41218 -2.1279,5.1695 -4.91364,2.78707 z M 402.7169,732.7651 c -0.96226,-0.32109 -2.37768,-1.05148 -3.14546,-1.62314 -1.22654,-0.91331 -1.39868,-1.35744 -1.41889,-3.66047 -0.0269,-3.04202 1.01737,-5.48829 2.42893,-5.69136 2.03654,-0.29299 5.42197,1.74188 7.00681,4.21162 1.71134,2.66691 1.80812,3.60237 0.58889,5.69152 -0.97953,1.67835 -2.65613,2.00745 -5.46028,1.07183 z m 9.07046,-32.36474 c -1.07373,-0.41046 -2.28168,-0.71759 -2.68433,-0.6825 -2.98986,0.26038 -3.65601,0.0729 -4.97119,-1.39898 -0.75547,-0.84556 -1.3736,-1.74497 -1.3736,-1.99871 0,-1.53807 5.9458,-4.40387 9.13699,-4.40387 1.73081,0 4.29674,1.24783 6.35894,3.09241 0.87842,0.78568 1.09814,1.5024 1.09814,3.58149 l 0,2.59926 -2.80635,-0.0214 c -1.54349,-0.0117 -3.68485,-0.35727 -4.7586,-0.76768 z m 45.6337,-15.02236 c -3.62385,-1.13196 -7.13789,-2.29399 -7.80898,-2.58223 -0.67107,-0.2883 -2.42809,-0.88881 -3.90448,-1.33451 -11.13881,-3.36251 -14.03043,-4.26884 -14.88586,-4.66587 -1.721,-0.79871 -6.12239,-1.93755 -15.36602,-3.97574 -12.87567,-2.8391 -13.7084,-3.27899 -12.92853,-6.82959 0.32436,-1.47702 0.36629,-1.49595 2.59869,-1.17519 6.12033,0.87943 24.45238,5.09754 26.29027,6.04932 0.47835,0.24772 2.73661,0.99451 5.01829,1.65955 2.28169,0.66499 7.33313,2.24244 11.2254,3.50545 3.89229,1.26295 9.38298,3.0107 12.20154,3.88383 7.05251,2.18472 7.32091,2.35631 7.32091,4.68237 0,1.39668 -0.25658,2.05522 -0.94407,2.42312 -1.29989,0.69574 -1.39355,0.67831 -8.81716,-1.64051 z"
       id="path3274"
       inkscape:connector-curvature="0"
       sodipodi:nodetypes="ccssssscssssscssscsscccsscsssscscsssssssssscscscsccsssssscsscsccsssccsscsscsssscssscscsscscsccsscsscsscsssssccsssccscscsscssssscsccsssscsccssssscssssscsscccsssssscsssccccssssssscssssccssccccscssssscccscsccccssscsscsccscscscccsssscsscccccscscssccsscccscccsscsccscsscssccccssccscscssscscscssccscccssccssccssccssssscsccssscsssssscsssccccssssssssssscccscsssssccssccsssssscsssssssscsssccssscscssscssccsscsscsccscsssscssssssccscsccsssssssscscsscssssscsccccscscsscccscsscccscsssccssccssscscccccscsccsccccccssccscccscccccssssscscssscscssccccccccssscssscsscsscsssscssssccccsscscsccscsscsccsscssscscsscssscsssscscscsssccsscssssscssssscssscsccsccssscsccccscscssssssssssccscccsssssccccscscccssccsccscscccsscccccsscsccccscccscccccsscs" />
  </g>
</svg>
