<?xml version="1.0" encoding="UTF-8" standalone="no"?>
<!-- Created with Inkscape (http://www.inkscape.org/) -->

<svg
   xmlns:dc="http://purl.org/dc/elements/1.1/"
   xmlns:cc="http://creativecommons.org/ns#"
   xmlns:rdf="http://www.w3.org/1999/02/22-rdf-syntax-ns#"
   xmlns:svg="http://www.w3.org/2000/svg"
   xmlns="http://www.w3.org/2000/svg"
   xmlns:sodipodi="http://sodipodi.sourceforge.net/DTD/sodipodi-0.dtd"
   xmlns:inkscape="http://www.inkscape.org/namespaces/inkscape"
   width="656.36328"
   height="389.73425"
   id="svg3187"
   version="1.1"
   inkscape:version="0.48.2 r9819"
   sodipodi:docname="lamanlaakari.svg">
  <title
     id="title4754">lamanlääkäri</title>
  <defs
     id="defs3189" />
  <sodipodi:namedview
     id="base"
     pagecolor="#ffffff"
     bordercolor="#666666"
     borderopacity="1.0"
     inkscape:pageopacity="0.0"
     inkscape:pageshadow="2"
     inkscape:zoom="0.7"
     inkscape:cx="-693.79008"
     inkscape:cy="173.90768"
     inkscape:document-units="px"
     inkscape:current-layer="layer1"
     showgrid="false"
     inkscape:window-width="2560"
     inkscape:window-height="1418"
     inkscape:window-x="0"
     inkscape:window-y="12"
     inkscape:window-maximized="1"
     fit-margin-top="0"
     fit-margin-left="0"
     fit-margin-right="0"
     fit-margin-bottom="0" />
  <metadata
     id="metadata3192">
    <rdf:RDF>
      <cc:Work
         rdf:about="">
        <dc:format>image/svg+xml</dc:format>
        <dc:type
           rdf:resource="http://purl.org/dc/dcmitype/StillImage" />
        <dc:title>lamanlääkäri</dc:title>
        <cc:license
           rdf:resource="http://creativecommons.org/licenses/by-nc/3.0/" />
        <dc:creator>
          <cc:Agent>
            <dc:title>henri vesala</dc:title>
          </cc:Agent>
        </dc:creator>
        <dc:publisher>
          <cc:Agent>
            <dc:title>fraktio</dc:title>
          </cc:Agent>
        </dc:publisher>
      </cc:Work>
      <cc:License
         rdf:about="http://creativecommons.org/licenses/by-nc/3.0/">
        <cc:permits
           rdf:resource="http://creativecommons.org/ns#Reproduction" />
        <cc:permits
           rdf:resource="http://creativecommons.org/ns#Distribution" />
        <cc:requires
           rdf:resource="http://creativecommons.org/ns#Notice" />
        <cc:requires
           rdf:resource="http://creativecommons.org/ns#Attribution" />
        <cc:prohibits
           rdf:resource="http://creativecommons.org/ns#CommercialUse" />
        <cc:permits
           rdf:resource="http://creativecommons.org/ns#DerivativeWorks" />
      </cc:License>
    </rdf:RDF>
  </metadata>
  <g
     inkscape:label="Layer 1"
     inkscape:groupmode="layer"
     id="layer1"
     transform="translate(-38.465792,-6.3644158)">
    <path
       style="fill:#000000"
       d="m 432.53735,138.14469 c 0.24817,0 4.20599,-1.23376 7.32903,-2.04721 3.12305,-0.81345 5.23182,-0.21339 5.61214,0.0217 0.38032,0.23505 1.25791,1.85231 1.02423,4.90571 -0.48534,6.34161 -0.36235,6.40936 7.37402,4.06245 2.69991,-0.81904 3.98374,-1.11523 4.39624,-1.12119 0.4125,-0.006 2.01233,2.42287 2.0119,5.86037 l -8e-4,6.25 7.65924,0 c 4.60292,0 6.16505,0.68464 6.38691,1.3354 0.20305,0.59557 0.65544,2.36803 -1.00097,4.24746 -1.6564,1.87943 -3.01883,3.99376 -3.02762,4.69852 -0.009,0.70477 -0.69097,1.54041 -1.51597,1.85699 -0.825,0.31659 -1.5,1.22197 -1.5,2.01196 0,2.18636 -9.97866,12.23474 -14.5,14.6013 -5.46416,2.86006 -19.38609,3.70825 -22.9149,1.39609 -2.29349,-1.50276 -2.7814,-1.44721 -7.9097,0.90061 l -5.46543,2.50216 -5.35499,-2.01679 c -2.94524,-1.10924 -6.86184,-3.43486 -8.70355,-5.16805 l -3.34856,-3.15126 -2.32834,2.89281 -2.32834,2.8928 4.42691,4.09096 c 3.4383,3.17739 4.4269,4.79643 4.4269,7.25 0,4.19771 -1.42022,3.99387 -3.66764,-0.52643 -1.0078,-2.027 -3.01963,-4.55236 -4.47073,-5.6119 -2.6358,-1.92457 -2.6421,-1.9239 -6.47532,0.68084 -3.36995,2.28993 -3.8006,3.02931 -3.53821,6.07477 0.64052,7.43458 -3.0719,21.10994 -10.25925,37.79176 l -1.61569,3.75 5.06601,0 c 2.78631,0 8.07985,-0.64228 11.76342,-1.42729 3.68358,-0.78501 10.48508,-1.70181 15.11446,-2.03733 4.95026,-0.35878 8.8631,-1.14143 9.5,-1.90019 1.88249,-2.24267 14.37176,-9.03495 37.06858,-20.15975 19.60157,-9.60766 22.69234,-10.82676 28.50285,-11.2425 4.5094,-0.32265 7.64652,0.006 10.18281,1.06527 4.25926,1.77963 4.82481,1.46238 4.83972,-2.71488 0.006,-1.69583 0.29808,-4.82109 0.64896,-6.94502 l 0.63796,-3.86169 4.10104,0.68002 c 8.45697,1.4023 8.00136,1.67104 9.12095,-5.37995 0.56096,-3.53282 1.46728,-6.57242 2.01404,-6.75468 0.54676,-0.18225 3.45947,0.30814 6.4727,1.08976 3.80216,0.98627 5.67998,1.09522 6.13678,0.35606 0.3621,-0.58579 1.2092,-4.60643 1.8825,-8.93475 1.3129,-8.43921 2.0125,-9.69656 4.0379,-7.25613 1.7117,2.06247 6.5191,4.50681 7.3094,3.7165 0.3447,-0.34473 0.6268,-3.70178 0.6268,-7.46012 0,-3.75833 0.3375,-6.81902 0.75,-6.80153 0.4125,0.0175 1.6235,0.6925 2.6911,1.5 1.0676,0.80751 2.9595,1.4682 4.2043,1.4682 2.0982,0 2.2847,-0.49212 2.5589,-6.75 l 0.2957,-6.75 5.8575,0.34939 5.8575,0.34938 -0.6934,-5.04124 c -0.948,-6.89301 -0.033,-9.49709 3.0726,-8.74227 1.3232,0.32161 3.5308,0.85852 4.9058,1.19315 2.4709,0.60132 2.5,0.53343 2.5,-5.83334 0,-3.54295 0.2841,-6.72585 0.6313,-7.0731 0.3473,-0.34725 1.5724,0.0277 2.7225,0.83334 2.559,1.79234 7.6387,1.93461 7.666,0.21469 0.039,-2.46773 2.0148,-14.99697 2.4847,-15.75731 0.264,-0.42714 2.1464,0.74976 4.1831,2.61534 2.0368,1.86558 4.2281,3.39197 4.8697,3.39197 0.6416,0 1.6439,-2.3625 2.2273,-5.25 1.3659,-6.760283 2.9082,-10.750003 4.1558,-10.750003 0.5445,0 2.5672,1.38484 4.495,3.07743 1.9277,1.69259 3.913,2.82524 4.4118,2.517 0.4987,-0.30824 1.4414,-2.70558 2.0949,-5.32743 0.6535,-2.62185 1.8782,-5.83138 2.7216,-7.13229 l 1.5334,-2.3653 4.8158,4.74334 4.8158,4.74334 2.0631,-3.87804 c 2.8374,-5.33353 4.949,-7.87056 5.8231,-6.99646 0.4045,0.40457 1.2929,3.46793 1.9741,6.80747 0.6812,3.33954 1.4442,6.27749 1.6955,6.52878 0.2512,0.25128 3.0156,-0.0743 6.1431,-0.72357 7.5184,-1.56082 8.2938,-0.76292 6.282,6.464823 l -1.5349,5.51453 5.9545,1.67073 c 3.2749,0.91891 6.2161,2.35263 6.5359,3.18606 0.3198,0.83342 -0.2048,3.72922 -1.1658,6.43509 -0.9611,2.70588 -1.6016,5.04586 -1.4234,5.19996 0.1782,0.1541 1.7866,1.02397 3.5741,1.93304 2.7057,1.37607 3.25,2.22248 3.25,5.05438 0,2.69549 -0.7547,4.0236 -3.6361,6.39864 -3.9072,3.22068 -4.0472,5.89554 -0.3589,6.86005 1.0972,0.28693 1.995,1.12799 1.995,1.86901 0,1.45989 -6.7007,6.41942 -8.6732,6.41942 -2.4942,0 -2.4325,2.23999 0.1648,5.98795 4.0107,5.7874 3.2132,7.44809 -3.7514,7.81195 -3.1571,0.16495 -5.7377,0.61495 -5.7347,1 0,0.38506 0.4785,2.40306 1.0565,4.48444 0.578,2.08139 0.7741,4.65666 0.4357,5.72282 -0.5288,1.66597 -1.2396,1.8529 -5.0565,1.32973 l -4.4412,-0.60874 0,4.93593 c 0,2.71475 -0.54,5.47592 -1.2,6.13592 -0.66,0.66 -3.8095,1.2 -6.9989,1.2 l -5.7989,0 0.1517,3.75 c 0.3007,7.43125 0.2234,7.56911 -3.9039,6.95907 -2.0625,-0.30485 -5.1547,-0.85879 -6.8716,-1.23098 -3.0941,-0.67075 -3.128,-0.63399 -3.8487,4.1726 -0.3999,2.66712 -1.1486,5.63681 -1.6636,6.59931 -0.8306,1.55215 -1.1869,1.58976 -3.1513,0.3327 -1.2182,-0.77951 -4.0142,-1.56701 -6.2134,-1.75 l -3.9986,-0.3327 -1.0014,5.67533 c -0.5508,3.12144 -1.2474,5.91744 -1.5481,6.21333 -0.3007,0.2959 -2.7649,-0.1296 -5.4761,-0.94555 -2.7112,-0.81595 -5.4419,-1.28693 -6.0681,-1.04661 -0.6263,0.24032 -1.361,2.75091 -1.6328,5.57909 -0.6633,6.90369 -1.4651,7.53846 -7.648,6.0552 -2.7684,-0.66413 -5.4788,-0.93225 -6.0231,-0.59584 -0.5443,0.33642 -1.2974,2.66382 -1.6736,5.17202 -0.6104,4.07054 -0.9119,4.48899 -2.8077,3.89595 -6.5496,-2.04879 -6.4017,-2.12957 -7.1563,3.90987 -0.7655,6.12637 -1.5096,7.14974 -4.197,5.77179 -0.9738,-0.49935 -2.948,-1.18865 -4.3871,-1.53178 -2.5081,-0.59803 -2.669,-0.37605 -3.8866,5.36167 -1.1604,5.46776 -1.4969,5.98553 -3.8902,5.98553 -1.441,0 -4.1019,-0.42501 -5.9131,-0.94447 -3.1209,-0.89506 -3.2513,-0.82968 -2.4934,1.25 0.4399,1.20696 0.7998,5.1855 0.7998,8.8412 0,5.14007 -0.4331,7.12484 -1.9104,8.75597 -1.8702,2.06479 -1.8713,2.22425 -0.056,7.56593 1.20329,5.96931 0.92538,7.02687 0.1391,10.89922 -1.4109,4.47605 -2.91044,6.53024 -8.44434,11.56779 -8.24993,7.50998 -7.70897,6.97476 -10.45923,10.34812 -3.21779,3.94682 -9.00845,4.77989 -12.22441,1.75866 -1.30676,-1.22765 -2.65785,-3.35532 -3.00241,-4.72817 -0.46696,-1.86051 -1.06143,-2.32054 -2.33461,-1.80664 -4.73734,1.91214 -8.99759,1.70792 -12.09166,-0.57962 -3.46107,-2.55888 -3.96219,-5.336 -1.46148,-8.09925 1.99194,-2.20107 1.44012,-2.23315 -5.65499,-0.32874 -3.025,0.81194 -8.77144,1.4816 -12.76987,1.48813 -5.98706,0.01 -7.95736,0.44586 -11.16594,2.47135 -2.14284,1.35271 -4.19238,2.93892 -4.55454,3.5249 -2.04298,3.30562 -32.00067,15.13298 -46.67359,18.42684 -6.43961,1.44559 -23.25518,3.4548 -32.33606,3.86366 l -5,0.22512 -0.57719,9.11727 c -1.06078,16.7559 -7.96909,24.02585 -24.65071,25.94113 -5.46923,0.62794 -5.91246,0.88997 -8.44717,4.99361 -3.02111,4.89112 -7.77125,7.71588 -17.79593,10.58268 -8.78867,2.51334 -14.69982,2.34843 -22.61522,-0.63092 l -6.63187,-2.49623 -1.98961,2.52937 c -4.63018,5.88633 -17.90646,10.43302 -30.51741,10.45122 -8.04866,0.0116 -8.45625,-0.10831 -19,-5.59039 l 3.9e-4,0 c -21.8756,-11.37391 -24.17908,-12.34073 -34.00343,-14.27189 -6.8212,-1.34083 -14.49954,-1.95911 -25.43117,-2.04778 -15.80488,-0.12819 -21.99507,0.64357 -28.68143,3.57582 -5.61945,2.46437 -18.54077,7.14745 -30.15886,10.93051 -8.747897,2.84847 -12.085237,3.43686 -19.999997,3.5261 -6.6027,0.0745 -10.56743,-0.36503 -13,-1.44104 -1.925,-0.8515 -6.80005,-2.81296 -10.83345,-4.35882 -13.25558,-5.08038 -17.6595,-10.69181 -22.23046,-28.32588 -1.70505,-6.57781 -2.04354,-9.9188 -1.54661,-15.26556 0.87492,-9.41379 2.56735,-12.86873 9.83933,-20.08609 6.31727,-6.26982 11.71594,-9.26468 47.27119,-26.22323 9.035307,-4.30951 18.951077,-13.7499 23.013167,-21.90988 2.86235,-5.74994 2.99841,-6.62516 3.2646,-21 0.15278,-8.25 0.26919,-22.06834 0.25869,-30.70742 -0.0252,-20.71821 1.37736,-27.73084 8.44041,-42.20165 5.50413,-11.27686 11.05592,-19.48113 25.09928,-37.09093 8.23946,-10.33195 39.72656,-41.626533 46.42385,-46.140003 2.475,-1.66797 12.375,-7.1094 22,-12.09207 17.42147,-9.01874 29.4415,-13.89641 40.09403,-16.26995 4.91988,-1.09622 5.73334,-1.63168 6.75,-4.4432 0.63578,-1.75823 1.15597,-4.33188 1.15597,-5.71923 0,-1.38735 0.83706,-4.9554 1.86013,-7.929 2.19859,-6.39033 2.13987,-6.12141 2.13987,-9.79956 0,-1.76078 0.64291,-3.13972 1.64272,-3.52338 0.90349,-0.34671 7.26288,-1.08674 14.13198,-1.64453 22.49722,-1.82683 49.78459,-10.56503 57.69524,-18.47568 4.77312,-4.7731299 6.02988,-3.6891 7.57813,6.5366 0.62455,4.125 1.91814,9.3 2.87463,11.5 0.95649,2.2 2.02158,5.12926 2.36687,6.50948 0.68506,2.73837 5.56878,8.3291 10.03741,11.49052 1.55484,1.1 3.63813,3.55707 4.62954,5.46016 l 1.80256,3.46017 6.87046,-6.55126 c 10.87507,-10.3698 23.51167,-20.90046 27.55617,-22.96381 6.81455,-3.47653 13.16956,-5.12677 22.21567,-5.76887 l 8.96574,-0.63639 1.33501,-2.388321 c 1.46541,-2.621607 3.04506,-6.19036 3.38911,-8 0.62647,-3.2951803 2.60594,-7.1764018 3.62399,-6.1583617 1.01208,1.01208 -0.0515,8.8494917 -3.10357,13.6528417 -1.67213,2.6316 -1.61166,2.836531 -1.61166,3.292711 0,0.45618 1.9125,1.58453 4.25,2.50745 2.47029,0.97535 5.42844,3.23071 7.06416,5.38586 5.61058,7.39224 10.84549,16.42035 11.32412,19.52951 0.53143,3.45218 -3.76831,24.66042 -6.16028,30.38521 -0.8129,1.94554 -1.478,5.9281 -1.478,8.85012 0,6.85325 -1.03078,9.40541 -5.58514,13.828553 -3.60375,3.49992 -3.95907,3.61443 -11.21527,3.61443 -7.09486,0 -8.29086,0.56649 -12.36624,3.90596 -1.28769,0.65399 -2.46241,1.52073 -4.2211,1.26161 -1.75869,-0.25912 -3.78567,-3.22248 -4.18936,-1.20044 -0.0885,0.44356 -0.87292,1.15341 0.62592,2.41632 1.49883,1.26292 5.28143,2.82646 5.99467,3.96758 2.44748,3.87894 1.93178,7.48955 0.25189,8.52777 l -13.39057,5.62877 -0.38486,-2.07364 c 3.60576,-6.63138 18.36575,-3.55786 9.55589,-11.35292 -3.4394,-3.47447 -3.63393,-2.61496 -6.21614,-4.07586 -3.07645,-0.61735 -3.49828,-3.17823 -4.35531,-3.23178 -0.85703,-0.0536 -0.9088,1.72763 -1.92282,2.789 -1.3027,1.30271 -5.78673,-0.68864 -5.78673,-0.68864 -0.59188,-3.35905 -2.89326,-2.43115 -4.24033,-1.08923 -1.24029,1.23553 -1.51908,1.70809 1.91248,3.10288 14.09423,1.77942 21.20988,10.51766 5.21227,3.50689 -1.67996,-0.38248 -9.69343,-3.2012 -10.54085,-3.09181 -0.84743,0.10939 -2.67317,0.0533 -2.96308,0.52409 -0.14496,0.23539 -2.27073,2.0972 -0.55873,2.30141 1.71201,0.2042 4.3576,-1.31233 6.17923,-0.005 1.69641,1.2175 1.82537,4.39048 1.82537,5.19266 0,1.65 0.24293,2.6212 0.91865,2.68433 0.29562,0.0276 2.17228,-0.66473 4.62373,-1.56731 10.18257,-1.389 6.10316,2.30155 6.71016,3.44648 -0.12627,3.46027 0.43707,5.69114 6.89911,2.41398 4.17819,-0.65498 4.9825,-1.64138 5.53665,2.07949 0.22537,1.51326 1.04757,2.86824 0.94216,5.19558 z M 263.85043,382.89816 c 3.72505,-1.55193 6.93026,-3.29684 7.12268,-3.87758 0.19242,-0.58075 -1.12103,-1.76594 -2.91878,-2.63377 -8.97509,-4.33253 -22.54177,-17.59643 -19.75791,-19.31695 2.2533,-1.39262 7.14036,0.88195 12.13981,5.65018 6.92503,6.60478 11.25531,9.00312 23.84947,13.20917 9.50561,3.17458 10.99322,3.41506 15.70803,2.5393 10.32524,-1.91786 18.29197,-7.11986 18.29197,-11.94402 0,-1.32943 -1.27221,-2.05512 -5.00697,-2.85609 -6.32403,-1.35626 -17.74033,-7.0819 -20.91734,-10.49072 -1.33338,-1.43066 -3.23004,-2.6012 -4.21482,-2.6012 -2.25463,0 -3.9298,-3.0204 -3.20737,-5.783 0.62326,-2.38333 1.85695,-1.95434 8.3465,2.90235 5.56617,4.16564 12.71119,7.40696 23.98546,10.88094 8.36575,2.57776 11.56537,3.11946 15.82745,2.67957 6.45001,-0.6657 8.82567,-2.10823 12.71723,-7.72206 2.5935,-3.74129 3.01396,-5.32642 3.31785,-12.50825 l 0.34798,-8.22404 -8.34798,-0.73662 c -4.5914,-0.40514 -10.39481,-1.26644 -12.89648,-1.914 -5.04456,-1.30578 -15.04596,-6.80074 -21.95151,-12.06056 -10.47305,-7.97713 -29.08285,-19.94236 -36.68101,-23.58418 -9.48415,-4.54578 -18.98157,-7.02144 -23.88426,-6.22585 -3.0029,0.48731 -3.43473,0.29239 -3.43473,-1.5504 0,-2.5756 3.55814,-5.04566 8.4002,-5.83142 8.99376,-1.45948 34.46976,11.56111 60.0998,30.71657 17.64262,13.18579 26.37407,15.72288 50,14.52847 21.36253,-1.07999 33.3002,-3.17016 49.93797,-8.74365 17.60095,-5.89616 19.4561,-6.82959 30.06203,-15.12586 5.30579,-4.15035 9.12066,-8.10003 11.3276,-11.72792 3.11137,-5.11462 3.30046,-5.9314 2.90989,-12.56891 -0.68968,-11.72068 -7.20794,-20.91968 -20.37736,-28.75786 -9.00314,-5.35849 -13.66719,-6.70789 -25.36013,-7.33717 -8.22797,-0.44281 -11.90649,-0.18629 -17,1.18552 -8.45625,2.27747 -43.02358,3.32877 -52.26127,1.58943 -15.58516,-2.93449 -36.27151,-11.39787 -45.00076,-18.41111 -2.17009,-1.74349 -5.05423,-5.06127 -6.40918,-7.37283 -4.34643,-7.41503 -4.06057,-20.96738 0.42412,-20.10784 1.32409,0.25377 1.89419,1.70026 2.35465,5.97426 1.11995,10.39534 7.20243,16.81213 22.97746,24.24033 14.94388,7.03682 25.91662,9.59452 41.16498,9.59538 10.33863,5.8e-4 12.75,-0.26744 12.75,-1.41713 0,-0.77981 1.15045,-3.70833 2.55655,-6.50781 3.72573,-7.41777 6.20668,-15.15624 8.4555,-26.37398 2.34522,-11.69867 2.34609,-11.71236 0.73795,-11.65853 -0.6875,0.023 -3.05,2.93433 -5.25,6.46961 -2.2,3.53528 -4.45,6.28227 -5,6.10442 -1.61959,-0.52371 -0.51888,-3.80422 2.59605,-7.73714 1.59717,-2.0166 2.90395,-4.14685 2.90395,-4.73389 0,-0.58705 -2.31624,-1.75521 -5.1472,-2.59591 -4.77408,-1.41775 -5.2441,-1.40244 -6.48378,0.21125 -0.73512,0.9569 -1.7971,3.3749 -2.35997,5.37333 -1.0622,3.77126 -3.2093,6.33291 -4.35106,5.19115 -1.2952,-1.2952 0.3089,-6.33836 1.68023,-9.98312 1.60197,-3.83078 2.0906,-4.50942 1.68968,-5.02977 -1.35877,-1.76355 -4.84975,-3.94775 -7.38611,-6.31177 -7.35325,-6.85362 -6.42122,-11.0885 -13.20299,-5.20907 -2.22513,1.92906 -2.97451,1.86059 -2.97451,-0.43418 0,-1.0511 1.8495,-3.28445 3.45525,-4.63559 l 2.91954,-2.45664 -1.91954,-3.15643 c -2.30254,-3.78623 -2.44359,-6.42828 -0.43227,-8.09752 2.26844,-1.88265 4.2839,-0.53508 6.73005,4.49983 2.13363,4.39167 2.38051,4.56354 6.15139,4.28245 4.47376,-0.33349 6.10408,1.62069 2.17484,2.60686 -1.39895,0.35112 -2.54355,1.20641 -2.54355,1.90065 0,0.69423 2.65935,3.89385 5.90967,7.11026 5.67671,5.61747 6.03261,5.80515 9.02818,4.76089 1.71518,-0.59791 3.78082,-0.83296 4.59033,-0.52232 0.8095,0.31063 1.47182,0.0367 1.47182,-0.60862 0,-1.55259 5.22065,-0.92165 5.75143,0.69508 0.58297,1.7757 -5.05617,4.21065 -5.94505,2.3368 -0.22943,-0.48365 -3.80638,-0.44109 -3.80638,0.90458 0,0.76757 5.75316,2.45326 11.7022,3.42876 2.89121,0.4741 3.64388,0.008 7.75,-4.79816 2.50129,-2.92779 4.5478,-5.77604 4.5478,-6.32944 0,-0.5534 -1.73119,-2.20591 -3.8471,-3.67223 -6.05122,-4.1935 -8.22859,-10.58254 -3.89117,-11.41785 1.66446,-0.32054 4.44671,2.02807 17.10353,14.43781 2.87539,2.81925 7.15606,6.10955 9.51261,7.31177 4.04588,2.06406 4.42496,2.09391 6.80311,0.53569 l 2.51848,-1.65017 -6.82708,-4.91509 c -8.45891,-6.08991 -12.12982,-10.47929 -10.68819,-12.7801 1.66054,-2.65021 4.87773,-2.5004 7.10477,0.33082 1.11086,1.41223 6.83884,6.16172 12.72883,10.55443 10.19388,7.6025 10.96104,7.98673 15.94642,7.98673 2.88054,0 6.6073,-0.47757 8.28169,-1.06126 3.71675,-1.29567 11.2541,-9.98098 11.2541,-12.96815 0,-4.84243 -13.26369,-14.38465 -38.87377,-27.96672 -19.90706,-10.55753 -28.12623,-16.63511 -28.12623,-20.79766 0,-2.89084 5.26108,-8.68701 10.88715,-11.99443 l 4.61285,-2.71178 -15.5,-0.60626 c -16.17935,-0.63283 -27.57599,-2.12722 -34.29095,-4.496393 -2.17828,-0.76854 -6.71643,-1.40175 -10.08478,-1.40712 -6.96882,-0.0111 -14.06605,-2.80519 -19.70772,-7.75864 -1.89896,-1.66731 -6.21414,-3.93802 -9.58928,-5.04602 -3.37514,-1.108 -7.41702,-2.80245 -8.98195,-3.76544 -7.39018,-4.54761 -16.35524,-10.72716 -17.41487,-12.00394 -0.64644,-0.7789 -2.6982,-1.41619 -4.55948,-1.41619 -6.87029,0 -23.61948,3.08654 -33.10427,6.10046 -11.03051,3.50508 -41.92139,18.98797 -50.2667,25.19429 -7.75368,5.766333 -29.19799,26.872583 -35.76912,35.205253 -3.0361,3.85 -8.1144,9.7 -11.28511,13 -11.68357,12.16 -25.38694,34.62456 -29.00879,47.55543 -0.85194,3.04161 -1.31582,14.70346 -1.46959,36.94457 -0.20734,29.9898 -0.38204,32.90791 -2.26183,37.78122 -5.76878,14.95542 -14.54491,22.76989 -39.022017,34.74613 -9.52405,4.65996 -17.50695,8.47265 -17.73977,8.47265 -1.66705,0 -14.73239,9.55235 -18.13082,13.25584 -5.05811,5.51214 -6.71231,10.91776 -6.04201,19.74416 1.06149,13.97747 7.37689,23.62523 18.26304,27.89964 18.85256,7.40239 18.45828,7.30551 27.53099,6.76473 6.92537,-0.41279 11.806857,-1.60458 25.499997,-6.2257 9.31427,-3.14335 17.40083,-6.07782 17.97015,-6.52104 0.56931,-0.44322 4.55621,-1.77185 8.85976,-2.95251 7.09551,-1.94662 9.60819,-2.10283 26.96488,-1.67634 13.27681,0.32625 21.43489,1.00805 26.63077,2.22564 8.53271,1.99952 19.81933,6.88264 26.44543,11.44152 2.4817,1.70745 7.33635,4.4731 10.78811,6.14587 5.8855,2.85221 6.8138,3.01032 14.92188,2.54148 6.38664,-0.36929 10.41578,-1.23728 15.41878,-3.32161 z M 383.86661,178.7074 c -1.08798,-1.7604 0.61466,-4.13092 2.96706,-4.13092 2.55963,0 4.17797,1.71023 2.8149,2.97474 -1.51767,1.40792 -5.17445,2.13915 -5.78196,1.15618 z m -22.58091,-6.4073 c 0,-2.48444 2.17093,-3.84529 4.75,-2.97753 1.72569,0.58063 1.58044,4.25391 -0.16821,4.25391 -0.78002,0 -2.13002,0.27314 -3,0.60699 -1.18143,0.45336 -1.58179,-0.0233 -1.58179,-1.88337 z m -2.80963,-11.47362 c 0.18536,-0.9625 1.22469,-1.75 2.30963,-1.75 1.08494,0 2.12427,0.7875 2.30963,1.75 0.25243,1.31075 -0.32729,1.75 -2.30963,1.75 -1.98234,0 -2.56206,-0.43925 -2.30963,-1.75 z m 24.05013,-25.5 c -3.34803,-3.57335 -7.22004,-12.86458 -7.23073,-17.35078 -0.0122,-5.11394 1.76321,-10.39922 3.49323,-10.39922 0.98426,0 1.18078,1.42099 0.79521,5.75 -0.57753,6.48417 2.15756,15.97734 5.68506,19.73219 1.1092,1.18069 2.01673,2.68021 2.01673,3.33226 0,1.91801 -2.48603,1.36202 -4.7595,-1.06445 z m 5.95211,-5.05128 c -1.77431,-1.83062 -3.65234,-4.81491 -4.17341,-6.63176 -1.21653,-4.24181 0.4359,-12.26386 3.00513,-14.58898 2.36379,-2.1392 5.50599,-1.23675 4.45834,1.28045 -0.39866,0.95786 -0.95308,3.88407 -1.23205,6.50269 -0.43308,4.06524 -0.0949,5.35614 2.31408,8.83225 2.13716,3.08392 2.57531,4.46112 1.80686,5.67936 -1.65717,2.62717 -2.78095,2.43184 -6.17895,-1.07401 z m -43.9767,-19.76865 c -5.70322,-0.74087 -16.52308,-5.00004 -17.75159,-6.9878 -1.11895,-1.8105 1.67798,-1.85932 6.21296,-0.10846 2.6525,1.02408 8.84302,2.40889 13.75672,3.07737 4.9137,0.66847 9.85367,1.70759 10.9777,2.30915 2.02137,1.08181 2.02209,1.1022 0.066,1.86643 -2.40384,0.93916 -5.0682,0.90768 -13.26179,-0.15669 z M 503.0857,315.37648 c 3.03774,-3.03774 -1.07164,-8.33761 -5.91386,-7.62713 -3.0281,0.44431 -3.2364,1.73959 -0.89687,5.57713 2.04177,3.34913 4.70883,4.1519 6.81073,2.05 z m -17.8,-8.69301 c 0,-3.053 -1.43248,-4.10699 -5.58179,-4.10699 -1.59299,0 -2.41821,0.57032 -2.41821,1.67126 0,2.50269 2.99907,5.32874 5.65499,5.32874 1.91963,0 2.34501,-0.52479 2.34501,-2.89301 z m 28.78441,-4.47255 c 7.35048,-7.77205 7.67781,-10.48768 2.90903,-24.13444 -3.63163,-10.39259 -4.76584,-12.67466 -8.07643,-16.25 -3.1022,-3.35028 -5.41291,-3.96478 -8.5651,-2.27778 -3.10265,1.66049 -3.10787,3.87009 -0.0206,8.73815 4.15634,6.55387 6.97843,14.5878 7.64982,21.77748 1.23355,5.70849 0.0639,6.56666 -4.03208,10.17206 -4.74465,4.17638 -4.97158,5.34009 -1.0414,5.34009 1.25087,0 2.55243,0.45 2.89235,1 1.23135,1.99237 3.30461,0.89984 8.28441,-4.36556 z m -17.40285,-1.22168 c 7.08878,-5.86212 6.42351,-5.79736 5.7462,-11.24477 -0.52835,-5.82678 -3.93682,-14.0565 -8.63169,-22.41799 -3.1104,-5.53958 -6.73519,-6.51407 -8.64433,-2.32395 -0.92564,2.03156 -0.66534,3.21047 1.60079,7.25 3.86721,6.89359 6.84252,16.01224 6.13909,18.81493 -0.38475,1.53297 -2.39882,3.3678 -5.62312,5.12268 -2.76301,1.50382 -4.76289,3.11961 -4.98708,3.62595 -0.58755,1.32699 2.55318,1.14074 4.07425,3.10002 1.74844,2.25213 1.28655,4.41507 3.26242,3.6539 0.65005,-0.004 3.82861,-2.5149 7.06347,-5.58077 z m -25.38156,-4.09016 c 7.57828,-1.77673 12.76507,-3.80002 15.0557,-5.87301 1.39896,-1.26604 1.46526,-2.11859 0.46964,-6.03971 -0.63758,-2.51107 -1.63371,-4.86805 -2.21362,-5.23773 -0.57991,-0.36968 -2.30819,-3.08005 -3.84061,-6.02304 -2.19567,-4.21673 -2.59387,-5.89074 -1.87867,-7.89785 1.4483,-4.0645 5.86121,-6.72242 11.21422,-6.75441 3.10446,-0.0186 5.87822,-0.78322 8.19334,-2.25871 1.925,-1.22687 4.44595,-2.23235 5.60212,-2.2344 3.30343,-0.006 8.54263,4.0865 12.3803,9.67034 1.93467,2.81495 4.09621,5.95236 4.80343,6.97201 1.08531,1.56477 1.20051,0.82619 0.7386,-4.73558 -0.57412,-6.91293 -4.46349,-18.35224 -6.89529,-20.28024 -0.78409,-0.62165 -2.98349,-4.77682 -4.88757,-9.2337 -5.20224,-12.17695 -15.83947,-25.87537 -22.88354,-29.46899 -4.56655,-2.32968 -8.18031,-2.42972 -13.98232,-0.38707 -5.13324,1.8072 -51.44756,24.6482 -54.37452,26.81608 -1.93883,1.43601 -1.90883,1.50087 1,2.1622 8.5209,1.93723 10.78242,2.84353 18.16036,7.27781 11.59479,6.96867 15.7355,10.80766 20.36548,18.88146 3.49528,6.09513 4.20109,8.29927 4.67836,14.60978 0.54526,7.20966 0.44306,7.65879 -3.42055,15.03209 l -3.98261,7.60038 4.59887,-0.53689 c 2.52939,-0.29529 7.52388,-1.22266 11.09888,-2.06082 z m -10.54802,-36.75554 c -1.8427,-2.81232 -0.8076,-5.77119 2.67004,-7.63236 2.00471,-1.07289 1.94368,-1.23547 -1.77292,-4.72293 -2.117,-1.98649 -5.19016,-4.54619 -6.82923,-5.68822 -1.9272,-1.3428 -2.98715,-2.95038 -3,-4.54999 -0.0142,-1.77131 -0.63804,-2.56158 -2.19725,-2.78359 -1.19756,-0.17052 -2.69945,-0.93909 -3.33753,-1.70793 -1.5885,-1.91403 2.98184,-6.48204 6.48534,-6.48204 2.13861,0 2.55379,0.45387 2.51559,2.75 -0.10641,6.39718 1.13873,9.27528 4.64685,10.74107 1.86739,0.78024 3.66206,2.11394 3.98818,2.96378 0.32611,0.84983 1.20225,1.54515 1.94698,1.54515 0.74473,0 2.22551,0.93539 3.29061,2.07864 1.7534,1.88206 2.2063,1.94953 4.78895,0.71352 1.56883,-0.75081 4.08991,-1.20631 5.60241,-1.01222 3.95084,0.50701 3.5276,3.45024 -1,6.95405 -4.69217,3.63117 -13.96111,9.26601 -15.24197,9.26601 -0.52906,0 -1.67928,-1.09482 -2.55605,-2.43294 z m 19.28246,-22.01534 c -2.07106,-2.98353 -6.04262,-7.91606 -8.82569,-10.96118 -4.77479,-5.22438 -5.53238,-7.59054 -2.43032,-7.59054 4.02463,0 20.4283,19.19472 19.18114,22.44477 -1.15466,3.00898 -4.15816,1.53357 -7.92513,-3.89305 z m 7.56533,-3.2596 c -2.08987,-2.58934 -6.43136,-7.51097 -9.64775,-10.93697 -5.25457,-5.597 -6.41762,-8.35515 -3.52318,-8.35515 4.38795,0 21.81847,19.08896 20.52009,22.47249 -1.03399,2.69453 -3.45205,1.64811 -7.34916,-3.18037 z m 7.27037,-3.97409 c -1.37608,-2.02509 -5.47824,-6.75479 -9.1159,-10.51045 -6.19956,-6.40066 -7.33465,-8.68078 -4.75031,-9.54222 3.21429,-1.07143 22.16165,19.0366 20.9393,22.22198 -1.04238,2.71641 -4.46685,1.66612 -7.07309,-2.16931 z m 40.4146,16.93197 c 0.02,-2.99912 -1.0491,-2.83601 -4.4107,0.67267 l -2.8001,2.92268 2.8631,0.32732 c 3.2179,0.36791 4.3252,-0.6312 4.3477,-3.92267 z m 15.996,-22.14394 c 18.917,-13.04221 33.7494,-22.52501 44.5193,-28.46239 13.2862,-7.32463 25.596,-15.94396 28.9957,-20.30277 6.9463,-8.90583 9.5043,-12.39276 9.5043,-12.95565 0,-0.32859 1.3572,-2.31105 3.016,-4.40545 5.5761,-7.04043 8.3342,-14.59593 8.7966,-24.09708 0.4003,-8.22748 0.2499,-8.99648 -3.3267,-17 -2.0603,-4.6105 -4.475,-9.23555 -5.366,-10.2779 -2.5773,-3.01519 -9.2779,-5.51892 -16.1676,-6.0412 -5.7616,-0.43676 -6.8238,-0.19897 -11.2347,2.51511 -14.111,8.68256 -30.6594,24.47595 -39.7343,37.92127 -8.2828,12.27176 -30.0499,33.73805 -54.04238,53.29558 -7.95873,6.48757 -15.10133,12.1855 -15.87243,12.66207 -1.11127,0.6868 -0.56559,1.86974 2.63141,5.70442 5.0478,6.05462 10.13494,14.19437 13.33571,21.33793 1.35539,3.025 2.80185,5.65 3.21435,5.83333 0.4125,0.18334 0.75,0.71654 0.75,1.1849 0,0.46837 0.45317,2.04349 1.00703,3.50027 l 1.00704,2.6487 7.51687,-6.72754 c 4.1342,-3.70015 13.7867,-11.05027 21.4498,-16.3336 z m -4.5077,11.03367 c -0.2534,-0.25344 -1.3934,0.38317 -2.5332,1.41469 -1.9802,1.79211 -1.9922,1.9341 -0.27,3.19343 1.5976,1.16818 1.8854,1.00742 2.5332,-1.41469 0.402,-1.50294 0.5235,-2.93999 0.27,-3.19343 z m 10.1819,-4.68286 c 0.3257,-0.84872 0.3224,-1.81284 -0.01,-2.1425 -0.8647,-0.86466 -3.7309,1.74199 -3.0777,2.79894 0.8535,1.38097 2.432,1.04509 3.0849,-0.65644 z m 15.434,-9.789 c 0.3279,-2.01733 0.4621,-3.66787 0.2981,-3.66787 -0.8939,0 -7.4774,4.99708 -7.4901,5.68516 -0.016,0.89222 4.0055,2.24087 5.5995,1.87764 0.548,-0.12488 1.2646,-1.8776 1.5925,-3.89493 z m 13.9111,-8.66787 c 0,-3.54942 -0.034,-3.55795 -4.1733,-1.04082 l -3.2216,1.95919 2.4474,0.97743 c 4.0723,1.62634 4.9475,1.291 4.9475,-1.8958 z m 16.8501,-10 c 0.5752,-1.65 0.8563,-3 0.6246,-3 -0.2317,0 -2.5106,1.0125 -5.0642,2.25 l -4.6429,2.25 2.8662,0.63169 c 4.836,1.06581 5.1377,0.96233 6.2163,-2.13169 z m -99.13096,-5.34791 c 2.56852,-2.24864 2.13901,-3.65209 -1.11768,-3.65209 -2.28974,0 -4.6015,3.35071 -4.6015,6.6695 0,1.70333 0.82275,1.26925 5.71918,-3.01741 z m 114.28086,-5.17514 c 0,-2.46141 -0.061,-2.48303 -2.5,-0.88499 -1.375,0.90093 -2.5,2.03631 -2.5,2.52305 0,0.48674 1.125,0.88499 2.5,0.88499 2.0061,0 2.5,-0.49846 2.5,-2.52305 z m -98.6526,-7.30543 c 1.82365,-2.01801 1.80052,-2.05314 -1.79663,-2.72797 -2.00424,-0.37599 -3.79668,-0.51711 -3.9832,-0.31359 -0.18652,0.20352 -0.66639,2.34939 -1.06637,4.76859 l -0.72723,4.39856 2.86299,-2.04063 c 1.57465,-1.12234 3.69435,-2.96058 4.71044,-4.08496 z m 110.6526,-3.17152 c 0,-3.58986 -0.5706,-3.72986 -3.0565,-0.75 -2.5174,3.01766 -2.4087,3.75 0.5565,3.75 2.1111,0 2.5,-0.46667 2.5,-3 z m -97.9623,-6.99028 c 3.3565,-2.89896 3.403,-3.03638 1.5211,-4.5 -2.0579,-1.60056 -4.5428,-2.01252 -4.5827,-0.75972 -0.013,0.4125 -0.4157,2.4375 -0.8947,4.5 -0.4789,2.0625 -0.5637,3.75 -0.1883,3.75 0.3753,0 2.2404,-1.34563 4.1446,-2.99028 z m 106.9623,-3.84305 c 0,-2.79859 -1.1449,-3.34553 -3.1689,-1.51386 -2.5103,2.27182 -2.2954,3.34719 0.6689,3.34719 1.7575,0 2.5,-0.54444 2.5,-1.83333 z m -93.3516,-9.16034 c 1.417,-1.79198 0.082,-2.96733 -3.3984,-2.99102 -1.9748,-0.0134 -2.25,0.49293 -2.25,4.13968 l 0,4.15499 2.2336,-1.90499 c 1.2285,-1.04775 2.7652,-2.57714 3.4148,-3.39866 z M 470.2857,159.4657 c 0,-0.48907 -1.55407,-0.88922 -3.45349,-0.88922 l -3.45349,0 1.70349,3.01873 1.70349,3.01874 1.75,-2.12952 c 0.9625,-1.17124 1.75,-2.52967 1.75,-3.01873 z m 180.00004,2.22825 c 0,-1.10781 -3.0528,-5.11747 -3.8962,-5.11747 -0.4306,0 -1.4031,1.2375 -2.1612,2.75 -0.7582,1.5125 -1.5095,2.98728 -1.6696,3.27729 -0.1602,0.29001 1.5129,0.35525 3.7179,0.14497 2.205,-0.21028 4.0091,-0.68494 4.0091,-1.05479 z m -94.042,-9.72248 c 1.7409,-1.98276 3.025,-3.72307 2.8536,-3.86734 -0.1714,-0.14428 -1.9991,-0.56742 -4.0616,-0.9403 l -3.75,-0.67798 0,4.54532 c 0,2.49992 0.4033,4.54531 0.8964,4.54531 0.493,0 2.3207,-1.62226 4.0616,-3.60501 z m -98.62888,-3.9796 c -0.69649,-1.81502 -1.36191,-1.78118 -4.21063,0.21414 l -2.32648,1.62953 2.85398,2.28314 2.85397,2.28314 0.68615,-2.49729 c 0.37738,-1.3735 0.44173,-3.1342 0.14301,-3.91266 z m 195.22968,0.14573 c 1.8392,-1.36332 1.8505,-1.53087 0.215,-3.19048 -1.9891,-2.01838 -2.2552,-1.85975 -3.1522,1.87936 -0.7383,3.07744 0.069,3.43758 2.9372,1.31112 z M 443.2857,142.07648 c 0,-2.5931 -1.92633,-3.23297 -5.54846,-1.84303 -1.39482,0.53524 -1.08574,0.99068 1.66822,2.45808 1.85913,0.99062 3.49274,1.81998 3.63024,1.84303 0.1375,0.0231 0.25,-1.08308 0.25,-2.45808 z m 124.99504,-6.75 c 0,-0.4125 -0.4082,-0.75 -0.9132,-0.75 -0.5051,0 -1.5709,-0.25045 -2.3686,-0.55656 -1.7159,-0.65846 -2.8,2.50888 -1.9591,5.72419 0.5502,2.10431 0.635,2.0824 2.9014,-0.75 1.284,-1.6047 2.3368,-3.25513 2.3395,-3.66763 z M 429.2857,134.5413 c 0,-1.73468 -0.29945,-1.87493 -2.02801,-0.94983 -2.1634,1.15781 -1.80406,2.98501 0.58703,2.98501 0.79254,0 1.44098,-0.91583 1.44098,-2.03518 z m 227.93934,-1.77303 3.3638,-2.80821 -2.8348,-2.22983 c -3.4426,-2.70796 -5.8541,-2.43694 -6.3012,0.70818 -0.4044,2.84427 0.582,7.13807 1.6397,7.13807 0.4228,0 2.2824,-1.26369 4.1325,-2.80821 z M 416.2857,129.07648 c 0,-1.6934 -0.17527,-1.75371 -2.50206,-0.86084 -1.32869,0.50987 -1.39581,0.81021 -0.33179,1.48469 1.97115,1.24951 2.83385,1.0596 2.83385,-0.62385 z m 160.94864,-6.71472 c -2.6054,-0.96377 -3.9486,-0.24697 -3.9486,2.10707 0,2.94765 1.2244,3.24546 3.7167,0.90402 l 2.3652,-2.22193 z m -173.07491,-1.56563 c 0,-1.30208 -2.32519,-0.96848 -3.29221,-0.37083 -1.03422,0.63919 1.56218,2.97193 2.91944,2.97193 0.51754,0 0.37277,-2.14277 0.37277,-2.6011 z m 249.02751,-3.77681 c 2.589,-4.38809 2.5913,-4.30809 -0.1512,-5.33406 -5.5448,-2.07428 -6.75,-2.24018 -6.7281,-0.92617 0.026,1.54836 3.6732,9.81739 4.3304,9.81739 0.2476,0 1.3946,-1.60072 2.5489,-3.55716 z m -64.2172,-2.61575 c 2.1651,-2.03395 2.2072,-2.28975 0.6595,-4 -2.7655,-3.05586 -4.3435,-2.26644 -4.3435,2.17291 0,4.59165 0.4851,4.83227 3.684,1.82709 z M 415.2857,110.57648 c 1.13279,-2.11664 0.40414,-2.54205 -1.87812,-1.09649 -0.75796,0.48009 -1.0689,1.37319 -0.69098,1.98469 0.9534,1.54262 1.33962,1.4091 2.5691,-0.8882 z m 9,-1 c 0,-2.30982 -2.21754,-2.64774 -3.91929,-0.59725 -0.89398,1.07718 -0.86437,1.52306 0.12755,1.92106 2.60354,1.04465 3.79174,0.62981 3.79174,-1.32381 z m 8.13922,-0.96673 2.36078,-1.96673 -3.25,-0.0333 c -2.59442,-0.0265 -3.25,0.37019 -3.25,1.96676 0,2.5215 1.14144,2.53067 4.13922,0.0333 z m 170.36082,-4.52099 3,-2.47778 -2.5,-1.963263 c -2.9445,-2.31227 -3.6103,-1.84544 -4.5335,3.178763 -0.8076,4.39479 -0.047,4.63272 4.0335,1.26228 z m 41.5,-5.320043 c 0,-0.99029 -0.687,-1.24141 -2.25,-0.82253 -1.2375,0.33164 -3.15,0.61136 -4.25,0.6216 -1.7326,0.0161 -1.5988,0.34512 1,2.459943 2.7308,2.22224 3.1121,2.29438 4.25,0.8039 0.6875,-0.90057 1.25,-2.278893 1.25,-3.062913 z m -193.03868,2.327743 c 3.51751,-1.818983 7.03864,-6.148623 7.03864,-8.654843 0,-1.57395 -0.78837,-1.86514 -5.04966,-1.86514 -2.77731,0 -6.26481,0.61486 -7.75,1.36635 -1.48519,0.7515 -4.38784,1.67189 -6.45034,2.04531 -2.61113,0.47277 -3.74535,1.19668 -3.73469,2.38365 0.0276,3.06953 1.74552,4.536423 6.14969,5.251003 6.57928,1.06749 6.7299,1.0594 9.79636,-0.52633 z m -30.61692,-0.17195 10.65556,-0.65196 0,-2.966023 c 0,-1.88435 -1.11907,-4.24057 -3.06859,-6.46095 -2.61366,-2.9768 -3.02684,-4.17375 -2.787,-8.07384 0.26312,-4.2787 0.0804,-4.66101 -2.78685,-5.83097 -1.83973,-0.75069 -3.58315,-2.4947 -4.35385,-4.35533 -0.70698,-1.7068 -2.57203,-3.76861 -4.14456,-4.5818 -1.57253,-0.81319 -2.85915,-2.14196 -2.85915,-2.95284 0,-0.81088 -0.21388,-1.47432 -0.47528,-1.47432 -0.2614,0 -3.52371,2.97433 -7.24956,6.60962 -3.72586,3.63529 -8.79948,7.69091 -11.27472,9.0125 -2.47524,1.32159 -7.87544,4.64179 -12.00044,7.37822 -4.125,2.73644 -9.975,6.28849 -13,7.89346 -5.22215,2.77071 -5.36851,2.95174 -2.89716,3.58364 12.42107,3.175903 33.59156,4.256453 56.2416,2.870593 z m 196.4953,-4.638603 3.0694,-1.29057 -2.3799,-2.95943 c -2.6925,-3.34804 -3.9269,-2.76766 -4.872,2.29057 -0.676,3.6178 -0.2435,3.82041 4.1825,1.95943 z m 14.1603,-2.70943 c 0,-1.65 -0.4197,-3 -0.9326,-3 -1.2153,0 -2.3778,3.68878 -1.573,4.99105 1.2233,1.97924 2.5056,0.96026 2.5056,-1.99105 z m -271.10497,-5.031 c 6.48635,-3.46117 11.43431,-9.14389 13.13998,-15.09123 2.14769,-7.48853 -4.01192,-19.65702 -10.80887,-21.35325 -1.4994,-0.37419 -3.49949,-1.37718 -4.44464,-2.22888 -2.23534,-2.0143 -10.75408,-1.37061 -16.28154,1.23025 -2.2,1.03518 -6.8125,4.67367 -10.25,8.08554 -5.66238,5.62015 -6.25,6.59284 -6.25,10.34564 0,5.12836 1.72183,8.5105 6.66758,13.09689 5.441,5.04565 6.83478,5.99806 11.07294,7.56641 4.65244,1.72165 12.1939,0.99568 17.15455,-1.65137 z m -8.64507,-16.63128 c -1.8498,-0.74641 -1.51626,-3.12486 0.5968,-4.25573 2.53337,-1.35582 4.42703,0.53783 3.07121,3.07121 -1.01524,1.89699 -1.50798,2.05611 -3.66801,1.18452 z m 93.93125,15.616 c 4.40797,-1.12545 8.90178,-1.91295 9.98625,-1.75 1.57803,0.23712 2.35724,-0.79434 3.90214,-5.16533 1.0617,-3.00389 1.93036,-5.81639 1.93036,-6.25 0,-1.15716 -2.37375,-0.96614 -7.21505,0.58061 -12.46716,3.98313 -16.21655,4.82265 -19.30224,4.32191 -4.07684,-0.66158 -5.8397,1.03855 -4.91151,4.73677 0.68269,2.72003 3.87402,5.57232 6.23469,5.57232 0.74849,0 4.9674,-0.92083 9.37536,-2.04628 z M 420.72028,32.157775 c -7.29265,2.53613 -13.12673,7.357601 -30.18458,23.132821 -9.16341,8.47439 -10.25,9.8427 -10.25,12.90754 0,1.92987 -1.53525,6.47686 -3.51257,10.4033 -1.93192,3.83627 -3.16942,6.97388 -2.75,6.97247 0.41941,-10e-4 3.41274,-1.60059 6.65184,-3.553729 3.2391,-1.95314 8.04129,-4.64166 10.67152,-5.97451 2.63024,-1.33284 7.71757,-5.35866 11.30518,-8.94627 3.5876,-3.58761 6.98636,-6.52292 7.55279,-6.52292 0.56644,0 1.69922,-1.29436 2.5173,-2.87635 0.81808,-1.58199 4.42963,-5.57235 8.02568,-8.86748 3.59604,-3.29512 15.98955,-9.476944 13.84584,-9.698327 -2.29762,-0.237277 -10.82088,1.176176 -13.73124,1.240598 -2.45273,0.05429 -8.12324,0.848836 -8.25491,-0.37069 -0.14868,-1.37703 1.60899,-2.583121 10.39362,-3.093451 4.20839,-0.24448 10.60661,-0.466903 11.93555,-0.974343 1.32893,-0.507441 0.22189,-1.26719 2.90374,-3.130878 3.78034,-2.529703 4.13378,2.5184 5.21642,-4.049291 -4.43918,-3.042584 -19.2543,2.365503 -22.33618,3.40151 z m 24.85197,-0.406845 c -1.37625,3.672111 3.48139,-0.103731 3.58576,-0.456419 0.10437,-0.352692 -1.15165,-0.898304 -2.96948,-1.546972 z M 312.7357,77.738287 c -4.49459,-3.9656 -13.7074,-10.23774 -14.24622,-9.69893 -0.8229,0.8229 2.63244,3.63586 9.29622,7.56798 5.01635,2.96002 6.72177,3.69419 4.95,2.13095 z m 5.89722,-4.87787 c -0.59196,-4.99822 -0.67494,-5.10507 -4.22552,-5.44114 -1.99194,-0.18854 -5.39866,-0.1178 -7.5705,0.1572 l -3.9488,0.5 7.9488,5.09164 c 4.37184,2.8004 8.05029,5.02391 8.17432,4.94114 0.12404,-0.0828 -0.0462,-2.44475 -0.3783,-5.24884 z m 133.27778,-1.88647 11.125,-2.61967 1.06077,-3.6389 c 0.58343,-2.0014 1.36476,-5.3264 1.7363,-7.3889 0.67294,-3.73573 0.66246,-3.75 -2.75428,-3.75 -5.05941,0 -13.0321,2.61418 -24.29279,7.96542 -5.5,2.61367 -11.4625,5.32028 -13.25,6.01468 -5.32024,2.06677 -4.16464,3.69177 3.55028,4.99237 8.04038,1.35547 11.34957,1.12712 22.82472,-1.575 z m -156.00439,-9.39572 c 8.16176,-0.75794 22.08224,0.0785 24.3197,1.46136 0.44659,0.27601 2.09391,-1.34799 3.6607,-3.60887 3.46999,-5.0072 11.71844,-11.86229 17.83793,-14.82468 3.17784,-1.53837 6.34601,-2.18273 10.63111,-2.16224 5.36258,0.0257 6.01735,-0.17714 5.3892,-1.66906 -3.55833,-8.45143 -4.49627,-12.08393 -4.58115,-17.74195 -0.0533,-3.55097 -0.26875,-6.45631 -0.47883,-6.45631 -0.21008,0 -2.44533,1.575 -4.96721,3.5 -2.52189,1.925 -5.01662,3.5 -5.54384,3.5 -0.52722,0 -2.10734,0.75269 -3.51137,1.67265 -3.28437,2.152 -17.41925,7.8875 -23.87685,9.68849 -5.14136,1.43389 -21.17334,3.53192 -29.95402,3.91994 l -4.95402,0.21892 -0.2651,4.02775 c -0.1458,2.21526 -1.40399,7.51666 -2.79598,11.7809 -1.39198,4.26423 -2.53088,7.92157 -2.53088,8.12742 0,0.39656 6.67003,-0.0459 21.62061,-1.43432 z m 23.07667,-7.75175 c -0.23142,-0.4125 -1.0029,-1.976503 -1.09486,-3.56687 -0.18328,-3.169579 -2.82149,-2.674934 -5.08469,-2.410714 -3.47283,0.40544 -3.97799,-3.053408 -0.21416,-3.48945 1.73384,-0.200866 3.56605,0.565524 4.40569,-0.426569 0.83965,-0.992092 -0.26029,-3.932071 -0.1607,-4.790281 0.3955,-3.408332 1.93234,-3.51783 3.18358,-0.22683 0.58192,1.53056 0.61455,4.481463 1.85415,4.481463 3.25222,-0.220631 4.45063,-1.293332 5.42087,1.523461 0.41783,1.08885 -1.63589,1.5978 -3.67857,1.83178 -2.61427,0.29946 -2.80372,0.60814 -2.50039,4.07401 0.29075,3.32198 -0.96136,5.08474 -2.13092,3 z m 114.36448,5.434456 c 9.51775,-4.85112 18.76632,-8.639886 25.15127,-9.396096 2.63283,-0.31182 4.78697,-0.93863 4.78697,-1.39292 0,-2.04159 -9.8792,-15.89544 -11.33507,-15.89544 -0.52742,0 -2.80529,1.50999 -5.06194,3.35553 -2.25664,1.84555 -6.80299,4.83872 -10.10299,6.65151 -7.00954,3.85053 -20.5,14.216819 -20.5,19.34798 0,3.00498 7.8375,2.030956 17.06176,-2.670564 z"
       id="path4112"
       inkscape:connector-curvature="0"
       sodipodi:nodetypes="csssscscssscssssscsscccssssssscssssssccscsscsccscscsssccccssscccccsssccsccccscscsscsscssscssssscscscsssccsssccscscsccsccsscscsscscccsssssssscsssscssssscssccssssssssssssssssssssssscssssssscssscsssssssssssscsssccccccsccsccsssssscccscssssssssssssssssscsssssssssssssssssssssssssscsssssssscscssscssssssssssssssssssssscsssssssssscssssssssssssssssssssssssssssssssssssssssssssssssssssssssssssssssssssssssssssssssccsssccsssssssccsssssscscssssssssssssscsssssscsssssssssssssssssssssssscssscscscscssscscssssssscsscssccccccscccsscsssscssssscssssssssssssssscssssssssccssssssssscsssscccssssccssssscssssccccsscsscscscscsscscssssssscssssssssccssssssscsssssssscsscsscccscccscccsscscsssssscsssssssssssssssssssscsssscsssssssssssssssssssssssscssscsssssssssssccccsccssssssscscsssssssssssssscsssssssscsssssssssssccsssssssssss" />
    <path
       style="fill:#000000;fill-opacity:0.99111131;stroke:#000000;stroke-width:3;stroke-linecap:round;stroke-linejoin:round;stroke-miterlimit:4;stroke-opacity:1;stroke-dasharray:none"
       id="path4738"
       d="m 479.85371,319.07296 c 0.61405,0.94595 1.24339,1.87839 1.59835,2.96175 0.41234,1.25847 0.4745,1.96473 0.69669,3.29369 0.20761,3.34756 -0.21658,6.69132 -1.25407,9.88203 -0.82127,2.5257 -1.24237,3.21009 -2.3804,5.6002 -1.33807,2.1625 -1.8698,3.31303 -3.7284,5.11797 -2.35069,2.28282 -5.92555,4.23874 -8.68506,5.54605 -2.55337,1.20966 -5.21803,1.52188 -7.95303,2.03753 -3.54816,0.41808 -7.33564,0.89995 -10.77187,-0.46553 -1.71742,-0.68246 -3.51392,-2.06442 -4.66112,-3.51367 -0.56617,-0.71524 -0.92976,-1.5697 -1.39464,-2.35455 -0.2516,-0.8323 -0.59321,-1.64254 -0.7548,-2.49689 -0.38699,-2.04595 -0.19133,-4.43889 1.06536,-6.18467 1.33206,-1.85049 4.55462,-2.97135 6.0962,-3.78218 0.77494,-0.0283 1.55371,-0.1668 2.32483,-0.0848 2.2161,0.23555 4.58372,1.14513 6.58747,2.00785 2.74614,1.18235 5.01174,2.38835 7.47996,4.09201 1.16849,0.80654 2.24652,1.73684 3.36978,2.60526 3.49735,3.45088 6.64527,6.96995 6.98061,12.12213 0.17332,2.66301 -0.23513,3.11344 -1.04984,5.57136 -1.38993,2.11494 -1.68124,2.88723 -3.64101,4.54923 -2.20359,1.86877 -6.34147,3.84472 -8.55131,4.72264 -2.33589,0.92799 -5.50709,1.04709 -7.92418,1.28552 -1.62079,-0.0394 -3.24696,0.0194 -4.86239,-0.11818 -4.78134,-0.40712 -10.38192,-1.58343 -14.63186,-3.89412 -3.46774,-1.88541 -4.13414,-2.93922 -6.81363,-5.6492 -0.63163,-1.12072 -1.44757,-2.15597 -1.89488,-3.36215 -0.40914,-1.10325 -0.66613,-2.29527 -0.63942,-3.47164 0.0514,-2.2647 1.19232,-4.77922 2.76172,-6.38565 2.68612,-2.74951 7.30332,-4.16599 10.49093,-5.56723 4.39747,-0.5749 5.70486,-1.11037 10.22411,-0.14148 4.13381,0.88625 7.15503,2.43643 10.51616,4.98718 1.5599,1.18381 3.0265,2.5088 4.33062,3.9696 1.26876,1.4212 2.23222,3.08796 3.34833,4.63194 0.75049,1.65066 1.6342,3.24701 2.25149,4.95197 1.56363,4.31875 2.05915,8.61684 0.95353,13.10109 -0.2851,1.15632 -0.67716,2.29595 -1.2052,3.36344 -0.48654,0.98358 -1.21107,1.83027 -1.8166,2.7454 -3.57406,3.05609 -3.24512,3.11635 -8.92865,5.44643 -2.38891,0.97939 -6.96114,1.50829 -9.36096,1.66762 -4.80625,0.31908 -8.43825,0.10381 -13.27538,-0.025 -2.42031,-0.17522 -4.845,-0.29789 -7.26093,-0.52567 -2.39379,-0.2257 -4.78232,-0.51039 -7.16479,-0.83446 -6.04075,-0.82168 -12.10635,-1.8717 -17.61243,-4.64306 -1.52883,-0.7695 -2.91033,-1.80214 -4.3655,-2.70321 -1.14533,-0.99136 -2.40706,-1.86239 -3.43598,-2.9741 -1.74057,-1.8806 -3.00285,-3.88279 -3.16024,-6.50045 -0.0617,-1.02683 0.0508,-2.11415 0.48169,-3.04823 1.56648,-3.39558 5.92477,-4.70539 8.73377,-6.24489 1.54137,-0.41393 3.05551,-0.94741 4.62411,-1.2418 3.59261,-0.67425 6.97478,-0.7932 10.61428,-0.45455 3.39625,0.31602 6.90546,1.01818 9.99757,2.53519 1.52035,0.74589 2.84664,1.8352 4.26996,2.7528 1.19468,1.21457 2.48732,2.34001 3.58405,3.6437 2.87553,3.41817 4.93669,7.47912 6.13982,11.77082 0.74663,2.6633 0.66888,3.35591 0.83892,5.96314 -0.24624,1.54344 -0.21434,2.64127 -1.16723,3.94301 -0.38648,0.52798 -0.87666,1.00042 -1.43879,1.33529 -1.6869,1.0049 -3.43254,1.93274 -5.25865,2.65442 -1.27298,0.50309 -5.1642,0.7972 -6.3438,0.91833 -3.44015,0.27568 -6.89126,0.33785 -10.33976,0.41647 0,0 2.76791,-2.01891 2.76791,-2.01891 l 0,0 c 3.43124,-0.0497 6.8651,-0.10187 10.28527,-0.41538 1.16421,-0.13993 2.33615,-0.22604 3.49261,-0.41979 0.97552,-0.16343 1.91076,-0.74663 2.89517,-0.65039 0.38848,0.038 -1.14807,1.03165 -0.79988,0.85524 1.21852,-0.61734 1.94299,-1.61347 2.38199,-2.87484 0.24056,-0.6912 0.29241,-1.43422 0.43861,-2.15132 -0.0895,-2.58632 0.0126,-3.29494 -0.6691,-5.94775 -1.0979,-4.2723 -3.10654,-8.3247 -5.95094,-11.70911 -1.08142,-1.28672 -2.36622,-2.38777 -3.54933,-3.58165 -1.40912,-0.89736 -2.72418,-1.96317 -4.22738,-2.69207 -3.0536,-1.4807 -6.5584,-2.18474 -9.90828,-2.47544 -3.62926,-0.31494 -7.04241,-0.15678 -10.61313,0.57119 -1.57657,0.32141 -3.09212,0.89123 -4.63819,1.33684 -1.6256,0.41035 -1.85017,0.28969 -3.07226,2.67593 -0.45484,0.88812 -0.60475,1.93968 -0.57797,2.93714 0.0691,2.57283 1.25766,4.5257 2.94081,6.39322 0.99861,1.108 2.23344,1.9777 3.35015,2.96655 1.42992,0.89622 2.78574,1.92327 4.28976,2.68865 5.42063,2.75849 11.44918,3.85588 17.40946,4.68237 2.37614,0.32949 4.75974,0.61111 7.14866,0.82929 2.42473,0.22144 4.8587,0.32613 7.28804,0.48919 2.31196,0.0455 4.62356,0.15807 6.93586,0.13638 3.91815,-0.0368 7.86377,-0.21653 11.72154,-0.97178 1.41649,-0.27731 2.76851,-0.82701 4.17822,-1.13694 0.1999,-0.0439 0.43491,0.19361 0.60816,0.0846 0.93721,-0.5895 1.72073,-1.39377 2.5811,-2.09065 0.62677,-0.89465 1.37234,-1.7169 1.88033,-2.68395 0.55207,-1.05097 0.96716,-2.17872 1.27614,-3.32495 1.19019,-4.41519 0.78519,-8.71679 -0.71791,-13.01128 -0.59243,-1.69263 -1.46156,-3.27532 -2.19234,-4.91298 -1.09975,-1.52905 -2.04618,-3.18101 -3.29926,-4.58715 -2.45218,-2.75174 -5.99384,-5.47674 -9.34813,-7.02027 -1.72622,-0.79435 -3.56666,-1.36398 -5.43046,-1.73424 -4.50057,-0.89408 -5.85275,-0.33418 -10.21059,0.30179 -2.4767,-0.0877 -2.15478,-0.3841 -4.83412,2.21765 -1.56199,1.51676 -2.76609,3.94882 -2.86899,6.14923 -0.0535,1.14414 0.17059,2.31135 0.55108,3.3917 0.4176,1.18569 1.20595,2.20606 1.80892,3.30909 2.63203,2.69973 3.24411,3.71537 6.67962,5.58208 4.26474,2.31727 9.76279,3.44457 14.56175,3.79279 1.62583,0.11797 3.26006,0.0319 4.8901,0.0479 1.43864,-0.16651 2.87729,-0.33302 4.31593,-0.49953 1.21202,-0.30975 2.39824,-0.74837 3.63606,-0.92925 0.13749,-0.0201 0.0671,0.42998 0.19238,0.3698 1.65916,-0.79724 3.39379,-2.31576 4.56796,-3.71669 0.61311,-0.73152 1.08719,-1.5691 1.63078,-2.35366 0.86037,-2.39071 1.27177,-2.81358 1.15649,-5.43201 -0.22374,-5.08209 -3.3063,-8.57309 -6.73837,-11.97287 -1.1133,-0.86042 -2.17872,-1.78662 -3.33988,-2.58126 -2.38442,-1.63177 -4.8213,-2.91438 -7.49287,-4.00438 -2.03407,-0.82989 -4.41147,-1.65649 -6.65085,-1.79018 -0.76559,-0.0457 -1.5275,0.14005 -2.29124,0.21008 0.43968,-0.34768 1.5243,-1.56463 1.31904,-1.04303 -0.21707,0.55159 -0.98559,0.68632 -1.35963,1.14617 -1.3282,1.63292 -1.59971,3.97709 -1.25823,5.97888 0.14173,0.83083 0.4671,1.61966 0.70065,2.42948 1.21554,2.07677 1.31539,2.71199 3.31555,4.20838 3.997,2.9903 8.49246,2.43169 13.13232,1.87753 6.1782,-1.24352 2.14901,-0.23385 7.95209,-2.16642 0.0755,-0.0251 0.17377,0.0327 0.23834,-0.0138 0.91731,-0.66065 1.85275,-1.30882 2.6751,-2.08449 1.86849,-1.76244 2.39963,-2.89598 3.74456,-5.02771 0.44007,-0.90666 0.92143,-1.79441 1.3202,-2.71998 1.72776,-4.01024 2.58412,-8.13695 2.27944,-12.50347 -0.23621,-1.34081 -0.27882,-1.9303 -0.71865,-3.18473 -0.36886,-1.052 -1.00661,-1.95766 -1.64922,-2.85458 0,0 3.23554,-1.89592 3.23554,-1.89592 z"
       inkscape:connector-curvature="0" />
    <path
       style="fill:#000000;fill-opacity:0.99111131;stroke:#000000;stroke-width:3;stroke-linecap:round;stroke-linejoin:round;stroke-miterlimit:4;stroke-opacity:1;stroke-dasharray:none"
       id="path4750"
       d="m 573.83831,95.09894 c 7.14593,-7.503836 16.90568,-11.95714 25.8698,-16.792477 13.07238,-5.903767 27.07492,-9.788994 41.40547,-10.925468 3.1606,-0.250649 6.33806,-0.194411 9.50709,-0.291616 6.73274,0.534264 10.13769,0.285017 16.44167,2.725911 2.26465,0.876866 4.28103,2.294067 6.42155,3.4411 0,0 -5.64074,3.688632 -5.64074,3.688632 l 0,0 c -2.08848,-1.118856 -4.0553,-2.502852 -6.26545,-3.356569 -6.18105,-2.387557 -9.57886,-2.149664 -16.18248,-2.67662 -3.14799,0.107673 -6.30533,0.05787 -9.44398,0.323017 -14.42089,1.218258 -28.48778,5.295085 -41.59005,11.351475 0.11136,-0.191821 0.53232,-0.67492 0.33407,-0.575464 -1.55764,0.781405 -3.02373,1.735311 -4.49808,2.664373 -2.01356,1.26885 -4.51123,3.017614 -6.39885,4.561671 -1.41104,1.154212 -1.88943,1.702109 -3.07578,2.920824 0,0 -6.88424,2.941211 -6.88424,2.941211 z"
       inkscape:connector-curvature="0" />
    <path
       style="fill:#000000;fill-opacity:0.99111131;stroke:#000000;stroke-width:3;stroke-linecap:round;stroke-linejoin:round;stroke-miterlimit:4;stroke-opacity:1;stroke-dasharray:none"
       id="path4752"
       d="m 687.47772,109.62515 c 2.16668,4.22805 3.69298,8.70738 4.65134,13.36308 0.42615,2.07026 0.8434,4.15146 1.02879,6.25698 0.21558,2.44845 0.11414,4.91453 0.17122,7.37179 -0.92199,7.23596 -0.94008,9.95788 -3.20951,17.02584 -2.13758,6.65734 -4.95766,12.3823 -8.50346,18.41192 -1.81185,3.08104 -3.72779,6.10916 -5.83451,8.99661 -2.15064,2.94764 -4.61244,5.65515 -6.91866,8.48272 -7.59066,8.12716 -16.43416,15.00367 -25.9683,20.71049 -4.8347,2.89389 -9.83321,5.50486 -14.74981,8.25729 0,0 4.93401,-3.97731 4.93401,-3.97731 l 0,0 c 1.31435,-0.66215 2.68589,-1.22127 3.94306,-1.98645 9.48023,-5.7702 18.4605,-12.37149 26.03822,-20.53287 2.30755,-2.80305 4.7709,-5.4848 6.92265,-8.40915 5.87007,-7.97777 11.19545,-17.66884 14.23337,-27.12396 2.2925,-7.13507 2.2398,-9.49456 3.12745,-16.78458 -0.077,-2.41095 0.004,-4.83215 -0.23102,-7.23284 -0.20307,-2.07357 -0.62413,-4.12346 -1.0802,-6.15642 -1.01885,-4.5416 -2.66561,-8.91047 -5.03854,-12.9151 0,0 6.4839,-3.75804 6.4839,-3.75804 z"
       inkscape:connector-curvature="0" />
  </g>
</svg>
