<?xml version="1.0" encoding="UTF-8" standalone="no"?>
<!-- Created with Inkscape (http://www.inkscape.org/) -->

<svg
   xmlns:dc="http://purl.org/dc/elements/1.1/"
   xmlns:cc="http://creativecommons.org/ns#"
   xmlns:rdf="http://www.w3.org/1999/02/22-rdf-syntax-ns#"
   xmlns:svg="http://www.w3.org/2000/svg"
   xmlns="http://www.w3.org/2000/svg"
   xmlns:sodipodi="http://sodipodi.sourceforge.net/DTD/sodipodi-0.dtd"
   xmlns:inkscape="http://www.inkscape.org/namespaces/inkscape"
   width="288.7948"
   height="243.5024"
   id="svg4898"
   version="1.1"
   inkscape:version="0.48.2 r9819"
   sodipodi:docname="lamanpaddle.svg">
  <title
     id="title4992">lamanpaddle</title>
  <defs
     id="defs4900" />
  <sodipodi:namedview
     id="base"
     pagecolor="#ffffff"
     bordercolor="#666666"
     borderopacity="1.0"
     inkscape:pageopacity="0.0"
     inkscape:pageshadow="2"
     inkscape:zoom="4"
     inkscape:cx="16.169291"
     inkscape:cy="125.94457"
     inkscape:document-units="px"
     inkscape:current-layer="layer1"
     showgrid="false"
     inkscape:window-width="2560"
     inkscape:window-height="1418"
     inkscape:window-x="0"
     inkscape:window-y="12"
     inkscape:window-maximized="1"
     fit-margin-top="0"
     fit-margin-left="0"
     fit-margin-right="0"
     fit-margin-bottom="0" />
  <metadata
     id="metadata4903">
    <rdf:RDF>
      <cc:Work
         rdf:about="">
        <dc:format>image/svg+xml</dc:format>
        <dc:type
           rdf:resource="http://purl.org/dc/dcmitype/StillImage" />
        <dc:title>lamanpaddle</dc:title>
        <cc:license
           rdf:resource="http://creativecommons.org/licenses/by-nc/3.0/" />
        <dc:creator>
          <cc:Agent>
            <dc:title>henri vesala</dc:title>
          </cc:Agent>
        </dc:creator>
        <dc:publisher>
          <cc:Agent>
            <dc:title>fraktio</dc:title>
          </cc:Agent>
        </dc:publisher>
      </cc:Work>
      <cc:License
         rdf:about="http://creativecommons.org/licenses/by-nc/3.0/">
        <cc:permits
           rdf:resource="http://creativecommons.org/ns#Reproduction" />
        <cc:permits
           rdf:resource="http://creativecommons.org/ns#Distribution" />
        <cc:requires
           rdf:resource="http://creativecommons.org/ns#Notice" />
        <cc:requires
           rdf:resource="http://creativecommons.org/ns#Attribution" />
        <cc:prohibits
           rdf:resource="http://creativecommons.org/ns#CommercialUse" />
        <cc:permits
           rdf:resource="http://creativecommons.org/ns#DerivativeWorks" />
      </cc:License>
    </rdf:RDF>
  </metadata>
  <g
     inkscape:label="Layer 1"
     inkscape:groupmode="layer"
     id="layer1"
     transform="translate(-185.35159,-57.928717)">
    <path
       style="fill:#000000"
       d="m 302.42856,300.5606 c -10.19696,-2.99421 -13.8558,-3.91273 -15.58789,-3.91318 -4.6825,-0.001 -26.94458,-10.16749 -36.85651,-16.83099 -12.2571,-8.24008 -26.85254,-23.95082 -39.45505,-42.46998 -4.13766,-6.08022 -17.69588,-35.14579 -20.12674,-43.14692 -4.75909,-15.6644 -6.59307,-43.31343 -3.58741,-54.08368 2.77738,-9.95223 9.06135,-23.14095 14.51693,-30.46793 14.00059,-16.751365 18.17675,-17.217611 28.69663,-24.80599 11.3738,-8.18318 32.71038,-13.27335 55.95022,-13.34777 l 13.92524,0.2146 3.18609,-5.09293 c 5.27494,-8.467325 10.99836,-8.392469 17.63048,-8.687113 11.48146,1.29999 25.5085,9.59443 26.27051,21.108743 0,2.33689 1.86821,2.61045 3.7907,2.61045 3.19152,0 14.53544,4.19414 20.37839,7.53442 2.62262,1.49929 9.04341,4.97537 14.26841,7.72463 5.225,2.74925 10.85,6.00645 12.5,7.23822 7.28134,5.43573 17.58374,16.36782 20.19765,21.43216 2.67197,5.17682 3.10476,5.52576 9.30235,7.5 4.35828,1.38833 6.60653,2.64719 6.82332,3.82057 0.43612,2.36051 -2.21341,1.43461 -8.10235,-1.08969 -5.58807,-2.39533 -6.72097,-1.62579 -6.72097,0.33969 0,0.825 -1.4664,2.0762 1.88258,1.98988 2.22759,0.005 8.11742,3.15511 8.11742,4.49542 0,1.51938 -2.32348,1.23362 -7.29424,-0.8971 l -4.46006,-1.9118 -2.14058,2.89529 c -5.74635,7.77236 -18.06755,9.37128 -35.05862,4.54956 -2.99942,-0.85117 -5.5852,-1.41589 -5.74616,-1.25492 -0.16097,0.16097 1.11467,2.89105 2.83476,6.06684 3.59349,6.63468 8.93682,19.10034 8.93682,20.92524 0,0.67758 -0.71799,4.10571 -1.97364,5.56548 -1.69644,1.97224 -3.33584,2.68962 -6.90908,3.47063 l -4.36092,0.59551 2.10826,2.15966 c 4.34528,4.45122 10.69593,1.79679 20.668,-7.46739 4.94672,-4.59558 9.47292,-7.67952 14.90238,-10.15381 10.77249,-4.90918 13.5677,-5.17867 21.92856,-2.11419 12.22037,4.47909 18.50311,12.90982 18.68559,25.07397 0.11309,7.53836 -0.40133,9.32697 -4.41648,15.35559 -3.64749,5.47657 -3.85673,5.64437 -9.70459,7.78187 -15.85214,5.79427 -17.21281,8.47139 -10.60952,20.87427 2.00938,3.77419 2.07186,12.45769 0.12321,17.12147 -0.81747,1.95649 -3.17997,5.04793 -5.25,6.86987 -2.07003,1.82195 -5.69853,5.00428 -8.06333,7.07185 -5.19787,4.54456 -15.37952,11.16272 -24.20036,15.73045 -3.575,1.85125 -8.525,4.5376 -11,5.96966 -14.9103,8.62726 -63.42821,17.34093 -76,13.64939 z m 54.44398,-167.13575 c 4.60898,4.22656 7.16285,6.00559 20.94047,9.7689 20.54759,4.01666 21.01847,4.67179 29.87681,0.63786 2.54864,-1.51792 6.0481,-3.88029 6.09229,-5.58364 -5.97923,-2.83906 -5.77776,-6.45982 -8.45637,-6.12779 -3.46177,-0.97923 -5.36042,-2.59447 -5.39718,-5.4737 0.003,-1.61867 -7.52882,-3.04271 -13.42954,-4.80563 -3.46392,-1.03488 -6.00717,-0.97945 -5.76777,-2.6543 0.40312,-2.82033 3.50606,-2.36128 12.04696,1.78223 3.7125,1.80108 6.59929,2.89549 6.75,2.49259 0.44194,-1.18145 -0.99801,-1.31621 -2.21781,-1.96903 -6.24498,-3.34221 -11.56508,-6.41254 -12.17155,-8.74265 -0.5371,-2.0636 11.20577,5.29223 15.32413,7.51418 3.12763,1.68743 0.53853,1.11129 4.49091,1.26899 0.54613,0.0218 2.32572,1.12655 3.44082,1.93283 2.05237,1.484 1.01829,2.11785 2.48886,3.07898 4.84901,3.1692 5.29516,2.60321 4.30549,0.67606 -0.22931,-0.44652 -3.59589,-4.87265 -8.77963,-10.03936 -7.78071,-7.75514 -11.52336,-10.5718 -21.45293,-16.14513 -18.2986,-10.27075 -27.23623,-14.48103 -34.13086,-16.07813 -1.67894,-0.38892 -2.55528,0.38757 -4.34657,3.85133 -6.08156,14.49604 -25.42614,14.06058 -36.27635,8.594219 -6.48517,-3.45657 -9.79069,-10.259969 -11.91785,-16.755759 -1.51109,-4.61446 -2.21327,-4.96875 -9.85631,-4.97294 -18.28763,-0.01 -40.74377,4.313013 -47.1321,8.961993 -18.51866,9.784143 -36.30868,24.372757 -43.65497,44.446737 -4.052,10.80039 -6.15596,22.52376 -5.86704,30.81774 0.76709,21.46738 1.59254,26.31051 6.60527,38.75484 10.05069,24.95127 23.04018,45.83351 37.89696,60.92416 15.8545,16.10407 31.73586,24.84337 56.5288,31.10704 18.66449,4.71538 26.83656,4.99919 44.66542,1.55119 l 0,2e-5 c 24.07546,-4.65606 26.01246,-5.32635 46.95766,-16.24957 14.46373,-7.54304 34.47539,-22.84138 36.63276,-28.00468 2.07559,-4.96759 1.68809,-7.88207 -2.13276,-16.04099 -3.95131,-8.4375 -4.0796,-9.27402 -2.0301,-13.23731 2.28102,-4.41101 8.60816,-8.81111 16.51809,-11.48723 3.96856,-1.34266 7.31468,-2.5829 7.43582,-2.75609 3.59927,-5.14566 5.57619,-10.34938 5.57619,-14.67786 0,-6.44234 -1.0932,-9.18753 -5.18171,-13.01204 -6.34479,-5.93508 -16.47903,-7.69618 -24.15784,-4.19808 -2.32641,1.0598 -5.39949,2.22047 -6.82908,2.57928 -1.42958,0.3588 -6.13897,3.83036 -10.46531,7.71458 -9.7341,8.73935 -14.54743,11.12016 -19.63938,9.71421 -3.99316,-1.10257 -10.72668,-8.07983 -10.72668,-11.11498 0,-0.46638 -1.69702,-2.08492 -2.3513,1.18649 -0.46004,2.3002 -2.0499,3.94276 -6.76762,6.99197 -5.85907,3.78691 -6.44571,3.95353 -11.7737,3.34402 -7.2672,-0.83135 -10.98615,-3.43694 -23.90313,-16.74715 -12.05832,-12.4254 -14.92132,-14.62156 -16.31676,-12.51626 -0.518,0.78151 -0.81709,3.63199 -0.66465,6.33439 0.39834,7.06174 -1.86886,7.26787 -2.74573,0.24963 l -0.68104,-5.45086 -3.84654,0.14389 c -3.93842,0.14733 -4.99433,2.45735 -2.9643,10.34217 1.80874,7.0253 2.36243,6.30171 0.50007,6.30171 -0.83308,0 -2.43594,-1.4625 -3.5619,-3.25 -1.62366,-2.57762 -1.94468,-4.34792 -1.55168,-8.55686 0.40719,-4.36097 0.19543,-5.41072 -1.1881,-5.88958 -0.92599,-0.32049 -4.04197,-3.08307 -6.92441,-6.13906 l -5.24078,-5.55634 -2.89952,2.77792 c -2.93671,2.81355 -5.0665,1.58726 -1.26212,-2.39364 0.96453,-1.00928 2.73258,-2.10223 2.58145,-3.0283 -0.1303,-0.79844 0.008,-1.36413 -0.16064,-2.01061 -0.57325,-2.19215 1.1391,-7.09661 3.86022,-11.05626 l 1.78864,-2.60273 -3.82925,-1.14727 c -2.10609,-0.631 -5.23954,-1.14727 -6.96323,-1.14727 -2.11909,0 -3.13398,-0.48575 -3.13398,-1.5 0,-2.01084 7.80132,-2.02768 12.5892,-0.0272 2.81458,1.176 3.91653,1.22829 5.46788,0.25945 1.06861,-0.66735 1.94292,-1.55512 1.94292,-1.97282 0,-0.4177 0.45,-0.75945 1,-0.75945 1.562,0 1.17297,3.61156 -0.54238,5.03517 -1.07006,0.88808 0.60772,0.52598 1.3309,1.24916 0.57331,0.57331 2.30507,1.23687 1.04238,2.87756 -0.94929,1.23347 -2.74863,-1.36104 -4.7748,-1.29716 -1.33688,0.0421 -1.85849,1.33743 -2.8849,2.71597 -1.02641,1.37855 -1.81579,3.34543 -2.20453,5.74094 -0.29796,1.83611 -0.0929,2.8565 0.41722,3.04073 0.51015,0.18422 2.25665,-1.05172 3.17914,-1.17134 1.41865,-0.52702 1.52041,-0.88672 2.08156,-0.26611 0.66775,0.80415 -1.40828,1.58594 -2.20545,2.01146 -1.4657,0.78237 -2.78443,1.35394 -1.93914,1.96202 l 4.45821,4.5508 c 2.4754,2.52681 4.12947,3.4254 4.97664,4.23572 1.57435,1.50589 2.51762,0.28181 3.23641,-1.33991 0.84737,-1.91182 2.02963,-1.54669 1.82874,0.5 -0.16544,1.68546 -0.80891,4.08597 2.91161,2.95856 2.83568,-1.1425 6.31784,-2.22245 8.7559,-2.67805 3.24041,-0.60689 3.04742,-0.64013 15.82364,11.97615 15.04338,14.85508 17.35189,16.60229 23.06863,17.45957 5.20369,0.78034 13.17313,-2.64888 14.02272,-6.03392 0.94933,-3.78243 -2.3542,-9.66253 -8.98342,-15.98998 -7.81889,-7.46297 -12.25522,-13.59109 -15.4829,-20.09984 -3.05405,-6.66061 -4.61691,-11.91647 -2.41472,-18.26892 3.02789,-7.39355 14.17375,1.11299 20.74252,6.60837 z m 3.30359,31.5035 c 1.78616,1.67006 4.01427,4.77425 4.95135,6.8982 1.34153,3.04064 2.5228,4.1071 5.5558,5.01581 4.35879,1.30593 8.38946,0.33897 10.12715,-2.42951 0.81963,-1.30582 0.6954,-2.54276 -0.50217,-5 -0.87516,-1.79572 -2.89362,-6.14891 -4.48545,-9.67375 -5.26095,-11.64944 -8.74213,-16.1102 -15.10542,-19.35598 -6.82208,-4.23735 -8.7307,-6.81097 -12.4444,-9.76396 -3.76154,-2.23437 -7.9488,-6.50712 -9.8804,-1.53641 -2.59489,14.82459 15.00808,29.4121 21.78354,35.8456 z m -73.24757,91.36885 c -9.31002,-4.34068 -22.94417,-18.97211 -28.0943,-30.14928 -4.53683,-9.84615 -2.73,-20.22502 5.12243,-29.42437 2.45953,-2.88142 4.47876,-5.98969 4.48718,-6.90728 0.008,-0.91759 0.44215,-2.34335 0.96384,-3.16835 0.83674,-1.32322 1.13812,-1.31045 2.5573,0.10833 1.42825,1.42785 1.44858,1.98891 0.18115,5 -0.78519,1.86542 -3.03341,5.3055 -4.99603,7.64463 -8.10488,9.65967 -7.35762,17.73643 3.01492,32.58664 5.40477,7.73792 11.11882,13.39636 17.39432,17.22504 7.82472,4.77386 10.9718,4.59591 16.50077,-0.93306 3.85853,-3.85854 4.36842,-4.89164 4.36842,-8.85106 0,-2.95335 -0.90534,-6.15395 -2.65372,-9.38158 -4.91341,-9.07047 -5.46018,-10.32598 -6.03231,-13.85161 -0.79983,-4.92879 1.21586,-9.18778 4.96734,-10.49555 4.2971,-1.49798 5.79334,0.17541 2.90545,3.24943 -3.35555,3.57181 -2.79825,7.51928 2.00943,14.23312 3.88004,5.41841 4.20024,6.35361 4.25,12.41279 0.0577,7.03022 -1.17546,9.68161 -7.85486,16.8882 -6.17368,6.66095 -10.94191,7.61352 -19.09133,3.81396 z m 81.52095,-95.981 c -1.91348,-2.3156 -5.30557,-5.77288 -7.53798,-7.68285 -2.23241,-1.90997 -6.06683,-5.87433 -8.52095,-8.80969 -2.45411,-2.93536 -5.75941,-6.89085 -7.3451,-8.78996 -1.5857,-1.89913 -2.57661,-3.75942 -2.20204,-4.134 1.11309,-1.11308 3.77533,1.112 5.74277,4.79977 1.01187,1.89665 7.01535,8.41927 13.34106,14.49472 6.32571,6.07546 11.50129,11.81296 11.50129,12.75 0,2.5982 -1.17128,1.97998 -4.97905,-2.62799 z m -73.02095,-7.54584 c 0,-1.31134 2.58498,-3.20413 3.34201,-2.4471 1.36904,1.36904 0.57965,3.32466 -1.34201,3.32466 -1.1,0 -2,-0.3949 -2,-0.87756 z m 7.47293,-2.16624 c -0.78903,-1.27668 1.28769,-3.9562 3.06618,-3.9562 1.98302,0 2.33,2.35148 0.54866,3.7182 -1.97636,1.51633 -2.79161,1.57001 -3.61484,0.238 z m -13.2234,-8.2062 c 0.63003,-1.89219 3.75047,-2.1612 3.75047,-0.32332 0,0.92763 -0.855,1.57332 -2.08333,1.57332 -1.22198,0 -1.91126,-0.51682 -1.66714,-1.25 z m 7.92715,-1.39282 c 0.50709,-2.57657 3.50951,-4.0745 5.0458,-2.51738 1.03846,1.05254 0.91428,1.56294 -0.66361,2.72752 -2.59982,1.91884 -4.78062,1.81426 -4.38219,-0.21014 z m 118.41502,-8.43954 c -0.72105,-0.95335 -6.79304,-3.79946 -6.39148,-1.67897 0.14696,0.77604 0.66785,2.65416 4.53278,4.29037 1.02181,0.34585 1.40074,-0.38522 1.69968,-1.11946 0.29893,-0.73423 0.51786,-1.47162 0.15902,-1.49194 z M 338.56657,92.15363 c 4.06458,-3.168593 4.73318,-5.01606 4.11932,-9.82844 -0.71482,-5.60379 -2.98442,-11.298947 -6.81878,-14.32386 -3.97442,-3.13541 -9.78296,-6.386342 -16.81611,-6.386342 -6.48169,0 -8.05021,2.157082 -11.64437,5.935322 -7.72541,8.12109 -5.57968,19.961301 6.24464,25.577901 14.18014,6.73562 20.1224,2.761786 24.9153,-0.974581 z m -15.70603,-1.496616 c -4.25013,-1.22739 -3.583,-4.025969 -2.88814,-6.992868 1.44391,-5.194023 7.33256,-6.335529 10.65889,-1.853262 4.949,8.905596 -3.02635,10.207047 -7.77075,8.84613 z m 5.72013,-3.451351 c 0.39801,-1.913566 -2.77083,-2.16176 -2.77083,-0.39583 0,0.87083 0.7125,1.58333 1.58333,1.58333 0.87084,0 1.05166,-0.53438 1.1875,-1.1875 z M 459.42856,213.20446 c 0,-1.62879 0.95504,-3.00762 2.86446,-4.13555 6.29188,-3.7167 8.63652,-14.01348 5.75347,-25.26712 -2.11903,-8.27139 -2.09255,-10.39192 0.12446,-9.96497 2.2561,0.43449 4.03403,4.23435 5.3748,11.48721 1.28935,6.97476 0.49591,14.02794 -2.31246,20.55616 -3.44816,8.01548 -11.80473,13.20033 -11.80473,7.32427 z m -9,-7.00541 c 0,-1.42754 1.77388,-3.44503 3.94195,-7.75711 3.63088,-7.22146 3.89494,-10.97424 3.34621,-16.29097 -0.48395,-4.68898 -0.3323,-5.68525 0.80805,-5.30868 2.48702,0.82128 4.00163,5.11942 3.63156,10.30563 -0.68808,9.64294 -11.72777,27.57632 -11.72777,19.05113 z m -5.79413,-40.10262 c -2.36177,-1.86848 -6.60595,-4.08377 -9.4315,-4.92287 -6.01049,-1.78493 -14.89271,-2.0073 -16.48724,-0.41277 -1.54866,1.54866 -5.02684,-0.40725 -3.28713,-2.5169 2.85714,-3.4647 6.96887,-3.76435 15.4136,-2.38993 10.68963,1.73978 21.5864,6.64947 21.5864,11.66204 0,3.08141 -2.73435,2.5834 -7.79413,-1.41957 z m 4.85663,-8.00858 c -2.2,-1.44645 -7.6,-3.88221 -12,-5.41281 -5.95774,-2.07247 -8.5625,-2.42438 -8.5625,-3.74876 0,-3.01892 7.17403,-2.13011 15.7748,1.95438 7.92723,3.76462 11.7252,6.76643 11.7252,9.26726 0,2.22041 -2.41649,0.91238 -6.9375,-2.06007 z"
       id="path4971"
       inkscape:connector-curvature="0"
       sodipodi:nodetypes="scssssccsccccssssssssscsscsscsssscssssssssssssssccccccssssssssssssssccsscccsssccsssssssssssssssssssscssssssscssssscssssssssssssssccscssssccssssccccsssssccccssscsssssssssssssssssssscsssssssssssssssssssscscscsssssssccccssssssssssssssssssssssssssssss" />
  </g>
</svg>
