<?xml version="1.0" encoding="UTF-8" standalone="no"?>
<!-- Created with Inkscape (http://www.inkscape.org/) -->

<svg
   xmlns:dc="http://purl.org/dc/elements/1.1/"
   xmlns:cc="http://creativecommons.org/ns#"
   xmlns:rdf="http://www.w3.org/1999/02/22-rdf-syntax-ns#"
   xmlns:svg="http://www.w3.org/2000/svg"
   xmlns="http://www.w3.org/2000/svg"
   xmlns:sodipodi="http://sodipodi.sourceforge.net/DTD/sodipodi-0.dtd"
   xmlns:inkscape="http://www.inkscape.org/namespaces/inkscape"
   width="338.76245"
   height="197.18706"
   id="svg2"
   version="1.1"
   inkscape:version="0.48.2 r9819"
   sodipodi:docname="lamanlapsi.svg">
  <title
     id="title3153">lamanlapsi</title>
  <defs
     id="defs4" />
  <sodipodi:namedview
     id="base"
     pagecolor="#ffffff"
     bordercolor="#666666"
     borderopacity="1.0"
     inkscape:pageopacity="0.0"
     inkscape:pageshadow="2"
     inkscape:zoom="0.7"
     inkscape:cx="-672.69539"
     inkscape:cy="-226.41285"
     inkscape:document-units="px"
     inkscape:current-layer="layer1"
     showgrid="false"
     inkscape:window-width="2560"
     inkscape:window-height="1418"
     inkscape:window-x="0"
     inkscape:window-y="12"
     inkscape:window-maximized="1"
     fit-margin-top="0"
     fit-margin-left="0"
     fit-margin-right="0"
     fit-margin-bottom="0" />
  <metadata
     id="metadata7">
    <rdf:RDF>
      <cc:Work
         rdf:about="">
        <dc:format>image/svg+xml</dc:format>
        <dc:type
           rdf:resource="http://purl.org/dc/dcmitype/StillImage" />
        <dc:title>lamanlapsi</dc:title>
        <dc:creator>
          <cc:Agent>
            <dc:title>henri vesala</dc:title>
          </cc:Agent>
        </dc:creator>
        <dc:publisher>
          <cc:Agent>
            <dc:title>fraktio</dc:title>
          </cc:Agent>
        </dc:publisher>
      </cc:Work>
    </rdf:RDF>
  </metadata>
  <g
     inkscape:label="Layer 1"
     inkscape:groupmode="layer"
     id="layer1"
     transform="translate(-166.12167,-86.501212)">
    <path
       style="fill:#000000"
       d="m 465.75348,282.21426 c -2.18923,-0.6464 -7.78044,-3.04906 -12.42489,-5.33923 -7.10342,-5.43248 -7.94225,-4.31398 -15.44447,-2.07299 -10.23281,3.05663 -30.30698,3.78281 -39.30115,1.4217 -8.95052,-2.34965 -25.6549,-11.07897 -30.38128,-15.87654 -4.35662,-4.42226 -11.32347,-15.58073 -14.7329,-23.59699 -1.42106,-3.34119 -2.86813,-9.94379 -3.72585,-17 -0.77131,-6.34539 -1.50508,-11.83961 -1.6306,-12.20938 -0.12552,-0.36977 -2.75092,0.81774 -5.83422,2.63891 -3.0833,1.82118 -7.10914,3.64138 -8.94632,4.04489 -5.01011,1.10041 -16.57367,9.21903 -19.17315,13.46121 -4.90517,8.00492 -15.30422,14.54534 -25.07446,15.77042 -2.78276,0.34893 -4.34747,-0.019 -5.84539,-1.37463 -2.00092,-1.81081 -2.09009,-1.79688 -4.09551,0.6402 -1.94558,2.36434 -5.89347,10.23411 -9.06785,18.07592 -1.55119,3.83198 -8.46314,10.11774 -13.03851,11.85729 -3.61556,1.37464 -11.60639,1.35039 -17.17624,-0.0521 -5.6166,-1.41427 -13.02299,-8.95509 -14.02113,-14.27559 -0.8917,-4.75319 0.1208,-9.80575 2.59546,-12.95177 2.81599,-3.57995 12.51346,-7.99955 16.01568,-7.2991 6.79577,1.35915 23.23698,-3.86419 27.94825,-8.8791 2.34862,-2.5 2.08733,-5.45912 -0.7694,-8.71356 -1.37448,-1.56583 -1.29238,-1.91727 0.86828,-3.71673 3.12429,-2.60203 6.52988,-2.58841 7.93213,0.0317 0.61391,1.1471 2.41403,6.1676 3.95052,5.50164 0.30882,-0.30881 -2.21834,-5.14987 -2.83805,-5.89654 -1.5132,-1.82329 1.65556,-4.80667 5.20379,-5.24627 1.52876,-0.1894 5.28645,8.30013 6.16463,8.00045 2.11391,-0.72136 -2.96837,-8.6983 -0.26489,-10.02238 3.83096,-1.87629 5.0629,-0.13964 7.75006,3.29774 1.00988,1.29182 1.29707,4.31542 3.94486,4.31542 2.13325,0 3.91446,-3.43507 3.52685,-4.06223 -0.23732,-0.3637 -1.16299,-0.91114 -1.80902,-0.77012 -0.64602,0.14102 -2.33468,-0.85955 -3.75257,-2.22348 -3.25412,-3.13029 -13.96692,-11.46764 -14.79805,-11.51675 -0.66364,-0.0392 -2.70514,-1.73786 -12.48778,-10.39058 -13.11792,-11.60278 -20.19903,-28.69592 -17.18127,-41.47399 2.00912,-8.50714 5.35435,-13.60565 16.43833,-25.05382 23.16887,-23.930138 31.54046,-29.777978 47.10675,-32.905662 17.05302,-3.426408 29.43235,-2.21664 47.5,4.64193 4.95,1.879045 12.21296,4.382426 16.13992,5.563069 21.811,6.557503 42.36588,16.947853 57.10596,28.866663 9.20236,7.44103 19.63722,19.71104 21.95688,25.81839 4.14268,10.9071 10.92691,42.14869 13.29367,56.47087 2.79896,16.93758 -0.16527,12.61885 8.61817,19 14.35634,10.42985 18.8854,19.68374 18.8854,34.5 0,9.16503 -1.62843,12.4073 -8.86409,17.64879 -4.01964,2.91181 -4.32203,2.96653 -15.19369,2.74927 -6.10084,-0.12191 -12.88362,-0.75054 -15.07286,-1.39694 z m 30.08349,-5.59386 c 4.90413,-4.30589 6.26437,-9.31815 4.67857,-17.23982 -1.90519,-9.51717 -5.45373,-15.8915 -11.92505,-21.42125 -5.21982,-4.46033 -14.16513,-9.22392 -17.39175,-9.2615 -0.72304,-0.008 -1.96068,-0.42413 -2.75032,-0.92379 -2.19579,-1.38943 0.62023,-4.35689 3.45854,-3.64452 2.16492,0.54336 2.16747,0.5239 0.87681,-6.68572 -0.71194,-3.97686 -1.32134,-9.03066 -1.35422,-11.23066 -0.0858,-5.74444 -7.16747,-34.85097 -11.80006,-48.5 -5.24787,-15.46184 -28.11103,-35.38908 -53.31947,-46.47258 -8.61836,-3.78928 -10.73016,-4.24056 -10.65725,-2.27741 0.0255,0.6875 -0.0245,2.3525 -0.11112,3.7 -0.22772,3.54156 -2.29407,1.14645 -3.05668,-3.54301 l -0.60085,-3.69471 -19,-6.43454 c -10.45,-3.538999 -21.025,-6.865826 -23.5,-7.392949 -10.50972,-2.238349 -29.94505,0.528614 -40.24292,5.729292 -7.44007,3.757417 -15.41546,10.636897 -29.44543,25.399267 -15.84548,16.67266 -18.98282,22.85133 -17.23084,33.9343 1.49029,9.42751 6.3975,18.20849 14.64481,26.20546 6.45557,6.25961 7.60293,7.01118 8.43464,5.52499 1.163,-2.07817 2.83974,-1.28796 2.83974,1.33831 0,1.15306 2.76755,4.10658 7.04905,7.52272 5.54029,4.4205 7.34228,5.38098 8.41898,4.48739 1.08082,-0.897 1.65082,-0.55281 2.70095,1.63094 0.73206,1.52233 2.85762,3.79552 4.72346,5.05153 3.10442,2.08978 3.49474,2.14376 4.59736,0.63584 0.84947,-1.16172 1.41485,-1.30814 1.91657,-0.49633 0.39142,0.63332 0.4345,1.59995 0.0957,2.14806 -0.82619,1.3368 10.1583,1.19381 13.73591,-0.1788 2.24398,-0.86094 2.69507,-1.59628 2.5,-4.07532 -0.29631,-3.7654 1.95605,-4.8095 2.8335,-1.31349 0.35491,1.41407 1.14945,2.57104 1.76564,2.57104 1.83144,0 20.19752,-19.22431 21.73437,-22.75 1.63071,-3.74099 3.44418,-4.20991 4.25722,-1.10081 0.66831,2.5556 -4.00852,9.95107 -8.92893,14.11932 -2.69628,2.28411 -3.19969,3.3339 -2.87718,6 0.215,1.77732 0.89059,8.18149 1.50133,14.23149 1.01516,10.05624 1.53236,11.85797 6.02818,21 6.20652,12.62065 10.96723,18.13918 20.71021,24.00686 12.49456,7.52482 20.48816,9.80453 34.73763,9.90692 12.90968,0.0928 25.97857,-2.31884 28.42822,-4.36149 0.82178,-0.68525 -1.17448,-4.01844 -1.76937,-6.3369 -2.30895,-8.99825 -2.42383,-10.71539 -0.71682,-10.71539 1.66806,0 2.45369,1.50293 4.68241,8.95748 0.84683,2.83244 2.90976,5.99026 5.65863,8.66191 7.66598,7.45064 15.81294,10.21155 30.43218,10.31312 9.47553,0.0658 9.80211,-0.009 13.23765,-3.02525 z m -80.84868,-4.58286 c -1.30417,-1.70594 -1.60417,-4.53783 -1.60417,-5.61351 0,-1.62509 1.53403,-1.79452 1.5,-0.17518 -0.0679,3.22934 1.45536,4.67729 1.45536,5.43494 0,1.45708 -0.23438,1.47057 -1.35119,0.35375 z m -25.94557,-18.89339 c -2.66278,-0.72642 -5.96286,-2.05558 -7.33353,-2.95367 -2.48081,-1.62549 -5.32507,-6.97056 -5.32507,-10.00715 0,-3.66698 5.42136,-12.58903 11.57564,-19.05027 11.50278,-12.0765 12.93873,-16.84825 8.10097,-26.91992 -1.84929,-3.85 -4.10805,-7.6176 -5.01948,-8.37244 -2.17587,-1.80207 -2.10443,-3.12756 0.16856,-3.12756 2.66532,0 5.9583,3.95487 10.16908,12.21306 3.53123,6.92547 3.87154,7.27137 6.86039,6.97297 1.75267,-0.17498 3.14484,0.15703 3.14484,0.75 0,0.58518 -1.8,1.06397 -4,1.06397 -3.32718,0 -4,0.33487 -4,1.99081 0,1.17534 1.42858,2.9162 3.48762,4.25 1.91819,1.24255 3.49319,2.59669 3.5,3.00919 0.0196,1.18976 -1.01569,0.89577 -4.56035,-1.29495 -3.28486,-2.03015 -3.31643,-2.03068 -4.36444,-0.0725 -0.85293,1.59371 -0.55919,2.5625 1.52966,5.04494 1.93662,2.30155 2.20085,3.07246 1.05311,3.07246 -0.84271,0 -2.22477,-0.98879 -3.07124,-2.19731 -1.52697,-2.18004 -1.59058,-2.14273 -8.09857,4.75 -10.30203,10.91107 -13.82274,20.4247 -9.03043,24.40196 1.78859,1.4844 11.88804,4.04535 15.95339,4.04535 4.13915,0 10.17195,-4.25064 15.37507,-10.83308 7.76839,-9.82774 14.31741,-31.74039 14.574,-48.76371 0.15275,-10.13486 1.18071,-13.40316 4.21561,-13.40316 2.20376,0 2.49587,1.61382 0.95823,5.29391 -1.02424,2.45135 -1.29357,5.41699 -0.89512,9.85624 0.84901,9.45899 -4.01156,29.2706 -10.48993,42.75685 -2.49333,5.19046 -12.14486,15.18584 -16.63661,17.22931 -4.59342,2.08973 -10.88086,2.19359 -17.8414,0.2947 z M 360.9789,238.15707 c 0.028,-1.36867 3.28684,-5.89565 3.87439,-5.3081 0.78775,0.78775 -2.14016,5.17421 -2.99669,6.0581 -0.34179,0.3527 -1.17022,2.67717 -0.8777,-0.75 z m -35.90093,-29.08341 c -1.04259,-1.04259 0.27794,-2.36052 2.36517,-2.36052 1.06754,0 1.94098,0.675 1.94098,1.5 0,1.48325 -3.06994,2.09673 -4.30615,0.86052 z m -8.69385,-6.36052 c 0,-0.55 0.9,-1 2,-1 1.1,0 2,0.45 2,1 0,0.55 -0.9,1 -2,1 -1.1,0 -2,-0.45 -2,-1 z m -15.75623,-3.66436 c -1.77106,-0.71402 -0.51075,-2.33564 1.81525,-2.33564 1.06754,0 1.94098,0.675 1.94098,1.5 0,1.49421 -1.3679,1.79852 -3.75623,0.83564 z m 40.75623,-4.77662 c 0,-2.44254 0.42742,-4.70515 0.94983,-5.02801 1.33903,-0.82757 3.05017,2.76463 3.05017,6.40325 0,2.39907 -0.43491,3.06574 -2,3.06574 -1.69977,0 -2,-0.66667 -2,-4.44098 z m -30.34724,1.22113 c -0.77491,-2.96327 0.25565,-6.78015 1.83065,-6.78015 1.44397,0 2.75489,5.21542 1.88241,7.48906 -0.86179,2.2458 -3.04962,1.8281 -3.71306,-0.70891 z m 19.88995,1.28895 c -0.31644,-0.512 -0.11799,-1.21356 0.44098,-1.55902 1.19337,-0.73755 3.01631,0.19857 3.01631,1.54894 0,1.2168 -2.70662,1.22469 -3.45729,0.0101 z m -36.36226,-3.24077 c 0.47108,-3.2015 2.81955,-3.54438 2.81955,-0.41166 0,1.6805 -0.54853,2.58333 -1.56955,2.58333 -1.04234,0 -1.46221,-0.72946 -1.25,-2.17167 z m 28.54075,0.21356 c -0.63807,-2.43999 1.13711,-3.87548 2.37435,-1.92001 1.02667,1.62267 0.70437,3.11148 -0.78073,3.60651 -0.58309,0.19437 -1.30022,-0.56456 -1.59362,-1.6865 z m 26.84356,-3.93711 c -0.3043,-0.49236 0.007,-1.10108 0.69098,-1.35269 1.75293,-0.6445 3.86778,0.23904 3.19147,1.33332 -0.72427,1.17191 -3.16262,1.18408 -3.88245,0.0194 z m -21.87091,-0.74426 c -0.93324,-0.93324 0.19452,-2.36052 1.86517,-2.36052 0.79254,0 1.44098,0.675 1.44098,1.5 0,1.50623 -2.11099,2.05568 -3.30615,0.86052 z m -39.19822,-4.36758 c -0.75471,-1.22116 1.98877,-2.42963 3.45648,-1.52254 0.57634,0.3562 1.04789,1.07108 1.04789,1.58862 0,1.26114 -3.7178,1.2066 -4.50437,-0.0661 z m 27.19187,0.36123 c -1.37384,-1.37385 -0.66124,-3.49576 1.0625,-3.1638 0.9625,0.18536 1.75,0.96836 1.75,1.73999 0,1.57886 -1.76429,2.47201 -2.8125,1.42381 z m 16.65758,-0.8973 c -0.32569,-0.84872 -0.3415,-1.79378 -0.0351,-2.10013 0.87571,-0.87571 2.69007,0.60965 2.69007,2.20228 0,1.91885 -1.90756,1.84546 -2.65492,-0.10215 z m -52.34508,-1.39785 c 0,-1.13246 0.45,-2.05902 1,-2.05902 0.55,0 1,0.64844 1,1.44098 0,0.79254 -0.45,1.7191 -1,2.05902 -0.55,0.33992 -1,-0.30852 -1,-1.44098 z m 77,-1.05902 c 0,-0.55 0.675,-1 1.5,-1 0.825,0 1.5,0.45 1.5,1 0,0.55 -0.675,1 -1.5,1 -0.825,0 -1.5,-0.45 -1.5,-1 z m -65.39301,-1.58179 c -0.33385,-0.86998 -0.59268,-3.23248 -0.57519,-5.24999 0.0298,-3.44223 0.12226,-3.54863 1.5,-1.72709 0.80751,1.06762 1.4682,3.43012 1.4682,5.25 0,3.46245 -1.35251,4.43858 -2.39301,1.72708 z m 4.89301,-1.41821 c -0.33992,-0.55 0.30852,-1 1.44098,-1 1.13246,0 2.05902,0.45 2.05902,1 0,0.55 -0.64844,1 -1.44098,1 -0.79254,0 -1.7191,-0.45 -2.05902,-1 z m 42.5,0 c 0,-0.55 0.9,-1 2,-1 1.1,0 2,0.45 2,1 0,0.55 -0.9,1 -2,1 -1.1,0 -2,-0.45 -2,-1 z m 53.64903,-0.52778 c 0.32245,-0.84028 1.43333,-1.98111 2.46862,-2.53518 1.45427,-0.7783 2.84138,-0.15798 1.88235,0.49259 -4.375,2.96786 -2.96863,3.84084 -4.03247,4.41019 -2.62299,1.40378 -1.00838,-0.56979 -0.3185,-2.3676 z m -119.88496,-1.92605 c -0.27272,-1.42665 -0.15736,-2.8031 0.25635,-3.05879 1.0784,-0.66648 2.07991,3.81229 1.07679,4.81541 -0.4605,0.46051 -1.06041,-0.32997 -1.33314,-1.75662 z m 156.98593,-0.0105 c -1.82955,-1.18234 3.88244,-1.13638 6.12047,-0.4978 1.09649,0.31287 1.77982,2.0669 0.37953,1.36417 -3.28664,-1.28575 -5.675,-0.33321 -6.5,-0.86637 z m -150,-1.22503 c -2.13786,-0.55868 -2.32741,-2.31068 -0.25,-2.31068 0.92366,0 1.5,-0.93788 1.5,-2.44098 0,-1.34254 0.45,-2.7191 1,-3.05902 0.61081,-0.3775 1,1.15628 1,3.94099 0,2.50745 -0.3375,4.50681 -0.75,4.44301 -0.4125,-0.0638 -1.5375,-0.3218 -2.5,-0.57332 z m 28.5,-0.97296 c -0.6875,-0.27741 -1.25,-0.91688 -1.25,-1.42105 0,-1.38659 2.37658,-1.09907 4.55887,0.55153 1.91498,1.44842 1.91419,1.46756 -0.0589,1.42105 -1.1,-0.0259 -2.5625,-0.27412 -3.25,-0.55153 z m 10.75,-1.33772 c 0,-0.55 0.45,-1 1,-1 0.55,0 1,0.45 1,1 0,0.55 -0.45,1 -1,1 -0.55,0 -1,-0.45 -1,-1 z m 27.21129,-4.2986 c -3.17692,-5.24189 -3.95088,-7.7014 -2.42347,-7.7014 0.95377,0 8.21218,10.61683 8.21218,12.01191 0,2.61263 -2.90295,0.45098 -5.78871,-4.31051 z m -19.21129,3.2986 c 0,-0.55 0.9,-1 2,-1 1.1,0 2,0.45 2,1 0,0.55 -0.9,1 -2,1 -1.1,0 -2,-0.45 -2,-1 z m 43.52631,-0.95743 c -0.36831,-0.59593 0.4876,-2.45882 1.90202,-4.13976 1.41442,-1.68094 2.57167,-3.45276 2.57167,-3.93738 0,-1.196 8.26523,-5.96543 10.33786,-5.96543 2.71194,0 1.89859,1.83043 -1.58786,3.57343 -1.7875,0.89364 -5.34341,3.85856 -7.90202,6.58872 -2.79083,2.97794 -4.91994,4.53043 -5.32167,3.88042 z m -70.9836,-2.97347 c -0.68308,-1.10523 0.8944,-2.29865 1.81781,-1.37524 0.95079,0.95078 0.77359,2.30614 -0.3015,2.30614 -0.51754,0 -1.19988,-0.4189 -1.51631,-0.9309 z m 58.87349,-7.19687 c 0.35727,-2.40472 0.90596,-8.08473 1.21931,-12.62223 0.56867,-8.23469 1.7567,-10.51979 2.96544,-5.70381 1.19141,4.74698 -1.43085,21.56861 -3.46764,22.24465 -1.07875,0.35805 -1.22984,-0.46754 -0.71711,-3.91861 z m -63.4162,2.12777 c 0,-0.55 0.42344,-1 0.94098,-1 0.51754,0 1.2191,0.45 1.55902,1 0.33992,0.55 -0.0835,1 -0.94098,1 -0.85746,0 -1.55902,-0.45 -1.55902,-1 z m -22.75,-1.71828 c -1.71758,-0.61611 -1.57816,-2.28172 0.19098,-2.28172 1.65637,0 2.96732,1.64897 1.82533,2.29596 -0.42147,0.23878 -1.32881,0.23238 -2.01631,-0.0142 z m 66.75081,-5.78021 c -1.83579,-3.43019 -0.30363,-4.54377 2.04535,-1.48657 2.26591,2.9491 2.42782,3.98506 0.62282,3.98506 -0.73206,0 -1.93274,-1.12432 -2.66817,-2.49849 z m -71.24902,-3.34293 c -3.33537,-2.01293 -3.64015,-5.61277 -0.6124,-7.23317 9.15814,-4.9013 14.4231,-1.78139 10.33493,6.12425 -1.76887,3.42061 -5.23673,3.81614 -9.72253,1.10892 z m 157.26352,-14.34956 c -0.008,-0.93004 2.51813,-10.36598 3.3838,-10.76904 1.34878,-0.62798 -1.13351,9.00165 -2.39911,10.96003 -0.8354,1.29268 -0.97149,1.26629 -0.98469,-0.19099 z M 323.11879,122.95809 c -2.81185,-2.93494 -6.57185,-16.62091 -5.40309,-19.66663 0.99626,-2.59622 2.66842,-1.78695 2.66842,1.29141 0,4.0117 3.54775,14.6864 6.04802,18.19772 2.76335,3.88076 0.35805,4.00962 -3.31335,0.1775 z m 69.36501,0.0641 c -0.0548,-1.75505 0.72913,-7.19404 1.27913,-7.53396 1.14998,-0.71073 0.77117,4.63412 -0.37881,8.22494 -0.76461,2.38749 -1.56274,2.7352 -0.90032,-0.69099 z m -37.34291,-1.88559 c -0.31712,-0.31711 0.34651,-2.66335 1.47473,-5.21386 1.16387,-2.63114 2.08435,-6.92415 2.1277,-9.92343 0.042,-2.90738 0.3159,-5.27925 0.60861,-5.27083 4.42221,0.12724 4.76681,9.16865 0.61918,16.24603 -2.68544,4.58237 -3.61176,5.38055 -4.83022,4.16209 z m -9.75677,-1.98348 c 3.92857,-4.21432 6.47917,-10.43995 7.23398,-10.43995 1.35147,0 0.82247,2.96902 -1.2543,7.03983 -1.32621,2.59959 -2.70048,3.96017 -4,3.96017 -1.08883,0 -2.18972,-0.33474 -1.97968,-0.56005 z m -15.75257,-1.68995 c -2.39368,-2.99971 -4.24743,-7.92436 -4.24743,-11.28368 0,-4.70682 2.27086,-4.16728 3.06667,0.72862 0.31564,1.94188 1.55477,5.19314 2.75361,7.22503 1.19885,2.03189 2.17972,3.89362 2.17972,4.13719 0,0.97129 -2.81691,0.36538 -3.75257,-0.80716 z m 10.43579,-4.78454 c -5.47534,-4.30691 -1.85899,-12.27633 3.86796,-8.52389 4.19887,2.75121 4.37913,9.53652 0.27485,10.34647 -0.80277,0.15842 -2.66704,-0.66174 -4.14281,-1.82258 z M 259.31132,265.9853 c 3.91612,-4.75094 3.94822,-8.5002 0.12441,-14.52973 -3.8303,-6.03975 -11.50423,-10.17332 -17.39726,-8.91588 -1.00777,0.21503 -2.97919,0.81558 -4.91192,1.58979 -6.48734,2.59867 -9.46307,8.96032 -5.55037,16.57559 3.5469,6.90332 7.49165,9.00807 16.88302,9.00807 7.76502,0 7.78496,-0.007 10.85212,-3.72784 z m -11.07262,-9.84359 c -1.24387,-1.58606 -2.12648,-5.66052 -0.24744,-4.93113 0.97232,0.37742 -0.0745,2.98884 1.74375,4.59024 3.25528,2.86704 3.64464,2.25683 3.71161,3.81155 0.0354,0.82227 -3.90155,-1.80491 -5.20792,-3.47066 z m 4.18113,-1.84821 c -0.33992,-0.55 -1.43612,-3.00893 -0.85366,-3.00893 0.58246,0 1.10366,1.25357 1.55009,2.47321 0.18905,0.51649 2.1843,1.33928 1.61259,2.20536 -0.26826,0.4064 -1.9691,-1.11964 -2.30902,-1.66964 z m 32.84072,-40.84505 c -0.19389,0.33898 -2.47289,0.81087 -1.45268,2.30004 1.253,0.42818 3.06401,-1.08842 3.367,-1.254 -0.15607,-2.59515 -1.64233,-0.91941 -1.91432,-1.04604 z m -7.44234,3.86748 c -0.33169,-0.787 -2.05263,-0.30075 -2.32325,-0.18004 -0.90662,0.40439 -2.80481,1.45404 -2.39313,1.80398 0.48056,0.74153 2.39551,-0.0178 2.99348,-0.27533 0.34807,-0.21278 2.01618,-0.7903 1.7229,-1.34861 z m 16.65783,-3.82151 c -0.0752,1.05435 0.16044,0.58247 1.42824,4.42546 0.43139,1.30765 0.4796,2.21864 -1.21032,3.32592 -2.25947,1.48046 -3.11663,1.04121 -4.04457,-0.8917 -2.63576,-5.43609 -5.05794,-4.20861 -3.81139,0.18207 0.62185,1.24926 1.01979,3.38836 -0.34008,4.11607 -4.67945,3.11174 -5.4739,-0.96551 -7.87649,-4.17475 -0.15342,-1.0077 -3.17299,-0.70157 -2.43612,0.94956 1.7381,4.13496 3.4169,8.40848 1.57453,9.88495 -2.97378,2.38319 -17.58489,9.40114 -19.57282,9.40114 -2.48828,0 -2.2575,1.65603 0.4808,3.45023 1.25604,0.82299 3.57129,3.53336 5.14501,6.02305 1.57372,2.4897 2.95232,4.52672 3.06356,4.52672 0.11123,0 1.89364,-3.2625 3.96089,-7.25 4.75948,-9.18049 8.6642,-13.32882 15.36483,-16.32341 2.9249,-1.30717 7.36799,-3.76019 9.87353,-5.45117 5.27685,-3.5613 7.68461,-3.52151 8.11051,0.13403 0.33367,2.86385 -3.57928,6.29699 -6.0823,5.33649 -0.76179,-0.29232 -3.82287,0.67509 -6.8024,2.14981 -7.84787,3.8843 -8.35761,4.40756 -5.94196,6.09955 4.95489,3.47054 25.02463,-8.34888 25.02463,-14.73744 0,-3.20338 -2.27695,-4.95786 -6.43426,-4.95786 -1.41116,0 -3.19537,0.0721 -3.80813,-2.12627 -0.26988,-0.96823 -0.7634,-2.43693 -1.60745,-3.78818 -0.85553,-2.14552 -4.23083,-0.98393 -4.05824,-0.30427 z m -1.16964,-1.69124 c 1.17111,0.26425 4.40947,-0.63648 3.25829,-1.40057 -0.25826,-0.17142 -0.0865,-0.6055 -1.83286,-0.36454 -0.47514,0.58837 -2.5058,0.39898 -1.42543,1.76511 z m 25.6631,3.82273 c -0.94118,-0.84176 -8.90681,1.42169 -8.90681,2.24109 0,1.78996 3.79539,2.67924 6.43098,1.12236 1.5559,-0.9191 3.74958,-2.22427 2.47583,-3.36345 z m -140.40336,62.58693 c -5.58987,-4.70356 -3.70737,-12.74831 3.4933,-14.92845 2.11327,-0.63983 2.04685,-0.87592 -2.3281,-8.27583 -2.47688,-4.18947 -6.76272,-10.96536 -9.5241,-15.05754 -6.0266,-8.93104 -5.64157,-10.05497 2.86848,-8.37321 9.66818,1.91063 13.3084,3.16212 13.3084,4.57535 0,2.23385 -2.66381,2.55314 -7.51374,0.9006 -2.52706,-0.86106 -4.78999,-1.37022 -5.02873,-1.13148 -0.23875,0.23874 0.46624,2.16626 1.8753,4.05187 1.40905,1.88561 3.90669,6.87627 6.09044,10.58877 4.09576,6.963 7.49976,13.20594 4.61582,3.75304 -0.4116,-1.34913 -0.64013,-2.66844 -0.30858,-3 1.48493,-1.48493 3.27095,-0.27604 5.6896,3.85108 2.64717,4.51704 5.97981,7.5461 8.3024,7.5461 1.9863,0 1.53924,-2.15675 -1.85506,-8.94934 -2.48124,-4.96541 -2.85502,-6.44031 -1.79775,-7.09374 1.78222,-1.10147 2.55514,-0.51146 5.55474,4.24021 1.52044,2.40853 2.76269,6.15371 3.08862,9.31164 0.48964,4.7442 0.31575,5.40544 -1.70609,6.4875 -2.72572,1.45876 -7.68826,0.6602 -10.33686,-1.75815 -2.8423,-2.59521 -5.33193,-5.32658 -1.4154,0.63554 2.26378,3.44615 1.93447,7.48043 -1.00471,10.92109 -3.87913,4.54098 -8.00485,5.12386 -12.06798,1.70495 z m 32.31798,-22.4997 c 2.24792,-1.8656 2.99245,-3.93068 -1.68931,-5.24877 -2.17391,-0.61204 -5.6872,-1.98955 -6.46381,-3.49136 -1.22751,-2.37374 -0.0473,-4.24251 1.26129,-6.11078 0.8279,-1.182 2.15866,-2.22755 2.94858,-2.14909 3.1783,0.31567 1.48107,1.24908 0.35863,2.55233 -5.17902,6.01329 3.03249,5.39968 3.91736,5.62468 5.6228,1.42974 4.92137,4.73852 4.46258,7.1018 -0.75014,3.86419 -7.11602,10.18404 -7.11602,6.83744 -0.12144,-1.62042 0.98221,-3.96771 2.3207,-5.11625 z"
       id="path3112"
       inkscape:connector-curvature="0"
       sodipodi:nodetypes="sccsssssssssssssssssssssccssssscsscsssssssssssssscsscssssssccscsssssssssssssccssssssssssssscssssccssscssssssssssssscsssssssssssssssscsscsssssssssssssscssssssscssccsssssscsccsccsssscssccssssccsccssssssssssscsssssssssssssssssssssssscsssssssscsscccssssssssssssssssssssssssssssssssssscssccsssssssscsscssssscsscccsssscssssssssssssssscssssscsssssssssscccccsccccsscccccssssssssssssssscccsccssssssssssscssscssssssssssscsscsssscc" />
    <g
       id="g3086"
       transform="translate(204.05081,279.81226)" />
    <g
       id="g3076"
       transform="translate(-21.714453,261.60189)" />
  </g>
</svg>
