<?xml version="1.0" encoding="UTF-8" standalone="no"?>
<!-- Created with Inkscape (http://www.inkscape.org/) -->

<svg
   xmlns:dc="http://purl.org/dc/elements/1.1/"
   xmlns:cc="http://creativecommons.org/ns#"
   xmlns:rdf="http://www.w3.org/1999/02/22-rdf-syntax-ns#"
   xmlns:svg="http://www.w3.org/2000/svg"
   xmlns="http://www.w3.org/2000/svg"
   xmlns:sodipodi="http://sodipodi.sourceforge.net/DTD/sodipodi-0.dtd"
   xmlns:inkscape="http://www.inkscape.org/namespaces/inkscape"
   id="svg3039"
   version="1.1"
   inkscape:version="0.48.2 r9819"
   width="591"
   height="284"
   sodipodi:docname="lamantest.svg">
  <metadata
     id="metadata3045">
    <rdf:RDF>
      <cc:Work
         rdf:about="">
        <dc:format>image/svg+xml</dc:format>
        <dc:type
           rdf:resource="http://purl.org/dc/dcmitype/StillImage" />
        <dc:title />
      </cc:Work>
    </rdf:RDF>
  </metadata>
  <defs
     id="defs3043" />
  <sodipodi:namedview
     pagecolor="#ffffff"
     bordercolor="#666666"
     borderopacity="1"
     objecttolerance="10"
     gridtolerance="10"
     guidetolerance="10"
     inkscape:pageopacity="0"
     inkscape:pageshadow="2"
     inkscape:window-width="1440"
     inkscape:window-height="758"
     id="namedview3041"
     showgrid="false"
     inkscape:zoom="2.8284271"
     inkscape:cx="435.27485"
     inkscape:cy="236.52795"
     inkscape:window-x="2560"
     inkscape:window-y="0"
     inkscape:window-maximized="1"
     inkscape:current-layer="svg3039" />
  <path
     style="fill:#000000"
     d="M 17.847872,283.3293 C 14.556321,282.77918 4.5690341,272.51195 2.2428884,267.28691 0.93590844,264.35114 0.56374987,260.57813 0.58707686,250.5 c 0.028985,-12.52259 0.15441089,-13.28944 3.41536174,-20.88152 5.8677166,-13.6611 14.8370194,-21.36967 27.6876464,-23.79584 13.84558,-2.61402 19.548898,-4.97373 24.843799,-10.27895 5.750927,-5.76213 7.006607,-9.07077 8.398933,-22.13066 1.405238,-13.181 6.227614,-27.92304 15.736232,-48.1058 C 83.051072,120.25121 85,115.87967 85,115.5927 c 0,-0.28697 2.113325,-4.02522 4.696277,-8.30723 C 95.017374,98.464175 116.81043,76.059363 130.82716,65 c 16.20464,-12.785655 38.83219,-24.569072 58.6652,-30.55022 2.2042,-0.664734 6.80658,-2.387871 10.22751,-3.829193 3.38071,-2.20995 9.1571,-2.864028 11.50956,-4.515058 0,-1.979725 7.14439,-9.351162 11.15679,-11.293535 3.82848,-1.853332 7.98459,-3.682121 15.49998,-2.824974 8.89461,1.014453 16.08924,4.230048 18.1721,8.121915 0.74104,1.384642 1.63607,1.821868 2.76839,1.352362 26.05602,-10.803879 54.86215,-13.607238 70.85309,-6.895291 2.28122,0.957507 4.11615,1.066112 6.49339,0.384328 4.38298,-1.257021 12.47137,-1.210938 14.89257,0.08485 3.32163,1.777679 2.28408,3.276212 -1.81574,2.622495 -4.00797,-0.639071 -12.37958,1.324769 -12.34528,2.895997 0.0114,0.520478 1.77908,1.193821 3.92825,1.496317 4.29274,0.604203 8.95473,3.23319 9.84431,5.551403 1.01302,2.639893 -0.62264,2.823683 -5.22597,0.58721 C 339.17666,25.140147 338,25.321973 338,29.340037 c 0,5.185651 -3.72272,18.491999 -5.97435,21.354479 C 330.91154,52.110877 330,53.750108 330,54.337251 c 0,0.587144 -1.3952,2.507014 -3.10044,4.266378 -2.96966,3.063912 -3.04584,3.349856 -1.80587,6.778911 1.10833,3.065048 1.06117,4.069501 -0.32783,6.982272 -3.94749,8.277961 -10.5778,12.670335 -30.26586,20.050175 -3.85,1.443128 -8.02172,3.411517 -9.27049,4.374199 l -2.27049,1.75033 1.97516,4.088114 c 1.08634,2.24846 2.20455,5.35312 2.48491,6.89924 0.58666,3.2352 1.4863,3.92918 7.33064,5.65481 2.33765,0.69022 4.25027,1.83171 4.25027,2.53664 0,1.6836 -2.78285,1.6224 -7.87196,-0.17314 -4.08676,-1.4419 -4.13585,-1.43077 -5.52334,1.25236 -0.76997,1.48895 -2.34601,3.56336 -3.50232,4.60981 -1.28668,1.16443 -2.10238,3.12162 -2.10238,5.04446 0,5.24903 -3.79575,20.90938 -6.45837,26.64564 l -2.50771,5.40255 6.23304,0.7537 c 3.42817,0.41453 7.28442,0.99536 8.56943,1.29073 2.7689,0.63646 12.16361,9.15823 12.16361,11.03339 0,2.65247 2.17609,2.49401 6.67521,-0.48608 2.54111,-1.68316 8.25367,-4.4615 12.69458,-6.1741 7.09781,-2.73721 8.92438,-3.05235 15.10229,-2.60563 8.46702,0.61224 19.22124,2.89026 26.02792,5.51338 2.75,1.05979 7.9995,2.43917 11.66556,3.06531 3.66606,0.62614 8.56013,1.80688 10.87573,2.62387 2.31559,0.81698 6.29109,1.48535 8.83444,1.48526 7.7965,-2.9e-4 20.21449,-2.85854 25.07237,-5.7709 7.81911,-4.68767 12.23864,-6.11452 19.1204,-6.17306 10.66316,-0.0907 15.30538,1.85585 24.59977,10.31505 7.97594,7.25923 13.36337,9.99744 15.48859,7.87222 0.52756,-0.52756 1.22772,-9.12308 1.55592,-19.10117 L 476.30951,146 454.90476,145.89379 c -11.77262,-0.0584 -26.58728,-0.0202 -32.92148,0.0849 -12.78403,0.21209 -16.65831,-0.83569 -17.64636,-4.77237 -1.38387,-5.51378 1.78367,-45.243703 5.75677,-72.20627 1.09412,-7.425 2.38761,-17.1 2.87443,-21.5 1.53801,-13.901154 5.19081,-33.950914 6.42247,-35.252184 1.22158,-1.290613 18.61923,-3.3467717 44.10941,-5.2131144 7.7,-0.5637794 23.45,-1.9206593 35,-3.0152887 34.52722,-3.27225223 61.05658,-4.3489495 76.93281,-3.12232768 9.10133,0.70318258 14.21088,1.51451798 14.73469,2.33969248 1.38695,2.1849084 0.90599,16.1342523 -1.1204,32.4954353 C 587.97301,44.404496 587.10496,52.625 587.11811,54 c 0.13506,14.120311 -1.24861,91.07276 -1.67018,92.88676 l -0.55468,2.38676 -15.69663,-0.67348 c -17.92901,-0.76927 -56.10211,-1.02788 -56.74556,-0.38444 -0.8061,0.80611 -2.53957,30.10494 -1.9421,32.8252 0.39844,1.8141 0.0551,3.25232 -1.0373,4.34468 -3.33817,3.33818 -3.75589,0.8968 -3.25561,-19.02793 L 506.70208,147 l -4.10104,-0.14908 c -2.25557,-0.082 -8.03854,-0.2624 -12.85104,-0.40092 l -8.75,-0.25185 0,19.84422 c 0,23.00688 0.0912,22.78968 -9.47096,22.55256 -5.74169,-0.14237 -5.20128,0.15683 -19.43817,-10.76187 -3.99941,-3.06726 -8.82596,-5.57968 -14.08115,-7.32982 -9.10767,-3.03314 -11.65839,-2.69772 -20.15926,2.6509 -2.55725,1.60898 -8.00239,4.0205 -12.10032,5.35892 -6.79026,2.21777 -8.18573,2.34968 -15.74089,1.48799 -4.55956,-0.52002 -8.67694,-0.70643 -9.14974,-0.41422 -1.0245,0.63317 -24.03579,-4.84007 -31.85951,-7.57781 -7.73675,-2.70729 -18.59607,-4.26301 -24.61198,-3.52593 -5.31446,0.65114 -14.30085,4.45079 -20.46228,8.65191 l -3.57426,2.43708 1.74675,4.96396 c 0.96072,2.73018 1.78164,6.4098 1.82427,8.17694 0.0897,3.72041 -3.08084,12.29627 -6.12835,16.57611 -3.26662,4.58755 -15.77802,12.16858 -27.57443,16.70818 -5.89585,2.26889 -13.54388,5.29516 -16.99564,6.72503 -8.60189,3.56329 -16.88799,3.53416 -21.62117,-0.076 l -3.36011,-2.56288 -7.8714,7.22407 c -15.92873,14.61878 -26.76217,21.04821 -45.67632,27.10795 -16.12097,5.16486 -25.23013,6.67072 -40.36374,6.67265 -16.78116,0.002 -28.91348,-2.10024 -41.203673,-7.14006 -5.295217,-2.1714 -10.860403,-3.948 -12.36708,-3.94801 -1.889196,-1e-5 -4.475393,1.5721 -8.332767,5.06536 -3.076344,2.78595 -7.918608,6.54837 -10.760586,8.36095 -10.394007,6.62914 -13.743466,7.87605 -23.167234,8.62456 -4.95,0.39317 -11.025,0.94138 -13.5,1.21826 -2.475,0.27687 -5.693457,0.30395 -7.152128,0.0602 z m 21.960118,-6.29971 c 9.375312,-1.07796 15.006214,-3.9281 25.687798,-13.00219 C 72.51369,258.06564 80.168463,254 84.375346,254 c 3.385289,0 8.928488,1.56147 12.624654,3.55624 1.375,0.74208 4.525,2.43254 7,3.75659 2.85984,1.52993 8.41225,3.00776 15.23379,4.05463 21.46451,3.29406 44.30886,-0.29732 69.26621,-10.88938 7.2348,-3.0705 19.85605,-12.01413 28.42427,-20.14191 l 8.42427,-7.99123 -5.78382,-11.67123 c -4.63142,-9.34578 -5.69969,-12.39191 -5.36155,-15.28828 0.40312,-3.45299 0.22343,-3.70229 -3.9613,-5.49608 -6.14802,-2.63535 -22.99447,-20.21006 -28.80322,-30.04836 -2.48712,-4.21246 -5.17828,-7.91083 -5.98035,-8.21862 -1.93511,-0.74257 -1.86914,-4.25074 0.0941,-5.0041 2.63978,-1.01298 5.92555,2.08335 9.46902,8.92308 4.61459,8.90723 19.20866,23.9671 28.47858,29.38752 C 229.06916,198.03265 242.34205,203 251.09845,203 c 5.68975,0 7.02521,-0.40202 11.62458,-3.49942 4.03476,-2.71716 5.46532,-4.39719 6.39963,-7.51565 1.77607,-5.92797 0.49218,-8.77241 -10.88479,-24.11521 -8.96905,-12.09552 -10.80715,-14.01704 -16.4188,-17.16389 C 231.3268,144.82208 228.0192,139.67684 228.00558,129.21788 227.99872,123.95569 230.35777,118 232.44897,118 c 1.83605,0 1.86497,0.32921 0.47023,5.3522 -1.36081,4.90078 0.33275,12.59642 3.40781,15.48528 1.1976,1.12509 4.65145,3.35976 7.67522,4.96593 5.01199,2.66228 12.62844,10.28708 16.99777,17.01641 0.97113,1.49566 2.07079,2.09099 3.11891,1.6885 2.39267,-0.91883 8.46862,-14.75258 10.82437,-24.64499 C 277.39353,127.57414 277.42499,127 275.53854,127 c -0.85154,0 -2.20722,-1.11933 -2.50717,3.88351 -0.43062,7.18226 -4.6329,6.22541 -3.34459,-0.3369 0.6077,-3.09547 -0.50652,-1.83266 -3.69996,-1.19397 C 264.20657,129.70869 261.175,130 259.25,130 c -3.79368,0 -3.79383,7.2e-4 -1.68992,8.38334 0.50753,2.02216 0.28569,2.61666 -0.97642,2.61666 -2.07388,0 -4.05763,-5.16228 -4.50143,-11.71395 -0.0452,-0.66767 -1.70705,-2.31804 -3.69295,-3.66749 -4.41606,-3.0008 -7.68697,-8.10526 -6.86113,-10.70725 0.88446,-2.78668 1.88731,-2.36031 3.77903,1.60666 2.06441,4.32912 8.09039,9.06676 8.75334,4.6763 0.45385,-3.0057 3.21386,-1.502 2.93948,0.74446 -0.35355,2.89468 0.93999,2.07968 4.40124,2.59873 6.61312,0.9917 8.59876,0.0246 8.59876,-4.18818 0,-3.89398 2.26174,-4.31186 2.81955,-0.52095 0.39539,2.68708 1.75422,2.72893 5.93045,0.18263 3.79124,-2.31157 4.3823,-5.70525 1.07833,-6.19141 -3.52355,-0.51847 -3.45146,-2.81955 0.0883,-2.81955 3.04777,0 4.02554,-1.56405 2.21929,-3.55 -1.27904,-1.40629 -3.28779,-10.395314 -2.57921,-11.541816 1.41929,-2.296468 8.61137,-5.849661 16.00847,-7.908871 C 313.52321,83.000157 322,76.802539 322,68.672105 c 0,-5.215662 -1.92745,-5.247059 -17.24232,-0.28087 -7.84172,2.542855 -14.9635,4.620086 -15.82618,4.616069 -4.8188,-0.02244 -12.67228,3.462407 -16.24222,7.207209 -2.0959,2.198554 -4.07331,3.734791 -4.39424,3.413861 -0.32093,-0.32093 0.0594,-2.281104 0.84526,-4.355941 1.87543,-4.951778 8.19572,-8.410915 19.7074,-10.78598 16.95736,-3.498609 35.15842,-10.905258 37.59072,-15.296985 C 330.94584,45.050939 334,35.397788 334,29.289901 c 0,-3.717597 -1.21119,-4.103598 -5.63569,-1.796062 -1.57537,0.821612 -3.60519,1.496612 -4.51072,1.5 -2.20237,0.0082 -7.67506,6.359304 -8.42266,9.774501 -1.03621,4.733595 -1.39927,5.40875 -2.68146,4.98649 -3.15977,-1.040599 -0.81094,-9.19999 4.16345,-14.463017 2.3435,-2.479485 4.74126,-4.238193 3.15139,-4.238193 -0.59761,0 -6.04919,3.64638 -9.48579,6.94638 -3.43661,3.3 -6.77266,6 -7.41345,6 -3.98077,0 3.15604,-9.345757 10.36136,-13.568359 2.30655,-1.351726 6.28169,-3.169125 8.83365,-4.038665 C 324.91203,19.523437 327,18.448318 327,18.003823 c 0,-1.57099 -6.61001,-3.144083 -15.5,-3.688788 -14.26824,-0.874241 -33.24428,1.553777 -47.74728,7.668728 -4.04794,1.706745 -4.94176,2.147527 -4.73699,4.045627 0.51778,4.930395 3.1536,9.787611 3.09867,14.608458 -0.087,1.838738 -1.90332,11.502118 -6.99382,15.396891 -1.23884,0.947844 -0.82339,1.65204 -0.0996,3.004525 2.49032,4.653193 0.2163,9.452843 -4.18259,8.7875 -3.60335,-0.545016 -2.59318,-1.607147 -3.14238,-3.99231 -2.1452,-9.316581 -1.59558,-4.284428 -12.59209,-1.524972 -3.49544,0.877144 -4.37734,0.609368 -6.98724,-2.18454 C 226.51119,58.406224 224.69307,57 224.07645,57 c -2.19778,0 -10.41913,-8.574124 -12.32319,-12.851962 -1.06538,-2.393579 -1.96697,-6.331079 -2.00354,-8.75 C 209.71315,32.979117 209.48462,31 209.24188,31 208.8108,31 195.57969,36.151207 175.5,44.136574 c -5.5,2.187261 -12.7,5.494967 -16,7.350458 -20.37515,11.456338 -48.75263,36.129544 -62.934579,54.719368 -3.582675,4.69621 -9.755803,17.15109 -16.005971,32.2936 -4.812836,11.66023 -8.380339,24.75289 -9.512918,34.9122 -1.49165,13.38021 -3.379781,18.02288 -9.936927,24.43359 -6.545974,6.3998 -12.082643,9.16481 -25.150427,12.5601 -12.629143,3.28133 -14.096172,3.89748 -18.512943,7.77546 -7.4583384,6.54851 -12.0069065,22.74177 -10.2846443,36.61414 0.5106051,4.11279 1.6085882,8.79319 2.4399624,10.40089 2.0383969,3.94183 8.3596659,10.83685 10.8669449,11.85329 2.776127,1.12542 9.436773,1.11851 19.339492,-0.0201 z M 260,121.05902 c 0,-1.06754 0.39901,-2.18759 0.88669,-2.48899 1.21787,-0.75268 3.43836,2.09501 2.64038,3.38617 C 262.43248,123.72728 260,123.10853 260,121.05902 z m -8.7875,-2.24652 c -2.46542,-2.46542 -0.89201,-5.39422 2.25013,-4.18847 0.95193,0.36529 1.51571,1.49051 1.34024,2.67492 -0.36815,2.48503 -1.95144,3.15248 -3.59037,1.51355 z m 13.48874,-8.4446 c -1.57471,-1.57471 -0.64005,-3.49831 1.54876,-3.18745 1.2375,0.17575 2.25,0.98839 2.25,1.80585 0,1.58876 -2.63373,2.54663 -3.79876,1.3816 z m 7.14971,-2.79434 c 0,-0.85746 1.59905,-1.41348 2.14905,-1.07356 0.55,0.33992 1,1.04148 1,1.55902 0,0.51754 -0.45,1.64809 -1,1.64809 -0.55,0 -2.14905,-1.27609 -2.14905,-2.13355 z M 261.03518,92.065741 c -0.56935,-1.063842 -1.03518,-2.413842 -1.03518,-3 0,-1.580919 2.69922,-1.291952 3.33186,0.356695 0.30021,0.78234 1.55061,1.56984 2.77866,1.75 3.85656,0.565773 3.463,2.827564 -0.492,2.827564 -2.4845,0 -3.85848,-0.579846 -4.58334,-1.934259 z M 257.2299,225.92404 c 16.05608,-6.37227 28.78958,-12.94174 32.69426,-16.86761 6.22118,-6.25493 8.72166,-17.18166 5.62687,-24.58855 -1.6435,-3.93345 -3.339,-4.29007 -9.05055,-1.90363 -8.69512,3.63305 -11.05414,5.86344 -12.35643,11.68269 -1.38567,6.19181 -4.02682,9.20507 -11.54299,13.16926 -5.67907,2.99526 -15.33394,3.54771 -20.19742,1.1557 -4.88007,-2.40017 -21.77708,-8.53179 -22.23881,-8.07006 -1.22556,1.22556 6.66323,15.75202 12.66964,23.32994 5.93852,7.49227 9.92721,7.83436 24.39543,2.09226 z m 23.56556,-43.81969 c 2.04368,-1.04261 5.62576,-2.40996 7.96016,-3.03855 2.33441,-0.62859 4.24438,-1.64557 4.24438,-2.25995 0,-2.01362 -5.0357,-7.77228 -8.30169,-9.49355 -3.31141,-1.74521 -16.8115,-2.52991 -18.28052,-1.06257 -0.41282,0.41236 0.89929,3.14529 2.91581,6.07319 2.01652,2.9279 3.6664,5.59872 3.6664,5.93516 0,1.75765 2.09215,5.74192 3.01509,5.74192 0.58552,0 2.73669,-0.85304 4.78037,-1.89565 z M 580.37371,132.75 c 0.31405,-6.1875 0.79781,-27.9 1.07501,-48.25 0.39497,-28.995084 0.91911,-39.920713 2.42266,-50.5 1.05526,-7.425 2.21963,-16.471415 2.5875,-20.103145 l 0.66885,-6.6031449 -5.31386,-0.6381629 C 569.47506,5.1737317 511.87593,7.2954844 493,9.9271428 479.25557,11.843374 450.67115,13.946703 436.29244,14.099858 l -14.20756,0.151333 -0.57786,4.624404 c -1.4013,11.214105 -3.56495,27.756279 -5.4443,41.624405 -4.56233,33.666359 -8.7312,78.60935 -7.47959,80.63451 0.50756,0.82124 7.78873,0.92429 26.80685,0.37939 36.93356,-1.0582 101.17695,-0.79506 113.61002,0.46536 9.50858,0.96394 13.25795,1.22162 26.65135,1.83166 L 579.8027,144 z M 541,135.95571 c -70.71959,-2.20681 -89.21897,-2.53427 -110.03048,-1.94769 -7.44176,0.20975 -14.14617,8.4e-4 -14.89868,-0.46424 -2.39422,-1.47971 0.38664,-38.336514 4.8676,-64.514069 0.5206,-3.041341 1.67543,-12.868804 2.56629,-21.838807 2.50543,-25.227098 2.31334,-24.532554 7.02076,-25.384937 2.18598,-0.395822 10.04951,-1.203194 17.47451,-1.794161 7.425,-0.590967 17.325,-1.501179 22,-2.022692 14.26283,-1.591071 30.77334,-3.020139 46,-3.981529 7.975,-0.503531 19.675,-1.39231 26,-1.975065 13.11241,-1.208113 33.79224,-1.433213 36.492,-0.397216 1.7109,0.656532 1.77548,2.125631 1.13513,25.821316 -0.37344,13.818848 -1.33698,37.481773 -2.14119,52.584279 -0.80421,15.102501 -1.46755,31.116501 -1.47407,35.586661 -0.008,5.29123 -0.44809,8.47524 -1.26187,9.12385 -2.13694,1.70323 -9.42621,1.96333 -33.75,1.2043 z M 570.29578,113.25 c 1.35942,-24.05006 1.61252,-32.119519 2.66369,-48.75 0.58805,-9.35 1.55012,-23.900116 2.13793,-32.333591 0.58781,-8.433475 0.91512,-15.487219 0.72736,-15.674987 -0.18777,-0.187768 -6.18766,0.08196 -13.33308,0.599397 -7.14542,0.517437 -20.64168,1.370691 -29.99168,1.896119 -9.35,0.525429 -22.4,1.421457 -29,1.991175 -12.65397,1.0923 -13.83066,1.207393 -36,3.521197 -7.7,0.803646 -19.00678,1.470065 -25.12617,1.480932 L 431.24766,26 l -0.60244,5.75 c -0.33135,3.1625 -1.06856,12.05 -1.63825,19.75 -0.56969,7.7 -1.71465,17.825 -2.54437,22.5 -0.82971,4.675 -1.94131,12.325 -2.47022,17 -0.52891,4.675 -1.39174,10.75 -1.9174,13.5 -0.52567,2.75 -0.98258,9.6545 -1.01537,15.34332 L 421,130.18665 l 9.75,-0.84333 c 12.4419,-1.07616 118.82629,0.0842 136.84869,1.49267 2.03845,0.1593 2.11587,-0.34548 2.69709,-17.58599 z m -59.63893,4.16669 c -6.06363,-1.51324 -8.13561,-1.10489 -3.9375,-4.81343 6.89494,-5.22261 5.69419,-5.05008 7.46612,-3.57951 0.51768,4.23545 11.22522,-2.57909 12.84081,-4.14632 6.41436,-6.320511 6.62736,-5.454464 9.91082,-13.085599 2.34068,-5.439994 5.79297,-2.615073 4.23047,0.642765 -2.97791,6.209 -1.42108,4.928422 -7.98785,12.618744 -3.96396,4.64217 -10.20383,6.95234 -12.64442,7.65215 -4.64185,1.331 -4.79972,0.99944 -5.15638,4.2493 -0.26329,2.39912 0.63887,1.39619 -4.72207,0.4619 z m -42.066,-35.309437 c 2.74068,-13.114739 5.54798,-20.160055 14.41318,-24.350585 3.07699,-1.454478 7.47287,-2.241028 6.69463,-4.421103 -1.05796,-2.963641 12.30475,-0.0111 12.29896,2.949619 C 501.9955,57.372406 492.55574,63 490.73415,63 490.33037,63 490,62.351558 490,61.559017 c 0,-2.312446 -1.73707,-2.755663 -4.72063,-1.18916 -7.48213,3.928455 -10.2785,8.774111 -13.666,22.098285 -0.96676,2.933461 -2.74079,0.721543 -3.02252,-0.360889 z m -18.362,-31.378266 C 449.64101,49.992658 449.54869,47.295242 449.99856,44 c 0.8749,-6.408616 0.66918,-7 -2.43513,-7 -2.46693,0 -5.2473,-2.459314 -3.79506,-3.356844 1.39778,-0.863873 17.38264,-2.667862 18.34876,-2.070768 1.92383,1.188992 0.71519,3.413879 -2.27554,4.188855 -2.86884,0.74339 -3.19118,1.227351 -3.51579,5.278592 -0.54961,6.859257 -1.18786,8.815977 -3.2326,9.910287 -1.33824,0.716201 -2.16712,0.652209 -2.86435,-0.221135 z m 13.92808,-0.610836 c -1.11586,-0.707222 -1.06206,-2.269443 0.31801,-9.234687 C 466.30346,31.65489 468.2328,29 473.11078,29 c 3.7585,0 3.70194,2.030346 -0.1171,4.20349 C 469.89393,34.967337 468.91222,38 471.44098,38 c 0.79254,0 1.73128,0.469712 2.08609,1.043805 0.88186,1.426882 -1.44436,4.043407 -3.30673,3.719397 -2.41403,-0.419987 -4.38796,4.136815 -0.0388,2.748054 3.50202,-1.118252 3.18617,2.953995 -0.48795,4.282573 -3.92847,1.420555 -3.81731,1.414043 -5.53668,0.324322 z m 88.31112,-1.218814 c -0.91147,-2.871776 0.69181,-4.234151 2.99818,-2.547691 1.13889,0.832776 1.61432,1.996057 1.22763,3.003746 -0.88985,2.318927 -3.43215,2.044559 -4.22581,-0.456055 z m -24.0097,-1.322554 c -4.31666,-6.588065 1.37077,-21.035345 7.51344,-19.085735 2.78826,0.884959 2.24092,3.904555 -0.78588,4.335563 C 532.65122,33.187544 531,36.437392 531,41.0651 531,43.303587 531.46057,44 532.94098,44 c 2.63101,0 3.72492,-2.04784 1.69942,-3.181367 C 532.88256,39.834898 532.37221,37 533.95295,37 c 2.29539,0 5.92148,2.411817 6.4048,4.26002 0.69036,2.639955 -2.11331,6.389037 -5.75697,7.698252 -4.00808,1.440154 -4.34297,1.364836 -6.14243,-1.381489 z m -47.60572,0.753655 C 479.94657,48.089781 478.9762,47.016981 478.69624,45.94644 478.29605,44.416082 478.70164,44 480.59362,44 482.33333,44 483,43.445917 483,42 c 0,-1.1 -0.39873,-2 -0.88606,-2 -0.48733,0 -1.65017,-1.610253 -2.58409,-3.578339 -1.6028,-3.377654 -1.6005,-3.686113 0.041,-5.5 2.06342,-2.28006 6.4291,-2.59028 6.4291,-0.456845 0,0.805649 -0.96469,1.981103 -2.14376,2.61212 -2.11687,1.132917 -2.10433,1.178152 1,3.607661 2.41179,1.887506 3.14376,3.241768 3.14376,5.816452 0,5.015701 -2.5084,7.061547 -7.14737,5.829389 z m 34.74086,-0.879802 c -0.85215,-0.85215 -0.72905,-2.630016 -0.98044,-3.691942 -1.49061,-6.296734 -2.17157,-7.793152 -3.2208,0.491302 -0.49377,3.898689 -3.60259,1.775121 -2.88551,-6.5 0.8482,-9.788216 2.04758,-12.01861 4.70091,-8.741886 0.98579,1.2174 1.79924,3.176101 1.80766,4.35267 0.0336,4.689935 3.00423,7.633262 2.96566,0.207168 C 517.96584,30.655212 519.83435,29 520.74824,29 c 1.25916,0 1.37756,1.347209 0.76899,8.75 -0.88733,10.79364 -2.38241,13.241964 -5.92374,9.700636 z m 26.09401,0.903531 c -1.37384,-1.373843 -0.66124,-3.495758 1.0625,-3.163796 0.9625,0.18536 1.75,0.968356 1.75,1.739991 0,1.578853 -1.76429,2.472012 -2.8125,1.423805 z M 491.99032,46.48833 c -0.89299,-1.075986 -1.09634,-3.450022 -0.67865,-7.922982 0.48371,-5.179929 2.87167,-7.292655 -0.92778,-6.971528 -0.95879,0.08104 -1.39272,-1.51056 -1.20403,-2.839349 0.2912,-2.050686 0.7721,-2.223673 5.32014,-1.913753 6.47607,0.441303 8.85123,4.438827 4.49958,4.659734 -2.85768,0.145067 -2.47875,3.975885 -2.80521,8.489099 -0.47216,6.527639 -2.09637,9.038389 -4.20405,6.498779 z M 547,46.559017 c 0,-0.792541 0.39901,-1.687586 0.88669,-1.98899 1.10115,-0.680548 3.3423,1.867651 2.43797,2.771982 C 549.13489,48.531778 547,48.028989 547,46.559017 z m -46.91328,-1.954529 c -0.88466,-1.065945 -0.77022,-3.132365 0.48458,-8.75 1.78851,-8.007016 2.81229,-9.870899 4.49665,-8.186539 0.98171,0.981711 0.36766,7.116099 -1.60981,16.082051 -0.56829,2.576663 -1.70338,2.864352 -3.37142,0.854488 z M 244.86179,56.004359 c 6.47835,1.344776 3.76449,5.087051 4.44608,8.475863 0.2619,1.302181 2.23495,1.634902 3.13811,1.47979 0.90315,-0.155113 2.13048,-0.962171 2.03295,-2.477875 -0.18688,-2.904254 -5.25077,-5.372726 -0.76217,-9.878399 1.53057,-1.536392 0.66192,-4.861169 2.02127,-6.320704 1.35934,-1.459535 3.01648,-0.734713 3.69325,-1.875375 0.67678,-1.140662 0.31584,-3.573244 -0.89836,-4.149362 -0.97963,0.01992 -1.79296,0.589897 -4.30545,4.926271 -1.02523,1.769469 -0.93117,2.889311 -4.52045,3.607065 -1.79023,0.357994 -2.91407,2.338485 -4.42833,3.002504 -1.51426,0.664019 -3.15317,0.658108 -4.60265,1.047755 -1.44949,0.389648 -2.85392,1.028568 -4.18307,0.840066 -3.26245,-0.462684 -2.58695,0.275265 -3.74316,0.314604 -4.30293,0.515421 -1.84969,-1.055441 -5.51164,-0.153432 -0.71706,0.510588 1.85824,1.8712 3.11717,2.143615 1.34252,0.290501 0.7418,-0.01648 1.64205,2.221094 0.99089,2.462876 1.7256,-2.334414 4.54461,-1.556613 4.47546,2.351759 3.5352,-0.194043 8.31979,-1.646867 z m -7.66101,-4.127566 c 11.43322,-2.423352 17.73142,-8.115756 18.56377,-16.778204 0.86666,-9.019468 -4.60428,-15.82618 -14.41077,-17.929297 -5.83517,-1.25142 -11.39427,-1.170519 -17.56348,1.664252 -2.55929,1.176008 -9.65394,8.019073 -9.78092,14.956294 3.23559,12.486845 10.83674,20.719168 23.1914,18.086955 z m 3.46589,-11.54346 c -1.18597,-1.18597 -0.70707,-5.054912 0.77829,-6.287652 2.30222,-1.910677 6.0063,-0.889524 6.3818,1.759361 0.17972,1.267773 -0.21288,2.955273 -0.87244,3.75 -1.23274,1.485361 -5.10168,1.964262 -6.28765,0.778291 z"
     id="path3049"
     inkscape:connector-curvature="0"
     sodipodi:nodetypes="csssssssssssccsssssssscssssssssssscssssssssscssssssssssssssscssssssssssssscssscscsscssssssssssscscsssscssssssssscccssssssscsssssssssssssssssssssssssssscssssssssssssssssssscsssscsssssssssssccsssssssssssssssssssssccssssssssssssssssssssssssssssssssssssscsssssssscssscsssssscsssssssssssssscssccscssssscsssssscsscccccsssssccssssssccssssssssscssssssssccssssssssssssssccsssssssssccssssssssssssssssssssssssssssssscsssssscsssssccsscccsssccsssss" />
  <path
     style="fill:#000000;stroke:#000000;stroke-width:0.69999999;stroke-miterlimit:4;stroke-opacity:1;stroke-dasharray:none"
     d="m 503.77884,104.55397 c -1.65825,-0.48693 -2.25325,-0.6363 -2.53493,-0.63637 -0.76148,-1.6e-4 -4.38177,-1.65346 -5.99367,-2.73709 -1.99327,-1.340013 -4.36681,-3.894923 -6.41625,-6.906543 -0.67287,-0.98877 -2.87773,-5.71546 -3.27304,-7.01662 -0.77393,-2.547372 -1.07218,-7.043704 -0.58339,-8.795181 0.45166,-1.618448 1.47357,-3.76322 2.36077,-4.954746 2.2768,-2.724136 2.95593,-2.799957 4.66669,-4.033992 1.84963,-1.330763 5.31942,-2.158535 9.09872,-2.170637 l 2.26455,0.0349 0.51813,-0.828221 c 0.85781,-1.37697 1.78857,-1.364797 2.86709,-1.412713 1.86714,0.211407 4.14824,1.560263 4.27216,3.43274 0,0.380029 0.30381,0.424516 0.61645,0.424516 0.51901,0 2.36378,0.682058 3.31397,1.22526 0.42649,0.243817 1.47065,0.809103 2.32035,1.256192 0.8497,0.447088 1.76445,0.976779 2.03277,1.177092 1.18411,0.883968 2.8595,2.661763 3.28458,3.485334 0.43452,0.841863 0.5049,0.898609 1.51276,1.219663 0.70875,0.225773 1.07437,0.430491 1.10962,0.621308 0.0709,0.38387 -0.35995,0.233298 -1.31762,-0.177208 -0.90874,-0.389532 -1.09297,-0.264388 -1.09297,0.05524 0,0.134163 -0.23847,0.337635 0.30615,0.323598 0.36225,8.13e-4 1.32006,0.513089 1.32006,0.731053 0,0.247084 -0.37784,0.200613 -1.1862,-0.145888 l -0.7253,-0.3109 -0.3481,0.470837 c -0.93449,1.263954 -2.93818,1.523973 -5.7013,0.739857 -0.48777,-0.138419 -0.90827,-0.230255 -0.93445,-0.204077 -0.0262,0.02618 0.18127,0.470147 0.461,0.986599 0.58438,1.078943 1.45332,3.10613 1.45332,3.402898 0,0.110189 -0.11676,0.667678 -0.32096,0.905068 -0.27588,0.320729 -0.54248,0.437389 -1.12357,0.564399 l -0.70918,0.0968 0.34285,0.35121 c 0.70664,0.72387 1.73939,0.2922 3.36107,-1.214359 0.80444,-0.747341 1.5405,-1.248856 2.42345,-1.651229 1.75184,-0.79834 2.2064,-0.842165 3.56606,-0.343814 1.9873,0.728398 3.00901,2.099417 3.03868,4.077572 0.0184,1.2259 -0.0653,1.51677 -0.71821,2.49715 -0.59317,0.89061 -0.62719,0.9179 -1.57818,1.2655 -2.5779,0.94228 -2.79918,1.37763 -1.72534,3.39461 0.32677,0.61377 0.33693,2.02589 0.02,2.78432 -0.13294,0.31817 -0.51714,0.82091 -0.85377,1.11719 -0.33663,0.29629 -0.9267,0.81381 -1.31127,1.15004 -0.84529,0.73905 -2.50104,1.815302 -3.9355,2.558112 -0.58138,0.30106 -1.38635,0.73792 -1.78884,0.9708 -2.42474,1.40298 -10.3148,2.82001 -12.35925,2.21969 z m 8.85377,-27.179905 c 0.74952,0.68733 1.16484,0.976639 3.40538,1.588635 3.34148,0.653196 3.41806,0.759734 4.85861,0.10373 0.41447,-0.246847 0.98356,-0.63102 0.99074,-0.908021 -0.97235,-0.461693 -0.93959,-1.050507 -1.37519,-0.996512 -0.56296,-0.159244 -0.87172,-0.421917 -0.8777,-0.890142 4.9e-4,-0.263231 -1.22434,-0.494811 -2.18393,-0.7815 -0.56331,-0.168294 -0.9769,-0.15928 -0.93796,-0.431647 0.0655,-0.458647 0.57016,-0.383995 1.95909,0.289829 0.60374,0.292895 1.07319,0.47087 1.0977,0.40535 0.0719,-0.19213 -0.1623,-0.214045 -0.36066,-0.320207 -1.01557,-0.543516 -1.88074,-1.042819 -1.97936,-1.421745 -0.0874,-0.335586 1.8223,0.860631 2.49203,1.221969 0.50862,0.274412 0.0876,0.18072 0.73032,0.206365 0.0888,0.0035 0.37822,0.183201 0.55955,0.31432 0.33376,0.241331 0.1656,0.344408 0.40475,0.500709 0.78855,0.515381 0.86111,0.423339 0.70016,0.109942 -0.0373,-0.07261 -0.58477,-0.792399 -1.42776,-1.632618 -1.26531,-1.261154 -1.87394,-1.719204 -3.48871,-2.625548 -2.97575,-1.670247 -4.4292,-2.35493 -5.55042,-2.614653 -0.27303,-0.06325 -0.41554,0.06303 -0.70684,0.62631 -0.989,2.357371 -4.13484,2.286555 -5.89932,1.397606 -1.05463,-0.562113 -1.59218,-1.668493 -1.9381,-2.72485 -0.24574,-0.750411 -0.35993,-0.808026 -1.60285,-0.808708 -2.97397,-0.0016 -6.62583,0.70139 -7.66471,1.457415 -3.01153,1.591114 -5.90458,3.963539 -7.09924,7.228004 -0.65895,1.756378 -1.0011,3.662852 -0.95411,5.011633 0.12474,3.491066 0.25898,4.278656 1.07416,6.302376 1.63446,4.05762 3.74683,7.45352 6.16287,9.90759 2.57828,2.618873 5.16094,4.040073 9.19281,5.058683 3.03525,0.76682 4.3642,0.81298 7.26356,0.25226 l 0,0 c 3.9152,-0.75717 4.23019,-0.86618 7.63634,-2.64253 2.35211,-1.226663 5.60645,-3.714503 5.95728,-4.554173 0.33754,-0.80784 0.27452,-1.28179 -0.34683,-2.60861 -0.64257,-1.37212 -0.66343,-1.50816 -0.33014,-2.15268 0.37094,-0.71732 1.39987,-1.43287 2.6862,-1.86807 0.64537,-0.21834 1.18952,-0.42003 1.20922,-0.4482 0.58532,-0.83679 0.90681,-1.68303 0.90681,-2.38694 0,-1.04766 -0.17777,-1.494089 -0.84265,-2.116038 -1.03181,-0.965172 -2.67985,-1.251566 -3.92859,-0.682699 -0.37833,0.172347 -0.87808,0.361097 -1.11056,0.419447 -0.23248,0.05835 -0.99833,0.6229 -1.70189,1.25456 -1.58297,1.42121 -2.36572,1.80838 -3.19379,1.57974 -0.64937,-0.1793 -1.74439,-1.31396 -1.74439,-1.80754 0,-0.0758 -0.27597,-0.33905 -0.38237,0.19295 -0.0748,0.37406 -0.33336,0.64118 -1.10056,1.13705 -0.95281,0.61583 -1.04821,0.64293 -1.91466,0.54381 -1.1818,-0.1352 -1.78659,-0.55892 -3.88717,-2.723452 -1.96094,-2.02064 -2.42653,-2.377783 -2.65346,-2.035415 -0.0842,0.12709 -0.13287,0.59064 -0.10808,1.030109 0.0648,1.148392 -0.30392,1.181913 -0.44652,0.04059 l -0.11075,-0.886428 -0.62553,0.0234 c -0.64047,0.02396 -0.81219,0.399618 -0.48206,1.681861 0.29414,1.14247 0.38418,1.02479 0.0813,1.02479 -0.13548,0 -0.39614,-0.237829 -0.57924,-0.528516 -0.26404,-0.419177 -0.31625,-0.707066 -0.25234,-1.391531 0.0662,-0.709188 0.0318,-0.8799 -0.19321,-0.957773 -0.15058,-0.05212 -0.65731,-0.501375 -1.12606,-0.998344 l -0.85226,-0.903582 -0.47153,0.45175 c -0.47757,0.457545 -0.82392,0.258123 -0.20525,-0.389257 0.15686,-0.164131 0.44438,-0.341869 0.4198,-0.492468 -0.0212,-0.129843 0.001,-0.221837 -0.0261,-0.326969 -0.0932,-0.356491 0.18524,-1.154062 0.62775,-1.797987 l 0.29088,-0.423261 -0.62272,-0.186571 c -0.3425,-0.102614 -0.85207,-0.186571 -1.13238,-0.186571 -0.34461,0 -0.50965,-0.07899 -0.50965,-0.243932 0,-0.327007 1.26867,-0.329745 2.04728,-0.0044 0.45771,0.191244 0.63691,0.199747 0.8892,0.04219 0.17378,-0.108526 0.31596,-0.252897 0.31596,-0.320824 0,-0.06793 0.0732,-0.123503 0.16262,-0.123503 0.25401,0 0.19075,0.587318 -0.0882,0.818828 -0.17402,0.144421 0.0988,0.08554 0.21643,0.203141 0.0932,0.09323 0.37485,0.201142 0.16951,0.467953 -0.15437,0.200589 -0.44698,-0.221334 -0.77648,-0.210946 -0.21741,0.0068 -0.30223,0.217495 -0.46915,0.441676 -0.16692,0.224182 -0.29529,0.544039 -0.35851,0.933601 -0.0485,0.298591 -0.0151,0.464529 0.0679,0.494489 0.083,0.02996 0.36698,-0.171033 0.517,-0.190486 0.2307,-0.0857 0.24725,-0.1442 0.33851,-0.04327 0.10859,0.130772 -0.22902,0.257908 -0.35866,0.327107 -0.23835,0.127231 -0.45281,0.22018 -0.31534,0.319067 l 0.725,0.740059 c 0.40255,0.410914 0.67154,0.557044 0.80931,0.68882 0.25602,0.24489 0.40942,0.04583 0.52631,-0.217898 0.1378,-0.310904 0.33006,-0.251526 0.29739,0.08131 -0.0269,0.274092 -0.13154,0.664467 0.47349,0.481126 0.46115,-0.185795 1.02742,-0.361419 1.4239,-0.435509 0.52696,-0.09869 0.49558,-0.104099 2.57327,1.947582 2.44638,2.415755 2.82179,2.699895 3.75146,2.839305 0.84623,0.1269 2.14224,-0.43077 2.2804,-0.98125 0.15438,-0.615102 -0.38285,-1.571334 -1.4609,-2.600314 -1.27152,-1.213641 -1.99297,-2.210206 -2.51786,-3.26867 -0.49665,-1.08316 -0.75081,-1.937877 -0.39268,-2.970923 0.4924,-1.202351 2.30496,0.180997 3.37318,1.074665 z m 0.53724,5.123152 c 0.29047,0.271588 0.6528,0.776396 0.80519,1.121797 0.21817,0.494474 0.41027,0.667903 0.9035,0.815679 0.70883,0.212373 1.36431,0.05512 1.64689,-0.395091 0.13329,-0.212354 0.11309,-0.413508 -0.0817,-0.813108 -0.14232,-0.292023 -0.47057,-0.999946 -0.72943,-1.573162 -0.85555,-1.894451 -1.42166,-2.619867 -2.45647,-3.147702 -1.10942,-0.689085 -1.4198,-1.107611 -2.02373,-1.587831 -0.61171,-0.363357 -1.29265,-1.058199 -1.60677,-0.249854 -0.42198,2.4108 2.44064,4.783045 3.54248,5.829272 z m -11.91165,14.85856 c -1.51401,-0.70589 -3.73122,-3.08528 -4.56874,-4.90293 -0.73779,-1.6012 -0.44396,-3.28903 0.83302,-4.78504 0.39997,-0.46858 0.72834,-0.97405 0.72971,-1.12327 0.001,-0.14922 0.0719,-0.38108 0.15674,-0.51525 0.13607,-0.21518 0.18508,-0.2131 0.41587,0.0176 0.23227,0.2322 0.23557,0.32344 0.0295,0.81311 -0.12769,0.30336 -0.4933,0.86279 -0.81246,1.24318 -1.31803,1.57087 -1.19651,2.88433 0.49029,5.2993 0.87893,1.25835 1.80816,2.17853 2.8287,2.80116 1.27247,0.77633 1.78425,0.7474 2.68338,-0.15173 0.62748,-0.62749 0.7104,-0.79549 0.7104,-1.43938 0,-0.48028 -0.14723,-1.00076 -0.43155,-1.52565 -0.79903,-1.47505 -0.88795,-1.67923 -0.98099,-2.25257 -0.13007,-0.80153 0.19773,-1.49413 0.8078,-1.7068 0.6988,-0.24361 0.94212,0.0285 0.47249,0.52842 -0.54569,0.58086 -0.45506,1.2228 0.32678,2.31462 0.63097,0.88115 0.68305,1.03323 0.69114,2.01859 0.009,1.14326 -0.19116,1.57444 -1.27737,2.74638 -1.00398,1.08322 -1.77939,1.23813 -3.10467,0.62024 z m 13.25708,-15.608596 c -0.31118,-0.376567 -0.8628,-0.938795 -1.22584,-1.249397 -0.36304,-0.310603 -0.9866,-0.955294 -1.38569,-1.432647 -0.39909,-0.477353 -0.93661,-1.120602 -1.19447,-1.429438 -0.25787,-0.30884 -0.41902,-0.611364 -0.3581,-0.672279 0.18101,-0.181011 0.61395,0.180836 0.93389,0.780547 0.16456,0.308437 1.14085,1.369156 2.16955,2.357156 1.0287,0.988002 1.87036,1.921043 1.87036,2.073426 0,0.422524 -0.19048,0.321988 -0.8097,-0.427368 z m -11.87479,-1.227117 c 0,-0.213252 0.42037,-0.521061 0.54348,-0.397951 0.22264,0.222635 0.0943,0.540662 -0.21824,0.540662 -0.17888,0 -0.32524,-0.06422 -0.32524,-0.142711 z m 1.21526,-0.352277 c -0.12832,-0.207616 0.2094,-0.643364 0.49863,-0.643364 0.32248,0 0.3789,0.382401 0.0892,0.60466 -0.3214,0.246588 -0.45398,0.255317 -0.58785,0.0387 z m -2.15041,-1.334506 c 0.10245,-0.307712 0.6099,-0.351458 0.6099,-0.05258 0,0.150852 -0.13904,0.255856 -0.33879,0.255856 -0.19872,0 -0.31081,-0.08405 -0.27111,-0.203276 z m 1.28912,-0.226503 c 0.0825,-0.419006 0.57073,-0.662602 0.82056,-0.409381 0.16888,0.171166 0.14868,0.254168 -0.10792,0.443554 -0.42279,0.312045 -0.77743,0.295038 -0.71264,-0.03417 z m 19.25685,-1.372453 c -0.11725,-0.155035 -1.10469,-0.617874 -1.03939,-0.273037 0.0239,0.126201 0.10861,0.431624 0.73713,0.697708 0.16617,0.05624 0.22779,-0.06264 0.2764,-0.182049 0.0486,-0.119401 0.0842,-0.239317 0.0259,-0.242622 z m -12.59565,-6.571856 c 0.66099,-0.515282 0.76972,-0.81572 0.66989,-1.598318 -0.11624,-0.911298 -0.48533,-1.837454 -1.10888,-2.32937 -0.64632,-0.509886 -1.59092,-1.038558 -2.73466,-1.038558 -1.05406,0 -1.30914,0.350788 -1.89363,0.965212 -1.25632,1.320665 -0.90738,3.246141 1.01552,4.159522 2.30599,1.095358 3.27233,0.449126 4.05176,-0.158488 z m -2.55414,-0.243382 c -0.69116,-0.199601 -0.58267,-0.65471 -0.46967,-1.137193 0.23481,-0.84466 1.19243,-1.030294 1.73337,-0.30138 0.80481,1.448243 -0.49216,1.659887 -1.2637,1.438573 z m 0.93022,-0.561265 c 0.0647,-0.311187 -0.4506,-0.351549 -0.4506,-0.06437 0,0.141616 0.11587,0.257484 0.25749,0.257484 0.14161,0 0.17102,-0.0869 0.19311,-0.193114 z"
     id="path4971"
     inkscape:connector-curvature="0"
     sodipodi:nodetypes="ccssssccsccccssssssssscsscsscsssscsssssssssssssscsccccssssssssssssssccsscccsssccsssssssssssssssssssscssssssscssssscssssssssssssssccscssssccssssccccsssssccccsssssssssssssssssssssssssssssssssssssssssscsscccscsssssssccccssssssssss" >
     <animateTransform attributeType="xml" type="rotate" attributeName="transform" dur="2s" from="0 505 85" to="360 505 85" repeatCount="indefinite"/>
  </path>
</svg>
