<?xml version="1.0" encoding="UTF-8" standalone="no"?>
<!-- Created with Inkscape (http://www.inkscape.org/) -->

<svg
        xmlns:dc="http://purl.org/dc/elements/1.1/"
        xmlns:cc="http://creativecommons.org/ns#"
        xmlns:rdf="http://www.w3.org/1999/02/22-rdf-syntax-ns#"
        xmlns:svg="http://www.w3.org/2000/svg"
        xmlns="http://www.w3.org/2000/svg"
        xmlns:sodipodi="http://sodipodi.sourceforge.net/DTD/sodipodi-0.dtd"
        xmlns:inkscape="http://www.inkscape.org/namespaces/inkscape"
        width="370"
        height="370"
        id="svg2"
        version="1.1"
        inkscape:version="0.48.2 r9819"
        sodipodi:docname="13-lamanluss.svg"
        >
    <defs
            id="defs4" />
    <sodipodi:namedview
            id="base"
            pagecolor="#ffffff"
            bordercolor="#666666"
            borderopacity="1.0"
            inkscape:pageopacity="0.0"
            inkscape:pageshadow="2"
            inkscape:zoom="1.4"
            inkscape:cx="387.8763"
            inkscape:cy="113.01321"
            inkscape:document-units="px"
            inkscape:current-layer="layer1"
            showgrid="false"
            showguides="true"
            inkscape:guide-bbox="true"
            inkscape:window-width="2560"
            inkscape:window-height="1418"
            inkscape:window-x="0"
            inkscape:window-y="12"
            inkscape:window-maximized="1"
            fit-margin-top="0"
            fit-margin-left="0"
            fit-margin-right="0"
            fit-margin-bottom="0" />
    <metadata
            id="metadata7">
        <rdf:RDF>
            <cc:Work
                    rdf:about="">
                <dc:format>image/svg+xml</dc:format>
                <dc:type
                        rdf:resource="http://purl.org/dc/dcmitype/StillImage" />
                <dc:title />
            </cc:Work>
        </rdf:RDF>
    </metadata>
    <g
            inkscape:label="Layer 1"
            inkscape:groupmode="layer"
            id="layer1">

        <path
                sodipodi:nodetypes="csccssssccssssssssssccscccccccsssssscssccsssssssssscssssssssssssscccssssssssscsssssssssscccccsccsccssssssssssssssscsssscsssssscssssssssscssccsssssssssssssssssscsssssssssssscsscsssssssscssssssccsssss"
                inkscape:connector-curvature="0"
                id="path3818"
                d="M 168.066,363.05358 C 144.19502,359.79242 134.16778,357.75314 105.71701,345.04923 63.64974,326.26524 35.02533,288.618 20.52798,256.11819 7.4365897,232.4172 3.2977598,200.72752 3.6562698,171.34259 4.1846898,137.86617 16.44692,105.68739 28.57956,88.770451 c 6.24337,-8.70534 21.07813,-23.35957 29.73919,-29.37727 13.17157,-9.15161 21.77628,-14.23618 27.2197,-16.08427 2.61268,-0.88703 6.95479,-3.59478 9.64913,-6.01722 6.61489,-5.94735 13.27918,-7.86194 25.51955,-7.33153 11.96904,0.95375 16.56143,3.95306 27.14329,8.81029 6.76827,4.01786 7.50354,5.70186 7.88654,6.46544 0.85058,1.69577 1.79843,1.54308 3.02078,1.07402 2.71097,-1.04029 21.04911,-4.37938 30.21601,-5.50186 4.66057,-0.57068 14.85067,-1.0376 22.64466,-1.0376 16.86207,0 23.57962,1.65739 33.37721,8.23502 7.22507,4.85056 10.2528,8.62802 15.68227,19.5655 2.10215,4.23471 3.93636,7.88875 4.07603,8.12009 0.13967,0.23134 1.26467,-0.50353 2.5,-1.63303 7.29499,-6.67002 16.30749,-6.94221 29.24606,-0.88325 12.69941,5.94696 31.77963,18.67134 42.59334,32.167099 7.78791,9.71948 16.30744,32.20863 22.86499,51.3072 5.36102,20.36181 5.94188,41.97836 2.64758,58.84257 -1.42567,7.27166 -6.02596,20.76227 -7.44496,25.04061 -3.50343,10.56305 -13.48229,32.74615 -21.41734,45.24957 -37.86733,55.24995 -112.62096,81.93635 -167.67759,77.27175 z M 127.36312,182.5628 c 1.72313,1.91275 1.86404,2.61427 0.85099,4.23643 0,0 -3.90076,0.8499 -4.94987,-1.42689 -0.60317,-1.43751 2.80476,-5.87813 4.09888,-2.80954 m -0.36311,7.62265 c 0,2.22034 -2.8734,4.585 -5.57143,4.585 -3.1885,0 -3.06665,0.74646 0.7676,4.70239 3.83766,3.95946 6.08212,4.177 7.64757,0.74122 1.28031,-2.80997 3.15626,-2.4442 3.15626,0.61541 0,2.17082 0.93351,2.33146 6,1.03245 1.925,-0.49355 4.84575,-1.20178 6.49056,-1.57385 l 2.99055,-0.67648 -3.49055,-2.86931 c -2.91577,-2.39683 -3.30907,-3.16593 -2.38843,-4.67057 0.60617,-0.99069 2.04379,-1.9418 3.1947,-2.11357 1.24286,-0.18548 1.88865,-0.84374 1.59037,-1.62106 -0.60272,-1.57064 2.38823,-4.82346 3.69342,-4.0168 1.26653,0.78275 1.15944,5.18377 -0.14576,5.99043 -0.69742,0.43103 -0.4724,1.31327 0.65179,2.55549 1.40167,1.54883 1.99293,1.66831 3.22005,0.65072 2.89974,-2.40464 4.19199,-7.1408 3.00425,-11.01078 -1.36014,-4.43174 -0.54704,-6.73569 2.37712,-6.73569 1.23796,0 10.57363,4.14732 20.74594,9.21627 16.13682,8.04112 19.28151,9.26634 24.66264,9.60899 5.09445,0.32439 7.21816,-0.0788 12.20588,-2.31713 6.87184,-3.0839 9.33891,-5.38972 11.57633,-10.81972 l 1.57056,-3.8116 -3.44259,-1.4384 c -1.89343,-0.79113 -3.71851,-1.43841 -4.05573,-1.43841 -3.82438,0 -33.38377,-18.7544 -37.76388,-23.95987 -8.64504,-10.27405 -3.12067,-25.16672 11.39178,-30.71011 3.06845,-1.17207 10.71845,-3.08422 17,-4.24921 26.18951,-4.85719 32.97688,-7.58052 38.26453,-15.35308 1.95603,-2.875249 3.85614,-6.478899 4.22247,-8.008099 0.66028,-2.75623 0.63153,-2.77485 -3.31067,-2.14447 -3.06472,0.49007 -5.12986,0.084 -9.0048,-1.77044 -4.5928,-2.19803 -5.75857,-2.34229 -13.46682,-1.66644 -4.64132,0.40694 -10.31546,1.4908 -12.6092,2.40857 -4.4502,1.78062 -7.17451,1.42643 -7.17451,-0.93276 0,-2.09873 7.54556,-4.66016 17.68384,-6.00298 l 11.13759,-1.16772 c 0.91518,-1.04911 -0.24554,-0.68151 -0.80357,-2.93598 -0.13393,-2.83482 0.7366,-2.35562 -0.26786,-4.18598 l -10.25,-0.32143 c -4.9552,-0.15539 -11.68685,-0.19984 -14.97078,0.16702 -6.27827,0.70138 -9.52922,-0.22894 -9.52922,-2.72695 0,-2.93127 5.02618,-3.67802 20.8413,-3.09643 14.27483,0.52494 15.48709,0.42833 17.43856,-1.38974 1.15349,-1.07465 2.92258,-2.09589 3.9087,-1.9539 5.58082,0.80357 3.89137,-0.78002 0.75659,-4.72749 -2.27726,-2.86764 -7.20946,-8.63987 -12.70527,-10.96584 -14.25316,-6.03231 -40.09068,-5.91343 -67.45464,0.31037 0,0 -9.62386,1.12711 -8.4185,2.24319 0.22322,0.71428 2.21618,8.46274 2.21618,8.46274 0.73597,8.69579 -0.74692,9.74279 -2.78159,15.67703 -3.03297,8.84586 -12.92777,15.31024 -21.00141,16.84491 -2.91496,0.55409 -9.02156,1.71566 -13.57023,2.58126 -4.54867,0.86561 -10.79777,0.96516 -12.90463,0.94883 -5.7614,-0.0446 -19.23872,-8.1019 -24.59043,-18.29887 -2.07434,-3.95239 -3.68629,-5.78532 -3.37964,-13.54464 0.27155,-6.87119 1.43733,-10.64157 1.89369,-11.27755 4.87449,-6.79308 -4.49096,-1.44927 -18.70981,8.57103 -9.42331,6.64078 -22.89691,20.04739 -29.17879,29.03369 -9.3516,13.377589 -24.76839,40.340299 -25.40604,80.884999 4.163,57.53184 5.81072,63.78726 26.22882,100.82425 29.5246,47.59626 80.94059,85.10778 151.37924,84.6545 45.58959,-2.58581 88.13447,-19.38874 130.15029,-60.33271 15.40018,-14.87778 30.14429,-51.74671 37.59017,-81.37955 5.44029,-20.35757 2.56625,-43.48713 -4.58539,-63.24752 -3.92235,-10.83768 -9.47941,-29.65195 -14.45987,-37.52385 -8.67302,-13.52114 -23.15919,-22.672689 -34.8725,-30.705789 -3.51564,-3.08677 -17.74989,-8.09184 -23.47593,-8.25464 -3.76434,-0.10703 -6.66397,2.20507 -8.95939,8.47165 -2.16477,4.85039 -4.84536,9.01273 -6.80281,13 -4.59128,9.411509 -9.23575,15.441959 -13.03242,16.921449 -4.72065,1.83956 -20.437,5.68077 -29.88628,7.30447 -18.7545,3.22266 -26.11347,6.75032 -29.35138,14.07017 -3.05174,6.89895 -1.09235,12.88315 5.51834,16.85362 15.99754,9.60833 25.18597,14.60999 31.48422,17.13819 11.09091,4.45206 11.84653,7.54158 5.62567,23.00191 -5.55552,13.80681 -5.40792,16.26731 1.33008,22.17203 3.4521,3.02519 3.56617,3.31092 1.96272,4.91667 -2.63525,2.63903 -7.3823,2.14357 -10.79582,-1.12679 -3.77008,-3.61196 -5.40051,-8.57618 -4.63973,-14.12669 0.66971,-4.88602 0.43261,-5.02284 -4.86687,-2.80858 -6.68335,2.79248 -15.4875,0.39133 -35.64023,-9.72016 -7.50476,-3.76546 -13.91726,-6.84629 -14.25,-6.84629 -0.33273,0 -0.60748,0.7875 -0.61055,1.75 -0.0126,3.94869 -2.29318,9.52068 -5.2971,12.94195 -2.44951,2.78984 -3.19401,4.56746 -3.19545,7.62967 -0.002,5.01077 -2.14057,6.01324 -3.64163,1.70732 -0.80633,-2.31306 -1.53245,-2.98278 -2.72942,-2.51743 -0.89695,0.34871 -4.10582,1.07636 -7.13082,1.617 -9.19915,1.64413 -9.25684,1.67909 -8.60963,5.21843 0.63712,3.48414 -0.56471,6.28138 -2.251,5.23919 -0.59634,-0.36855 -1.61143,-2.42968 -2.25576,-4.58027 -0.95329,-3.18179 -1.75012,-4.03467 -4.27757,-4.57846 -4.50292,-0.96882 -8.71425,-3.29962 -11.86474,-6.56665 -1.51728,-1.57341 -3.18912,-2.86075 -3.7152,-2.86075 -0.52608,0 -2.49407,1.35 -4.37332,3 -7.2048,6.3259 -9.1601,2.24416 -2.23996,-4.67598 l 4.41283,-4.41282 -2.33632,-5.7056 c -2.19485,-5.3601 -0.005,-6.51465 -5.12872,-6.65432 -2.7039,-0.0737 -5.31778,1.17699 -5.31778,-1.03509 0,-1.89361 1.89369,-3.26312 4.79426,-2.97836 5.80777,0.57019 3.91037,-0.34371 4.69955,-4.24411 0.51287,-2.53477 2.77073,-8.14084 4.54673,-8.60527 0.98298,-0.25706 2.75832,0.21279 3.94519,1.04411 2.11378,1.48055 2.41439,3.42682 0.53711,7.4026 -1.72564,3.65462 -4.50712,5.38401 4.44813,2.86815 2.68785,-0.75512 6.41659,2.85074 0.91545,3.47255 -8.78015,1.347 -7.08508,1.77842 -7.15367,2.09955 -0.26187,1.22598 2.38169,8.42459 3.61534,8.42459 0.72085,0 2.66139,-0.47088 4.31232,-1.04639 5.06696,-0.80357 6.29676,1.46139 6.29676,1.46139 z m 71,134.78326 c -4.12895,-0.49835 -21.11342,-4.15022 -27,-5.80533 -6.08508,-1.71092 -22.46698,-9.74222 -31,-15.19789 -11.50707,-7.35715 -15.60956,-9.54376 -19,-10.12694 -3.08326,-0.53034 -3.5,-0.95722 -3.5,-3.58506 0,-2.84838 0.21399,-2.99678 4.74025,-3.28743 3.93168,-0.25247 5.8933,0.33223 11.5,3.42785 3.71786,2.05274 8.55975,4.93274 10.75975,6.40001 2.2,1.46726 9.175,5.46829 15.5,8.89118 9.29112,5.02805 13.90095,6.81676 24,9.31249 20.59151,5.08868 36.52197,4.03559 51.42926,-3.39977 4.89244,-2.44022 13.93209,-7.40258 16.73397,-15.82737 1.28145,-3.85312 0.9668,-7.80503 0.94165,-14.28895 -0.0484,-12.46969 -1.55246,-18.2308 -5.7097,-21.87013 -3.20371,-2.80459 -7.29514,-6.89012 -13.31781,-6.44084 -0.89604,0.0668 -3.22464,0.70242 -5.23798,1.04114 -2.01333,0.33873 -7.41333,3.12133 -12,6.18356 -15.04175,10.04245 -18.85278,11.55849 -29.25217,11.63662 -8.96807,0.0674 -9.2499,-0.006 -21.49389,-5.56943 -6.82367,-3.10074 -13.50496,-6.66241 -14.84732,-7.91484 -5.68276,-5.30203 -8.10981,-14.70929 -4.31845,-16.73836 2.31279,-1.23777 5.07244,-0.37377 5.07244,1.58809 0,2.72004 4.87558,9.10226 8.67063,11.35 2.10615,1.24744 7.87937,4.06125 12.82937,6.25291 14.76541,6.53753 23.05595,5.46546 38.26453,-4.9481 14.77474,-10.11649 24.34256,-11.99571 34.61443,-6.79862 6.43383,3.25522 8.57244,5.34488 11.73164,11.46309 2.01003,3.89271 3.07751,6.26499 2.71089,19.05796 -0.38226,13.33901 -0.66343,13.0321 -3.00676,20.06909 -3.43534,10.3163 -17.43598,18.44375 -33.78164,23.8187 -4.95011,1.62775 -21.03111,1.91009 -26.03309,1.30637 z M 135.66668,197.10378 c -0.36667,-0.36666 -0.66667,-1.52466 -0.66667,-2.57332 0,-2.72533 3.41564,-1.83089 3.81955,1.00021 0.30775,2.15704 -1.61141,3.11459 -3.15288,1.57311 z m 2.13902,-11.86046 c -1.65984,-3.64295 0.35323,-5.54401 3.17068,-2.99425 2.428,2.1973 2.5979,4.08703 0.44184,4.91439 -2.29242,0.87969 -2.35103,0.84853 -3.61252,-1.92014 z m -13.62524,-12.64454 c 0.47108,-3.2015 2.81955,-3.54438 2.81955,-0.41166 0,1.6805 -0.54853,2.58333 -1.56955,2.58333 -1.04234,0 -1.46221,-0.72946 -1.25,-2.17167 z m 0.77491,-84.002419 c 11.40901,-1.3576 21.87641,-7.84819 26.75773,-18.51039 2.84659,-6.21777 2.53576,-10.86128 -1.226,-18.31552 -2.89543,-5.73752 -4.38397,-7.0238 -13.279,-11.47468 -9.15314,-4.58003 -17.94148,-5.61687 -26.50585,-3.12714 -7.7139,2.24249 -11.60898,5.98435 -16.53786,15.88728 -4.41915,8.87881 -5.08692,13.42006 -2.85794,19.43582 1.76694,4.76877 10.45573,14.70272 15.19356,16.41096 9.25966,2.01141 14.42965,0.52974 18.45536,-0.30633 z m -8.70536,-24.50033 c -2.9581,-2.06347 -2.87207,-5.79442 0.20455,-8.87103 2.81842,-2.81843 6.12614,-3.13698 9.32294,-0.89785 2.78387,1.9499 2.84235,5.38559 0.14993,8.80844 -2.37643,3.02114 -6.18186,3.39881 -9.67742,0.96044 z"
                style="fill:#000000" />
        <g
                inkscape:label="posket"
                inkscape:groupmode="layer"
                id="posket">
            <animateTransform
                    attributeName="transform"
                    attributeType="XML"
                    type="translate"
                    from="0,0"
                    to="-43, -43"
                    dur="1s"
                    begin="0s"
                    repeatCount="indefinite"
                    id="animateTransform2992" />
            <path
                    style="fill:#000000"
                    d="m 162.51394,146.8993 c -1.4633,-4.19746 -1.3673,-8.24911 0.3478,-14.69296 2.5252,-9.48696 12.3651,-23.15782 16.6684,-23.15782 2.6305,0 2.3511,2.2144 -0.6332,5.018 -7.3793,6.93251 -12.2089,19.77131 -10.4275,27.7203 1.2793,5.7082 0.4995,8.2617 -2.5229,8.2617 -1.7197,0 -2.624,-0.82961 -3.4326,-3.14922 z"
                    id="path3818-4"
                    inkscape:connector-curvature="0"
                    sodipodi:nodetypes="sssssss">
                <animateTransform
                        attributeName="transform"
                        attributeType="XML"
                        type="scale"
                        from="1"
                        to="1.3"
                        dur="1s"
                        begin="0s"
                        repeatCount="indefinite"
                        id="animateTransform2995" />
            </path>
            <path
                    style="fill:#000000"
                    d="m 145.92883,144.29545 c -0.3477,-0.90614 -0.9064,-4.89095 -1.2415,-8.85514 -0.9123,-10.79325 0.635,-15.65856 7.7039,-24.22378 6.5738,-7.96521 11.5622,-11.463019 12.5769,-8.81873 0.3777,0.98432 -1.7125,4.00637 -5.897,8.52606 -4.723,5.10129 -6.7863,8.20938 -7.6031,11.45302 -1.4489,5.75392 -1.4358,14.78104 0.026,17.98942 0.8853,1.94301 0.8574,2.86647 -0.1224,4.04706 -1.6733,2.01621 -4.6486,1.95176 -5.4429,-0.11791 z"
                    id="path3818-4-2"
                    inkscape:connector-curvature="0"
                    sodipodi:nodetypes="cssssssscc">
                <animateTransform
                        attributeName="transform"
                        attributeType="XML"
                        type="scale"
                        from="1"
                        to="1.3"
                        dur="1s"
                        begin="0s"
                        repeatCount="indefinite"
                        id="animateTransform2998" />
            </path>
        </g>
        <animateTransform
                attributeType="xml"
                type="rotate"
                attributeName="transform"
                dur="3s"
                from="0 185 185"
                to="360 185 185"
                repeatCount="indefinite"
                id="animateTransform3000" />
    </g>
</svg>
