<?xml version="1.0" encoding="UTF-8" standalone="no"?>
<!-- Created with Inkscape (http://www.inkscape.org/) -->

<svg
   xmlns:dc="http://purl.org/dc/elements/1.1/"
   xmlns:cc="http://creativecommons.org/ns#"
   xmlns:rdf="http://www.w3.org/1999/02/22-rdf-syntax-ns#"
   xmlns:svg="http://www.w3.org/2000/svg"
   xmlns="http://www.w3.org/2000/svg"
   xmlns:sodipodi="http://sodipodi.sourceforge.net/DTD/sodipodi-0.dtd"
   xmlns:inkscape="http://www.inkscape.org/namespaces/inkscape"
   width="508.71225"
   height="782.55676"
   id="svg2"
   version="1.1"
   inkscape:version="0.48.3.1 r9886"
   sodipodi:docname="404.svg">
  <defs
     id="defs4" />
  <sodipodi:namedview
     id="base"
     pagecolor="#ffffff"
     bordercolor="#666666"
     borderopacity="1.0"
     inkscape:pageopacity="0.0"
     inkscape:pageshadow="2"
     inkscape:zoom="1.05354"
     inkscape:cx="506.36306"
     inkscape:cy="402.63791"
     inkscape:document-units="px"
     inkscape:current-layer="layer1"
     showgrid="false"
     showguides="true"
     inkscape:guide-bbox="true"
     inkscape:window-width="2495"
     inkscape:window-height="1373"
     inkscape:window-x="65"
     inkscape:window-y="24"
     inkscape:window-maximized="1"
     fit-margin-top="0"
     fit-margin-left="0"
     fit-margin-right="0"
     fit-margin-bottom="0" />
  <metadata
     id="metadata7">
    <rdf:RDF>
      <cc:Work
         rdf:about="">
        <dc:format>image/svg+xml</dc:format>
        <dc:type
           rdf:resource="http://purl.org/dc/dcmitype/StillImage" />
        <dc:title />
      </cc:Work>
    </rdf:RDF>
  </metadata>
  <g
     inkscape:label="Layer 1"
     inkscape:groupmode="layer"
     id="layer1"
     transform="translate(-47.817665,-25.360068)">
    <g
       id="g3779">
      <path
         transform="translate(635.38595,-1.0101525)"
         d="m -309.82144,315.30862 a 28.125,28.125 0 1 1 -56.25,0 28.125,28.125 0 1 1 56.25,0 z"
         sodipodi:ry="28.125"
         sodipodi:rx="28.125"
         sodipodi:cy="315.30862"
         sodipodi:cx="-337.94644"
         id="path3979"
         style="color:#000000;fill:#ffffff;fill-opacity:1;fill-rule:nonzero;stroke:none;stroke-width:1.25;marker:none;visibility:visible;display:inline;overflow:visible;enable-background:accumulate"
         sodipodi:type="arc" />
      <path
         transform="translate(47.817665,25.360068)"
         inkscape:connector-curvature="0"
         id="path2999"
         d="m 208.73456,61.717796 18.79282,16.108133 22.81986,-5.369378 33.55861,-22.819855 23.49103,11.409927 0.67117,16.779306 -32.88744,34.229781 -12.0811,20.13517 -6.04055,39.93475 7.04731,12.75227 28.02144,-5.36938 9.39641,-45.9753 37.08227,-39.766951 12.0811,-27.350268 L 341.79445,24.467737 296.15474,2.6546393 219.47332,45.441869 z"
         style="fill:#ffffff;stroke:none;stroke-width:1px;stroke-linecap:butt;stroke-linejoin:miter;stroke-opacity:1;fill-opacity:1" />
      <path
         transform="translate(47.817665,25.360068)"
         inkscape:connector-curvature="0"
         id="path3777"
         d="m 257.73013,202.66396 38.7602,3.69145 -1.34234,21.47751 -39.76696,-2.68469 z"
         style="fill:#ffffff;stroke:none;stroke-width:1px;stroke-linecap:butt;stroke-linejoin:miter;stroke-opacity:1;fill-opacity:1" />
      <g
         transform="translate(-127.27922,-71.720831)"
         id="g3969">
        <path
           inkscape:connector-curvature="0"
           id="path3973"
           d="m 320.42976,879.50364 c -0.32054,-0.3226 -7.08302,-0.9762 -16.19952,-1.56576 -5.28832,-0.34202 -6.81588,-0.63359 -11.5166,-2.19827 -8.67743,-2.88832 -9.07912,-2.96442 -15.82439,-2.99734 l -6.34013,-0.0312 -2.62409,-1.58071 c -2.87756,-1.7334 -6.27265,-4.99292 -7.74964,-7.44022 -0.52063,-0.86261 -1.2664,-1.92946 -1.65726,-2.37075 -0.39087,-0.44129 -2.3316,-3.9525 -4.31273,-7.80265 -3.72162,-7.23266 -4.33949,-9.18163 -5.54601,-17.49422 -0.33722,-2.32342 -0.42188,-5.37459 -0.22554,-8.12937 0.39892,-5.59711 2.16974,-16.17012 3.34822,-19.99119 0.49797,-1.61458 1.34077,-4.75758 1.8729,-6.98448 0.53212,-2.22686 1.77552,-6.45729 2.7631,-9.40089 1.74754,-5.20876 3.76975,-14.13815 5.16388,-22.80184 0.99062,-6.15614 0.36211,-9.68243 -2.91877,-16.37597 -1.01984,-2.08062 -1.85425,-4.01749 -1.85425,-4.30414 0,-0.28661 -2.0475,-2.73522 -4.55002,-5.44126 -2.5025,-2.70608 -4.86724,-5.45146 -5.25497,-6.10091 -0.38773,-0.6494 -1.28939,-1.52597 -2.0037,-1.94793 -0.7143,-0.42196 -2.63838,-2.43104 -4.27573,-4.46465 -1.63734,-2.03356 -3.68411,-4.28489 -4.54838,-5.0029 -2.32868,-1.93461 -8.7998,-9.32687 -10.7949,-12.33152 -0.95745,-1.44197 -3.65245,-6.38156 -5.9889,-10.97691 -2.33645,-4.59535 -5.72371,-10.59076 -7.52726,-13.32313 -4.04698,-6.13116 -4.7361,-7.51054 -8.68685,-17.38781 -3.51348,-8.78409 -6.63782,-18.12356 -7.10095,-21.22668 -0.16683,-1.11778 -0.79196,-4.59986 -1.38919,-7.73798 -1.3429,-7.05624 -1.94656,-11.94588 -2.44728,-19.82287 -0.21355,-3.35955 -0.6971,-7.62747 -1.07454,-9.48426 -0.37744,-1.85675 -0.90446,-8.15191 -1.17116,-13.98924 -0.2667,-5.83734 -0.71326,-13.68137 -0.99237,-17.43117 -0.63245,-8.49677 -0.19246,-30.86012 0.74468,-37.85051 0.36948,-2.75595 0.88071,-6.63682 1.13606,-8.624 0.98697,-7.6807 5.10807,-22.4454 8.61959,-30.88148 0.99491,-2.39017 2.38433,-5.87003 3.08761,-7.73301 0.70328,-1.86298 2.12953,-5.31796 3.16945,-7.67773 1.03992,-2.35978 2.96928,-7.13578 4.28745,-10.61334 3.49719,-9.22614 3.80326,-10.01061 5.55046,-14.22639 2.84855,-6.8732 11.72056,-24.73581 14.97928,-30.15879 3.24201,-5.39517 4.07006,-6.48493 10.96014,-14.42416 12.19715,-14.05442 25.49318,-25.06062 37.71123,-31.21663 2.53016,-1.27482 7.71263,-4.07329 11.5166,-6.21883 10.09361,-5.69307 11.10625,-6.21318 14.82603,-7.61492 1.85958,-0.70076 3.58429,-1.4132 3.83269,-1.58321 1.9088,-1.30645 23.86265,-6.92642 31.73516,-8.1239 3.16264,-0.48106 7.07127,-1.1117 8.68586,-1.40141 1.75332,-0.31461 8.48324,-0.55146 16.71036,-0.58809 13.19063,-0.0587 13.93755,-0.0161 17.61363,1.00466 2.11137,0.5863 5.8413,2.05975 8.28873,3.27433 2.44742,1.21459 4.80212,2.20834 5.23265,2.20834 0.43054,0 2.08631,-1.02563 3.6795,-2.27918 1.5932,-1.25354 3.91289,-3.08201 5.15487,-4.06325 5.86448,-4.63328 12.98403,-6.68237 21.39208,-6.1569 7.98325,0.49893 12.76685,1.19121 14.67702,2.12404 9.73218,4.75273 12.89171,7.29644 16.3124,13.13295 l 1.69178,2.8866 -0.21933,5.19433 c -0.24606,5.82715 -0.78958,7.70587 -3.55468,12.28694 -1.0052,1.66536 -1.71325,3.21299 -1.57346,3.4392 0.13981,0.2262 1.02127,0.51778 1.95882,0.64795 0.93754,0.13018 4.95637,1.45106 8.93073,2.93531 3.97435,1.48423 9.96976,3.4552 13.32313,4.37991 5.5911,1.54178 8.75598,2.76625 25.8899,10.01661 8.16897,3.45676 14.22999,6.56244 19.72487,10.10708 2.60818,1.68248 6.16477,3.86681 7.90355,4.85408 7.65783,4.34805 12.88837,7.61728 16.71037,10.44442 0.99359,0.73497 3.16051,2.16377 4.81538,3.17512 12.28758,7.50942 26.82247,22.02888 28.45995,28.42975 0.40747,1.59283 0.79131,2.09027 2.00382,2.59688 0.82489,0.34467 1.9467,0.62666 2.49291,0.62666 0.54621,0 2.89494,1.01617 5.21939,2.25816 2.32445,1.24198 4.48155,2.25816 4.79354,2.25816 0.98723,0 12.44581,5.78891 15.87527,8.02024 3.4374,2.2365 4.78817,3.82952 5.84284,6.89073 0.62321,1.80887 0.61703,1.83233 -0.6551,2.49018 -1.80571,0.93377 -3.99856,0.82297 -5.83192,-0.29467 -5.54609,-3.38096 -25.59388,-12.59017 -27.4079,-12.59017 -0.0853,0 -0.15511,1.82386 -0.15511,4.05304 l 0,4.05303 3.95177,2.67126 c 9.94294,6.72107 14.68692,13.21913 13.88857,19.02385 -0.17124,1.24501 -0.48251,2.36944 -0.69173,2.49874 -0.20921,0.1293 -1.25715,0.042 -2.32875,-0.19401 -1.37749,-0.30338 -2.27919,-0.86236 -3.07744,-1.90776 -4.09856,-5.36751 -12.76681,-12.98129 -14.16728,-12.44389 -0.30748,0.118 -1.56331,2.11616 -2.79072,4.44036 -3.57393,6.76753 -8.41716,11.03069 -19.51766,17.18005 -16.556,9.17156 -23.51195,10.72825 -42.10822,9.42351 -5.82354,-0.40859 -8.21459,-0.83207 -12.87149,-2.27972 -1.49039,-0.4633 -3.61304,-0.98232 -4.71702,-1.15337 -1.10397,-0.17105 -3.11732,-0.69293 -4.4741,-1.15974 -1.3568,-0.4668 -2.71606,-0.84873 -3.02059,-0.84873 -0.51727,0 -4.27284,5.31013 -4.27284,6.04152 0,0.18323 -0.89753,1.61722 -1.9945,3.18664 -1.09697,1.56943 -2.41027,3.6685 -2.91845,4.66461 -0.50817,0.99612 -2.7706,3.87017 -5.02761,6.38684 -2.28401,2.54679 -3.96773,4.79569 -3.79713,5.07173 0.66525,1.07642 0.19812,8.35234 -0.70471,10.9765 -1.07464,3.12348 -5.08261,9.30799 -7.52355,11.60923 -1.64367,1.54959 -4.86593,3.40182 -8.97081,5.15664 -2.6848,1.14773 -12.00396,1.47846 -13.52766,0.48008 -0.61522,-0.40308 -1.39909,-0.73291 -1.74193,-0.73291 -0.34283,0 -2.12829,1.32468 -3.96766,2.94374 -5.52203,4.86059 -12.15925,9.36859 -20.8453,14.15819 l -3.50039,1.93014 0.26604,1.88768 c 0.14632,1.03821 0.5419,2.8022 0.87906,3.91998 1.48679,4.92915 2.49647,13.43992 2.75935,23.25902 0.2623,9.79707 0.24682,10.03056 -1.10722,16.71037 -1.24634,6.14846 -1.77771,9.13221 -2.57379,14.45221 -0.54454,3.63906 -4.43582,15.50735 -6.88558,21.00086 -2.6555,5.95485 -6.01998,11.30447 -12.81299,20.37296 -5.14817,6.87266 -11.05825,14.24414 -11.80185,14.72007 -0.30939,0.19804 -1.36625,1.35955 -2.34858,2.58116 -0.98232,1.22167 -2.65766,3.02458 -3.72297,4.00656 -1.06531,0.98198 -2.37763,2.52291 -2.91627,3.42427 -0.53863,0.90137 -1.92348,2.75662 -3.07743,4.12281 -3.33133,3.94405 -10.82482,14.42759 -12.09386,16.91961 -1.58543,3.11332 -1.93389,8.07548 -0.75564,10.76066 1.09721,2.50054 6.60342,9.41308 11.76749,14.77309 5.36443,5.56794 10.93118,13.41034 13.94523,19.64597 3.49713,7.23504 4.06382,9.5278 6.07023,24.55963 0.92905,6.96031 0.69934,10.64043 -1.17331,18.79699 -0.62732,2.73237 -1.32814,6.11906 -1.55737,7.52603 -0.79534,4.88155 -5.26487,13.73854 -9.44218,18.711 -1.11779,1.33055 -2.53023,3.06428 -3.13876,3.85278 -2.91181,3.77279 -12.90587,8.64685 -22.50102,10.97361 -1.42296,0.34504 -4.4101,1.16665 -6.6381,1.82576 -2.228,0.65911 -4.44823,1.09448 -4.93385,0.96749 -0.48562,-0.127 -1.81284,-0.0411 -2.94938,0.19117 -1.91462,0.39102 -7.76763,1.06129 -14.26048,1.63301 -1.49039,0.13124 -2.83806,0.10957 -2.99482,-0.0482 z M 431.02189,409.92975 c 2.74893,-1.01867 8.08226,-4.33186 9.29706,-5.77557 0.57026,-0.67773 1.53247,-2.4225 2.13822,-3.87728 0.60576,-1.45478 2.28183,-4.99054 3.72459,-7.85725 2.30978,-4.58939 2.65428,-5.62329 2.88314,-8.65263 0.23136,-3.06235 0.13124,-3.72152 -0.91107,-5.99822 -1.37998,-3.01427 -5.4353,-7.45606 -8.77288,-9.60891 -1.30408,-0.84118 -2.37106,-1.82088 -2.37106,-2.1771 0,-1.03375 -1.25623,-1.4244 -6.54866,-2.03647 -6.35071,-0.73446 -13.00895,-0.45256 -15.07927,0.63843 -3.06103,1.61307 -9.52535,7.56093 -12.46196,11.46633 -5.741,7.63495 -6.94864,14.77077 -3.60778,21.31808 1.28552,2.51932 5.66409,8.0468 7.32878,9.2518 0.97814,0.70804 0.84047,0.41649 -0.65452,-1.38621 -1.04125,-1.25556 -2.65781,-3.99623 -3.59236,-6.09038 -1.57174,-3.52198 -1.71286,-4.18883 -1.88161,-8.89117 -0.18168,-5.06266 -0.17585,-5.0971 1.41492,-8.35518 2.41908,-4.95456 6.43205,-10.14463 9.49803,-12.28405 1.45339,-1.01417 2.92204,-2.37739 3.26365,-3.02939 0.5972,-1.1398 2.63713,-2.18452 4.26551,-2.18452 0.42815,0 1.73195,0.42178 2.89734,0.93729 1.74215,0.77064 2.3666,0.85094 3.51204,0.45163 3.26531,-1.13829 5.27132,-0.67633 10.01195,2.30561 4.62849,2.91141 6.0256,4.40282 9.50987,10.15181 1.59365,2.6295 1.67561,2.95007 1.50112,5.87121 -0.19508,3.26585 -1.77362,9.85694 -2.86713,11.97156 -0.8634,1.66964 -5.20041,6.02505 -8.41511,8.45081 -3.49318,2.63591 -8.30702,4.53438 -13.03579,5.14102 -3.31936,0.42584 -4.42197,0.38028 -7.67773,-0.31717 -2.09095,-0.44792 -4.383,-1.11118 -5.09343,-1.4739 -0.71043,-0.36271 -1.15482,-0.43801 -0.98753,-0.16734 0.48665,0.78743 2.74379,1.80848 5.54967,2.51049 3.53594,0.88467 14.478,0.69127 17.162,-0.30333 z m 181.91602,288.99361 c -0.5313,-0.81086 -0.73783,-3.21467 -0.94101,-10.95206 -0.30018,-11.43161 -0.69691,-14.58016 -2.50814,-19.9053 -0.7208,-2.11924 -1.3118,-4.19295 -1.31333,-4.60822 -10e-4,-0.41532 -0.32421,-1.36483 -0.71707,-2.11002 -0.83753,-1.58866 -0.5904,-4.60439 0.51567,-6.29245 1.18958,-1.81556 5.37308,-2.71209 7.4553,-1.59774 1.04327,0.55836 2.23314,2.72885 2.23314,4.07354 0,0.53369 0.2801,1.61074 0.62244,2.39351 2.69837,6.1696 3.32681,10.19183 3.64468,23.32726 0.15328,6.33413 0.11963,11.72734 -0.0748,11.9849 -0.65412,0.86664 -4.79148,3.37057 -5.56936,3.37057 -0.42379,0 -1.02354,0.30485 -1.33276,0.67745 -0.77335,0.93181 -1.21989,0.85173 -2.01478,-0.36144 z m -69.51755,-14.36771 c -0.9654,-0.22658 -2.48966,-0.79799 -3.38724,-1.26971 -0.89758,-0.47178 -1.98763,-0.97088 -2.42232,-1.10917 -0.4347,-0.13829 -0.79036,-0.44824 -0.79036,-0.68878 0,-0.82639 3.39174,-3.68856 7.05813,-5.95616 2.2711,-1.40462 5.188,-3.82071 7.6494,-6.33603 7.06293,-7.21775 18.45703,-17.37616 22.55207,-20.10627 1.77973,-1.18657 5.15146,-2.4198 6.61575,-2.4198 1.55321,0 3.54596,1.62244 3.54596,2.88706 0,0.55821 -0.60971,1.69786 -1.3549,2.53252 -0.74519,0.83466 -1.35489,1.65293 -1.35489,1.81836 0,0.16543 -3.28765,3.22162 -7.30589,6.79159 -4.01824,3.56992 -8.84505,8.12313 -10.72625,10.11821 -5.14542,5.45689 -6.64833,6.82682 -11.24444,10.24951 -3.82111,2.84559 -5.92261,4.07042 -6.77043,3.94604 -0.17013,-0.0248 -1.0992,-0.23074 -2.06459,-0.45737 z m 135.4954,-34.95519 c -0.71371,-0.37223 -1.94414,-1.24442 -2.73431,-1.93818 -1.58997,-1.39599 -2.15356,-1.63797 -8.48507,-3.64286 -4.72895,-1.49742 -12.09325,-4.20157 -21.2051,-7.78635 -5.0738,-1.99616 -5.9091,-2.48031 -7.38358,-4.27975 -1.26922,-1.54891 -1.59738,-2.28873 -1.38701,-3.12696 0.37946,-1.51184 3.53885,-4.7382 4.63979,-4.7382 1.31131,0 3.70875,0.82477 15.04556,5.17597 5.58894,2.14511 13.0027,4.84104 16.47502,5.99089 5.10999,1.69222 6.65583,2.41018 8.11031,3.76688 1.78304,1.66322 1.79709,1.70251 1.81601,5.08356 0.0176,3.16675 -0.0746,3.50525 -1.30738,4.79235 -1.5131,1.57981 -1.79601,1.63527 -3.58424,0.70265 z M 575.20912,618.62518 c -2.91889,-0.72961 -7.66645,-1.50154 -10.83916,-1.76236 -17.5376,-1.44165 -20.80961,-2.10297 -21.76283,-4.39862 -0.28491,-0.68616 -0.55552,-2.8226 -0.60135,-4.74768 -0.0971,-4.0804 -0.28924,-3.97851 5.28557,-2.80423 1.81712,0.38276 7.26692,0.8862 12.11067,1.1187 4.84374,0.23254 9.61975,0.55166 10.61333,0.70919 3.1086,0.49287 8.0824,2.09476 9.20645,2.9651 0.59239,0.45868 1.54452,0.83394 2.11585,0.83394 3.18399,0 4.62773,2.2003 3.74472,5.70708 -0.54774,2.17524 -2.17927,3.80807 -3.72423,3.72718 -0.52539,-0.0276 -3.29245,-0.63427 -6.14902,-1.3483 z m 61.07082,-20.6322 c -1.84532,-1.60496 -3.26227,-3.68156 -3.26177,-4.78029 2.7e-4,-0.59457 3.16544,-3.42395 8.15235,-7.28739 1.92377,-1.49038 5.93394,-4.87337 8.91151,-7.51777 2.97756,-2.64439 6.50403,-5.51564 7.83666,-6.3806 1.33263,-0.86497 5.03881,-3.93466 8.23595,-6.82153 6.25722,-5.65009 6.77285,-5.88828 9.90875,-4.57801 2.03663,0.85096 3.02096,2.25364 3.02096,4.30495 0,1.49242 -0.45696,2.03541 -6.09192,7.23852 -3.35056,3.09382 -7.74042,7.04771 -9.75524,8.78649 -2.01477,1.73879 -4.60831,3.98028 -5.76336,4.98114 -2.94716,2.55361 -6.74733,5.64223 -8.8746,7.21291 -0.99359,0.73359 -3.07159,2.50719 -4.61784,3.94126 -3.50823,3.25378 -4.81927,3.40706 -7.70145,0.90032 z m -37.6079,-5.39573 c -2.45908,-3.64367 -4.44561,-9.67846 -6.30952,-19.16755 -0.95963,-4.88539 -1.88486,-10.60896 -2.05607,-12.71903 -0.28437,-3.5047 -0.22552,-3.95701 0.68038,-5.22921 1.20332,-1.68992 4.42754,-3.65434 5.99788,-3.65434 1.60543,0 2.18556,0.89722 2.84748,4.40377 0.31647,1.6765 0.88964,4.16594 1.27372,5.53213 0.38408,1.36618 1.02416,4.70785 1.4224,7.4259 0.85383,5.82754 1.938,10.06 3.83393,14.96716 1.86675,4.83164 2.12615,6.64815 1.15999,8.12268 -0.94887,1.44816 -3.25165,2.45335 -5.62035,2.45335 -1.62878,0 -1.9181,-0.19122 -3.22984,-2.13486 z m -423.53709,-61.9968 c 0,-0.621 0.10251,-0.87504 0.2278,-0.56454 0.12528,0.31049 0.12528,0.81858 0,1.12907 -0.12529,0.3105 -0.2278,0.0565 -0.2278,-0.56453 z m -0.0357,-28.71624 c 0.0217,-0.52613 0.12868,-0.63314 0.27286,-0.27286 0.13046,0.32602 0.11441,0.71556 -0.0357,0.86563 -0.15007,0.15007 -0.25682,-0.11668 -0.2372,-0.59277 z M 446.26833,332.97835 c -5.7531,-0.89511 -9.55059,-2.14617 -12.70692,-4.18621 -3.85266,-2.49009 -5.94189,-4.73686 -7.4991,-8.06455 -1.27756,-2.73007 -1.33783,-3.11971 -1.1588,-7.49193 0.21163,-5.16857 0.92341,-7.02197 4.77198,-12.42552 2.9841,-4.18981 7.66012,-6.55729 15.39045,-7.79221 1.93193,-0.30863 3.36969,-0.82088 4.0208,-1.43257 1.87549,-1.76194 5.01037,-1.61349 11.49991,0.54455 6.89334,2.29231 9.83034,4.3939 13.14033,9.40262 1.9117,2.8928 2.22509,3.71735 2.65743,6.99183 0.45602,3.45386 0.40636,4.02665 -0.71345,8.22858 -1.18898,4.4615 -4.19746,11.36695 -5.37966,12.34808 -1.21253,1.00631 -6.62317,2.751 -10.53758,3.39789 -6.38692,1.0555 -9.15127,1.15378 -13.48539,0.47944 z m 10.89291,-11.72441 c 9.37412,-1.61908 11.46285,-2.80707 11.46285,-6.51961 0,-2.056 -0.19025,-2.42675 -2.76577,-5.3898 -2.15961,-2.48455 -3.27316,-3.37148 -5.08086,-4.04685 -9.15691,-3.4211 -15.12288,-3.53217 -22.41268,-0.41728 -3.58397,1.53141 -6.16805,4.91793 -5.37106,7.03897 1.07069,2.84947 6.79087,7.59752 10.56477,8.7693 4.16319,1.29266 8.3774,1.46779 13.60275,0.56527 z m -15.72927,-33.62599 c -2.41247,-0.72723 -6.7548,-4.47049 -9.43643,-8.1346 -1.82788,-2.49756 -3.56665,-9.77489 -3.56665,-14.92763 0,-3.41077 1.05648,-9.30324 2.46077,-13.7249 0.62657,-1.97285 1.35616,-5.71981 1.62132,-8.32658 0.80665,-7.93007 1.52098,-10.60837 5.15997,-19.34683 0.64305,-1.54419 2.20015,-4.5927 3.46021,-6.77448 1.26007,-2.18177 3.52406,-6.20243 5.0311,-8.9348 3.01939,-5.4744 5.33031,-8.79809 8.44142,-12.14093 2.19116,-2.35437 8.2495,-7.15912 10.85899,-8.61204 2.50549,-1.39503 7.714,-5.80338 9.97539,-8.44293 2.40166,-2.80329 3.66964,-5.91981 4.4814,-11.01467 0.49114,-3.08254 0.48036,-3.81499 -0.0717,-4.86858 -0.95372,-1.82026 -5.09065,-5.0382 -8.96354,-6.97237 -3.35078,-1.67342 -3.45072,-1.69263 -8.80881,-1.69263 l -5.41957,0 -5.78367,2.3548 c -9.45717,3.85044 -13.62242,6.91727 -20.86259,15.36092 -2.7356,3.19032 -5.42956,5.26528 -7.76189,5.9784 -11.6506,3.56223 -15.02699,3.95699 -19.45375,2.27447 -1.30675,-0.49668 -3.0682,-0.90304 -3.91433,-0.90304 -2.05734,0 -5.12166,-1.36362 -8.52445,-3.79337 -10.05648,-7.18078 -11.68067,-13.41207 -6.36167,-24.40691 2.27707,-4.7069 2.74522,-5.28124 7.63229,-9.36354 1.9845,-1.65769 4.52273,-3.82218 5.64052,-4.80996 1.11779,-0.98777 3.04733,-2.67998 4.28788,-3.76046 1.24055,-1.08048 2.45995,-2.17946 2.70979,-2.44218 0.24984,-0.26272 1.21499,-0.97404 2.14478,-1.58071 0.92979,-0.60668 1.69192,-1.2446 1.69362,-1.41762 0.002,-0.17302 1.17168,-1.07683 2.59997,-2.00846 1.42828,-0.93163 3.24058,-2.21271 4.02733,-2.84684 3.2056,-2.58374 4.34461,-3.33221 9.93699,-6.52981 1.69662,-0.97009 3.59285,-2.20799 4.21384,-2.75088 0.621,-0.5429 1.94202,-1.38316 2.93561,-1.86724 3.30136,-1.60846 7.21397,-3.88133 8.15847,-4.73933 0.51281,-0.46584 1.46617,-0.84699 2.11859,-0.84699 0.65243,0 1.31184,-0.20323 1.46535,-0.45163 0.15352,-0.2484 0.6228,-0.45618 1.04283,-0.46175 0.42004,-0.006 1.98311,-0.61071 3.47349,-1.34478 1.49038,-0.73406 2.97193,-1.3392 3.29232,-1.34477 0.32039,-0.006 1.43818,-0.46103 2.48397,-1.01214 1.05444,-0.55566 3.61149,-1.243416 5.74031,-1.543938 2.11138,-0.298059 5.05827,-0.774679 6.54866,-1.059156 5.25183,-1.00244 9.55395,-1.350025 16.25873,-1.313605 5.53922,0.03009 7.26858,0.203475 9.48426,0.950897 3.81632,1.287365 5.43311,2.038782 6.09011,2.830412 0.31303,0.37718 0.81761,0.68578 1.1213,0.68578 0.30368,0 0.9381,0.42647 1.40982,0.94772 0.47172,0.52124 2.28152,1.77185 4.02177,2.77913 1.74026,1.00727 4.02331,2.61314 5.07345,3.56859 1.05013,0.95546 2.08266,1.73719 2.2945,1.73719 0.21184,0 1.06538,0.96536 1.89677,2.14525 0.83138,1.17988 2.74933,3.56789 4.2621,5.30667 1.51277,1.73878 3.0353,3.72031 3.3834,4.4034 0.3481,0.6831 0.78172,1.24199 0.96361,1.24199 0.51681,0 1.96938,2.7271 2.64615,4.96795 0.33759,1.11778 0.89356,2.91559 1.23549,3.99512 1.70557,5.3848 2.22772,23.74284 1.00392,35.29681 -0.43412,4.09856 -1.0167,8.2154 -1.29463,9.14855 -1.00227,3.36508 -4.18115,9.64761 -8.48963,16.77833 -5.68703,9.41228 -8.88942,12.69131 -18.62908,19.07496 -3.84398,2.51945 -7.90451,5.46805 -9.0234,6.55245 -4.4829,4.34468 -12.57024,19.70139 -14.61628,27.75422 -0.86786,3.41574 -1.93134,11.76948 -2.5281,19.85843 -0.25792,3.49616 -0.77735,7.39514 -1.15428,8.6644 -2.2371,7.53316 -11.59572,12.32613 -23.92687,12.25404 -2.73237,-0.016 -5.51844,-0.19498 -6.19126,-0.3978 z m 14.87302,-12.15965 c 2.87088,-0.27456 4.12413,-0.6267 5.52152,-1.55144 3.21546,-2.12789 3.86167,-4.0722 4.34787,-13.08181 0.35829,-6.63936 1.75054,-15.28652 3.20095,-19.88083 1.80178,-5.70737 5.33653,-13.59804 8.42983,-18.81807 1.54555,-2.60817 3.07709,-5.27069 3.40342,-5.91672 1.16901,-2.31428 3.94282,-5.58102 6.38403,-7.51853 1.36619,-1.08429 3.009,-2.468 3.65069,-3.07491 0.64169,-0.60691 1.57556,-1.10347 2.07525,-1.10347 0.4997,0 1.2957,-0.42809 1.76889,-0.95132 0.4732,-0.52322 1.64069,-1.34958 2.59444,-1.83634 7.38923,-3.77126 12.96759,-10.50812 19.14192,-23.11727 2.22774,-4.54949 2.70298,-6.95121 3.05529,-15.44076 0.26798,-6.45759 0.16826,-8.82305 -0.63693,-15.10824 -1.60271,-12.5106 -1.9575,-13.24483 -12.28675,-25.42679 -1.01094,-1.19227 -3.39314,-3.20828 -5.29377,-4.48002 -1.90063,-1.27173 -4.47186,-2.99289 -5.71385,-3.8248 -3.37617,-2.26144 -6.42495,-3.22558 -12.77879,-4.04113 -4.9113,-0.6304 -6.58406,-0.6582 -11.6093,-0.19298 -6.24625,0.57826 -13.44957,1.85542 -17.162,3.04285 -6.75745,2.16137 -17.78551,7.48871 -24.12104,11.65217 -2.08869,1.37261 -3.88329,2.49565 -3.98799,2.49565 -0.27355,0 -8.15951,5.51132 -13.99879,9.78344 -2.50107,1.82982 -7.76972,6.45639 -11.2299,9.86132 -1.51524,1.49105 -4.31715,3.98992 -6.22646,5.55304 -5.9777,4.89384 -6.25356,7.40003 -1.17228,10.65017 1.3284,0.84969 2.06833,0.98813 4.51631,0.84503 2.91823,-0.17059 2.93327,-0.16523 4.67956,1.66535 1.18703,1.24434 2.48898,2.05538 4.03787,2.51534 2.13153,0.633 2.56235,0.61274 6.37745,-0.29998 2.25032,-0.53837 4.41234,-1.25024 4.8045,-1.58194 0.39215,-0.3317 1.21061,-0.60309 1.81878,-0.60309 1.19789,0 2.20298,-0.88375 6.72666,-5.91459 5.05785,-5.62491 8.41115,-8.71755 10.90979,-10.06175 4.21454,-2.26732 7.3202,-3.78082 9.41362,-4.5876 2.17838,-0.83951 5.34972,-2.23918 7.29579,-3.21999 0.65932,-0.33229 1.63477,-0.60417 2.16767,-0.60417 0.53291,0 1.51772,-0.26116 2.18848,-0.58036 1.42381,-0.67756 6.5228,-0.65157 9.80056,0.05 3.03511,0.6496 6.73765,2.12589 8.73404,3.48247 0.90054,0.61193 1.8628,1.1126 2.13836,1.1126 0.87747,0 5.85513,5.56703 6.86974,7.68313 1.913,3.98979 1.92749,6.06956 0.12338,17.70921 -0.88627,5.71797 -4.41533,13.09072 -8.97782,18.75607 -1.7828,2.21374 -9.03927,8.20084 -11.37168,9.38244 -2.76554,1.40102 -9.30308,7.30496 -11.87938,10.72806 -1.36882,1.81874 -3.59464,5.43022 -4.94626,8.02553 -1.35161,2.5953 -3.40287,6.46292 -4.55834,8.59471 -1.15547,2.1318 -2.10085,4.24474 -2.10085,4.69543 0,0.45068 -0.59127,2.66955 -1.31393,4.93082 -0.72265,2.26127 -1.54779,6.14374 -1.83363,8.62771 -0.28585,2.48397 -1.09806,6.65027 -1.80492,9.25844 -2.15026,7.934 -2.36673,9.4616 -1.82303,12.865 0.26853,1.68093 0.76908,3.72841 1.11234,4.54995 0.73172,1.75124 3.64404,3.82335 6.02408,4.28613 2.26848,0.44108 8.99104,0.44947 13.51461,0.0168 z"
           style="fill:#dadada" />
        <path
           inkscape:connector-curvature="0"
           id="path3971"
           d="m 321.35174,878.61727 c -0.31869,-0.31867 -9.04214,-1.1858 -16.10734,-1.60103 -6.30093,-0.37034 -7.04868,-0.51897 -13.88566,-2.75983 l -7.2261,-2.3684 -6.54866,-0.0416 c -6.37602,-0.0407 -6.60743,-0.0761 -8.77831,-1.35047 -2.83453,-1.66395 -5.64964,-4.25559 -7.28514,-6.70682 -0.70345,-1.05433 -1.62565,-2.32342 -2.04935,-2.82021 -0.68118,-0.79871 -3.93754,-6.82664 -7.00062,-12.95903 -1.14392,-2.29017 -2.09659,-6.16987 -2.91537,-11.87267 -1.25805,-8.76223 1.32296,-23.92888 7.26437,-42.68721 3.40543,-10.75167 5.97167,-23.34758 5.98088,-29.35604 0.007,-4.58993 -0.59723,-6.73374 -3.74126,-13.27296 -2.00747,-4.17533 -2.97905,-5.57308 -6.43537,-9.25844 -2.23902,-2.38737 -4.46897,-5.00119 -4.95546,-5.80848 -0.48649,-0.80729 -1.04214,-1.4678 -1.23478,-1.4678 -0.58105,0 -3.35029,-2.76755 -5.64886,-5.64539 -1.19039,-1.49039 -4.02043,-4.54757 -6.28898,-6.79376 -6.04483,-5.98525 -9.07454,-10.29779 -13.75922,-19.585 -3.86973,-7.67159 -7.07534,-13.22567 -9.92221,-17.19131 -3.32922,-4.63757 -12.07822,-27.02544 -13.59484,-34.78799 -2.6834,-13.73443 -3.39843,-18.72772 -4.07439,-28.45279 -0.21581,-3.10496 -0.70745,-7.41154 -1.09253,-9.5702 -1.1239,-6.30035 -2.32141,-32.25584 -2.22559,-48.23863 0.0824,-13.74192 0.21928,-15.7389 1.98129,-28.90441 1.01358,-7.57331 5.19505,-22.4805 8.60074,-30.66216 0.99345,-2.3866 2.38168,-5.86353 3.08495,-7.72651 0.70328,-1.86298 2.12954,-5.31796 3.16946,-7.67774 1.03992,-2.35977 2.96927,-7.13578 4.28745,-10.61334 3.49719,-9.22613 3.80325,-10.0106 5.55045,-14.22639 2.90243,-7.0032 11.842,-24.97466 15.13153,-30.4193 3.2151,-5.32146 7.96117,-11.16597 16.59512,-20.43589 9.93833,-10.67038 19.87495,-18.3692 31.93853,-24.74573 9.48464,-5.01336 16.53712,-8.90263 17.2893,-9.53462 2.34883,-1.97352 15.63216,-7.08837 23.48483,-9.04302 3.60176,-0.89653 7.86968,-2.01474 9.48426,-2.4849 1.61459,-0.47017 4.76472,-1.155 7.00029,-1.52185 16.4524,-2.6998 16.1986,-2.67649 29.58186,-2.71617 12.22512,-0.0362 13.06428,0.0156 16.71037,1.03256 2.11137,0.5889 6.08864,2.16396 8.83837,3.50015 2.74974,1.33618 5.20277,2.42942 5.4512,2.42942 0.24842,0 1.25039,-0.67408 2.22659,-1.49797 4.05997,-3.42649 9.97002,-7.66883 12.37435,-8.88254 2.95843,-1.49349 8.76393,-2.71689 12.89233,-2.71689 4.96424,0 14.73425,1.33489 16.69162,2.2806 8.92068,4.31007 12.81225,7.41551 15.80681,12.61374 l 1.68565,2.92609 -0.21797,4.75164 c -0.25964,5.65977 -0.58674,6.81487 -3.25382,11.49029 -2.39711,4.20214 -2.53169,5.11995 -0.79864,5.44612 1.22323,0.23023 7.94853,2.46822 15.46838,5.14744 2.11138,0.75226 6.37929,2.07268 9.48426,2.93426 4.48335,1.24408 14.23681,4.99318 21.90413,8.41967 0.49679,0.22201 2.22374,0.94457 3.83766,1.60569 5.19402,2.12766 14.55682,7.00789 18.51163,9.64893 2.11525,1.41258 5.57327,3.53258 7.68449,4.71109 5.88353,3.2843 13.48917,7.98874 16.3544,10.11595 1.41896,1.05347 3.63479,2.53736 4.92406,3.29755 6.57526,3.8769 16.69785,12.40049 21.707,18.27805 5.00057,5.86753 5.7089,6.89203 6.76214,9.78065 1.08703,2.98126 1.37321,3.20928 4.95181,3.94529 1.5271,0.31408 3.8632,1.34044 5.87121,2.5795 1.83421,1.13182 4.55434,2.52833 6.04473,3.10336 5.45959,2.10645 11.26113,4.76145 12.16727,5.56819 0.51152,0.45541 1.69652,1.28663 2.63333,1.84715 4.26455,2.55162 5.80561,7.70798 2.30365,7.70798 -0.59191,0 -3.9712,-1.51348 -7.50952,-3.3633 -9.6947,-5.06833 -21.446,-10.18564 -23.39015,-10.18564 -1.05641,0 -1.15441,0.61856 -0.8826,5.57081 l 0.22581,4.11427 4.04688,2.70038 c 2.22579,1.48521 5.80071,4.43773 7.94428,6.56116 3.44518,3.4128 4.01364,4.21083 4.8992,6.87784 0.69984,2.10767 0.91065,3.50302 0.69937,4.62923 -0.27487,1.46517 -0.43957,1.61214 -1.80649,1.61214 -1.29711,0 -1.78037,-0.35732 -3.51222,-2.59688 -4.16097,-5.3808 -12.91411,-12.78366 -14.40136,-12.17975 -0.31869,0.12941 -1.59527,2.23688 -2.83682,4.68326 -1.6559,3.26282 -2.97961,5.15576 -4.96795,7.10431 -3.42925,3.36064 -8.13261,6.86055 -12.19483,9.07452 -1.73878,0.94767 -4.27921,2.33258 -5.64539,3.07759 -1.36619,0.745 -2.68721,1.49776 -2.93561,1.6728 -0.6289,0.44316 -7.16513,3.10813 -10.16171,4.14316 -9.00532,3.11048 -26.6945,2.80848 -38.8403,-0.66309 -4.7529,-1.35849 -9.71904,-2.64178 -11.13333,-2.87692 -1.34746,-0.22403 -1.53386,-0.0672 -3.50015,2.94496 -1.14228,1.74988 -2.07689,3.30321 -2.07689,3.45184 0,0.14864 -0.98626,1.73452 -2.19169,3.52418 -1.20543,1.78967 -2.54352,3.93735 -2.97354,4.77268 -0.43001,0.8353 -2.56058,3.47734 -4.73459,5.87121 l -3.95273,4.35246 0.21133,4.00692 c 0.2724,5.16455 -0.36667,7.89863 -2.82971,12.10626 -3.07105,5.24624 -5.84558,7.99961 -10.24773,10.16947 -2.07155,1.0211 -4.5794,2.07837 -5.57299,2.34953 -2.74404,0.74889 -9.79912,0.64172 -10.86574,-0.16503 -1.69791,-1.28421 -3.06444,-0.83611 -6.34216,2.07976 -5.77632,5.13866 -12.33131,9.60431 -21.40659,14.5835 l -3.38723,1.85842 0,2.02276 c 0,1.11251 0.35568,3.08474 0.7904,4.38268 0.43473,1.29799 0.99338,3.79109 1.24147,5.5403 0.24807,1.74917 0.65005,4.04057 0.89327,5.09196 0.24322,1.05145 0.56719,6.58606 0.71993,12.29919 0.25487,9.53363 0.19822,10.75877 -0.68924,14.90384 -0.53182,2.48397 -1.55913,7.9713 -2.28292,12.19405 -0.72378,4.22276 -1.8444,9.30361 -2.49025,11.29079 -0.64585,1.98718 -1.59713,4.93407 -2.11395,6.54865 -1.75497,5.48268 -5.59336,13.30742 -8.86184,18.06526 -5.82632,8.48124 -14.59813,19.93456 -17.46618,22.80554 -0.99359,0.99463 -2.15211,2.30608 -2.57449,2.91433 -0.42238,0.60831 -2.14987,2.54698 -3.83887,4.30821 -1.68899,1.76122 -3.98545,4.43592 -5.10324,5.94369 -1.11779,1.50782 -4.07558,5.46294 -6.57286,8.78911 -5.64547,7.51935 -7.33709,10.19495 -8.14682,12.88545 -0.90767,3.01595 -0.79554,7.21879 0.2543,9.5316 1.32731,2.92408 5.97257,8.69661 12.63118,15.69645 2.12659,2.23557 4.43465,4.87762 5.129,5.87121 0.69435,0.99359 2.17449,3.08274 3.28919,4.64254 2.48373,3.47549 6.08657,10.59889 7.35994,14.55179 0.97217,3.0179 2.3176,10.40063 3.40687,18.69434 0.71815,5.46804 0.36863,10.05932 -1.31017,17.21037 -0.58314,2.48397 -1.28763,5.77532 -1.56553,7.31417 -0.93908,5.20008 -5.21958,13.914 -8.97546,18.27152 -0.93097,1.08012 -2.05073,2.53022 -2.48837,3.22243 -1.04449,1.65212 -5.60901,4.99012 -9.52134,6.96299 -4.89171,2.46667 -21.27284,7.41669 -25.10413,7.58591 -1.11779,0.0494 -5.58894,0.52421 -9.9359,1.0552 -8.59625,1.05008 -8.7918,1.06702 -9.07312,0.7857 z m 12.46036,-9.54026 c 12.05501,-2.16643 22.37302,-4.93105 26.77483,-7.17399 6.86443,-3.49779 12.78525,-9.71852 16.79386,-17.64452 1.87874,-3.71476 2.57049,-5.79881 3.89758,-11.74242 2.33667,-10.46516 2.44234,-14.24405 0.68458,-24.48077 -2.46999,-14.38455 -4.18465,-17.89576 -13.89393,-28.45134 -8.28708,-9.00937 -12.05154,-14.06186 -15.21026,-20.41446 -2.30909,-4.6439 -2.33603,-4.74647 -2.31343,-8.80682 0.0309,-5.5547 1.20731,-10.51642 3.14062,-13.24639 0.83844,-1.18395 1.93679,-2.86393 2.44078,-3.73332 0.50399,-0.86939 1.58317,-2.43768 2.39817,-3.48506 0.815,-1.04743 3.23995,-4.19756 5.38877,-7.00029 2.14882,-2.80278 6.72159,-8.10186 10.1617,-11.77575 8.05371,-8.60096 13.76381,-15.58901 22.15945,-27.1188 5.56673,-7.64485 10.16734,-19.45136 12.34776,-31.68795 0.75245,-4.22276 1.64528,-8.79553 1.98407,-10.16171 0.99873,-4.02738 1.27761,-7.46958 1.22579,-15.12966 -0.0533,-7.88105 -0.19791,-9.62151 -1.44455,-17.38781 -1.07025,-6.66739 -1.58516,-8.12936 -2.86319,-8.12936 -0.88086,0 -5.44362,2.2068 -18.12193,8.76485 -2.23558,1.15636 -5.58894,2.58162 -7.45192,3.1672 -5.43305,1.70776 -11.69009,4.23604 -15.5265,6.2738 -4.12405,2.1905 -7.95784,6.05367 -8.80123,8.86864 -0.68964,2.30179 -2.42199,4.34375 -4.64913,5.47992 -1.53939,0.78534 -1.9223,0.82463 -2.9917,0.30679 -1.56932,-0.75992 -1.53352,-2.04788 0.19009,-6.83748 1.07377,-2.98379 1.63401,-3.8586 3.47092,-5.41957 1.20477,-1.02381 3.54486,-3.09025 5.20021,-4.5921 1.65536,-1.50186 4.534,-3.56821 6.39698,-4.59183 3.35241,-1.84207 14.51231,-6.43399 18.55293,-7.63388 1.15103,-0.34184 5.72929,-2.47941 10.17391,-4.75013 4.44462,-2.27075 9.4744,-4.70767 11.1773,-5.41533 3.88633,-1.61508 19.56335,-10.96511 24.41866,-14.56371 3.12539,-2.31647 13.56313,-11.10417 23.06788,-19.42124 1.49039,-1.30413 4.43728,-3.67023 6.54866,-5.25794 2.11138,-1.58775 7.21262,-6.20659 11.33609,-10.26414 6.58846,-6.4831 7.95706,-8.09297 11.29079,-13.2812 2.08646,-3.24713 4.47032,-6.81888 5.29747,-7.93722 1.02299,-1.38313 1.42549,-2.34581 1.25868,-3.01043 -0.39514,-1.57438 -3.17019,-4.50899 -8.70549,-9.20605 -12.86886,-10.92006 -19.21374,-15.02309 -36.10057,-23.34511 -10.86325,-5.35353 -15.46086,-6.77196 -20.93434,-6.45857 -5.30381,0.30368 -7.94741,1.49537 -10.91419,4.91998 -1.82826,2.11038 -2.56788,2.65177 -3.62271,2.65177 -1.34063,0 -1.6002,0.29833 -4.00383,4.60182 -1.82384,3.26541 -9.19899,12.35873 -13.17605,16.24566 -4.94583,4.83373 -10.41816,8.3089 -16.85838,10.70581 -3.6939,1.3748 -17.80101,5.35027 -23.48484,6.61818 -1.73878,0.38787 -5.49861,1.48939 -8.35518,2.44782 -6.46106,2.16779 -10.6068,3.05441 -16.80457,3.59386 -7.18123,0.62506 -11.02998,0.38505 -13.45474,-0.83904 -3.8505,-1.94385 -5.22445,-3.93713 -4.73022,-6.86245 0.23795,-1.40841 0.69742,-2.08062 2.13289,-3.12047 1.00628,-0.72894 2.00175,-1.32535 2.21216,-1.32535 0.21041,0 1.14528,0.68199 2.07749,1.51553 0.9322,0.83354 2.203,1.78315 2.824,2.11024 1.60351,0.8446 9.63201,1.10492 14.06882,0.45618 4.21235,-0.61593 12.83356,-2.76569 15.41235,-3.84317 0.93044,-0.38876 3.74948,-1.20511 6.26453,-1.8141 2.51505,-0.60898 4.67377,-1.2082 4.79716,-1.33159 0.12339,-0.12339 -0.60132,-1.8062 -1.61046,-3.73958 l -1.83482,-3.51522 -6.37576,-0.0761 c -3.50666,-0.0418 -7.00632,-0.29586 -7.77702,-0.56453 -2.14374,-0.74731 -2.62712,-0.60684 -3.15864,0.9179 -0.47358,1.3585 -0.56453,1.39924 -2.67131,1.19681 -3.25714,-0.31297 -3.56492,-0.74636 -3.57183,-5.02956 l -0.006,-3.67066 -3.73909,-4.12582 c -2.12032,-2.33962 -4.38427,-5.39691 -5.22933,-7.06182 l -1.49024,-2.93599 0.95366,-3.47612 c 1.57261,-5.7322 6.45193,-13.75863 9.58134,-15.76119 0.7779,-0.49779 2.51443,-0.93951 4.23716,-1.07779 l 2.91905,-0.23431 0.69155,1.75523 c 0.38034,0.96538 0.90633,2.13485 1.16885,2.59884 0.59075,1.04406 0.26181,1.33763 -2.30663,2.05855 -1.44837,0.40653 -2.65832,1.23198 -4.21086,2.8727 -2.68773,2.84037 -3.60971,4.56375 -3.35823,6.2772 0.13706,0.93387 -0.0379,1.44311 -0.59879,1.74332 -0.43582,0.23324 -1.02796,1.13782 -1.31586,2.01017 -0.45581,1.38109 -0.40083,1.78449 0.42532,3.12124 0.98595,1.5953 4.26515,4.78387 4.91985,4.78387 0.20633,0 1.43177,-1.62227 2.72322,-3.60505 1.29145,-1.98278 2.76483,-3.82808 3.27418,-4.10068 1.27634,-0.68307 2.41365,0.41569 3.35081,3.23722 0.84378,2.54036 1.53435,3.16368 2.21434,1.99869 0.26377,-0.4519 0.91762,-1.34936 1.453,-1.99438 0.95518,-1.15075 0.99088,-1.15695 1.90392,-0.33065 0.51178,0.46315 1.0932,1.66481 1.29206,2.67036 0.19885,1.00556 0.60603,1.90977 0.90483,2.00937 0.2988,0.0996 1.21005,-0.7662 2.02501,-1.92401 1.37345,-1.95123 1.59444,-2.08689 3.02348,-1.85591 0.84795,0.13706 1.76251,0.47002 2.03234,0.73992 0.28446,0.28452 0.46952,2.09424 0.44041,4.30689 -0.0276,2.0989 0.05,3.81617 0.1725,3.81617 0.1225,0 0.90979,-0.42463 1.74955,-0.94363 2.03648,-1.25861 2.545,-2.27951 1.93358,-3.88184 -0.26686,-0.69935 -0.76319,-2.33596 -1.10294,-3.6369 -0.57532,-2.20294 -0.54976,-2.51772 0.37223,-4.58437 1.87931,-4.21248 3.63384,-3.91923 5.16573,0.8634 0.49495,1.54529 1.04637,2.47327 1.46963,2.47327 0.3726,0 1.71716,-1.58633 2.98791,-3.52518 1.81633,-2.77125 2.36337,-4.0378 2.55785,-5.9221 0.2542,-2.46291 1.96106,-6.41 3.22582,-7.45967 0.92799,-0.77016 1.69916,-0.14715 2.616,2.11342 1.8772,4.62844 2.02942,6.02637 1.09448,10.0514 -0.56259,2.42201 -0.61906,2.4875 -2.26423,2.62564 -1.07767,0.0905 -1.7891,0.41683 -1.96915,0.90326 -0.37375,1.00977 -2.3177,4.05734 -3.60477,5.65129 -0.56697,0.70214 -1.03086,1.67623 -1.03086,2.16462 0,1.46458 3.49044,5.62789 6.23647,7.4387 1.41369,0.93223 3.12101,2.06655 3.79405,2.5207 0.67303,0.45415 1.5128,0.82573 1.86615,0.82573 1.29361,0 9.33013,-7.85298 11.78578,-11.5166 2.36749,-3.53212 2.42532,-3.69584 2.58183,-7.30853 0.18664,-4.30827 0.89815,-5.60401 4.03504,-7.34823 1.09578,-0.60929 2.334,-1.53812 2.75161,-2.06406 1.26071,-1.58779 6.85008,-3.86667 11.35123,-4.62808 5.03171,-0.85117 8.14559,-0.48866 16.56809,1.92883 9.21124,2.64388 28.97352,12.6956 40.00113,20.34583 8.6349,5.99032 22.15709,18.318 22.99753,20.96597 0.22805,0.71854 0.63512,0.91996 1.73174,0.85687 1.69199,-0.0973 7.28695,1.08136 12.04695,2.53794 4.37843,1.33982 11.01277,2.03802 19.32496,2.03375 10.15613,-0.005 15.0814,-1.06225 21.44604,-4.60262 1.79469,-0.99831 4.48949,-2.49889 5.98845,-3.33462 3.22576,-1.79851 9.41643,-6.84453 11.75751,-9.58358 1.49882,-1.7536 5.89847,-10.03694 6.72138,-12.65454 0.43524,-1.38444 -0.56507,-2.46077 -3.23435,-3.48018 -1.97591,-0.75461 -2.25213,-0.75591 -5.35134,-0.0252 -3.30148,0.77832 -8.49614,0.63607 -9.04229,-0.24763 -0.48414,-0.78334 -2.0049,-0.32839 -10.79654,3.22986 -10.18869,4.12368 -13.02107,5.55086 -14.00921,7.05895 -0.58671,0.89544 -1.07373,1.06146 -3.11375,1.06146 -3.37166,0 -3.72529,-0.57962 -2.30836,-3.78355 1.64531,-3.72033 3.36646,-4.82938 14.45752,-9.3159 6.36031,-2.57285 12.1336,-5.23666 12.26766,-5.66032 0.0756,-0.23901 -0.0468,-0.72616 -0.27209,-1.08256 -0.97595,-1.54391 -14.94716,2.06545 -20.17083,5.21098 -2.97716,1.79275 -3.01613,1.80221 -5.53784,1.34388 -1.95873,-0.35602 -1.9691,-0.36793 -1.70991,-1.96514 0.74113,-4.56704 9.56719,-8.73813 22.59946,-10.68023 3.48306,-0.51906 4.72624,-0.90239 5.6454,-1.74074 0.64829,-0.59131 2.2457,-1.83877 3.54979,-2.77215 1.30408,-0.93337 2.37106,-1.88296 2.37106,-2.1102 0,-0.22725 0.42003,-0.41317 0.9334,-0.41317 0.51337,0 1.60617,-0.51315 2.42844,-1.14033 l 1.49505,-1.14032 3.44276,1.857 c 3.06926,1.65554 3.44277,1.762 3.44277,0.9813 0,-1.04899 -0.98537,-2.4441 -5.27657,-7.47069 -4.65684,-5.45491 -12.80298,-12.42852 -19.03812,-16.29784 -6.5242,-4.04871 -8.1441,-5.10198 -9.76387,-6.34854 -0.9828,-0.75635 -2.94232,-1.98538 -4.35449,-2.73116 -2.94762,-1.55666 -8.13579,-4.56151 -14.63365,-8.47541 -5.53064,-3.33133 -6.25483,-3.70121 -13.32312,-6.80495 -14.11868,-6.1996 -28.05615,-11.58674 -34.02643,-13.15198 -3.43811,-0.90137 -8.94047,-2.64678 -12.22747,-3.87869 -3.28702,-1.23194 -6.13244,-2.23987 -6.32318,-2.23987 -0.19074,0 -1.59834,1.28617 -3.128,2.85816 -2.58888,2.66051 -4.85905,4.14224 -11.36221,7.41608 -7.16115,3.6051 -17.84627,4.55166 -28.66523,2.53937 -3.16796,-0.58922 -4.59761,-1.16802 -8.31747,-3.36733 -3.64839,-2.15705 -4.99829,-3.27222 -7.18808,-5.93813 -4.69759,-5.71899 -6.362,-10.85687 -5.3773,-16.59918 0.70599,-4.11706 1.68786,-6.91854 3.53261,-10.07928 0.84138,-1.44159 1.52978,-2.91212 1.52978,-3.26783 0,-1.42278 -8.34143,-4.73587 -14.72735,-5.84948 -6.02377,-1.05046 -18.64876,-0.72457 -25.01622,0.64575 -1.11779,0.24055 -3.65822,0.63382 -5.6454,0.87393 -14.8158,1.79019 -32.24874,6.00734 -42.22754,10.21515 -3.35336,1.41402 -6.40187,2.81654 -6.77447,3.1167 -1.2431,1.00142 -6.05695,3.78341 -10.84467,6.26728 -12.84885,6.66598 -17.60852,9.72686 -26.43903,17.00257 -7.88724,6.49851 -20.28877,20.18142 -24.83925,27.40575 -4.87346,7.7371 -13.59935,26.01183 -18.06543,37.83466 -4.29493,11.36976 -4.71842,12.41691 -6.34774,15.69595 -0.81781,1.64586 -1.99716,4.45285 -2.62077,6.23776 -0.62361,1.78491 -1.5355,4.0965 -2.02643,5.13689 -2.16604,4.59032 -6.36644,16.83669 -8.39408,24.47318 -2.07637,7.81999 -3.40736,19.01115 -3.81367,32.06583 -0.20101,6.45833 -0.30004,12.2505 -0.22007,12.8715 0.08,0.62099 0.36912,7.93742 0.64255,16.25873 0.3583,10.90383 0.74262,16.59434 1.37597,20.37359 0.48334,2.88417 0.8788,6.5669 0.8788,8.18388 0,5.03325 1.33382,16.04195 2.92245,24.12042 2.54909,12.96263 8.83237,30.21956 13.85374,38.04909 2.85325,4.44893 9.50724,16.70043 11.42314,21.03266 1.89535,4.28571 5.04964,8.4297 12.42092,16.31817 7.97534,8.53493 10.86627,11.97568 10.88175,12.95139 0.0226,1.42724 0.79052,2.64778 3.39076,5.3895 5.70625,6.01681 8.70876,10.13266 11.84535,16.23764 3.73641,7.27248 4.33581,9.77592 4.35725,18.19858 0.0162,6.36805 -0.16355,8.20872 -1.47835,15.13733 -1.65012,8.69567 -3.19199,14.98685 -4.49968,18.35981 -0.47023,1.21286 -1.29844,4.13595 -1.84046,6.49573 -0.54203,2.35977 -1.27799,5.30942 -1.63548,6.55475 -0.93435,3.25496 -2.46136,12.3972 -2.884,17.2666 -0.47116,5.42833 0.40372,12.56384 1.89389,15.4466 2.66496,5.15538 5.51287,9.97361 7.48872,12.66967 1.75295,2.39193 2.39649,2.94667 3.47493,2.99531 4.22328,0.1905 12.92352,1.69077 15.09831,2.60356 1.36619,0.57339 3.60177,1.30151 4.96795,1.61797 1.36619,0.31651 3.50014,0.86357 4.74213,1.21575 1.24199,0.35218 5.91637,0.84021 10.38752,1.08455 4.47116,0.24433 10.56818,0.60342 13.54895,0.79799 6.43921,0.42028 8.10135,0.30692 15.8071,-1.07791 z m 7.31497,-381.7145 c -2.68113,-0.21028 -2.96937,-0.82091 -1.66216,-3.52124 1.2323,-2.5456 2.52848,-2.61952 3.69097,-0.2105 1.17428,2.43346 1.48603,4.08042 0.75398,3.98328 -0.33743,-0.0448 -1.58968,-0.15797 -2.78279,-0.25154 z m 17.52476,-1.50562 c -0.49679,-0.19586 -1.53889,-0.37039 -2.31577,-0.38785 -2.18026,-0.049 -2.59996,-0.90675 -1.59306,-3.25578 1.52463,-3.55679 3.34741,-4.06285 4.65466,-1.29228 0.52225,1.10687 0.65764,2.13698 0.45163,3.43637 -0.25812,1.62808 -0.40497,1.81198 -1.19746,1.49954 z m 28.52806,-3.43047 c -0.57612,-0.57611 -0.29524,-2.58724 0.62758,-4.49353 1.08257,-2.23629 6.21174,-7.22965 9.7536,-9.49536 3.18493,-2.03737 7.82872,-3.77528 10.08776,-3.77528 1.54607,0 3.33132,0.54614 5.87622,1.79764 0.3726,0.18323 0.67745,0.60996 0.67745,0.9483 0,0.43118 -1.15323,0.76798 -3.85612,1.12618 -2.12086,0.28107 -4.63802,0.88207 -5.5937,1.33557 -2.38637,1.1324 -6.79838,5.30785 -7.49792,7.09589 -1.64364,4.2012 -1.80748,4.4059 -3.54004,4.42279 -0.90319,0.009 -2.15025,0.30645 -2.77124,0.66144 -1.18872,0.67954 -3.2539,0.88605 -3.76359,0.37636 z m -20.83066,-6.17734 c -2.90391,-2.12339 3.56496,-13.02208 10.63021,-17.90967 1.61581,-1.11779 4.63523,-3.50524 6.70981,-5.30545 2.07458,-1.8002 4.91113,-3.80234 6.30345,-4.44919 1.39232,-0.64685 4.23088,-2.00141 6.30791,-3.01012 3.19501,-1.55166 4.40274,-1.88591 7.84445,-2.171 3.33253,-0.27605 4.37576,-0.20156 5.77022,0.41201 1.48768,0.65459 1.6535,0.87706 1.31566,1.76516 -0.33934,0.89201 -0.70564,1.01622 -2.99801,1.01653 -2.75043,3.7e-4 -7.37376,1.77222 -8.65084,3.31536 -0.34092,0.41193 -0.9239,0.74897 -1.29552,0.74897 -1.23505,0 -10.83289,6.80665 -15.22774,10.7993 -5.63032,5.11505 -5.84018,5.43131 -5.53917,8.34777 0.26213,2.5398 -0.20424,3.88613 -1.34615,3.88613 -0.39848,0 -1.99647,0.71132 -3.55108,1.58071 -2.99175,1.67308 -4.90947,1.97068 -6.2732,0.97349 z m 90.44041,95.85544 c 4.88807,-1.75784 5.88082,-2.50976 8.46444,-6.41113 1.34931,-2.0375 2.74652,-4.11103 3.10492,-4.60782 0.85803,-1.18937 1.29781,-3.89717 0.76447,-4.70699 -0.45374,-0.68901 -3.68762,1.66137 -11.47128,8.33729 -2.03836,1.74827 -4.25948,3.60231 -4.93582,4.12001 -3.39979,2.60257 -4.55318,3.85382 -3.91803,4.25049 0.89419,0.55848 5.16837,0.0334 7.9913,-0.98185 z m -90.03725,-55.47664 c 1.75463,-0.4814 4.05397,-1.09893 5.10966,-1.37231 1.05569,-0.27337 1.91943,-0.75961 1.91943,-1.08052 0,-0.32091 -0.92076,-1.24473 -2.04615,-2.05292 -1.12538,-0.80819 -2.82193,-2.51956 -3.7701,-3.80305 -2.78941,-3.77589 -2.64162,-3.74751 -6.07065,-1.16575 -1.65932,1.24932 -3.01693,2.35634 -3.01693,2.46003 0,0.2502 2.71818,7.08635 2.99713,7.53771 0.33564,0.54306 1.41205,0.4276 4.87761,-0.52319 z m -16.69268,-11.48063 c 0.76526,-0.55957 0.79214,-0.84724 0.30595,-3.27433 -0.63869,-3.18837 -1.71946,-4.21707 -4.44576,-4.23153 -1.04103,-0.006 -2.01839,-0.21328 -2.17191,-0.46167 -0.15352,-0.2484 -0.6682,-0.45163 -1.14373,-0.45163 -0.96034,0 -4.05003,4.20808 -4.05003,5.51604 0,2.41304 9.05206,4.6971 11.50548,2.90312 z m 82.43386,-94.73158 c 3.51263,-1.64042 7.36376,-4.18779 8.65996,-5.72824 0.60804,-0.72262 1.60115,-2.50733 2.20691,-3.96602 0.60575,-1.4587 2.28359,-4.99447 3.72854,-7.85725 2.44628,-4.84668 2.64525,-5.47726 2.88963,-9.15811 0.25382,-3.82303 0.21326,-4.04996 -1.23357,-6.90045 -1.52527,-3.005 -6.94264,-8.72608 -9.2647,-9.78409 -0.60401,-0.2752 -1.21913,-0.8814 -1.36694,-1.34712 -0.46486,-1.46464 -2.08103,-2.05679 -7.20054,-2.63823 -6.53513,-0.74221 -13.93369,-0.44573 -15.98253,0.64047 -2.19387,1.16308 -8.9828,6.99603 -11.16701,9.59453 -7.44832,8.86112 -9.19793,17.71586 -4.98407,25.22432 1.83127,3.26304 6.17709,8.25641 8.69493,9.99051 3.86321,2.6607 7.21027,3.35221 15.53513,3.20961 6.43347,-0.1102 7.20142,-0.21383 9.48426,-1.27993 z m -18.48043,-2.00071 c -5.6247,-1.28445 -7.97459,-3.42755 -10.78799,-9.83866 -1.42523,-3.24777 -1.64157,-4.23357 -1.80121,-8.20743 -0.22923,-5.70583 0.38315,-7.43941 4.85668,-13.7489 2.61285,-3.68519 3.8348,-4.9793 5.98579,-6.33934 1.4865,-0.9399 2.94265,-2.19025 3.23589,-2.77856 0.29323,-0.58832 1.11794,-1.35005 1.83267,-1.69275 1.15771,-0.5551 1.61126,-0.51303 4.15669,0.38558 2.36993,0.83666 3.10104,0.92366 4.28715,0.51018 2.50398,-0.87289 4.5666,-0.6026 6.96507,0.91271 5.83168,3.68436 7.00221,4.63474 8.44602,6.85747 0.83765,1.28957 2.18379,3.36084 2.99141,4.60283 1.32604,2.03921 1.45121,2.52089 1.29105,4.96794 -0.19035,2.90814 -1.82242,9.59476 -2.80436,11.4895 -0.59289,1.14405 -6.18788,6.84054 -8.3679,8.51972 -5.07987,3.9128 -13.92246,5.8131 -20.28696,4.35971 z m 199.36299,289.20738 c -0.11947,-0.32765 -0.40507,-5.67655 -0.63467,-11.88648 -0.34538,-9.34123 -0.5853,-11.87565 -1.38947,-14.67803 -2.92598,-10.19639 -3.54267,-13.41702 -2.89323,-15.10942 0.73031,-1.90317 5.69266,-2.78327 7.07579,-1.2549 0.39703,0.43867 0.92647,1.7106 1.17654,2.82649 0.25008,1.11589 0.76169,2.76367 1.13692,3.66169 2.08905,4.99979 2.54127,8.06442 3.04937,20.66472 l 0.49879,12.36928 -1.75394,1.49404 c -0.96466,0.82174 -2.36364,1.62181 -3.10883,1.77794 -0.7452,0.15613 -1.71156,0.38429 -2.14748,0.50709 -0.43592,0.1228 -0.89032,-0.0447 -1.00979,-0.37242 z m -70.61296,-14.32981 c -3.00928,-1.03925 -4.08061,-2.00895 -3.42226,-3.09765 0.26005,-0.43 2.31441,-2.00127 4.56525,-3.49165 2.69157,-1.78223 6.71163,-5.26061 11.74411,-10.16171 11.76365,-11.45654 18.5325,-16.96454 22.50903,-18.31619 2.56197,-0.87083 4.45319,-0.53789 4.9972,0.87974 0.34575,0.90105 -2.52865,4.57841 -5.86277,7.50056 -8.66632,7.59549 -12.1322,10.82538 -15.18227,14.14853 -4.21196,4.58911 -6.5676,6.72411 -10.6468,9.64955 -2.77639,1.99116 -5.72747,3.78314 -6.1537,3.73671 -0.0744,-0.008 -1.22094,-0.38967 -2.54779,-0.84789 z M 677.3154,647.14941 c -1.71173,-1.27712 -3.86727,-2.24429 -7.64639,-3.43077 -5.93109,-1.86217 -21.86059,-7.78252 -26.15465,-9.72065 -1.55466,-0.7017 -2.96745,-1.64339 -3.13943,-2.09268 -0.17203,-0.44928 -0.6812,-1.12171 -1.13152,-1.49431 -0.78516,-0.64963 -0.78606,-0.74108 -0.0221,-2.22605 0.43827,-0.85173 1.32261,-1.9337 1.96528,-2.40435 1.09543,-0.80227 1.3212,-0.81338 3.61305,-0.17807 1.34451,0.37273 3.96885,1.29211 5.83183,2.04309 6.17077,2.48745 16.86008,6.43227 22.21448,8.19815 8.89854,2.93474 9.97004,3.81926 10.03503,8.28368 0.033,2.25216 -0.14872,3.10569 -0.81822,3.84736 -1.21304,1.34383 -2.03054,1.2017 -4.74746,-0.8254 z M 578.14472,618.3967 c -5.0206,-1.42905 -11.29457,-2.42083 -18.10681,-2.86221 -3.95151,-0.25603 -8.40396,-0.69073 -9.89434,-0.96595 -6.15083,-1.1359 -5.81636,-0.99255 -6.70149,-2.8722 -0.55357,-1.1756 -0.73323,-2.22668 -0.53909,-3.15379 0.16016,-0.76483 0.30124,-1.84785 0.31352,-2.40674 0.0266,-1.20888 -0.0914,-1.19985 4.07484,-0.31258 1.81712,0.38696 7.26692,0.88507 12.11067,1.10682 9.95036,0.45556 12.42668,0.83692 16.40086,2.52588 1.53641,0.65297 3.96547,1.49761 5.3979,1.87703 2.09363,0.55456 2.65805,0.90349 2.87781,1.77911 0.43718,1.74185 -0.17914,4.36055 -1.22804,5.21779 -1.12966,0.92327 -1.66998,0.93095 -4.70583,0.0668 z m 58.32315,-21.55091 c -1.15225,-1.07303 -2.09503,-2.35421 -2.09503,-2.84699 0,-1.04566 1.55962,-2.58613 6.54865,-6.46836 1.98718,-1.54634 6.2551,-5.10695 9.48427,-7.91249 3.22916,-2.80553 7.32437,-6.19232 9.1005,-7.52617 1.77609,-1.33389 5.38666,-4.40675 8.02351,-6.82862 2.75382,-2.52936 5.18179,-4.40341 5.70492,-4.40341 1.47584,0 3.93199,1.20658 4.45841,2.19024 1.09616,2.04819 0.61684,2.8969 -4.14123,7.33241 -5.29845,4.93927 -23.26367,20.42237 -25.63009,22.08894 -0.86939,0.61227 -2.84577,2.28598 -4.39202,3.71936 -1.79104,1.66029 -3.20243,2.6061 -3.88905,2.6061 -0.64633,0 -1.9165,-0.78105 -3.17284,-1.95101 z m -36.88848,-4.66887 c -1.90773,-2.91379 -4.29162,-10.30601 -6.23978,-19.34893 -2.08994,-9.70105 -2.70275,-14.93184 -1.92056,-16.39337 0.66397,-1.24063 4.2431,-3.70423 5.38154,-3.70423 1.27851,0 1.73493,0.81375 2.05409,3.66237 0.15611,1.39328 0.57343,3.22636 0.92737,4.07344 0.35395,0.84713 1.06655,4.31313 1.58358,7.70226 1.15473,7.56943 1.86291,10.3836 4.13558,16.4341 0.97555,2.5972 1.77374,5.19209 1.77374,5.76643 0,1.64877 -1.91476,3.10781 -4.39071,3.34573 -2.09683,0.20148 -2.19648,0.15509 -3.30485,-1.5378 z M 447.79573,332.31161 c -7.37343,-1.10906 -11.61791,-2.65999 -15.66081,-5.72248 -4.72286,-3.57756 -6.41599,-6.92828 -6.41546,-12.69633 3.1e-4,-3.40328 0.17563,-4.28483 1.34287,-6.75215 2.21135,-4.67439 5.10271,-8.35642 7.65118,-9.74347 3.03547,-1.65211 6.80976,-2.91241 10.3978,-3.47201 1.74627,-0.27235 3.52007,-0.87324 4.31844,-1.46289 1.97399,-1.45794 5.36448,-1.22978 11.313,0.7613 6.96425,2.33106 10.17547,4.94211 13.2378,10.7637 1.9688,3.74275 2.17319,7.20055 0.74119,12.53985 -1.39677,5.208 -4.30019,11.47378 -5.65189,12.19719 -4.54544,2.43265 -16.05152,4.37283 -21.27412,3.58729 z m 8.77362,-9.94408 c 5.69079,-0.84531 10.14828,-2.22323 11.61043,-3.58908 1.15049,-1.07472 1.34757,-1.59132 1.34757,-3.5322 0,-3.02283 -0.40383,-3.8581 -3.48341,-7.20497 -2.47305,-2.6877 -2.86864,-2.9283 -7.35574,-4.47385 -4.21074,-1.45034 -5.27353,-1.63814 -9.48426,-1.67585 -8.49006,-0.076 -14.36422,2.41047 -16.7766,7.10148 -0.72826,1.41616 -0.80129,1.98125 -0.40853,3.16142 0.78271,2.35189 3.81251,5.45133 7.30587,7.47384 5.20612,3.01412 10.12921,3.79612 17.24467,2.73921 z m -15.16034,-35.84197 c -2.21798,-0.79146 -2.70707,-1.17237 -6.29531,-4.90294 -3.32657,-3.45852 -4.06932,-5.04188 -5.13008,-10.93609 -1.12514,-6.25191 -0.59601,-12.04386 1.7904,-19.5982 0.62306,-1.97234 1.35447,-5.78765 1.62535,-8.47848 1.04452,-10.37608 3.08123,-16.03063 10.62181,-29.48941 5.42871,-9.68942 7.45496,-12.83607 10.38055,-16.1204 2.64028,-2.96404 8.49816,-7.75606 11.30017,-9.24405 4.82391,-2.56173 11.44923,-9.07572 13.15592,-12.93486 1.36584,-3.08841 2.58773,-9.64103 2.19157,-11.75273 -0.57232,-3.05077 -7.71846,-8.39529 -13.08473,-9.78594 -1.48047,-0.38365 -4.49937,-0.69756 -6.70868,-0.69756 -3.76576,0 -4.38812,0.14537 -9.95391,2.32499 -10.08093,3.9478 -14.30956,6.97924 -22.10789,15.84883 -1.69047,1.92269 -3.92604,3.98946 -4.96795,4.59282 -2.83654,1.64263 -12.73239,4.33125 -15.94179,4.33125 -1.53651,0 -3.79857,-0.38813 -5.26419,-0.90326 -1.41347,-0.49679 -3.16787,-0.90326 -3.89868,-0.90326 -4.29407,0 -13.86199,-7.09283 -16.14463,-11.96824 -1.89094,-4.03877 -1.30877,-8.35473 2.0447,-15.15871 1.8904,-3.8355 2.46631,-4.56187 6.22935,-7.85688 14.27999,-12.5039 20.30143,-17.2351 30.4459,-23.92215 12.96088,-8.54358 19.30339,-11.87974 31.1201,-16.36919 6.02692,-2.28976 18.4538,-4.189957 27.48779,-4.203155 9.10718,-0.01331 15.41861,1.800595 20.21774,5.810565 0.77732,0.6495 2.91128,2.13661 4.74213,3.30469 4.93444,3.14816 8.33781,6.66188 14.84177,15.32299 3.73414,4.97262 5.11851,8.65394 6.16474,16.3933 1.2933,9.56703 0.72769,29.52058 -1.03787,36.61444 -0.79544,3.19601 -3.72969,9.55917 -6.45609,14.00057 -1.06737,1.73878 -2.97112,4.88891 -4.23056,7.00029 -3.36452,5.64044 -7.65042,9.63404 -17.15425,15.98435 -4.75291,3.17582 -8.65504,6.12921 -9.54739,7.22611 -3.88828,4.77954 -10.37671,17.17795 -12.88271,24.61688 -1.14074,3.38624 -2.53497,13.14411 -3.14881,22.03773 -0.56275,8.15346 -1.40794,10.89374 -4.26745,13.83596 -2.4397,2.51026 -7.57966,5.02699 -12.11312,5.93106 -4.26034,0.8496 -11.70697,0.87545 -14.0239,0.0487 z m 17.27638,-10.23522 c 2.58344,-0.55405 5.65254,-2.66646 6.84799,-4.71336 0.56397,-0.96564 0.92992,-3.16776 1.27481,-7.67111 0.58125,-7.5896 1.65937,-15.71061 2.57734,-19.41396 1.69589,-6.84168 5.2103,-14.91863 10.12569,-23.2712 6.15795,-10.46403 4.99859,-9.35163 20.08009,-19.26685 6.24895,-4.10833 9.773,-7.73422 12.86661,-13.23844 1.3263,-2.35977 2.9809,-5.08312 3.67691,-6.05188 0.696,-0.96876 1.26546,-1.98877 1.26546,-2.26671 0,-0.27793 0.64256,-2.02573 1.4279,-3.88401 1.34813,-3.1899 1.45345,-3.85827 1.88497,-11.96195 0.42841,-8.04534 0.38606,-9.13783 -0.67575,-17.43204 -1.3948,-10.89533 -2.12676,-12.68892 -8.26292,-20.24756 -4.99607,-6.15427 -6.05293,-7.2062 -9.82376,-9.77804 -8.84059,-6.02958 -11.25745,-6.98239 -19.9969,-7.88343 -9.62483,-0.99232 -22.77302,0.91932 -32.51059,4.72679 -9.53684,3.72897 -21.82887,10.70945 -32.07484,18.21488 -2.23804,1.63942 -5.17185,3.79103 -6.51959,4.78136 -1.34773,0.99032 -3.88816,3.1115 -5.64539,4.71371 -15.93869,14.53262 -15.442,14.02871 -16.04678,16.28011 -0.48617,1.80988 -0.44136,2.06419 0.60559,3.43681 1.67854,2.20068 5.44757,4.48654 6.83333,4.14431 0.61731,-0.15245 1.63557,-0.40346 2.26278,-0.55781 0.93893,-0.23105 1.5665,0.12236 3.55234,2.00048 1.68114,1.58995 2.94349,2.38101 4.16628,2.61079 2.14107,0.40236 6.46375,-0.30016 11.51637,-1.87162 3.75149,-1.16679 3.82482,-1.21864 7.84115,-5.54437 7.99555,-8.61151 9.27383,-9.72326 14.24328,-12.38772 4.27574,-2.29252 12.99467,-6.08702 16.4781,-7.17131 3.08951,-0.96167 7.19912,-1.18238 10.27157,-0.55163 9.74571,2.00072 17.37126,7.70894 19.13192,14.3215 0.83457,3.13443 0.78757,4.9646 -0.29565,11.51141 -1.64436,9.93828 -4.91577,16.37779 -11.73877,23.10685 -2.39315,2.36019 -5.14625,4.81157 -6.11799,5.44752 -0.97175,0.63595 -2.97608,1.95663 -4.45407,2.93484 -3.58197,2.37077 -9.13923,7.88012 -11.50658,11.40739 -1.05364,1.56988 -2.88402,4.72001 -4.0675,7.00029 -1.18349,2.28027 -3.07453,5.87345 -4.20232,7.98482 -1.1278,2.11138 -2.19321,4.65181 -2.3676,5.6454 -0.17438,0.99359 -0.79047,3.22916 -1.36909,4.96794 -0.57863,1.73878 -1.28352,5.19376 -1.56644,7.67774 -0.28293,2.48397 -1.09515,6.65027 -1.80494,9.25844 -2.18224,8.01875 -2.4599,10.02888 -1.87475,13.57212 0.98338,5.9546 2.23074,7.66375 6.77939,9.28921 2.05032,0.73268 13.98234,0.823 17.21235,0.13029 z"
           style="fill:#3a3a3a" />
      </g>
    </g>
  </g>
</svg>
