<?xml version="1.0" encoding="UTF-8" standalone="no"?>
<!-- Created with Inkscape (http://www.inkscape.org/) -->

<svg
   xmlns:dc="http://purl.org/dc/elements/1.1/"
   xmlns:cc="http://creativecommons.org/ns#"
   xmlns:rdf="http://www.w3.org/1999/02/22-rdf-syntax-ns#"
   xmlns:svg="http://www.w3.org/2000/svg"
   xmlns="http://www.w3.org/2000/svg"
   xmlns:sodipodi="http://sodipodi.sourceforge.net/DTD/sodipodi-0.dtd"
   xmlns:inkscape="http://www.inkscape.org/namespaces/inkscape"
   width="722.85614"
   height="617.89429"
   id="svg2"
   version="1.1"
   inkscape:version="0.48.3.1 r9886"
   sodipodi:docname="500.svg">
  <defs
     id="defs4" />
  <sodipodi:namedview
     id="base"
     pagecolor="#ffffff"
     bordercolor="#666666"
     borderopacity="1.0"
     inkscape:pageopacity="0.0"
     inkscape:pageshadow="2"
     inkscape:zoom="0.98994949"
     inkscape:cx="914.69296"
     inkscape:cy="303.69226"
     inkscape:document-units="px"
     inkscape:current-layer="layer1"
     showgrid="false"
     fit-margin-top="0"
     fit-margin-left="0"
     fit-margin-right="0"
     fit-margin-bottom="0"
     inkscape:window-width="2495"
     inkscape:window-height="1373"
     inkscape:window-x="65"
     inkscape:window-y="24"
     inkscape:window-maximized="1" />
  <metadata
     id="metadata7">
    <rdf:RDF>
      <cc:Work
         rdf:about="">
        <dc:format>image/svg+xml</dc:format>
        <dc:type
           rdf:resource="http://purl.org/dc/dcmitype/StillImage" />
        <dc:title />
      </cc:Work>
    </rdf:RDF>
  </metadata>
  <g
     inkscape:label="Layer 1"
     inkscape:groupmode="layer"
     id="layer1"
     transform="translate(-11.951059,-121.22715)">
    <g
       id="g3765">
      <path
         transform="translate(11.951059,121.22715)"
         inkscape:connector-curvature="0"
         id="path2987"
         d="m 447.11877,63.446806 59.72527,-33.082496 29.04189,-4.419417 55.05331,16.28871 23.35978,39.774756 -24.11739,63.513341 -72.73099,19.31917 -8.08122,10.98541 -17.67767,-21.33948 -37.1231,-4.41941 -21.59201,-41.41626 z"
         style="fill:#ffffff;stroke:none;stroke-width:1px;stroke-linecap:butt;stroke-linejoin:miter;stroke-opacity:1;fill-opacity:1" />
      <path
         inkscape:connector-curvature="0"
         id="path3147"
         d="m 496.86878,330.60819 -23.61231,6.06091 -22.09709,34.09265 8.20749,27.02158 33.71384,16.79379 26.39024,-7.57615 17.42513,-36.11295 -9.59645,-28.03173 -16.03617,-13.25825 z"
         style="fill:#ffffff;stroke:#000000;stroke-width:1px;stroke-linecap:butt;stroke-linejoin:miter;stroke-opacity:1" />
      <path
         transform="translate(11.951059,121.22715)"
         inkscape:connector-curvature="0"
         id="path3761"
         d="M 501.03566,50.188554 548.2603,48.673325 518.58707,105.87321 z"
         style="fill:#e52330;stroke:none;stroke-width:1px;stroke-linecap:butt;stroke-linejoin:miter;stroke-opacity:1;fill-opacity:1" />
      <path
         transform="translate(11.951059,121.22715)"
         inkscape:connector-curvature="0"
         id="path3763"
         d="m 512.52615,126.83388 16.28871,2.52538 -9.21764,9.09137 z"
         style="fill:#e52330;stroke:none;stroke-width:1px;stroke-linecap:butt;stroke-linejoin:miter;stroke-opacity:1;fill-opacity:1" />
      <g
         transform="translate(1.0101405,82.832509)"
         id="g3139">
        <path
           inkscape:connector-curvature="0"
           id="path3143"
           d="m 643.51196,655.61744 c -0.23522,-0.38056 -0.35912,-4.10963 -0.27531,-8.28681 0.0838,-4.17719 0.12045,-8.15776 0.0814,-8.84572 -0.0388,-0.68796 -0.0575,-7.89652 -0.0407,-16.01902 0.0294,-14.20915 0.32027,-18.7607 1.89508,-29.63663 0.69078,-4.77094 0.92143,-36.56193 0.34254,-47.21919 -0.14015,-2.57986 0.28932,-9.75655 0.95439,-15.94821 0.66501,-6.19165 1.46836,-19.56 1.7852,-29.70744 0.56757,-18.17867 0.82061,-50.03358 0.39746,-50.03358 -0.11933,0 -2.48029,1.51489 -5.24646,3.36643 -6.47591,4.33458 -10.36527,5.6456 -15.5208,5.23176 -2.83868,-0.22786 -4.86264,-0.85085 -7.30609,-2.24885 -3.23815,-1.85267 -9.50748,-7.8085 -10.94439,-10.3971 -0.64764,-1.16672 -0.8819,-1.07279 -4.33457,1.73786 -2.00746,1.63418 -5.58481,4.29429 -7.94965,5.91138 -7.08883,4.84735 -10.36169,3.87444 -18.1958,-5.40898 -2.3541,-2.78966 -4.50527,-5.07212 -4.78033,-5.07212 -0.27505,0 -1.68303,2.04043 -3.12883,4.53429 -4.12082,7.10799 -6.80051,10.58038 -11.1803,14.48762 -8.16842,7.28711 -12.08471,7.739 -22.95592,2.64882 -6.87676,-3.21987 -17.28923,-6.87596 -17.54831,-6.16167 -0.0876,0.24153 -1.26623,3.6328 -2.61917,7.53617 l -2.45988,7.09702 3.68081,5.41137 c 2.02444,2.97626 5.6622,8.08505 8.0839,11.35287 2.4217,3.26781 5.35518,7.34868 6.51884,9.06858 1.16365,1.71991 3.02057,3.97142 4.12647,5.00336 3.01297,2.81145 5.45297,8.31221 3.77987,8.52135 -1.18944,0.14868 -1.56907,0.28193 -2.87448,1.00895 -1.08816,0.60603 -1.94104,0.4321 -5.01899,-1.02354 -3.88164,-1.83572 -9.13261,-6.95352 -14.18254,-13.82283 -1.3908,-1.89189 -4.34247,-5.9024 -6.55923,-8.91223 -3.74057,-5.07879 -5.13743,-6.39719 -5.13743,-4.84888 0,0.34294 -1.97119,2.69868 -4.38043,5.23498 l -4.38043,4.61146 1.57558,4.18591 c 3.23734,8.60084 9.31355,18.52471 14.39706,23.5138 1.53722,1.50867 2.79494,3.07213 2.79494,3.47436 0,0.40223 0.39099,1.05583 0.86887,1.45243 0.97467,0.80891 1.64303,3.45829 1.06929,4.23863 -0.20604,0.28023 -1.2631,1.00246 -2.34903,1.60496 -1.90412,1.05647 -2.09701,1.04854 -5.41896,-0.2227 -1.89451,-0.72498 -4.13335,-2.06226 -4.9752,-2.97172 -4.27482,-4.61815 -9.05269,-11.87729 -12.71727,-19.32167 -2.2436,-4.55774 -4.16128,-8.28681 -4.26153,-8.28681 -0.10024,0 -2.07206,0.98504 -4.38183,2.18897 -2.30977,1.20393 -4.60129,2.18897 -5.09226,2.18897 -1.02799,0 -1.07846,1.06328 -0.23755,5.00336 0.33037,1.54791 0.88269,4.50302 1.22737,6.56691 1.17041,7.00798 3.88882,15.92858 5.66843,18.60125 0.97526,1.46466 2.94552,4.26855 4.37837,6.23085 3.11854,4.27092 3.03476,6.19729 -0.33952,7.80637 -1.98636,0.94723 -2.33587,0.94278 -4.97033,-0.0633 -4.96725,-1.89701 -8.46201,-7.68609 -11.94498,-19.7869 -1.18772,-4.12644 -2.73712,-10.52124 -3.44312,-14.21066 -0.70599,-3.68942 -1.41278,-7.31469 -1.57064,-8.05615 -0.23358,-1.09708 -0.89896,-1.43026 -3.5734,-1.78929 -6.04796,-0.81193 -9.65682,-3.06468 -12.50737,-7.80745 -0.7236,-1.20393 -1.40045,-2.2992 -1.5041,-2.43392 -0.10366,-0.13473 -0.68802,0.36251 -1.29859,1.10496 -0.61057,0.74245 -3.66286,3.10419 -6.78287,5.24831 -4.95457,3.40486 -11.14417,8.05996 -17.46778,13.13723 -6.1451,4.93394 -22.68133,14.28436 -38.77603,21.92593 -14.34222,6.80951 -19.13959,8.12901 -29.70744,8.17093 -5.72961,0.0227 -8.08203,-0.34234 -18.44989,-2.86325 -6.53563,-1.58911 -16.80815,-3.64731 -22.82782,-4.57377 -21.35133,-3.2861 -31.65117,-5.69509 -46.56173,-10.89016 -24.43746,-8.51439 -62.50061,-31.23589 -84.58901,-50.49475 -6.52956,-5.69312 -13.17654,-10.66475 -20.02047,-14.97442 -6.15482,-3.8757 -12.94959,-5.91877 -21.13194,-6.35401 l -5.62878,-0.2994 -3.52384,2.4165 c -4.0046,2.7462 -7.60855,6.92335 -15.21819,17.63862 -6.81368,9.59445 -16.51167,20.07348 -22.010283,23.7829 -17.842802,12.03693 -20.783738,13.3598 -32.277422,14.51882 -8.472422,0.85435 -13.357733,0.43433 -17.614316,-1.51439 -4.128499,-1.8901 -10.054278,-7.40667 -14.815541,-13.79247 -9.855244,-13.21784 -12.1429,-21.58254 -9.550474,-34.92082 2.195506,-11.29609 9.035959,-21.221 27.100047,-39.3199 12.705046,-12.72952 15.147415,-14.67018 26.618876,-21.15091 8.064119,-4.55576 9.148816,-5.48009 11.802935,-10.05797 3.099137,-5.34547 5.16685,-10.83715 7.538717,-20.02229 3.743456,-14.49665 9.549281,-29.28988 17.636411,-44.93749 5.17405,-10.01116 6.62547,-12.35528 17.40944,-28.11714 7.38982,-10.80095 18.66391,-24.68883 32.2103,-39.67794 3.96834,-4.39098 9.88884,-11.03391 13.15666,-14.76207 9.25895,-10.56326 34.12935,-32.58683 43.52797,-38.54546 1.62769,-1.03195 4.27159,-2.72058 5.87532,-3.75252 9.03923,-5.81643 14.95594,-9.12191 21.27386,-11.88504 12.28416,-5.37246 21.45629,-7.51533 37.57311,-8.77813 6.67867,-0.5233 17.20895,-1.53984 23.4006,-2.25899 31.99165,-3.71577 64.35491,0.55863 95.37652,12.59695 4.64375,1.80207 13.77343,5.23285 20.28818,7.62398 13.5265,4.96465 12.70014,4.58071 19.73869,9.17068 9.24367,6.02794 15.88883,13.12548 24.39189,26.05238 2.4889,3.78379 5.20606,7.60952 6.03812,8.50163 l 1.51285,1.62201 4.8694,-1.72313 c 2.67817,-0.94773 7.92017,-2.34796 11.64889,-3.11161 15.72582,-3.22068 25.11949,0.47415 36.91799,14.52103 5.53873,6.59422 8.09598,10.97427 10.3429,17.71526 0.8026,2.40786 1.64238,4.60125 1.86618,4.87419 0.2238,0.27295 1.7878,-0.71866 3.47554,-2.20356 6.31226,-5.55361 10.7336,-8.05371 15.73792,-8.89918 6.89331,-1.16462 11.2926,4.76192 12.73468,17.15561 0.34134,2.93361 0.69231,5.59595 0.77994,5.91629 0.0876,0.32035 1.81459,-1.46626 3.83771,-3.97023 4.88415,-6.04502 14.07414,-14.02915 18.8937,-16.41457 5.52542,-2.73479 8.50417,-2.93685 12.86716,-0.87283 3.86078,1.82644 5.94443,4.12573 9.24594,10.20279 1.16899,2.15173 2.31638,3.84037 2.54976,3.75251 0.23339,-0.0879 2.69459,-3.03655 5.46934,-6.55266 2.77475,-3.51611 6.10635,-7.0935 7.40355,-7.94976 2.86301,-1.88982 10.26311,-3.70537 13.4126,-3.29065 2.54758,0.33547 3.08738,-0.0895 6.74928,-5.31384 2.27934,-3.25193 2.55427,-4.84211 3.76402,-21.77033 0.35649,-4.98773 1.115,-14.97881 1.68563,-22.20241 0.63543,-8.04417 1.07766,-21.253 1.14121,-34.08537 0.0569,-11.52336 0.29126,-21.52649 0.52053,-22.22916 0.33798,-1.03599 0.74632,-15.30703 1.22514,-42.8145 0.0269,-1.54792 0.035,-8.02101 0.0181,-14.38466 -0.0169,-6.363646 -0.0288,-13.821777 -0.0257,-16.573624 0,-2.751847 -0.20601,-13.49619 -0.46418,-23.876317 -0.43317,-17.412432 -0.38251,-19.070117 0.65456,-21.420628 1.08398,-2.457482 1.22745,-2.547669 4.05391,-2.547669 1.61158,0 3.21922,0.351798 3.57252,0.781774 0.3533,0.429976 0.78616,3.596164 0.96196,7.035973 1.24953,24.451782 1.66812,31.311797 2.21342,36.274348 1.09318,9.949124 0.86183,74.230393 -0.27387,76.067913 -0.19213,0.31087 -0.32765,9.33993 -0.30114,20.06458 0.0263,10.72465 -0.22096,22.4704 -0.54987,26.10167 -0.74412,8.21587 -1.81728,23.05922 -2.16276,29.91443 l -0.26074,5.17494 6.03974,-5.53535 c 15.62287,-14.31812 25.95943,-19.34976 30.47477,-14.83445 2.34326,2.34324 1.32264,5.67975 -2.31236,7.55948 -0.95395,0.49329 -2.63802,0.89689 -3.74239,0.89689 -2.26502,0 -7.16437,3.44837 -16.35179,11.50901 -4.88434,4.28531 -12.31433,12.28966 -14.57047,15.69675 -0.79184,1.19579 -2.07339,15.32279 -1.38999,15.32279 0.17487,0 2.95899,-1.24921 6.18684,-2.77602 3.22785,-1.52681 8.9647,-3.93583 12.74849,-5.35336 8.55725,-3.20586 29.69168,-8.65201 35.25048,-9.08373 5.18079,-0.40237 9.71377,1.05199 11.23129,3.60348 1.62771,2.73663 0.23065,3.5705 -7.14461,4.26445 -8.8218,0.83007 -29.38779,6.13831 -37.4609,9.66895 -13.02855,5.69782 -20.1372,9.73003 -20.95756,11.88764 -0.30046,0.79037 -0.69485,12.36773 -0.8764,25.72745 -0.29777,21.91233 -0.46744,24.96393 -1.73329,31.17002 -1.35804,6.6584 -1.4087,8.20689 -1.57537,48.15553 -0.12052,28.87337 -0.38551,41.84023 -0.88191,43.15396 -0.48113,1.27318 -0.77708,11.39604 -0.91893,31.42958 -0.2359,33.32247 -1.05408,54.12504 -2.55646,64.99739 -0.78928,5.71234 -1.05121,13.37016 -1.15121,33.66215 -0.0719,14.58678 -0.4423,28.90973 -0.83294,32.20912 -0.38682,3.26782 -0.72561,13.9625 -0.75275,23.76596 -0.0269,9.80345 -0.39439,22.09324 -0.81611,27.31065 -0.71561,8.85324 -0.86952,9.57169 -2.3068,10.76768 -1.17885,0.98095 -2.44814,1.28638 -5.41201,1.3023 -2.17727,0.0117 -4.0591,-0.28203 -4.29957,-0.67112 z M 503.44951,324.76005 c 7.37317,-1.30977 8.3352,-1.63616 10.44761,-3.5446 1.27966,-1.1561 3.48458,-4.39141 4.89981,-7.18959 1.41525,-2.79818 3.50404,-6.36523 4.64176,-7.92678 4.74127,-6.50747 7.81239,-16.00957 6.96137,-21.53864 -0.9217,-5.98827 -4.82049,-15.99609 -7.76518,-19.93246 -4.26568,-5.70225 -11.45362,-12.80762 -14.0567,-13.89527 -3.50032,-1.46252 -10.72175,-1.19738 -18.16141,0.66682 -8.08298,2.0254 -10.97306,3.60565 -11.90222,6.50794 -0.60393,1.88642 -1.03234,2.23372 -3.18608,2.58282 -2.72349,0.44148 -3.93858,1.62105 -11.38136,11.04872 -5.0211,6.36015 -8.66676,13.25671 -9.25018,17.49874 -0.51442,3.74026 0.49321,9.34758 2.33093,12.97131 2.02937,4.00162 4.14583,6.44748 10.39668,12.01481 5.15499,4.59128 5.99161,5.12276 6.87962,4.37045 0.55603,-0.47106 1.86734,-1.19426 2.91403,-1.60711 2.69289,-1.06218 6.15682,0.42161 7.06479,3.02622 0.4053,1.16263 1.09714,1.8977 1.7881,1.89984 0.61986,0.002 2.18241,0.29659 3.47234,0.65481 1.83637,0.50999 2.34533,0.96164 2.34533,2.08125 0,1.84273 0.59262,2.40033 2.17013,2.04186 0.69832,-0.15869 4.9241,-0.9377 9.39063,-1.73114 z m -12.66095,-25.29473 c -1.77212,-0.88309 -4.10999,-2.61693 -5.19526,-3.853 -1.80832,-2.05956 -1.94432,-2.51341 -1.62728,-5.43036 0.47867,-4.40395 2.0702,-9.75854 3.4556,-11.62615 2.94041,-3.96384 11.00238,-6.1838 14.98249,-4.12561 2.69687,1.39461 7.98534,7.37853 8.85808,10.02295 0.95696,2.89963 0.15024,7.37626 -2.03668,11.30171 -2.95146,5.29781 -11.71308,7.0611 -18.43695,3.71046 z M 80.987936,331.09108 c -1.706302,-1.7063 -1.574845,-2.79944 0.61181,-5.08757 2.218958,-2.32193 2.853384,-5.09087 2.093136,-9.13548 -0.548261,-2.91683 -0.602466,-2.97278 -2.726648,-2.81401 -1.192001,0.0891 -4.700218,1.42214 -7.796046,2.96231 -6.427549,3.19772 -8.979765,3.86887 -10.86844,2.85808 -1.739684,-0.93105 -1.687516,-2.46921 0.323919,-9.55062 3.393348,-11.94654 7.380827,-17.10917 11.25436,-14.57113 1.939602,1.27088 1.851906,2.54558 -0.40419,5.87502 -1.871462,2.76181 -4.253114,9.15078 -3.639808,9.76409 0.181113,0.18111 1.849706,-0.35374 3.707985,-1.18856 1.858285,-0.83481 4.973595,-1.86345 6.922922,-2.28587 3.19557,-0.69246 3.749298,-0.64999 5.628778,0.43178 3.141033,1.80787 4.445653,5.04594 4.468787,11.09152 0.02364,6.18319 -1.573381,10.41187 -4.504749,11.92775 -2.488639,1.28692 -3.566512,1.22799 -5.071816,-0.27731 z m 16.908899,-16.95532 c -0.847543,-0.33832 -3.285774,-2.29054 -5.418293,-4.33829 -2.132519,-2.04775 -4.177385,-3.72318 -4.544144,-3.72318 -0.366765,0 -1.206053,-1.0554 -1.865089,-2.34533 -0.659036,-1.28993 -2.775551,-4.26833 -4.703363,-6.61866 -1.927807,-2.35034 -3.505109,-4.89916 -3.505109,-5.66406 0,-1.53156 5.089166,-9.07663 7.964696,-11.80826 2.159656,-2.05159 5.149175,-3.0566 6.628899,-2.22851 1.32564,0.74187 1.347592,3.24116 0.03803,4.32802 -1.67807,1.39266 -5.875744,7.93182 -5.875744,9.15324 0,1.28825 1.664698,3.926 2.477713,3.926 0.29179,0 1.233878,-1.19612 2.093524,-2.65804 1.952986,-3.32125 5.941025,-7.34868 7.276816,-7.34868 1.347967,0 3.787439,1.75376 3.787439,2.72283 0,0.4266 -1.19612,2.59825 -2.658031,4.82588 -1.461919,2.22764 -3.196471,5.24694 -3.854556,6.70957 l -1.196516,2.65932 1.782597,1.86063 c 0.980426,1.02334 2.112092,1.86063 2.514813,1.86063 0.402726,0 1.815043,-1.759 3.138493,-3.90888 2.74024,-4.45141 7.97296,-9.85229 9.53983,-9.84641 1.34662,0.005 3.31952,3.43014 2.79535,4.85293 -0.21977,0.59654 -1.57454,2.4918 -3.01061,4.21171 -1.43606,1.7199 -3.81876,5.18104 -5.29489,7.69141 -1.58995,2.70395 -3.39962,4.93445 -4.43995,5.47242 -0.96585,0.49946 -1.840427,0.89028 -1.943503,0.86847 -0.103075,-0.0218 -0.880854,-0.31645 -1.728398,-0.65476 z m -59.431906,-0.73772 c -1.967829,-0.99561 -2.254702,-2.46033 -0.999807,-5.10482 1.014943,-2.13884 2.056084,-2.84435 4.197433,-2.84435 1.855833,0 6.046004,-2.33704 6.835667,-3.81253 0.540122,-1.00923 0.460094,-2.03828 -0.351478,-4.51952 -1.865034,-5.70202 -4.87141,-8.55429 -9.016459,-8.55429 -2.277853,0 -3.518198,1.63726 -4.735105,6.25033 -1.054023,3.99562 -1.878526,5.00723 -4.081086,5.00723 -1.383444,0 -2.675412,-1.04222 -6.333974,-5.10955 -2.527819,-2.81026 -6.495748,-7.0221 -8.817619,-9.35965 -2.590373,-2.60787 -4.221583,-4.77074 -4.221583,-5.59753 0,-1.47266 7.682156,-14.83561 10.354625,-18.01166 3.07227,-3.65118 6.01083,-4.02535 7.193045,-0.91589 0.683822,1.79859 0.205299,2.89717 -3.105288,7.12901 -1.235683,1.57954 -3.223486,4.72316 -4.417341,6.98582 l -2.170645,4.11393 2.483355,2.77834 c 1.365845,1.52809 3.281571,3.82346 4.25717,5.10084 0.975598,1.27737 2.026292,2.23677 2.334876,2.13199 0.308584,-0.10477 1.199001,-1.4405 1.978704,-2.96828 2.848353,-5.58115 7.078153,-6.63957 14.042987,-3.51393 5.952504,2.67132 10.130719,8.24522 12.11286,16.15899 0.635436,2.537 0.589449,3.40364 -0.304867,5.74538 -1.355294,3.54878 -4.890935,6.71653 -9.364901,8.39045 -4.066312,1.5214 -5.680062,1.62796 -7.870569,0.51969 z m 76.378451,-23.43978 c -1.24946,-1.29624 -4.19682,-4.60315 -6.54969,-7.34869 -2.35287,-2.74553 -5.65578,-6.11764 -7.3398,-7.49356 -2.495571,-2.03899 -3.063503,-2.87079 -3.070739,-4.49739 -0.005,-1.09763 0.240499,-2.14983 0.545291,-2.3382 0.306124,-0.18919 0.178445,-1.39545 -0.28526,-2.69494 -2.038618,-5.71311 -0.433397,-11.13683 4.220568,-14.26039 2.28043,-1.53054 3.33817,-1.81696 6.76808,-1.83267 5.75283,-0.0263 7.81673,1.00142 9.19791,4.58035 0.61684,1.59833 1.10663,4.38362 1.08843,6.18952 l -0.0331,3.28345 3.8566,0 c 6.46343,0 10.36487,0.99292 12.31413,3.13397 2.10038,2.30703 2.16441,3.42556 0.26726,4.66862 -1.21327,0.79497 -2.06356,0.8376 -5.15972,0.25867 -5.17865,-0.96831 -15.36982,-0.42385 -17.43859,0.93167 -1.89911,1.24433 -1.80093,1.50401 2.59644,6.86751 5.80564,7.08116 7.22647,10.86078 4.6093,12.26145 -2.05127,1.0978 -3.22838,0.73767 -5.58712,-1.70937 z m -5.32576,-23.7684 c 2.72932,-2.22765 3.76266,-9.11528 1.47641,-9.84091 -1.87743,-0.59587 -4.91268,0.25624 -5.61993,1.57773 -1.00682,1.88128 -0.71349,5.00779 0.68164,7.26515 1.49235,2.41468 1.66517,2.4645 3.46188,0.99803 z m -55.521323,16.53515 c -4.002675,-1.12592 -9.627326,-4.61732 -12.145473,-7.53907 -2.339965,-2.71502 -5.628855,-10.08006 -6.257865,-14.01367 -0.931622,-5.82604 1.154278,-10.77026 5.489667,-13.01218 3.792965,-1.96141 12.833118,1.75147 19.79251,8.12898 4.098074,3.75543 9.562388,11.40657 10.212354,14.29935 1.841599,8.19636 -7.504647,14.8332 -17.091193,12.13659 z m 6.938361,-7.91029 c 1.177478,-0.33769 2.34299,-0.94103 2.590028,-1.34075 1.251152,-2.0244 -3.646168,-9.53525 -8.983753,-13.77808 -4.215564,-3.35093 -8.355684,-5.24245 -9.463031,-4.32344 -1.337608,1.11012 -1.727916,7.69643 -0.638992,10.78277 2.306949,6.53858 9.932709,10.54176 16.495748,8.6595 z M 74.69954,261.42081 c -7.24505,-2.77691 -11.291316,-6.06392 -15.639142,-12.70458 -3.479569,-5.31453 -4.786708,-9.76012 -3.769752,-12.82097 1.616493,-4.86533 6.80765,-7.96067 11.315183,-6.74692 2.804303,0.75512 16.942425,10.24086 21.473886,14.40755 3.000476,2.75895 3.093626,2.94999 3.093626,6.34455 0,4.27749 -1.952504,8.6639 -4.74005,10.64881 -2.385714,1.69878 -8.408351,2.14612 -11.733751,0.87156 z m 8.039571,-8.00687 c 1.420059,-1.42006 0.864543,-4.2699 -1.2101,-6.20791 -2.210333,-2.06476 -11.047293,-8.25643 -13.859139,-9.71049 -2.298571,-1.18864 -3.426767,-0.32318 -3.973905,3.04843 -0.297295,1.83202 -0.01161,2.75282 1.565038,5.04441 2.345884,3.40963 5.202546,5.88926 8.534603,7.40819 2.853146,1.30062 7.828086,1.53279 8.943503,0.41737 z m 56.459639,-2.02235 c -3.89232,-3.45693 -7.85818,-5.8355 -13.14588,-7.88439 -3.56018,-1.37951 -4.12669,-1.81905 -4.30317,-3.33876 -0.45984,-3.95983 3.50693,-5.22741 8.99578,-2.87462 1.62511,0.69661 3.04621,1.17511 3.15799,1.06334 0.11177,-0.11178 -1.05255,-2.86288 -2.58738,-6.11356 -3.12511,-6.6188 -3.28172,-7.4661 -1.65252,-8.9405 3.07259,-2.78066 5.41227,-0.42383 9.80617,9.87808 1.6064,3.76635 4.02142,9.03708 5.36671,11.71273 2.81381,5.59638 2.98551,6.94545 1.05598,8.29694 -2.1535,1.50837 -3.3236,1.19385 -6.69368,-1.79926 z m 18.29047,-9.11344 c -0.74991,-0.3022 -2.91537,-2.43089 -4.81214,-4.73043 -1.89677,-2.29954 -4.30867,-4.70398 -5.35978,-5.34321 -1.08789,-0.66158 -1.91112,-1.69127 -1.91112,-2.39042 0,-1.49168 -3.20199,-3.98746 -6.45235,-5.02927 -3.36849,-1.07967 -3.95395,-2.73174 -2.31941,-6.54499 2.80675,-6.54785 6.79411,-10.505 12.69736,-12.60115 2.93701,-1.04288 5.26528,-0.29529 5.8074,1.86473 0.68083,2.71262 -0.17126,3.93856 -3.28192,4.72183 -2.90965,0.73266 -7.50765,4.46126 -6.83788,5.54497 0.18261,0.29548 1.47024,1.32602 2.86141,2.2901 l 2.52939,1.75287 2.97042,-2.76227 c 6.31999,-5.87711 8.89322,-7.18354 10.66309,-5.41367 1.69438,1.69438 0.77237,3.74231 -3.94015,8.75175 -2.57986,2.74241 -4.69065,5.33234 -4.69065,5.75542 0,0.42307 0.86516,1.59583 1.92257,2.60613 l 1.92256,1.83692 1.34018,-1.87626 c 1.98671,-2.78139 6.19092,-6.5516 7.7566,-6.95589 1.90234,-0.49123 2.57992,0.0852 3.05083,2.59537 0.34023,1.8136 0.11494,2.49365 -1.39628,4.21484 -0.99108,1.12878 -3.04339,4.06412 -4.56068,6.52297 -1.51729,2.45886 -3.42426,4.77389 -4.2377,5.14452 -1.71028,0.77926 -1.89447,0.78149 -3.72175,0.0452 z m 356.91464,-12.71179 c -2.11847,-0.70787 -2.21626,-0.88249 -3.03632,-5.42207 -0.46604,-2.57985 -1.81829,-8.49007 -3.005,-13.13381 -1.18671,-4.64375 -2.31288,-9.20339 -2.50261,-10.13254 -0.29752,-1.45708 -0.78729,-1.77701 -3.5619,-2.3268 -1.76933,-0.35058 -7.29782,-0.91477 -12.28554,-1.25376 -9.97611,-0.678 -13.91669,-1.68461 -22.20241,-5.67154 -6.26371,-3.01398 -11.95678,-6.68876 -15.72627,-10.15103 -3.00267,-2.75797 -7.10155,-10.13327 -7.10155,-12.77817 0,-0.76126 -0.26343,-2.07699 -0.58539,-2.92382 -1.58516,-4.16928 -2.68958,-14.04647 -2.35448,-21.05684 0.46983,-9.82884 2.29466,-17.41108 7.14976,-29.70744 4.40997,-11.16901 9.71085,-18.439281 18.11183,-24.840778 11.36527,-8.660263 36.49154,-21.619946 48.97012,-25.257915 11.26784,-3.284996 28.31103,-4.820441 37.53121,-3.381242 10.41319,1.625421 33.43606,8.545492 40.73368,12.243469 9.36885,4.747558 14.77603,8.848697 20.42077,15.488381 10.42648,12.264265 12.01966,16.426575 12.01966,31.402305 0,11.07217 -1.09008,18.04555 -4.93319,31.55825 -3.06148,10.76442 -6.13026,17.28329 -11.33511,24.07867 -4.34793,5.67658 -6.49909,7.759 -13.07351,12.65582 -8.00309,5.96093 -14.9031,8.49181 -31.94933,11.71882 -2.92383,0.55351 -7.14542,1.41108 -9.38129,1.90572 -5.1026,1.12882 -8.37569,1.12012 -11.57027,-0.0308 -4.65638,-1.67752 -5.60396,-1.3467 -8.56061,2.98878 -1.46615,2.14988 -5.07495,8.13045 -8.01955,13.29017 -3.59017,6.29091 -5.86159,9.61368 -6.89523,10.08673 -2.67212,1.22293 -4.59919,1.40598 -6.85747,0.6514 z m 10.26738,-25.11024 c 4.19819,-6.54685 6.82345,-9.10798 11.62226,-11.3383 2.20393,-1.02432 4.04761,-0.91524 13.0111,0.76974 1.2511,0.23519 5.07535,-0.23717 9.69401,-1.19736 4.19529,-0.87217 9.87372,-2.03255 12.61874,-2.57861 6.74965,-1.34271 16.30454,-6.08564 21.73623,-10.7896 10.95346,-9.48594 16.58744,-20.83307 21.19136,-42.68054 1.37657,-6.53241 1.71822,-21.04496 0.62706,-26.63627 -2.23043,-11.429109 -13.35902,-23.830969 -27.90673,-31.099681 -5.10962,-2.553 -22.40121,-8.054665 -30.95828,-9.849996 -15.41418,-3.233994 -33.57079,0.131911 -52.84798,9.797052 -18.5034,9.277183 -31.17467,17.699961 -35.42414,23.546935 -9.75169,13.41768 -16.56666,37.17973 -14.37852,50.13423 1.93937,11.48163 2.66113,14.48628 4.32604,18.00896 1.00877,2.13441 2.5566,4.64687 3.43961,5.58326 2.279,2.41674 10.54086,7.69199 14.0519,8.97222 1.63258,0.59528 4.17762,1.59319 5.65565,2.21756 3.61513,1.52716 8.39816,2.30801 17.01339,2.77751 9.38926,0.51167 14.26255,1.78671 15.18649,3.97337 0.37674,0.89159 1.30916,2.32469 2.07204,3.18464 0.78704,0.88718 1.97677,3.86319 2.75027,6.87962 1.6675,6.50269 1.78141,6.87962 2.07907,6.87962 0.13059,0 2.12879,-2.94947 4.44043,-6.55436 z m 1.37515,-24.45323 c -5.85206,-1.86914 -8.51543,-5.11836 -8.51543,-10.38848 0,-5.5524 3.82915,-10.26958 9.59703,-11.82271 2.41437,-0.65012 2.81833,-0.53098 8.95005,2.63969 6.33134,3.27388 6.44466,3.372 8.06525,6.98315 1.8164,4.04748 1.71958,5.64019 -0.52872,8.69771 -3.06094,4.16264 -11.12516,5.94854 -17.56818,3.89064 z m 6.79089,-8.36722 c 0.20354,-0.32934 -0.48345,-1.04016 -1.52664,-1.57961 -1.64618,-0.85128 -1.89671,-0.85891 -1.89671,-0.0577 0,0.50771 0.49252,1.20998 1.09449,1.56059 1.38784,0.80834 1.86695,0.82413 2.32886,0.0767 z m -8.89596,-23.01082 c -1.5353,-1.36256 -5.22676,-13.11458 -7.02317,-22.35876 -1.473,-7.57995 -7.77807,-30.289204 -9.15107,-32.959833 -2.11985,-4.123316 0.0484,-7.161352 5.69865,-7.984693 2.06388,-0.300744 4.91496,-0.966893 6.33572,-1.480332 4.4351,-1.602767 12.05532,-2.466725 22.12088,-2.507995 8.37597,-0.03434 10.28266,0.14943 14.02351,1.351622 2.38123,0.765251 4.7031,1.701423 5.15971,2.080382 1.24666,1.03463 0.99955,5.257126 -0.47704,8.151474 -0.71899,1.409336 -2.84596,6.956544 -4.7266,12.327125 -1.88064,5.37058 -4.94564,12.86052 -6.81112,16.64431 -5.01124,10.16445 -14.81082,26.13007 -16.59706,27.04019 -2.28427,1.16388 -7.09121,0.9933 -8.55241,-0.30349 z m 11.03694,-23.21209 c 4.09174,-7.18726 6.4042,-12.25242 9.03288,-19.78552 1.20032,-3.43981 2.90298,-8.141648 3.78369,-10.448532 0.8807,-2.306884 1.39723,-4.315292 1.14784,-4.463129 -2.80785,-1.664494 -20.09759,-0.605554 -25.62658,1.569544 -3.88788,1.529489 -4.11966,2.514535 -1.67399,7.114222 1.46465,2.754615 3.31922,9.710145 7.13065,26.743305 1.62213,7.24925 1.66586,7.2441 6.20551,-0.72989 z m -355.27467,95.5855 c -0.57135,-0.33348 -2.57795,-3.77255 -4.45913,-7.64238 -2.42705,-4.99276 -4.5319,-8.2707 -7.24801,-11.28753 -2.10522,-2.33831 -3.82768,-4.66019 -3.82768,-5.15971 0,-1.34629 2.30001,-3.40086 4.24189,-3.78923 1.58923,-0.31785 1.68657,-0.52321 1.47987,-3.12215 -0.33915,-4.26424 0.28697,-5.8411 2.72358,-6.85918 3.0279,-1.26514 7.18835,-1.11404 11.25879,0.40891 4.1118,1.53843 5.77478,3.12921 6.32233,6.04787 0.30852,1.64458 0.0827,2.56006 -0.98884,4.00944 l -1.38865,1.87825 1.36372,1.45162 c 2.0526,2.18489 8.22319,5.25452 12.14653,6.04244 3.88986,0.7812 4.40016,1.20731 4.95558,4.13802 0.29508,1.557 0.092,2.34132 -0.85012,3.28345 -1.53232,1.53233 -2.95887,1.54849 -8.20779,0.093 -4.72702,-1.31076 -8.15287,-3.18964 -14.03189,-7.69566 -2.7792,-2.13014 -4.02085,-2.79232 -3.77586,-2.01368 0.20077,0.63808 1.04912,3.41165 1.88522,6.1635 0.83611,2.75184 1.96667,6.23486 2.51235,7.74002 1.32919,3.66636 1.25194,4.82818 -0.39786,5.98375 -1.59544,1.11749 -2.26225,1.1766 -3.71403,0.32924 z m 0.0913,-28.72151 c 1.74589,-1.34144 1.66844,-1.55621 -0.77243,-2.14177 -1.58758,-0.38087 -1.7199,-0.26734 -1.7199,1.47557 0,2.19523 0.37265,2.29484 2.49233,0.6662 z M 118.8258,218.9969 c -0.68796,-0.32837 -2.72167,-2.33001 -4.51935,-4.44809 -1.79768,-2.11807 -7.07466,-7.73012 -11.72662,-12.47122 -4.65196,-4.74109 -8.458109,-8.90511 -8.458109,-9.25336 0,-0.34826 0.690808,-1.32401 1.535125,-2.16832 2.882009,-2.88202 5.079474,-1.83093 11.598694,5.54788 2.57985,2.92003 7.29396,8.14396 10.47578,11.60875 5.8555,6.37624 6.69468,8.08421 5.00336,10.18333 -1.09167,1.35489 -2.44267,1.70087 -3.90888,1.00103 z m 5.72269,-15.65383 c -3.54077,-3.09582 -15.49727,-16.38907 -16.58919,-18.44387 -1.47214,-2.77034 1.83363,-5.79406 6.31021,-5.77181 2.24081,0.0111 9.57239,2.14601 13.78124,4.01295 2.2038,0.97755 0.95421,-0.72587 -5.1623,-7.03719 -4.1169,-4.24801 -6.24451,-6.91751 -6.23081,-7.81775 0.0251,-1.64624 2.01298,-4.18141 3.27881,-4.18141 1.10792,0 13.17469,12.36227 18.12213,18.5659 1.97118,2.47168 3.87191,4.67192 4.22386,4.88944 0.97124,0.60026 3.12371,5.0968 3.12371,6.52548 0,0.69373 -0.68032,1.70709 -1.51183,2.25192 -1.94645,1.27537 -4.44843,0.63876 -12.73506,-3.24034 -7.22889,-3.38394 -10.76991,-4.72126 -10.76991,-4.06741 0,0.26297 2.67367,3.07487 5.94149,6.24867 6.17352,5.99589 7.02864,7.67671 4.95869,9.74666 -1.60724,1.60724 -3.52775,1.12826 -6.74104,-1.68124 z m 32.63388,-21.54602 c -0.91866,-0.56993 -2.6073,-2.54129 -3.75251,-4.38079 -1.14523,-1.8395 -3.27395,-5.09477 -4.7305,-7.23392 -1.45656,-2.13916 -3.14519,-4.69062 -3.75252,-5.66992 -0.60734,-0.97931 -2.06528,-3.06356 -3.23987,-4.63168 l -2.13562,-2.85114 -1.1553,1.50458 c -4.11334,5.35694 -5.01714,6.19523 -6.67937,6.19523 -3.6279,0 -4.33459,-3.62451 -1.43995,-7.38536 0.9773,-1.26975 3.77021,-5.12649 6.20646,-8.57051 5.41274,-7.65174 12.4727,-14.6897 14.73565,-14.6897 0.867,0 2.45994,0.74347 3.53985,1.65216 l 1.96349,1.65216 2.30608,-2.17223 c 5.52125,-5.2008 12.26055,-9.03576 14.58329,-8.29854 1.67919,0.53295 3.31915,4.11509 2.81095,6.13991 -0.30276,1.20628 -1.01108,1.77078 -2.83982,2.2632 -3.07552,0.82816 -10.05936,5.44792 -10.05936,6.65421 0,1.18165 4.54022,9.59642 5.18525,9.61027 0.27203,0.006 3.04369,-1.95946 6.15925,-4.36732 3.11557,-2.40787 6.22516,-4.37794 6.9102,-4.37794 1.4411,0 3.58377,2.31263 3.61418,3.90088 0.0118,0.61417 -2.07696,2.78923 -4.80476,5.00336 -5.12077,4.15648 -7.68282,6.61712 -7.68282,7.37871 0,0.25565 0.57301,1.12922 1.27336,1.94129 1.2256,1.4211 1.30184,1.4323 2.03261,0.29854 2.71955,-4.21924 5.6753,-7.60879 7.74356,-8.88001 3.40278,-2.09147 4.80066,-1.95325 5.71116,0.5647 1.13636,3.14256 0.92718,4.13494 -1.11737,5.30076 -1.0966,0.62529 -3.5917,3.71882 -6.0401,7.48878 -5.73852,8.83596 -7.55355,9.06572 -12.40659,1.57051 -2.34293,-3.61848 -2.43449,-3.6824 -5.22724,-3.64948 -2.45114,0.0289 -2.97462,-0.19887 -3.80165,-1.6541 -0.89352,-1.57223 -0.8639,-1.8164 0.43322,-3.57084 1.70005,-2.29943 1.71791,-3.05346 0.1199,-5.06097 -1.2187,-1.53101 -1.25951,-1.53752 -1.96108,-0.31271 -0.39407,0.68797 -2.38791,2.83045 -4.43076,4.76109 l -3.71428,3.51025 1.06462,2.05874 c 1.90303,3.68005 6.46372,10.50409 7.37734,11.03851 1.02742,0.60099 2.93658,4.1094 2.93658,5.39647 0,1.10258 -2.00318,2.94771 -3.17634,2.92574 -0.48889,-0.009 -1.64052,-0.48295 -2.55919,-1.05289 z m -5.38993,-29.26333 c 3.00527,-2.70198 3.86634,-3.09245 6.27846,-2.84709 1.63229,0.16604 1.35521,-0.61283 -1.4072,-3.95573 -1.37592,-1.66506 -2.50168,-3.41889 -2.50168,-3.89741 0,-0.47852 -0.38806,-0.87003 -0.86237,-0.87003 -1.02578,0 -9.14434,8.45173 -9.14434,9.5196 0,0.67694 3.66068,4.86505 4.25237,4.86505 0.13997,0 1.66312,-1.26647 3.38476,-2.81439 z m 83.84887,28.95231 c -0.76386,-0.36876 -1.85597,-1.89363 -2.42691,-3.3886 -0.57093,-1.49497 -1.42351,-3.03803 -1.89461,-3.429 -0.47111,-0.39099 -0.85655,-1.70937 -0.85655,-2.92975 0,-1.22037 -0.89316,-4.1566 -1.98482,-6.52496 -1.54596,-3.35403 -1.85709,-4.63059 -1.40719,-5.77373 0.55401,-1.40764 13.83803,-12.198 16.01685,-13.01018 1.58985,-0.59264 4.26407,1.80188 4.24831,3.80398 -0.0108,1.36376 -1.11336,2.53975 -5.94149,6.33679 -3.26056,2.56425 -5.9283,5.11377 -5.9283,5.66559 0,0.55183 0.38365,1.52801 0.85256,2.16927 0.81563,1.11545 1.07974,1.05426 6.09784,-1.41259 5.77432,-2.8386 10.04681,-4.10342 12.79051,-3.78647 1.42814,0.16498 1.97805,0.69899 2.71102,2.63262 0.837,2.20806 0.8238,2.49562 -0.14717,3.20561 -0.58666,0.42898 -2.20538,0.96205 -3.59716,1.1846 -3.66518,0.58609 -16.32099,7.17084 -13.90786,7.23619 0.40399,0.0109 2.93694,-0.87028 5.62878,-1.95827 6.41915,-2.59449 10.8341,-3.02685 12.62459,-1.23636 0.71854,0.71854 1.49582,2.06099 1.72728,2.98321 0.54677,2.17849 -0.99159,3.35322 -4.41743,3.37325 -1.39618,0.008 -4.22713,0.73687 -6.29102,1.61936 -4.41385,1.88729 -10.74939,4.01247 -11.78234,3.95225 -0.39933,-0.0233 -1.35103,-0.34405 -2.11489,-0.71281 z m 38.03791,-6.59355 c -2.06622,-1.70367 -6.94131,-21.97666 -6.94153,-28.86624 -10e-5,-3.23525 -0.0492,-3.33595 -1.14383,-2.34533 -2.85391,2.58276 -4.76732,1.13107 -13.95321,-10.58623 -7.75371,-9.89044 -10.59832,-12.84716 -16.6996,-17.35783 -5.90998,-4.36923 -8.23033,-5.75703 -8.23033,-4.92255 0,1.33813 5.87055,20.80552 8.10635,26.88154 2.42975,6.60312 2.64375,8.6535 1.10803,10.6163 -0.90428,1.15578 -3.41836,0.94901 -4.75875,-0.39137 -2.45602,-2.45602 -11.68045,-33.96178 -12.86496,-43.93987 -0.39322,-3.31239 -0.3177,-3.60164 1.26553,-4.847005 1.9741,-1.552826 4.16821,-1.710885 5.27288,-0.379847 0.43115,0.519505 2.78748,2.257182 5.23628,3.861512 10.4409,6.84028 15.69767,11.44269 23.08427,20.21072 1.43289,1.70086 2.24476,2.31949 2.05197,1.56355 -0.83343,-3.26795 -2.17672,-12.4527 -2.56869,-17.56356 l -0.43568,-5.68058 2.39609,-1.413732 2.39609,-1.413723 1.07323,1.32539 c 0.59028,0.728965 1.25078,2.936365 1.46778,4.905345 1.46239,13.26909 3.04506,21.41174 6.75253,34.74096 0.70932,2.55019 0.96049,2.87098 1.6229,2.07282 1.60016,-1.92808 4.24077,-1.86541 8.68484,0.2061 2.31447,1.07885 5.24481,2.67577 6.51188,3.54871 3.46421,2.38667 4.60384,6.79983 2.69907,10.452 -0.51203,0.98175 -0.80275,1.99245 -0.64604,2.24601 0.1567,0.25356 2.301,1.70182 4.7651,3.21836 5.78545,3.56069 7.2418,4.87682 7.71194,6.96941 0.2789,1.24138 0.0386,2.05599 -0.8761,2.97074 -2.37524,2.37524 -5.35034,1.44915 -14.33508,-4.46222 -2.54734,-1.676 -4.7748,-2.904 -4.94991,-2.72889 -0.17509,0.1751 0.1501,2.00334 0.72268,4.06277 1.36785,4.91989 1.31516,6.00204 -0.34897,7.16764 -1.7816,1.24788 -2.54344,1.22583 -4.17676,-0.1209 z m 5.06902,-22.56196 c 0.24221,-0.23507 -0.67247,-1.06787 -2.03262,-1.85067 l -2.473,-1.42328 0,1.79069 c 0,0.98489 0.20261,1.99331 0.45024,2.24093 0.48203,0.48203 3.32538,-0.0492 4.05538,-0.75767 z m 132.03314,23.02083 c -1.94938,-0.77711 -2.91154,-2.80184 -2.07459,-4.3657 0.90579,-1.69248 5.34033,-3.87305 7.39268,-3.63516 4.01918,0.46586 3.93262,6.89862 -0.10373,7.7087 -1.08449,0.21766 -2.39395,0.49499 -2.90992,0.61629 -0.51597,0.1213 -1.55297,-0.0246 -2.30444,-0.32413 z M 303.6272,172.07809 c -0.97281,-2.24875 -5.17751,-22.42391 -5.24475,-25.16557 -0.0554,-2.25882 0.15673,-2.61149 2.24859,-3.73842 1.27036,-0.68437 2.58578,-1.85014 2.92316,-2.5906 0.35801,-0.78575 1.77215,-1.74112 3.39641,-2.29456 2.54715,-0.8679 2.98963,-0.85575 5.22117,0.14334 6.72297,3.00996 11.33528,12.64389 7.88285,16.46523 -1.05968,1.17291 -0.91958,1.37834 4.4062,6.46018 5.29215,5.04975 5.48528,5.33087 5.09429,7.41505 -1.00229,5.34268 -4.68927,4.61926 -12.06562,-2.36742 -2.97494,-2.81778 -6.07916,-5.68442 -6.89828,-6.37032 l -1.48931,-1.24708 0.42896,4.37794 c 0.23592,2.40787 0.57752,5.24931 0.75908,6.31433 0.42705,2.50492 -1.03237,4.0051 -3.89629,4.0051 -1.6403,0 -2.30368,-0.33743 -2.76646,-1.4072 z m 9.34586,-22.1424 c 0.33321,-0.28616 -3.15292,-3.96887 -3.75702,-3.96887 -0.73553,0 -1.09045,1.54585 -0.75627,3.29398 0.28158,1.47303 0.52766,1.61088 2.2809,1.27772 1.0809,-0.20538 2.08547,-0.47667 2.23239,-0.60283 z m 26.01901,18.37007 c -5.00961,-2.83735 -7.21082,-8.41705 -7.21082,-18.27821 0,-5.82305 0.11894,-6.45612 1.4475,-7.70423 1.70653,-1.60321 3.83353,-1.70779 8.74025,-0.42975 4.29633,1.11905 7.60627,3.11769 10.3631,6.25754 3.7917,4.31852 4.13074,7.4484 1.42613,13.16539 -2.02076,4.27145 -4.66919,6.81583 -8.08081,7.76332 -3.23316,0.89794 -3.86179,0.82516 -6.68535,-0.77406 z m 8.10549,-9.81803 c 0.51953,-1.00466 0.9446,-2.35086 0.9446,-2.99155 0,-1.93305 -4.75826,-5.77684 -7.15121,-5.77684 -1.32259,0 -1.35879,6.83318 -0.0496,9.36486 1.58752,3.06993 4.50404,2.79187 6.25623,-0.59647 z m 39.51048,9.0614 c -0.97553,-0.5088 -3.48624,-2.35606 -5.57935,-4.10503 -2.09311,-1.74896 -5.15463,-3.8635 -6.80337,-4.69898 -4.78652,-2.42552 -5.46614,-5.19305 -1.78774,-7.28004 2.11111,-1.19776 3.12305,-3.29264 3.12305,-6.46519 0,-1.79039 -0.26887,-2.20383 -1.66035,-2.55306 -2.25202,-0.56522 -3.51326,0.37596 -4.38831,3.27474 -1.04876,3.47417 -0.98636,7.81268 0.17909,12.45236 0.55552,2.21155 0.84371,4.68374 0.64041,5.49373 -0.48028,1.91361 -3.02635,3.09729 -5.02648,2.33684 -1.87008,-0.711 -2.68519,-3.07309 -4.07638,-11.81272 l -1.06037,-6.66141 1.52254,-4.37794 c 0.83739,-2.40787 1.97881,-4.90696 2.53648,-5.55355 1.34132,-1.55517 5.23216,-4.00225 7.05982,-4.44015 1.96886,-0.47173 8.66781,2.32641 10.10449,4.22062 1.61281,2.12644 1.98605,6.12128 1.04024,11.13387 l -0.81349,4.31133 1.81816,1.38221 c 0.99999,0.76022 3.29571,2.83311 5.10161,4.60642 2.72044,2.67135 3.28346,3.59924 3.28346,5.41142 0,1.32465 -0.45105,2.5954 -1.14373,3.22227 -1.39859,1.2657 -1.81885,1.27626 -4.06978,0.10226 z m 17.7673,-11.34723 c -1.59689,-2.03011 -1.66316,-5.11966 -0.33921,-15.81373 0.79377,-6.41158 0.82664,-8.58198 0.19271,-12.72308 -0.71985,-4.70234 -0.69365,-5.04449 0.45017,-5.8811 2.2769,-1.66535 4.14771,-1.76181 5.35095,-0.27588 1.63087,2.01404 2.04558,6.2142 1.48527,15.04294 -0.46097,7.26348 -0.52953,10.89771 -0.32321,17.13215 0.10042,3.03466 -0.83777,4.16659 -3.45345,4.16659 -1.48809,0 -2.43004,-0.46153 -3.36323,-1.64789 z m -202.75905,-1.89516 c -0.55866,-0.14898 -3.65449,-4.0831 -6.87961,-8.74251 -3.22512,-4.65941 -7.77107,-11.04833 -10.1021,-14.19761 -4.45086,-6.01318 -5.39456,-8.05144 -4.31982,-9.33023 0.35762,-0.42551 3.86474,-2.42918 7.7936,-4.45259 11.05207,-5.69197 15.35305,-5.53811 18.00301,0.64399 1.47234,3.43484 1.55732,8.20978 0.22589,12.6932 -0.542,1.8251 -0.75308,3.5306 -0.46907,3.78999 0.28401,0.25939 3.56964,1.84267 7.30139,3.5184 5.05618,2.27047 7.0083,3.47711 7.66139,4.73563 1.13302,2.18339 1.10656,3.30771 -0.10641,4.52068 -1.58949,1.58949 -3.80686,1.1677 -11.27274,-2.14429 -3.87701,-1.71991 -7.37322,-3.1271 -7.76936,-3.1271 -0.39614,0 0.42942,1.3061 1.83457,2.90244 2.14811,2.44038 2.55484,3.33297 2.55484,5.60678 0,2.0336 -0.30004,2.8649 -1.20973,3.35175 -1.24995,0.66895 -1.53024,0.68894 -3.24585,0.23147 z m -2.8809,-23.81906 c 2.20194,-5.55422 2.06298,-8.92295 -0.36706,-8.8985 -1.5026,0.0151 -5.67629,1.82192 -7.58901,3.28529 -1.18863,0.9094 -1.15724,1.02585 1.19844,4.44619 1.93889,2.81518 2.75735,3.51234 4.12344,3.51234 1.38728,0 1.87739,-0.43636 2.63419,-2.34532 z m 106.07303,3.18628 c -0.68087,-0.82123 -0.87093,-4.79773 -0.91916,-19.23166 -0.0363,-10.85782 -0.3319,-19.172824 -0.73302,-20.617567 -0.83138,-2.994451 -0.49599,-3.931711 1.839,-5.139184 4.83879,-2.502232 5.64075,0.31723 5.55728,19.537611 -0.0585,13.46587 0.2253,16.08553 1.51627,13.99669 0.43894,-0.71023 8.31719,-3.14608 10.17532,-3.14608 1.69427,0 2.18184,1.49921 1.41442,4.34917 -0.51108,1.89801 -1.12836,2.56335 -3.27432,3.52919 -1.45448,0.65462 -4.22325,2.35161 -6.15282,3.7711 -5.88898,4.33221 -7.78528,4.92602 -9.42297,2.95073 z m -29.63003,-1.07806 c -0.89194,-0.6522 -1.24386,-1.87223 -1.44323,-5.00336 -0.23714,-3.72406 -0.39797,-4.1418 -1.59801,-4.15041 -1.69516,-0.0122 -2.52309,-0.57243 -3.45168,-2.33575 -0.95307,-1.8098 -0.0748,-3.55167 2.44859,-4.85659 1.02175,-0.52837 1.85858,-1.16451 1.85961,-1.41367 10e-4,-0.24915 0.13259,-3.30215 0.29233,-6.78443 0.25487,-5.55594 0.59757,-8.04346 1.90046,-13.794628 0.48101,-2.12328 2.07541,-3.327187 4.40637,-3.327187 1.92217,0 2.27961,0.294589 3.60452,2.970744 0.80892,1.633909 2.12387,4.800097 2.9221,7.035971 0.79823,2.23588 1.63432,4.27787 1.85797,4.53777 0.22366,0.2599 1.73289,0.0206 3.35385,-0.53167 3.79639,-1.29357 4.80105,-0.88673 4.80105,1.94419 0,2.24166 -1.34435,4.10726 -4.10199,5.69246 -1.17958,0.67806 -1.15074,0.89132 1.01496,7.50504 2.52104,7.69885 2.65632,11.64027 0.44023,12.82629 -2.36417,1.26526 -4.29983,-1.05659 -6.7345,-8.0781 -1.20393,-3.47211 -2.39127,-6.50781 -2.63851,-6.746 -0.24726,-0.2382 -1.15029,0.0261 -2.00674,0.58723 -1.49722,0.98101 -1.55217,1.25099 -1.42672,7.0091 0.11531,5.29244 -0.0107,6.09265 -1.08354,6.88215 -1.52797,1.1244 -2.90841,1.13404 -4.41712,0.0308 z m 5.73264,-24.31063 c -0.1735,-0.42997 -0.31546,-0.0782 -0.31546,0.78178 0,0.85995 0.14196,1.21175 0.31546,0.78177 0.17349,-0.42997 0.17349,-1.13357 0,-1.56355 z"
           style="fill:#dadada" />
        <path
           inkscape:connector-curvature="0"
           id="path3141"
           d="m 645.07357,655.3194 c -0.59872,-0.72141 -0.7754,-2.96939 -0.65119,-8.28681 0.0937,-4.01326 0.14235,-7.85972 0.10801,-8.54768 -0.0344,-0.68796 -0.0369,-8.13694 -0.006,-16.5533 0.0544,-14.50951 0.26674,-17.76483 1.90965,-29.2587 0.63349,-4.43187 0.82137,-32.98851 0.30558,-46.43742 -0.11213,-2.92384 0.33241,-10.52269 0.98785,-16.88634 1.94275,-18.86238 3.29859,-80.04481 1.79446,-80.97442 -0.32847,-0.20301 -2.30699,0.88959 -4.39676,2.42798 -6.66998,4.91015 -10.21549,6.31116 -15.95759,6.3057 -4.37672,-0.004 -5.37571,-0.22719 -7.97635,-1.78065 -1.63514,-0.97674 -5.03929,-4.00006 -7.56477,-6.71851 -2.52442,-2.71843 -4.78606,-4.94261 -5.0248,-4.94261 -0.23875,0 -3.02626,2.07797 -6.19447,4.61771 -5.70834,4.57599 -9.98776,7.26527 -11.56116,7.26527 -2.77634,0 -7.87662,-4.33154 -13.94109,-11.83983 -1.34119,-1.66048 -2.5191,-2.58245 -2.95511,-2.31299 -0.39873,0.24644 -2.49101,3.45508 -4.64949,7.13032 -4.24808,7.23318 -10.27048,13.87119 -15.21231,16.76729 -4.3596,2.5549 -8.68758,2.05027 -17.48152,-2.03831 -6.85435,-3.18679 -17.09736,-6.7658 -17.68416,-6.179 -0.16975,0.16975 -1.52944,3.90602 -3.02152,8.30281 l -2.71288,7.99417 2.95341,4.36854 c 1.62437,2.4027 5.66356,8.05706 8.97598,12.56524 3.31241,4.50818 6.38146,8.86728 6.8201,9.68688 0.43864,0.8196 2.13909,2.9087 3.77879,4.64244 1.6397,1.73373 3.15553,3.85196 3.36853,4.70716 0.32558,1.30731 0.0768,1.69113 -1.5622,2.41021 -1.70785,0.74929 -2.25002,0.71974 -4.37494,-0.23847 -3.4882,-1.57295 -10.61591,-9.2635 -18.10605,-19.53576 -3.57416,-4.90173 -6.77113,-8.91223 -7.10439,-8.91223 -0.58891,0 -9.64021,9.39198 -10.5715,10.9694 -0.25564,0.43301 0.23925,2.65777 1.09975,4.94392 3.2805,8.7155 7.78993,16.29348 13.84818,23.27153 1.83774,2.11675 3.34134,4.12272 3.34134,4.45772 0,0.33499 0.42216,0.95944 0.93813,1.38765 1.44546,1.19963 1.11782,2.75126 -0.82302,3.89775 -1.678,0.99122 -1.90852,0.97205 -4.88263,-0.40587 -3.23904,-1.50067 -6.74551,-5.15331 -11.15721,-11.62233 -2.35166,-3.44831 -9.09206,-16.87045 -9.09206,-18.10499 0,-1.12851 -1.96373,-0.72521 -4.92831,1.01216 -1.56708,0.91836 -3.98404,2.01153 -5.37102,2.42925 l -2.52178,0.7595 0.14388,3.04316 c 0.0791,1.67374 0.419,4.16892 0.75526,5.54485 0.33625,1.37592 1.0529,4.81799 1.59256,7.64905 1.97404,10.35595 3.44841,13.73869 9.34161,21.43297 2.60485,3.40094 2.73875,4.64684 0.64674,6.01757 -3.40708,2.23241 -8.54042,-1.2719 -12.02147,-8.20654 -2.36881,-4.71894 -6.13335,-18.37408 -7.97162,-28.91545 -0.50564,-2.89956 -1.05858,-5.49721 -1.22875,-5.77255 -0.17017,-0.27535 -2.12546,-0.69512 -4.34508,-0.93282 -4.89058,-0.52374 -8.82593,-2.8751 -10.85543,-6.48611 -2.34513,-4.17259 -2.97587,-4.38338 -5.63666,-1.88375 -2.34491,2.2029 -4.14396,3.52329 -8.03483,5.89705 -1.17902,0.7193 -3.75219,2.60971 -5.71818,4.2009 -8.94378,7.23875 -10.99118,8.72822 -18.00197,13.0963 -11.31875,7.05215 -17.59473,10.46026 -30.60277,16.61849 -12.78805,6.05409 -17.38863,7.4096 -27.20576,8.01593 -5.50574,0.34004 -6.51356,0.17004 -25.95492,-4.37826 -3.78379,-0.88522 -12.5084,-2.47327 -19.38802,-3.52902 -19.8731,-3.04971 -26.30373,-4.51325 -40.13242,-9.13362 -12.12105,-4.04983 -26.66465,-10.64692 -37.41963,-16.97385 -2.06389,-1.21414 -6.41106,-3.74932 -9.66039,-5.63374 -14.02808,-8.13548 -31.49515,-20.50067 -41.31133,-29.24489 -5.08109,-4.52622 -14.85577,-11.7436 -21.12303,-15.59672 -5.05504,-3.10783 -12.72108,-5.33528 -19.9108,-5.78527 -5.4165,-0.339 -5.85937,-0.26856 -8.97606,1.42776 -4.01414,2.18477 -9.14823,7.86628 -16.80265,18.59424 -3.14317,4.40526 -8.46367,10.97508 -11.82335,14.59958 -5.16586,5.57307 -7.634265,7.60599 -15.995983,13.17392 -11.448635,7.62347 -15.222637,9.15808 -25.136016,10.22099 -14.017965,1.503 -18.468508,0.009 -27.016533,-9.06961 -6.282825,-6.67275 -11.471634,-14.56308 -13.665881,-20.78096 -1.868282,-5.29418 -1.999744,-11.97503 -0.385546,-19.59331 2.346413,-11.07399 8.118486,-19.31289 26.341373,-37.59896 13.1254,-13.17091 15.898151,-15.40539 26.296853,-21.19192 8.344876,-4.64364 9.494004,-5.61861 12.296779,-10.43315 3.490149,-5.99529 5.443979,-11.10452 7.968086,-20.83642 3.601358,-13.88529 9.777328,-29.75915 16.911398,-43.46667 11.98487,-23.02794 28.19118,-44.66763 58.20026,-77.7127 3.43981,-3.78781 7.76037,-8.61802 9.60125,-10.73381 1.84088,-2.11579 5.6403,-5.793 8.44317,-8.17159 2.80286,-2.37858 9.31769,-8.01112 14.47741,-12.51675 5.15971,-4.50563 10.58595,-8.95235 12.05832,-9.88161 1.47236,-0.92926 3.86459,-2.56186 5.31606,-3.62801 1.45148,-1.06615 3.62409,-2.43692 4.82802,-3.04616 1.20393,-0.60925 2.65938,-1.51955 3.23433,-2.02291 3.0803,-2.69672 18.03513,-10.19036 25.53498,-12.79521 7.73262,-2.68569 17.18589,-4.3452 31.50752,-5.53111 7.95346,-0.65859 18.26026,-1.66026 22.904,-2.22592 9.77754,-1.19104 28.32866,-1.33703 38.16321,-0.30036 20.69705,2.18172 36.3265,5.9314 55.25931,13.25733 4.51451,1.74687 13.55554,5.13328 20.09118,7.52537 21.12216,7.73086 29.80096,14.69093 43.01585,34.49708 3.01986,4.52609 6.18677,8.84962 7.03756,9.60783 l 1.54691,1.37857 4.21999,-1.58881 c 2.321,-0.87385 7.31582,-2.29677 11.09961,-3.16205 8.21091,-1.87769 16.21348,-1.76349 20.95156,0.29897 4.60024,2.00246 10.20862,6.56704 15.4246,12.55384 6.16083,7.07131 8.38895,10.75908 10.97914,18.17171 1.13203,3.23965 2.36053,5.99103 2.73,6.11419 0.36947,0.12316 2.85526,-1.59139 5.52397,-3.81011 6.12388,-5.09128 10.85711,-7.43535 15.16787,-7.51169 2.63049,-0.0466 3.54365,0.23369 4.90786,1.50632 3.27988,3.05969 4.49048,6.52264 5.55818,15.89938 0.40124,3.52375 1.01687,6.3088 1.42459,6.44471 0.39489,0.13163 2.24939,-1.67575 4.1211,-4.01641 6.7936,-8.4957 15.87865,-16.16513 21.82569,-18.42482 4.04869,-1.53839 6.22313,-1.45463 9.84181,0.3791 3.62455,1.8367 5.43833,3.88705 8.57366,9.69188 1.29801,2.40318 2.71108,4.50413 3.14017,4.66879 0.44552,0.17096 2.52135,-2.03335 4.83949,-5.13902 7.68441,-10.29498 11.45349,-12.73449 19.99391,-12.941 l 4.91518,-0.11884 2.14243,-2.70739 c 4.19401,-5.29998 4.5874,-6.33279 5.50995,-14.4654 0.48208,-4.25017 1.0584,-10.96413 1.28068,-14.91991 0.22227,-3.95578 0.84781,-12.68039 1.39005,-19.38802 0.57026,-7.05368 1.04114,-20.89753 1.11694,-32.83453 0.072,-11.35137 0.31884,-21.62389 0.54843,-22.82783 0.22959,-1.20393 0.57814,-10.77285 0.77452,-21.26427 0.19638,-10.49142 0.38026,-19.91962 0.40859,-20.95156 0.0281,-1.03195 0.0381,-7.36432 0.0213,-14.07195 -0.0163,-6.707627 -0.0169,-14.447197 -2.5e-4,-17.199044 0.0163,-2.751847 -0.17912,-11.335734 -0.43454,-19.075304 -0.25542,-7.73957 -0.52867,-16.042018 -0.60716,-18.449884 -0.101,-3.09764 0.1865,-5.135649 0.98298,-6.968906 1.32163,-3.041705 2.63376,-3.73618 4.61128,-2.440495 1.2818,0.839864 1.46185,1.547339 1.71496,6.737451 0.98372,20.172571 1.67963,31.481008 2.22337,36.131909 1.11212,9.511974 1.01149,53.527343 -0.17943,78.490183 -0.22972,4.81573 -0.53186,17.19905 -0.67139,27.51847 -0.13947,10.31943 -0.54481,21.71771 -0.90067,25.32951 -1.18417,12.01828 -1.85981,27.17474 -1.23971,27.80904 0.37469,0.3833 2.58199,-1.34644 6.05307,-4.74353 10.71131,-10.48276 21.26352,-17.43674 26.45932,-17.43674 3.63162,0 5.31025,1.49659 4.39088,3.91465 -0.84369,2.21915 -3.05373,3.59039 -5.78669,3.59039 -1.86988,0 -3.27858,0.72349 -7.20953,3.70275 -6.58948,4.99421 -13.47936,11.26763 -18.60036,16.9361 -7.41379,8.20636 -7.0658,7.46677 -7.57233,16.09361 -0.37281,6.35009 -0.29733,7.70871 0.44436,7.99331 0.49145,0.18859 3.55276,-0.91497 6.803,-2.45234 9.34109,-4.41846 18.82045,-7.77822 30.30078,-10.73946 18.00408,-4.64397 23.77302,-5.00343 27.08856,-1.68789 1.45072,1.45077 1.49925,1.65847 0.54924,2.35312 -0.57307,0.41904 -3.50804,0.9322 -6.52213,1.14035 -8.28031,0.57182 -28.8735,6.11619 -39.25285,10.56815 -6.08458,2.60984 -12.5189,5.89414 -16.35572,8.34854 -3.10271,1.98476 -3.26201,2.2216 -3.63138,5.399 -0.21245,1.82776 -0.51441,13.59571 -0.67101,26.15101 -0.15661,12.55531 -0.56225,24.23502 -0.90142,25.95493 -2.28278,11.57428 -2.54408,17.24149 -2.52282,54.72423 0.0138,24.83054 -0.20445,38.04487 -0.65663,39.71416 -0.42422,1.56595 -0.7682,13.61338 -0.91968,32.20911 -0.28181,34.59318 -1.00661,51.88436 -2.83865,67.71728 -1.16034,10.02792 -1.27185,13.46615 -0.92781,28.59737 0.24141,10.61398 0.13127,20.19226 -0.28763,25.0168 -0.37325,4.29976 -0.95364,19.35674 -1.28968,33.45995 -0.33598,14.10322 -0.8153,27.81137 -1.06515,30.46256 -0.49928,5.29823 -1.12545,6.19386 -5.14489,7.35917 -2.82209,0.81816 -2.82784,0.81763 -3.79555,-0.34838 z M 368.99375,534.09997 c 2.06389,-0.50186 7.69267,-2.78594 12.5084,-5.07573 4.81573,-2.28979 9.64301,-4.53474 10.72728,-4.98878 5.14681,-2.15523 24.54954,-14.23844 31.98442,-19.91856 4.57248,-3.49329 10.94717,-8.1808 14.16599,-10.41668 3.21882,-2.23587 6.70053,-5.05983 7.73714,-6.27546 l 1.88473,-2.21022 -1.22221,-4.98211 c -1.50623,-6.13981 -1.23459,-10.52776 1.46991,-23.74468 1.0558,-5.15972 2.13684,-11.6198 2.40232,-14.35574 0.35384,-3.64663 0.77862,-5.19083 1.59137,-5.78513 1.50731,-1.10218 4.66871,-1.02119 6.35923,0.16289 1.77258,1.24156 1.80605,3.74632 0.15718,11.75998 -4.41194,21.44236 -4.53033,25.43733 -1.05919,35.74101 3.56802,10.59128 5.66384,13.70986 8.95997,13.33251 l 1.77521,-0.20324 -0.18807,-4.37793 c -0.10343,-2.40787 -0.45774,-6.06658 -0.78733,-8.13046 -0.59109,-3.70136 -0.57347,-3.77597 1.29242,-5.47243 1.92626,-1.75133 3.9601,-2.16015 5.5966,-1.12494 0.94483,0.59767 1.79197,6.5925 1.86547,13.20109 0.0213,1.91215 0.42521,4.00527 0.89767,4.65139 0.82505,1.12832 1.00176,1.08978 4.47046,-0.97495 4.9981,-2.9751 5.24518,-3.52377 3.49181,-7.75409 -1.79544,-4.33182 -1.43909,-6.0937 1.51613,-7.49605 2.95255,-1.40107 4.14895,-1.07743 5.41987,1.46617 1.58693,3.17603 2.21635,3.62268 3.4154,2.42363 0.87115,-0.87115 0.90973,-1.30863 0.25485,-2.88966 -0.66341,-1.6016 -0.57497,-2.40268 0.63014,-5.70781 1.96452,-5.38787 4.85533,-8.98118 7.978,-9.91676 2.35043,-0.7042 2.59937,-1.0089 3.80036,-4.65152 2.57417,-7.80752 3.33774,-12.92542 2.51657,-16.86746 -0.41111,-1.97351 -1.41337,-4.49078 -2.22725,-5.59393 -1.85349,-2.51227 -1.98195,-6.11775 -0.27308,-7.66427 0.86871,-0.78616 2.39534,-1.11988 5.45036,-1.19141 4.11833,-0.0964 4.27016,-0.0449 5.14063,1.74365 0.49334,1.01366 1.25847,4.62279 1.7003,8.02029 1.13647,8.73899 1.77988,9.48893 10.58067,12.33241 2.40787,0.77797 7.39958,2.80654 11.09269,4.50795 4.54792,2.09522 7.13462,2.96021 8.01592,2.6805 2.41111,-0.76526 8.01247,-7.10739 11.47823,-12.99622 4.35863,-7.40595 7.87648,-14.72505 7.87648,-16.38749 0,-3.19392 4.26653,-5.73993 7.96241,-4.7515 1.43927,0.38492 1.83479,0.96634 2.41078,3.54389 0.37897,1.69588 1.27914,4.23553 2.00038,5.64368 1.84042,3.59326 8.17237,11.3979 9.61992,11.85733 1.61157,0.51149 4.38276,-1.63062 12.02346,-9.29412 5.26528,-5.28098 6.54864,-6.25289 8.62436,-6.5313 3.30897,-0.44382 5.51602,1.53003 5.51602,4.93319 0,3.88334 2.35154,9.14413 5.58851,12.50243 1.61558,1.67613 3.50095,3.04751 4.18971,3.04751 4.8439,0 13.1376,-5.10987 18.49363,-11.39424 4.36724,-5.1242 6.03993,-9.40262 6.30385,-16.12423 0.15398,-3.92063 0.40553,-3.81769 -6.1191,-2.504 -3.91188,0.78763 -11.74207,0.45266 -16.12138,-0.68965 -3.31098,-0.86364 -5.71763,-4.36541 -6.72046,-9.77851 -0.96412,-5.20412 -4.24788,-16.5245 -5.02383,-17.31901 -0.31355,-0.32105 -0.71505,-0.43875 -0.89224,-0.26157 -0.17718,0.17719 -1.48238,4.44844 -2.90044,9.49169 -2.95373,10.50479 -2.41058,9.88252 -12.12104,13.88666 -4.55967,1.8802 -6.63849,2.37332 -10.94485,2.59626 -4.60158,0.23824 -5.59483,0.0999 -7.39019,-1.02919 -2.67033,-1.67935 -4.55848,-5.93399 -6.79306,-15.30701 -0.95118,-3.98977 -2.04326,-7.22956 -2.43696,-7.22956 -0.78982,0 -3.34043,9.11486 -4.9878,17.82446 -0.58556,3.09583 -1.484,6.10917 -1.99654,6.69631 -0.83402,0.95541 -15.32468,7.3617 -20.73722,9.16788 -5.46266,1.8229 -11.74353,0.38179 -14.11583,-3.23879 -1.55659,-2.37567 -7.07059,-16.19804 -8.45589,-21.19706 -1.27007,-4.58323 -1.6459,-12.13315 -0.84522,-16.97961 0.42943,-2.59935 2.99676,-4.77472 5.64041,-4.77925 1.91709,-0.003 4.1379,2.99334 3.69595,4.98708 -1.43351,6.46674 -1.21376,8.97309 1.48508,16.93784 3.2849,9.69433 5.94877,15.37757 7.62939,16.27702 1.48547,0.795 6.40784,-0.65736 14.10448,-4.16155 3.73369,-1.69991 4.57642,-2.35797 4.8919,-3.81992 1.43661,-6.65714 4.46698,-18.00091 6.56749,-24.58444 1.36386,-4.27468 2.47974,-8.40211 2.47974,-9.17206 0,-2.14593 2.49976,-4.58892 5.12279,-5.00643 2.11222,-0.33621 2.41602,-0.19046 3.57487,1.71511 1.51815,2.49642 2.97899,7.21999 5.97912,19.33341 1.23531,4.98772 2.87105,10.33506 3.63498,11.88297 1.8391,3.72647 3.79404,3.9479 10.83216,1.22691 5.69784,-2.20282 5.23419,-1.60653 8.00538,-10.29549 2.7924,-8.75547 4.75063,-16.80303 4.75225,-19.52996 10e-4,-2.13302 0.3054,-2.84269 1.57467,-3.67434 1.89586,-1.24222 4.31645,-1.33016 5.67096,-0.20602 1.50321,1.24755 8.09608,15.53394 9.56155,20.71937 0.70992,2.51196 1.86586,6.95465 2.56875,9.87264 1.69645,7.04267 2.20104,7.48584 8.66316,7.60865 4.29994,0.0817 5.46679,-0.114 6.86498,-1.15148 3.90024,-2.89395 4.80829,-11.36 4.61578,-43.03359 -0.10844,-17.85051 0.1017,-26.99095 0.78384,-34.08538 2.74535,-28.5542 2.792,-30.02015 0.95596,-30.02015 -0.69872,0 -1.39438,0.35179 -1.54579,0.78177 -0.15148,0.42998 -0.57163,4.72192 -0.93375,9.53765 -0.36212,4.81574 -1.32402,16.38358 -2.13762,25.70633 -1.51027,17.30602 -1.50852,19.6802 0.0156,20.94493 0.94019,0.78028 1.13701,2.93057 0.3775,4.12498 -0.61603,0.9689 -3.55407,2.07174 -5.51926,2.07174 -0.85314,0 -2.24207,-0.69081 -3.08639,-1.53513 -1.86256,-1.8626 -1.93355,-3.77848 -0.61772,-16.67754 0.50458,-4.9462 1.21375,-13.07396 1.57593,-18.06168 0.36218,-4.98773 0.93944,-11.60154 1.28267,-14.69737 0.66007,-5.95275 0.3371,-9.293 -0.86001,-8.89396 -0.70954,0.23651 -6.14125,16.81536 -7.31942,22.34049 -1.62684,7.62956 -3.07663,17.62219 -3.08512,21.26427 -0.0137,5.86812 0.85418,8.33632 3.7881,10.77341 2.88155,2.39357 2.8257,3.67009 -0.21577,4.92991 -4.68071,1.93881 -8.83804,-0.0273 -10.6103,-5.01799 -1.13532,-3.19701 -0.91493,-15.46221 0.39989,-22.2556 1.42812,-7.37878 4.85824,-21.31306 7.01821,-28.51029 l 1.72026,-5.73211 -2.64529,-2.46752 c -1.45491,-1.35712 -2.9866,-2.35505 -3.40375,-2.21761 -0.45163,0.1488 -0.92118,2.12754 -1.16071,4.89134 -0.73046,8.42578 -1.44466,9.95753 -4.64306,9.95753 -4.05681,0 -5.16572,-1.79692 -7.14736,-11.5819 -0.97399,-4.80933 -2.49173,-10.99575 -3.37275,-13.7476 -1.69536,-5.29537 -5.61126,-12.53357 -7.08713,-13.09992 -4.09973,-1.57322 -21.64471,16.13068 -29.09728,29.36084 l -2.1138,3.75251 -2.90822,-0.0378 c -3.39133,-0.0441 -5.13279,-1.30855 -5.69863,-4.13775 -0.21149,-1.05746 -0.67478,-5.8979 -1.02954,-10.75653 -0.727,-9.95683 -1.63744,-15.48742 -2.81453,-17.09717 -0.75146,-1.02769 -0.93084,-1.03099 -2.97811,-0.0547 -2.86448,1.36598 -12.29579,9.80802 -14.48243,12.96334 -0.94645,1.36573 -2.82893,5.24155 -4.18327,8.61292 -1.90672,4.74637 -2.37822,6.63489 -2.08918,8.36792 0.42593,2.55382 -0.21396,3.33447 -3.26844,3.98734 -1.74704,0.37341 -2.28965,1.02929 -4.22538,5.10744 -4.02667,8.48332 -9.12869,13.95475 -14.72174,15.78772 -3.3018,1.08207 -20.03344,3.83768 -23.30184,3.83768 -2.07712,0 -4.21915,-0.67121 -7.76415,-2.43291 -2.69261,-1.33809 -7.00644,-3.41109 -9.5863,-4.60666 -5.7801,-2.67863 -7.75382,-4.23419 -17.09404,-13.4724 -7.85263,-7.76687 -9.78402,-10.65991 -11.44507,-17.14364 -1.76169,-6.87655 -0.0873,-15.26455 4.59331,-23.01011 3.22915,-5.34372 7.19992,-10.50984 13.8898,-18.07118 4.41416,-4.98916 4.60073,-5.32169 3.75433,-6.69131 -3.40545,-5.51063 -11.19956,-16.5716 -14.19207,-20.14062 -4.29427,-5.12155 -6.45677,-7.04007 -12.69308,-11.26097 -6.23811,-4.22212 -11.98365,-6.88086 -23.72638,-10.97936 -5.3317,-1.86089 -12.93055,-4.64661 -16.88634,-6.19048 -14.75953,-5.76038 -22.86197,-7.96591 -39.40144,-10.72531 -17.69192,-2.95166 -34.86364,-3.27568 -52.89889,-0.99816 -2.77985,0.35105 -8.69007,0.89948 -13.13382,1.21875 -24.25775,1.74282 -29.32955,2.63967 -41.47629,7.33428 -11.6055,4.48542 -30.80812,16.45353 -40.11726,25.00323 -2.93879,2.69904 -7.85292,7.01814 -10.9203,9.598 -8.73518,7.34685 -11.9669,10.48042 -17.73773,17.19904 -2.95455,3.43981 -7.51136,8.50571 -10.12624,11.25756 -14.89581,15.67608 -26.96788,30.79354 -39.20523,49.09545 -14.9795,22.40302 -23.61225,41.79029 -30.77273,69.10889 -4.164361,15.88782 -10.153575,24.37763 -21.610615,30.6334 -9.281455,5.06786 -11.329361,6.41941 -16.378909,10.80956 -13.712728,11.92202 -26.164193,25.89579 -30.201777,33.8942 -3.658371,7.24719 -5.083404,16.36822 -3.514252,22.49322 2.158481,8.42537 12.686787,23.53652 17.904171,25.69763 3.146099,1.30316 18.091468,0.4716 22.700003,-1.26302 6.294,-2.36902 19.432237,-11.6194 25.850502,-18.20086 6.859827,-7.03424 7.508327,-7.82031 13.234567,-16.042 8.2283,-11.8141 13.62345,-17.45188 19.77584,-20.6652 2.91776,-1.5239 3.69664,-1.64317 9.96616,-1.52609 8.25025,0.15406 16.83408,2.23678 22.90016,5.55632 6.95176,3.80421 18.55117,12.28862 26.2657,19.21208 13.95144,12.52084 45.73303,32.46393 66.8836,41.96976 13.86717,6.23241 34.03968,11.9746 48.51452,13.80987 13.1815,1.67129 30.77888,5.10058 44.40481,8.65339 2.19067,0.57119 14.24502,-0.1724 18.13717,-1.11882 z M 474.11581,470.362 c -1.70801,-1.24893 -0.94437,-3.10237 1.83311,-4.44914 2.42856,-1.17758 6.7039,-1.67046 7.50873,-0.86564 0.74255,0.74255 -1.74829,3.69888 -4.14792,4.92308 -2.80736,1.43221 -3.68085,1.49808 -5.19392,0.3917 z m -159.91862,-1.95937 c -0.15445,-0.15445 -3.50826,-0.32552 -7.45292,-0.38016 -3.94467,-0.0547 -9.6278,-0.49862 -12.6292,-0.98661 -8.46784,-1.37678 -26.80937,-5.62847 -32.20515,-7.46538 -12.87176,-4.38197 -22.21469,-10.78374 -31.47067,-21.5637 -8.4088,-9.79328 -11.4515,-15.12255 -15.33664,-26.86197 -2.32047,-7.01155 -2.38114,-7.42812 -2.41431,-16.57362 -0.0328,-9.03385 0.0377,-9.56661 1.90227,-14.38466 5.14955,-13.30638 18.04381,-26.66586 36.69039,-38.01418 6.50129,-3.95669 11.07078,-5.84343 18.31499,-7.56227 11.80964,-2.80207 22.20515,-2.00419 44.0549,3.38129 16.66205,4.10683 21.49714,6.24547 36.4436,16.11962 8.33272,5.50487 13.26779,9.55106 15.53812,12.73943 1.19121,1.67291 1.25699,2.14374 0.60398,4.32328 -0.64827,2.16374 -0.95749,2.44592 -2.68033,2.44592 -1.50236,0 -2.44323,-0.57914 -4.11627,-2.5337 -1.97021,-2.30174 -12.07948,-9.34251 -21.74622,-15.14552 -5.72371,-3.43598 -12.58191,-5.95571 -24.34082,-8.94293 -23.96985,-6.08927 -32.69028,-6.47571 -46.61529,-2.06569 -6.64391,2.10411 -10.24702,4.06955 -19.54221,10.65999 -15.44884,10.95349 -23.2622,21.52527 -25.52359,34.53445 -0.89286,5.13639 -0.52604,9.24498 1.55104,17.37249 2.73029,10.68352 8.73618,20.64824 18.08331,30.00307 8.33586,8.34274 14.80146,11.5493 31.37294,15.55916 21.86839,5.29156 21.96807,5.30307 45.96835,5.30307 l 21.57698,0 5.62878,-2.40309 c 6.6899,-2.85609 8.48996,-3.26666 10.23277,-2.33394 1.12784,0.6036 1.27083,1.14009 1.03898,3.89811 -0.1783,2.12101 -0.71525,3.67335 -1.59421,4.60897 -2.31815,2.46756 -9.76497,5.13498 -16.40165,5.87501 -5.91087,0.65911 -24.37492,0.95056 -24.93192,0.39356 z M 485.70034,455.9416 c -1.21055,-1.45862 -0.0966,-2.78334 3.27224,-3.89152 1.77588,-0.58417 4.01112,-1.71319 4.96719,-2.50893 2.13091,-1.77356 5.74008,-2.55678 6.99243,-1.51743 0.4946,0.41048 1.23241,1.75572 1.63957,2.98942 0.65322,1.9793 0.60182,2.34693 -0.43708,3.12603 -0.78787,0.59085 -2.04613,0.76869 -3.80356,0.5376 -1.862,-0.24485 -3.40893,0.01 -5.31607,0.87544 -3.15664,1.43262 -6.30962,1.60046 -7.31472,0.38939 z m -18.04661,-5.42066 c -2.12053,-0.84356 -1.71595,-2.22294 1.54204,-5.25741 5.43888,-5.06572 12.16355,-8.12762 14.54583,-6.62304 0.73077,0.46154 -0.16049,1.59176 -4.30725,5.46209 -6.75001,6.30006 -8.99852,7.5251 -11.78062,6.41836 z m 36.78675,-124.74905 c 3.97962,-0.7675 7.81905,-1.70767 8.53207,-2.08927 2.08043,-1.11341 4.4667,-4.31988 7.07389,-9.50533 1.33665,-2.65847 3.691,-6.63706 5.23187,-8.84131 3.39166,-4.85179 4.99613,-8.78032 5.95654,-14.58448 0.84127,-5.08409 0.42616,-7.88796 -2.39027,-16.1451 -2.24699,-6.58768 -3.40795,-8.56116 -8.90826,-15.14296 -7.3192,-8.75834 -10.81598,-10.85235 -18.20236,-10.90033 -7.01095,-0.0455 -21.43289,3.90273 -23.51268,6.43702 -0.32853,0.40032 -0.69466,1.42858 -0.81362,2.28502 -0.13584,0.97806 -0.68147,1.63073 -1.46712,1.75498 -3.1307,0.49514 -4.88141,1.87063 -9.45329,7.4273 -11.28712,13.71833 -14.28114,20.5261 -12.7473,28.98473 1.17554,6.48272 2.73523,9.14949 9.19894,15.72845 3.3106,3.36964 7.09528,6.87228 8.41041,7.78367 2.07461,1.43771 2.52811,1.54282 3.42589,0.79408 3.28081,-2.73617 6.52311,-2.38784 8.67707,0.9322 0.88659,1.36655 1.90752,2.04396 3.46106,2.29648 2.82655,0.45944 3.72459,1.03499 3.72459,2.38709 0,1.89281 1.29705,2.59586 4.02308,2.18066 1.39911,-0.2131 5.79988,-1.0154 9.77949,-1.7829 z m -13.90193,-27.75664 c -4.88493,-3.09793 -5.6881,-4.29189 -5.30701,-7.88917 0.50395,-4.75701 2.10404,-9.73593 3.67921,-11.44838 2.04051,-2.21836 5.97218,-3.84483 9.33239,-3.86067 2.46441,-0.0116 3.40112,0.37085 6.0646,2.47621 1.73252,1.36948 3.90465,3.77762 4.82698,5.35145 2.00968,3.42926 1.83275,6.50671 -0.67937,11.8169 -1.94717,4.11598 -4.45796,5.3585 -10.82804,5.3585 -3.60254,0 -4.67232,-0.27237 -7.08876,-1.80484 z M 81.738439,330.34057 c -1.141916,-1.14191 -0.930443,-1.81858 1.282111,-4.10257 1.940315,-2.00295 2.0297,-2.30984 1.968377,-6.75835 -0.04935,-3.58081 -0.330259,-4.95408 -1.212857,-5.92934 -1.528151,-1.68859 -3.253034,-1.3 -11.669258,2.62889 -7.018459,3.27638 -9.438449,3.62788 -9.754482,1.41684 -0.264948,-1.85364 3.191512,-13.41277 4.95471,-16.56959 0.816865,-1.46251 2.262234,-3.2338 3.21193,-3.9362 1.630746,-1.2061 1.786306,-1.2175 2.798798,-0.20501 1.012492,1.01249 1.01001,1.1673 -0.04466,2.78524 -2.099659,3.22098 -4.298219,8.36256 -4.628363,10.82396 -0.400927,2.98914 0.145605,3.09476 4.918952,0.95061 1.847465,-0.82987 4.987779,-1.86203 6.978472,-2.2937 3.339673,-0.72419 3.750592,-0.6878 5.316068,0.47061 2.620966,1.93946 3.477822,4.34699 3.523071,9.89885 0.0329,4.03874 -0.230042,5.51178 -1.36394,7.64048 -1.910908,3.58741 -4.53971,4.91848 -6.278909,3.17928 z m 14.782673,-18.48115 c -1.141003,-0.94595 -2.744036,-2.50397 -3.562291,-3.46228 -0.818262,-0.9583 -2.293771,-2.15918 -3.27892,-2.66861 -0.985149,-0.50944 -2.260717,-1.83425 -2.834596,-2.94402 -0.573885,-1.10976 -2.548717,-3.90436 -4.388527,-6.21022 -1.839804,-2.30585 -3.345102,-4.71891 -3.345102,-5.36234 0,-1.92934 7.284771,-11.15825 9.719737,-12.31372 1.197397,-0.5682 2.455417,-0.86108 2.795583,-0.65085 0.961608,0.59431 0.728951,2.56529 -0.414866,3.51457 -2.135684,1.77246 -5.846256,7.43065 -5.846256,8.91486 0,1.6592 2.770591,5.40793 3.964468,5.3641 0.399399,-0.0146 2.076124,-1.99674 3.726057,-4.40462 3.391014,-4.94879 5.523951,-6.38824 7.112311,-4.79987 0.91291,0.91291 0.75164,1.36706 -1.904009,5.36172 -2.759121,4.15031 -4.768369,8.12534 -4.768369,9.43359 0,1.13884 4.215323,5.06798 5.437112,5.06798 0.840739,0 2.141216,-1.44763 4.151856,-4.6216 1.61021,-2.54188 4.09917,-5.67998 5.53102,-6.97356 l 2.60335,-2.35198 1.13597,1.40287 c 1.31418,1.62294 1.0839,2.25693 -2.2838,6.28782 -1.23247,1.47517 -3.39406,4.62325 -4.80353,6.99574 -2.48513,4.18309 -4.37266,6.14032 -5.921664,6.14032 -0.41304,0 -1.684531,-0.77395 -2.825534,-1.7199 z m -57.736795,0.26466 c -1.194764,-0.89488 -1.200659,-1.00735 -0.166474,-3.17605 0.829459,-1.7394 1.444595,-2.24832 2.717535,-2.24832 2.299113,0 7.474474,-2.94956 8.280904,-4.71948 0.492652,-1.08125 0.454357,-2.30966 -0.143901,-4.616 -1.60046,-6.16994 -5.671919,-10.05254 -10.541514,-10.05254 -2.810342,0 -3.907452,1.28894 -5.636824,6.62238 -1.990014,6.13727 -2.777988,6.07176 -8.967967,-0.74562 -2.718095,-2.9936 -6.560265,-7.06951 -8.538155,-9.05759 -1.97789,-1.98808 -3.596164,-4.05226 -3.596164,-4.58708 0,-1.41542 7.879784,-14.46613 10.456328,-17.31806 2.488322,-2.75427 3.57188,-3.0163 4.591888,-1.11039 0.597886,1.11716 0.408698,1.72309 -1.220457,3.90887 -3.087337,4.14217 -8.19898,12.75777 -8.19898,13.81926 0,1.34459 9.949318,12.33004 10.730071,11.84751 0.347053,-0.21449 1.13667,-1.55509 1.754706,-2.97912 1.686113,-3.88499 3.862739,-5.61377 7.0545,-5.60303 11.180469,0.0377 21.628924,15.88473 16.042234,24.33113 -2.964849,4.4825 -11.691517,7.87587 -14.61773,5.68413 z m 78.153503,-21.53851 c -0.35045,-0.25272 -2.54172,-2.76438 -4.8695,-5.58147 -2.32777,-2.81708 -6.19227,-6.93659 -8.58776,-9.15445 -4.176255,-3.86657 -4.969487,-5.36368 -3.810503,-7.19176 0.303866,-0.47929 0.179427,-1.79917 -0.294835,-3.1271 -1.118432,-3.13161 -1.07621,-7.28788 0.0971,-9.5568 0.534938,-1.03447 2.278678,-2.70913 3.874958,-3.72146 3.14537,-1.99474 6.15394,-2.33895 10.32324,-1.18109 3.05594,0.84867 4.4407,3.72986 4.49244,9.3472 l 0.0375,4.06523 6.5669,0.39752 c 7.33175,0.44381 9.5917,1.09821 10.65517,3.08532 0.57374,1.07204 0.53709,1.54114 -0.17613,2.25437 -0.75748,0.75747 -1.578,0.78268 -5.16195,0.15856 -7.74116,-1.34807 -17.79255,-0.0358 -19.37829,2.53002 -0.55257,0.89407 0.61791,2.82364 5.11021,8.42439 3.99889,4.9856 5.01732,7.0449 4.34742,8.79063 -0.37914,0.98804 -2.14507,1.24033 -3.22593,0.46089 z m -6.44455,-23.75638 c 1.92217,-2.07209 3.0165,-5.11787 3.0165,-8.39561 0,-2.06834 -0.25226,-2.51997 -1.71991,-3.07928 -2.23462,-0.85161 -5.04519,-0.26464 -6.84955,1.43046 -1.9838,1.86369 -1.92229,5.51073 0.15265,9.05135 1.85777,3.17004 3.1589,3.40931 5.40031,0.99308 z m -55.939036,14.79865 c -6.717696,-1.58266 -12.977698,-7.16261 -15.725199,-14.01687 -3.424605,-8.54346 -2.538203,-15.51665 2.299366,-18.08881 1.852507,-0.98499 2.31877,-0.99657 5.573316,-0.13839 4.408298,1.16241 5.42703,1.69045 10.610936,5.50007 4.971791,3.65372 11.722304,12.13651 12.534402,15.7509 0.733675,3.26535 -0.258667,6.1162 -2.952155,8.48111 -3.314932,2.91056 -7.24952,3.71146 -12.340666,2.51199 z m 6.558184,-5.6015 c 3.077435,-0.85468 4.294283,-2.60565 3.568795,-5.13528 -1.253892,-4.37208 -6.69417,-10.62165 -12.550955,-14.41804 -6.498148,-4.21212 -8.789277,-3.45597 -9.536359,3.14737 -0.896754,7.92625 3.84126,14.53348 11.813695,16.47435 2.743551,0.66792 4.103553,0.65404 6.704824,-0.0684 z m 12.879115,-16.18691 c -4.574181,-1.78855 -7.079959,-3.57403 -10.827113,-7.71476 -8.495761,-9.38812 -9.134672,-18.31151 -1.528986,-21.35471 3.609269,-1.44414 5.876696,-0.66389 13.87318,4.77396 15.30922,10.41073 16.807894,12.81851 12.870383,20.67767 -2.340634,4.67185 -8.03186,6.10295 -14.387464,3.61784 z m 9.498082,-5.67499 c 0.754938,-0.75494 1.250839,-2.08473 1.250839,-3.35422 0,-2.66629 -3.371269,-5.90818 -12.055254,-11.59264 -5.437829,-3.55955 -6.281136,-3.92574 -7.627663,-3.31223 -1.733785,0.78997 -3.212463,4.80147 -2.617582,7.10123 0.20826,0.80512 1.63077,3.04937 3.161132,4.98723 4.943829,6.26022 14.501892,9.55727 17.888528,6.17063 z m 55.975075,-3.94872 c -4.17925,-3.65382 -7.81666,-5.88053 -12.43342,-7.61135 -4.2575,-1.59614 -5.2246,-3.24496 -2.87044,-4.89387 1.51688,-1.06247 3.17835,-0.75379 7.32264,1.36047 4.93475,2.51752 5.06991,1.54811 0.97506,-6.99322 -2.30407,-4.80598 -2.79884,-6.36724 -2.27927,-7.19232 1.718,-2.72823 4.36855,-0.4194 7.04702,6.13848 0.77272,1.89189 3.1264,7.04804 5.23041,11.45811 3.00108,6.29039 3.68362,8.24463 3.16724,9.06859 -1.17234,1.87066 -2.92793,1.49017 -6.15924,-1.33489 z m 15.98189,-11.53042 c -1.60309,-1.63391 -3.4626,-3.6925 -4.13223,-4.57464 -0.66964,-0.88215 -1.96469,-2.09308 -2.87789,-2.69095 -0.9132,-0.59789 -1.82855,-1.75716 -2.03411,-2.57616 -0.43614,-1.73773 -3.09355,-3.78282 -6.40526,-4.92936 -3.4589,-1.19751 -3.72224,-2.06984 -1.83078,-6.06467 2.89625,-6.11697 7.42483,-10.31635 12.35434,-11.45627 1.91661,-0.4432 3.6414,0.87198 3.6414,2.77663 0,0.89601 -0.70433,1.37452 -2.79978,1.90216 -2.00384,0.50457 -3.527,1.49392 -5.35777,3.48008 -1.40689,1.52629 -2.46886,3.01029 -2.35993,3.29777 0.32747,0.86421 6.08895,5.04356 6.95287,5.04356 0.44137,0 2.0526,-1.27377 3.58052,-2.83059 3.67896,-3.74859 7.23089,-6.1582 8.41041,-5.70558 1.19378,0.45809 1.25871,3.28244 0.0858,3.73253 -1.25333,0.48094 -8.51211,9.05573 -8.51211,10.05534 0,0.46289 1.13214,2.07394 2.51588,3.5801 l 2.51587,2.73847 1.38906,-1.87626 c 2.10131,-2.83834 7.37505,-7.81775 8.27985,-7.81775 0.43958,0 0.98252,0.73026 1.20653,1.6228 0.31828,1.26814 -0.0521,2.19077 -1.69484,4.22159 -1.15617,1.42933 -3.01918,4.21872 -4.14002,6.19863 -3.26892,5.77442 -4.6672,6.07237 -8.7878,1.87257 z m 359.89541,-9.97177 c -1.95605,-0.48901 -2.06604,-0.74162 -3.45339,-7.93072 -0.71998,-3.73086 -2.01543,-9.35561 -2.87877,-12.49944 -0.86335,-3.14383 -1.76571,-6.69537 -2.00526,-7.8923 -0.40716,-2.03446 -0.65785,-2.2256 -3.84804,-2.93404 -1.87687,-0.41678 -6.6575,-0.93682 -10.6236,-1.15562 -9.92959,-0.5478 -13.85175,-1.30169 -20.0322,-3.85045 -12.17428,-5.02056 -21.34062,-12.00222 -24.4898,-18.65296 -0.97726,-2.06389 -1.77707,-4.29066 -1.77734,-4.94839 -2.6e-4,-0.65773 -0.40674,-2.6278 -0.90326,-4.37794 -4.78305,-16.8591 -1.63343,-37.14971 8.93904,-57.5874 5.59131,-10.808588 15.07846,-18.378699 38.2448,-30.516793 18.73031,-9.813822 34.4238,-14.207033 50.74977,-14.206806 10.44141,1.45e-4 20.08761,1.950226 37.43442,7.567766 20.41271,6.610393 29.82794,13.679115 41.44345,31.114723 2.65542,3.98595 3.58682,9.10374 3.58592,19.70368 -6.3e-4,11.05408 -0.69326,16.15328 -3.7637,27.7211 -3.8153,14.37406 -5.77968,18.73528 -12.34438,27.40632 -4.24499,5.60704 -5.50839,6.86107 -11.63764,11.55124 -7.67817,5.87544 -17.03541,9.73331 -27.29037,11.25146 -2.57986,0.38192 -7.08288,1.26178 -10.00672,1.95523 -7.85995,1.86416 -12.29558,2.13575 -15.63549,0.95734 -6.58386,-2.32295 -7.72517,-1.25372 -17.82331,16.69774 -2.67322,4.75218 -5.45571,9.02507 -6.1833,9.49529 -1.64559,1.06351 -4.05707,1.54192 -5.70083,1.13097 z m 9.06859,-21.58615 c 4.77507,-7.91981 9.79586,-12.74319 13.96979,-13.42052 1.16137,-0.18847 4.56143,0.14346 7.55569,0.73762 5.43189,1.07786 5.46116,1.07673 13.06722,-0.50446 4.19272,-0.87161 9.87464,-2.02965 12.62649,-2.5734 3.39777,-0.67141 7.3114,-2.12888 12.19569,-4.5418 6.49071,-3.20652 7.77221,-4.13724 13.13675,-9.54082 8.60191,-8.6645 11.92415,-14.71371 15.84394,-28.84892 3.85345,-13.89593 3.85424,-13.90154 3.84742,-27.17235 -0.006,-12.18098 -0.0505,-12.61165 -1.69074,-16.45334 -4.61986,-10.8204 -16.69809,-22.537307 -28.66286,-27.8054 -5.19493,-2.287332 -23.20744,-7.775145 -30.21819,-9.206479 -15.94936,-3.256269 -34.44457,0.355585 -54.43463,10.630319 -15.76447,8.10282 -26.74487,15.07549 -31.97615,20.3052 -6.48291,6.48095 -14.37039,24.15405 -16.47484,36.91436 -1.12954,6.84897 -1.41938,13.08948 -0.7843,16.88684 2.01905,12.07266 2.66676,14.6377 4.77165,18.89666 2.43916,4.93531 5.11025,7.58729 11.65249,11.56917 2.09868,1.27734 5.11863,2.77815 6.711,3.33512 1.59237,0.55698 4.06268,1.53473 5.48957,2.17279 3.39002,1.51589 8.32899,2.32941 16.79366,2.76614 10.29498,0.53116 14.69737,1.67066 14.69737,3.80422 0,0.50714 0.54158,1.46365 1.2035,2.12557 1.7552,1.7552 2.21939,2.87473 3.77972,9.11593 0.77397,3.09583 1.53389,5.83985 1.68872,6.09784 0.75614,1.25997 2.05945,-0.0632 5.21104,-5.29029 z m 0.64849,-28.8143 c -4.2528,-1.72762 -6.27727,-4.43029 -6.27727,-8.38018 0,-5.37154 3.1262,-9.48476 8.2593,-10.86697 2.45619,-0.66138 2.8404,-0.5552 8.41795,2.32627 5.39827,2.78885 5.96944,3.2666 7.48386,6.25981 1.96575,3.88523 1.70031,5.73915 -1.24315,8.68261 -3.60689,3.60689 -10.58867,4.43697 -16.64069,1.97846 z m 8.1485,-5.47521 c 0.66534,-0.35609 1.20972,-1.05397 1.20972,-1.55084 0,-1.2433 -4.9546,-3.72944 -5.78248,-2.90157 -0.97846,0.97847 0.0346,3.84018 1.57961,4.46184 1.81499,0.73033 1.60969,0.73097 2.99315,-0.009 z M 524.519,147.66102 c -1.03014,-1.24126 -4.46504,-11.91282 -5.44639,-16.92088 -0.48218,-2.46073 -1.31925,-6.5516 -1.86014,-9.09085 -1.32076,-6.20033 -7.11338,-26.230096 -8.19682,-28.343033 -0.4763,-0.928865 -0.86599,-2.245273 -0.86599,-2.925351 0,-1.734798 2.91064,-3.82897 5.32178,-3.82897 1.1143,0 3.25749,-0.442138 4.76266,-0.982529 5.15895,-1.852186 12.12626,-2.839866 21.81197,-3.092048 8.37994,-0.218186 10.32985,-0.07715 14.38466,1.040403 2.57985,0.711041 5.04244,1.578352 5.47242,1.927357 1.19065,0.966438 0.9344,4.609991 -0.52548,7.471596 -0.71899,1.409336 -2.84545,6.956544 -4.72548,12.327125 -1.88002,5.37058 -4.83283,12.57909 -6.56179,16.01889 -4.50654,8.96585 -14.28079,25.24616 -15.79302,26.30536 -1.6,1.12069 -6.87313,1.18368 -7.77838,0.0929 z m 10.41843,-19.74516 c 4.12788,-6.97856 7.3239,-13.81678 9.97871,-21.35049 1.39398,-3.95578 3.27435,-9.134692 4.17859,-11.508694 0.92696,-2.433632 1.40775,-4.552703 1.10225,-4.858194 -2.43501,-2.435012 -20.68238,-1.741892 -27.55867,1.046807 -4.40663,1.787121 -4.73249,3.128947 -2.09778,8.63797 1.01737,2.127251 2.89028,8.370741 4.16202,13.874441 3.97759,17.21365 4.20168,18.10897 4.82652,19.28354 0.57443,1.07982 0.67785,1.08482 1.78129,0.0862 0.6443,-0.58308 2.27648,-2.9283 3.62707,-5.2116 z m -354.89211,91.99727 c -0.38339,-0.25272 -1.72755,-2.81167 -2.98704,-5.68655 -2.6411,-6.02857 -4.96935,-9.60249 -8.8706,-13.61659 -1.52244,-1.56647 -2.76807,-3.23797 -2.76807,-3.71444 0,-1.24006 2.67164,-2.81967 4.43902,-2.62456 1.47958,0.16333 1.49915,0.0975 1.28429,-4.3204 -0.21663,-4.45438 -0.20462,-4.49328 1.68885,-5.47242 4.24682,-2.19613 13.59436,-0.13022 15.42456,3.40898 1.2396,2.39711 1.17191,3.54221 -0.32161,5.44091 -1.74276,2.21556 -1.58816,2.92721 1.09449,5.03824 3.27852,2.57994 7.33817,4.56936 11.68284,5.72516 3.2271,0.8585 3.77245,1.22485 4.19934,2.82105 0.94324,3.52693 -0.77707,4.12456 -7.19239,2.49859 -4.61186,-1.16889 -9.95537,-4.2774 -15.2567,-8.87537 -4.66574,-4.04671 -5.02491,-5.62956 -1.71991,-7.57956 1.20394,-0.71034 2.18897,-1.57255 2.18897,-1.91603 0,-0.90637 -1.86785,-1.76572 -4.37975,-2.01501 -1.98005,-0.19651 -2.20575,-0.0557 -2.38358,1.48759 -0.24667,2.14069 0.97852,7.05001 4.67927,18.74988 2.41743,7.64264 2.77357,9.36024 2.10728,10.16307 -0.87058,1.04898 -1.81686,1.20754 -2.90926,0.48746 z m -64.25713,-5.5599 c -2.11001,-2.35448 -7.62666,-8.15326 -12.25922,-12.88617 l -8.42282,-8.60528 1.282486,-1.28248 c 0.946197,-0.94621 1.718491,-1.17307 2.945252,-0.86517 2.138462,0.53672 22.535872,22.88109 22.812882,24.9904 0.13161,1.00215 -0.24214,1.70934 -1.16417,2.2028 -1.2348,0.66084 -1.70608,0.33839 -5.19441,-3.5541 z m 8.8994,-12.52646 c -3.82704,-3.55616 -16.18118,-17.48312 -16.18118,-18.24121 0,-0.78932 1.98806,-2.43092 3.7597,-3.10449 2.02097,-0.76838 9.19284,1.00184 15.1115,3.72992 2.3569,1.08637 4.46053,1.79996 4.67473,1.58576 0.65656,-0.65655 -1.44,-3.3136 -7.93763,-10.05967 -3.42485,-3.5558 -6.21806,-6.85394 -6.20712,-7.32919 0.0109,-0.47525 0.42251,-1.39592 0.9146,-2.04593 0.83871,-1.10787 0.99211,-1.118 2.4512,-0.16197 1.41714,0.92854 11.92009,12.552 19.28525,21.34268 3.48164,4.1555 4.21396,6.23224 2.72332,7.72289 -0.96378,0.96378 -1.28363,0.94387 -4.61538,-0.28728 -1.96891,-0.72754 -6.39422,-2.61773 -9.83403,-4.20042 -12.33098,-5.6736 -13.33557,-4.5078 -4.02317,4.66885 4.8067,4.73664 6.24931,6.53478 6.09784,7.60066 -0.36002,2.53344 -2.66684,2.08073 -6.21963,-1.2206 z m 32.77635,-21.15966 c -0.7449,-0.52175 -2.80572,-3.35143 -4.5796,-6.28818 -1.77387,-2.93674 -4.16364,-6.56892 -5.31058,-8.07149 -1.14694,-1.50258 -2.50592,-3.52772 -3.01994,-4.50032 -1.45118,-2.74578 -4.60461,-5.86582 -5.51882,-5.46038 -0.45163,0.20029 -1.96292,1.81653 -3.35841,3.59164 -2.82656,3.59548 -5.42251,4.42705 -5.7886,1.85428 -0.18799,-1.32114 5.4227,-9.99189 11.11939,-17.18387 3.32197,-4.19394 9.06014,-9.27411 10.47531,-9.27411 1.7922,0 4.13152,2.67562 3.17532,3.63181 -0.41037,0.41037 -1.13289,0.74613 -1.6056,0.74613 -1.23849,0 -7.86731,6.49455 -9.25067,9.06328 l -1.17319,2.17848 2.76988,2.82229 c 1.52342,1.55226 2.99899,2.82228 3.27903,2.82228 0.28006,0 1.69901,-1.0858 3.15324,-2.4129 3.07999,-2.81072 5.2334,-4.05421 6.0968,-3.5206 1.44066,0.89038 0.37915,2.93805 -3.11961,6.01779 -2.05265,1.80681 -3.87941,3.66904 -4.05948,4.13827 -0.58271,1.51852 3.81915,9.16055 7.90356,13.72129 2.68953,3.00321 3.63921,5.66833 2.318,6.50508 -1.23102,0.77961 -1.96282,0.70014 -3.50603,-0.38077 z m 78.51866,-0.32605 c -0.57616,-0.33617 -1.3857,-1.66445 -1.79897,-2.95172 -0.41327,-1.28728 -1.10097,-2.76266 -1.52823,-3.27863 -0.42725,-0.51597 -0.91905,-2.06389 -1.0929,-3.43981 -0.17384,-1.37592 -1.05516,-4.03191 -1.9585,-5.90218 -0.90332,-1.87028 -1.64241,-3.88244 -1.64241,-4.47148 0,-0.62133 2.88607,-3.31883 6.87398,-6.42484 8.61882,-6.71284 9.01886,-6.93348 10.28163,-5.6707 1.73895,1.73895 1.05676,3.0102 -3.56034,6.63471 -8.1365,6.3873 -8.32542,6.70737 -6.10684,10.34603 l 1.22956,2.01658 6.58806,-3.20308 c 4.24841,-2.06555 7.69277,-3.30924 9.6987,-3.50198 2.92475,-0.28103 3.14913,-0.19765 3.75478,1.39534 0.83704,2.20159 0.52969,2.5971 -2.37969,3.06234 -4.62091,0.73891 -15.7477,6.58259 -15.7477,8.27053 0,1.76583 1.95354,1.66007 7.06353,-0.3824 5.93877,-2.37373 11.03911,-3.09223 12.18128,-1.71599 0.41019,0.49424 0.82129,1.5757 0.91356,2.40323 0.15482,1.38849 -0.0977,1.53411 -3.27204,1.88682 -1.89189,0.21022 -5.40988,1.24251 -7.81775,2.29397 -4.1936,1.83125 -8.68034,3.29296 -10.00671,3.26002 -0.34398,-0.009 -1.09683,-0.29059 -1.673,-0.62676 z m 38.00234,-7.01213 c -1.48177,-2.28641 -5.52699,-19.74742 -5.84792,-25.24231 -0.27891,-4.77529 -0.21049,-5.1326 1.16758,-6.09784 0.80512,-0.56392 1.90864,-1.02532 2.45226,-1.02532 1.55109,0 10.80155,4.68721 12.07645,6.11913 1.64257,1.84488 2.02615,5.75668 0.79747,8.13268 -0.55376,1.07084 -1.00683,2.21347 -1.00683,2.53916 0,0.32569 2.6902,2.3349 5.97822,4.46489 6.13554,3.97463 7.91852,6.15331 6.46704,7.90224 -0.39349,0.47413 -1.48037,0.86205 -2.41529,0.86205 -1.76207,0 -9.98067,-4.62402 -14.30259,-8.04704 -2.56798,-2.03388 -3.85784,-2.45717 -3.85784,-1.26604 0,0.3815 0.61409,3.035 1.36463,5.89666 1.1335,4.32178 1.22646,5.3695 0.54884,6.18598 -1.1411,1.37495 -2.35341,1.22465 -3.42202,-0.42424 z m 4.34303,-19.51245 c 1.19288,-0.49842 2.16888,-1.1584 2.16888,-1.46662 0,-1.35299 -5.79296,-4.86566 -6.89798,-4.18272 -0.80185,0.49557 -0.77676,3.81902 0.0403,5.34583 0.77396,1.44616 1.79569,1.5123 4.68873,0.30351 z m 132.02086,19.96954 c -1.4506,-1.4506 -1.27897,-2.03275 1.01712,-3.44999 3.00144,-1.85261 4.79786,-2.17128 5.91915,-1.04999 1.20625,1.20625 0.6294,3.98818 -0.91725,4.42358 -3.65918,1.03011 -5.04769,1.04773 -6.01902,0.0764 z m -105.73618,-2.1169 c -0.19216,-0.31093 -1.08005,-4.18072 -1.97307,-8.59952 -0.89302,-4.41881 -1.88404,-9.15995 -2.20226,-10.53588 -1.55782,-6.73576 -1.52732,-7.02833 0.88089,-8.44921 1.21914,-0.71931 2.62244,-1.92689 3.11844,-2.68351 0.496,-0.75662 1.94901,-1.75391 3.22892,-2.2162 2.19576,-0.7931 2.49194,-0.73912 5.2473,0.95635 5.70658,3.51144 8.5758,10.32208 6.00285,14.2489 -1.32143,2.01675 -0.74234,2.96761 5.06778,8.32128 4.23889,3.90587 4.68963,4.53922 4.30918,6.05502 -0.97617,3.88937 -4.3765,2.5078 -11.75881,-4.77769 -5.23559,-5.16691 -7.49038,-6.75009 -8.36623,-5.87424 -0.20836,0.20836 -0.0638,3.07076 0.32119,6.36089 0.38501,3.29013 0.54658,6.3819 0.35905,6.87059 -0.37429,0.9754 -3.67641,1.2274 -4.23523,0.32322 z m 8.8751,-20.46143 c 1.52509,-0.38676 0.74911,-2.67504 -1.54969,-4.56992 -1.28231,-1.05699 -2.69648,-1.92179 -3.14258,-1.92179 -1.24175,0 -2.04297,2.78088 -1.42353,4.94074 0.85138,2.96859 1.08661,3.14046 3.30411,2.41413 1.11646,-0.36569 2.38171,-0.75412 2.81169,-0.86316 z m -139.0724,19.9227 c -0.38404,-0.25272 -1.97916,-2.28884 -3.54471,-4.52472 -2.73719,-3.90919 -2.94755,-4.06523 -5.48022,-4.06523 -3.50845,0 -4.59084,-1.49763 -2.60792,-3.60836 0.76245,-0.81159 1.38627,-1.98354 1.38627,-2.60433 0,-1.3486 -3.74804,-7.75909 -6.66778,-11.40432 -1.14845,-1.43381 -2.0881,-3.00748 -2.0881,-3.49703 0,-1.2163 7.04613,-7.87678 11.25756,-10.6414 4.69938,-3.08496 6.46067,-3.45222 7.74719,-1.61545 1.33243,1.90231 1.28987,4.23288 -0.0858,4.69887 -5.94706,2.01449 -12.05954,6.21245 -12.01877,8.25431 0.0322,1.61232 5.23778,10.38275 6.28191,10.58383 0.51479,0.0991 3.45659,-1.79891 6.53736,-4.21788 3.08077,-2.41896 6.08595,-4.39812 6.6782,-4.39812 1.20399,0 2.63659,2.19246 2.05135,3.1394 -0.20799,0.33653 -2.7496,2.5926 -5.64804,5.01349 -6.79386,5.67451 -7.10398,6.25619 -5.01695,9.40991 0.89197,1.34785 1.88556,2.45063 2.208,2.45063 0.32243,0 1.8529,-1.95804 3.40103,-4.35121 2.81246,-4.34763 7.14145,-7.94821 8.7938,-7.31415 0.4397,0.16873 0.98955,1.06419 1.22189,1.98991 0.35561,1.41685 0.0361,2.04323 -2.01942,3.95938 -1.34303,1.25194 -4.02353,4.73885 -5.95669,7.74869 -3.39602,5.28746 -4.583,6.20929 -6.43016,4.99378 z m 164.66045,-3.96967 c -1.82061,-0.96052 -2.7978,-2.1232 -4.05049,-4.81936 -1.41674,-3.04924 -1.68417,-4.58091 -1.8848,-10.79474 -0.29097,-9.01196 0.11533,-9.68592 5.48106,-9.09181 5.3453,0.59185 11.15837,3.78623 13.6422,7.49663 2.47273,3.6938 2.60688,6.34507 0.54206,10.71274 -2.27585,4.81407 -6.1803,7.86664 -9.96407,7.79011 -0.75156,-0.0152 -2.44625,-0.59731 -3.76596,-1.29357 z m 8.79975,-7.81128 c 0.7683,-1.34078 1.40153,-3.03306 1.40719,-3.76063 0.0224,-2.88041 -5.35666,-7.12031 -9.03338,-7.12031 -1.54422,0 -1.58844,0.11759 -1.5875,4.22158 0.002,9.09707 5.52813,13.09111 9.21369,6.65936 z m 37.93546,6.23758 c -1.33793,-0.90423 -3.69907,-2.69577 -5.24699,-3.98118 -1.54791,-1.28541 -4.08086,-2.97562 -5.62878,-3.75602 -4.36182,-2.19905 -4.89416,-3.75547 -1.82699,-5.34157 2.26033,-1.16886 3.70325,-4.20323 3.70325,-7.78766 0,-2.1481 -0.24605,-2.6308 -1.60426,-3.14719 -4.39922,-1.67258 -6.19351,-0.0801 -7.32005,6.49655 -0.57297,3.34499 -0.51013,4.89506 0.36322,8.95922 0.58083,2.70294 1.05605,5.39062 1.05605,5.97262 0,1.52233 -2.19832,2.5594 -3.71016,1.75029 -1.49773,-0.80156 -1.62107,-1.19893 -3.06921,-9.88832 l -1.17514,-7.05127 1.36489,-3.89358 c 2.0161,-5.75127 2.46871,-6.36175 6.14286,-8.28541 l 3.35862,-1.75846 3.55898,1.47511 c 1.95744,0.81132 4.00923,1.97263 4.55952,2.5807 1.41384,1.56227 1.76477,6.01615 0.85426,10.84168 l -0.77859,4.12636 5.07913,4.71861 c 3.94793,3.66771 5.07912,5.09655 5.07912,6.41559 0,1.58301 -0.96661,3.198 -1.91407,3.198 -0.22718,0 -1.50773,-0.73983 -2.84566,-1.64407 z m 19.55403,-10.1318 c -1.30235,-1.43907 -1.31874,-4.79354 -0.0751,-15.3573 0.7117,-6.04512 0.78839,-8.92486 0.30703,-11.52878 -0.91581,-4.9541 -0.83461,-5.45415 1.0232,-6.30062 1.37543,-0.62669 1.83106,-0.59233 2.62108,0.19769 1.34625,1.34626 1.70326,10.82986 0.73479,19.51931 -0.60494,5.42782 -0.61099,7.42779 -0.0274,9.06859 1.51788,4.26764 -1.81144,7.46438 -4.58365,4.40111 z M 201.22489,152.3302 c -1.05942,-1.10508 -2.09931,-2.54195 -12.52636,-17.30823 -2.67188,-3.78379 -5.5226,-7.77398 -6.33494,-8.86708 -0.81232,-1.09311 -1.32305,-2.38856 -1.13493,-2.87878 0.32134,-0.8374 4.18471,-3.08344 11.39671,-6.62568 4.2494,-2.08714 8.68612,-2.4946 10.3884,-0.95406 3.18407,2.88155 3.94089,8.59233 2.03765,15.37546 -0.60882,2.1698 -0.80701,3.92383 -0.47848,4.23461 0.30845,0.2918 3.65665,1.93214 7.44044,3.6452 6.99195,3.16552 9.1043,5.01562 8.25464,7.22981 -0.65584,1.70908 -3.28947,1.21231 -10.66412,-2.01151 -10.86027,-4.74756 -12.34911,-4.6466 -7.97503,0.5408 3.0568,3.62519 3.83906,5.46164 3.1325,7.35392 -0.63578,1.70274 -2.0564,1.80941 -3.53648,0.26554 z m -2.45757,-19.37317 c 0.56087,-0.61975 1.50476,-2.97599 2.09754,-5.23609 1.01978,-3.88813 1.01982,-4.19771 6.2e-4,-5.7528 -0.64956,-0.99177 -1.65134,-1.64353 -2.52586,-1.64353 -1.86807,0 -9.14527,3.6273 -9.58709,4.77867 -0.34208,0.89144 2.02571,4.99053 4.37466,7.57337 1.5445,1.69829 4.23587,1.83208 5.64013,0.28038 z m 33.00908,14.02298 c -2.05557,-2.47681 -10.68784,-32.17407 -11.96043,-41.14698 -0.54884,-3.8698 -0.49406,-4.61364 0.41362,-5.61662 1.46884,-1.623041 2.45938,-1.458484 5.77195,0.9589 1.594,1.16323 5.39938,3.80675 8.45639,5.87447 6.16838,4.1722 13.61714,11.22895 17.90216,16.95999 1.54399,2.06504 3.19628,3.91547 3.67173,4.11206 0.97654,0.40378 0.8451,-1.32391 -0.75972,-9.98619 -0.50982,-2.75185 -1.12785,-7.57852 -1.3734,-10.72593 -0.42756,-5.48044 -0.38825,-5.75373 0.92904,-6.45872 2.07407,-1.110009 3.03192,-0.37361 3.39121,2.6072 1.88855,15.66797 3.36452,23.52479 6.41026,34.12279 1.03809,3.61214 1.04611,3.98739 0.10541,4.92809 -1.78595,1.78595 -3.87046,0.58646 -7.47278,-4.30003 -4.75593,-6.45138 -12.77411,-16.05543 -15.45156,-18.50765 -5.77194,-5.28642 -15.55234,-11.8118 -16.37294,-10.92384 -0.57573,0.62298 5.33116,21.49596 8.40076,29.68543 1.82929,4.88044 2.14656,6.35403 1.6495,7.66139 -0.67527,1.77608 -2.54787,2.15736 -3.7112,0.75564 z m 73.93051,-14.30336 c -0.27828,-0.42998 -0.53727,-8.80279 -0.57552,-18.60624 -0.043,-11.02085 -0.33668,-18.779361 -0.76942,-20.326146 -0.62934,-2.249518 -0.56807,-2.612 0.60789,-3.596164 3.89735,-3.261712 4.48491,-0.828147 4.36823,18.09248 -0.0549,8.90466 0.15024,15.90003 0.47213,16.09897 0.31309,0.1935 1.79631,-0.33042 3.29605,-1.16424 3.32073,-1.84627 8.54262,-3.23303 9.28621,-2.46612 0.29518,0.30445 0.38217,1.34135 0.19331,2.30422 -0.2666,1.35914 -1.13005,2.15153 -3.86076,3.543 -1.93456,0.98577 -5.04576,2.942 -6.91379,4.34716 -3.49899,2.63202 -5.22411,3.1331 -6.10433,1.77308 z m -30.19141,-1.67879 c -0.35609,-0.66535 -0.64743,-2.78497 -0.64743,-4.71028 0,-3.60965 -0.0283,-3.64788 -3.21447,-4.34179 -3.14504,-0.68495 -2.81069,-3.2669 0.63657,-4.91573 1.57664,-0.7541 1.65685,-1.04893 2.08325,-7.65711 0.47156,-7.30797 1.54614,-14.294376 2.476,-16.097751 0.34382,-0.66679 1.28397,-1.094485 2.40589,-1.094485 2.1205,0 3.00575,1.42974 5.94274,9.597856 0.97045,2.69896 2.10619,5.03834 2.52385,5.19861 0.41767,0.16027 1.81166,-0.14826 3.09775,-0.68563 3.25306,-1.35921 4.06186,-1.24242 4.06186,0.58653 0,1.56962 -1.01279,2.80571 -3.97864,4.85583 l -1.59612,1.1033 2.41189,7.02716 c 1.901,5.53864 2.32535,7.54617 2.00334,9.47746 -0.22469,1.34767 -0.70519,2.5492 -1.06775,2.67004 -1.27632,0.42545 -3.19531,-2.67494 -4.91122,-7.93475 -0.95385,-2.92383 -2.1495,-5.96897 -2.65701,-6.76698 -0.89222,-1.40291 -0.97822,-1.41596 -2.59959,-0.39485 -3.00576,1.89297 -3.28112,2.64653 -2.85111,7.80273 0.43742,5.24503 -0.24154,7.48956 -2.26555,7.48956 -0.66375,0 -1.49817,-0.54438 -1.85425,-1.20972 z m 6.85761,-21.35845 c 0,-1.76588 -1.8063,-5.06735 -2.52831,-4.62113 -0.66062,0.40828 -0.83306,6.10769 -0.20385,6.73692 0.72144,0.72142 2.73216,-0.83569 2.73216,-2.11579 z"
           style="fill:#121212" />
      </g>
    </g>
  </g>
</svg>
